<svg xmlns="http://www.w3.org/2000/svg" width="24" height="24.398" viewBox="0 0 24 24.398">
  <g id="Group_21619" data-name="Group 21619" transform="translate(0 0.199)">
    <path id="Path_56263" data-name="Path 56263" d="M0,0H24V24H0Z" fill="none"/>
    <g id="admin_1_" data-name="admin(1)" transform="translate(-26.193 0)">
      <path id="Union_134" data-name="Union 134" d="M11187.4-46.8h-14.832v-3.249a6.713,6.713,0,0,1,.323-2.059l-2.059-1.972-.06-.056.043-.07,1.376-2.236a8.439,8.439,0,0,1-.377-.916l-2.544-.6-.076-.02v-4.451l.076-.02,2.544-.6a8.169,8.169,0,0,1,.377-.913l-1.368-2.227-.042-.067.057-.056,3.035-3.036.057-.056.067.042,2.228,1.368a8.949,8.949,0,0,1,.912-.379l.6-2.542.02-.076h4.451l.02.076.606,2.542a9.153,9.153,0,0,1,.913.379l2.228-1.368.067-.042.056.056,3.036,3.036.057.056-.043.067-1.37,2.227a8,8,0,0,1,.379.913l2.542.607.079.017v4.451l-.079.02-2.542.6a8.26,8.26,0,0,1-.379.916l1.359,2.21.042.065-.054.056-1.932,2.07a6.651,6.651,0,0,1,.3,1.991V-46.8Zm-1.525-1.626v-1.623a5.068,5.068,0,0,0-.8-2.733,5.047,5.047,0,0,0-4.267-2.334h-1.551a5.045,5.045,0,0,0-4.266,2.334,5.063,5.063,0,0,0-.8,2.733v1.623Zm.57-5.232.017.025.686-.739-1.208-1.966-.027-.042.02-.048.933-2.247.02-.048.048-.011,2.224-.531V-61.15l-2.224-.528-.048-.011-.02-.048-.933-2.25-.02-.048.027-.042,1.2-1.946-1.332-1.334-1.946,1.2-.045.028-.048-.02-2.246-.932-.048-.02-.012-.051-.53-2.222h-1.885l-.528,2.222-.011.051-.048.02-2.25.932-.045.02-.045-.028-1.946-1.2-1.331,1.334,1.2,1.946.028.042-.02.048-.933,2.25-.02.048-.051.011-2.222.528v1.885l2.222.531.051.011.02.048.933,2.247.02.048-.028.042-1.19,1.935.778.744a6.716,6.716,0,0,1,3.294-2.662,4.791,4.791,0,0,1-1.705-3.676,4.827,4.827,0,0,1,4.822-4.822,4.828,4.828,0,0,1,4.822,4.822,4.8,4.8,0,0,1-1.7,3.676A6.722,6.722,0,0,1,11186.442-53.66Zm-6.409-3.143a3.2,3.2,0,0,0,3.2-3.2,3.2,3.2,0,0,0-3.2-3.2,3.2,3.2,0,0,0-3.2,3.2A3.2,3.2,0,0,0,11180.033-56.8Z" transform="translate(-11141.792 70.9)" fill="#47ac28" stroke="#47ac28" stroke-linecap="round" stroke-linejoin="round" stroke-width="0.2"/>
    </g>
  </g>
</svg>
