<svg xmlns="http://www.w3.org/2000/svg" width="24" height="24.2" viewBox="0 0 24 24.2">
  <g id="Group_21619" data-name="Group 21619" transform="translate(0 0.1)">
    <path id="Path_56263" data-name="Path 56263" d="M0,0H24V24H0Z" fill="none"/>
    <g id="admin_1_" data-name="admin(1)" transform="translate(-26.193 0)">
      <path id="Path_63061" data-name="Path 63061" d="M48.886,12.84V8.546l-2.6-.618a8.525,8.525,0,0,0-.417-1l1.4-2.273L44.236,1.614l-2.273,1.4a8.522,8.522,0,0,0-1-.417L40.34,0H36.046l-.618,2.6a8.522,8.522,0,0,0-1,.417l-2.273-1.4L29.114,4.65l1.4,2.273a8.526,8.526,0,0,0-.417,1l-2.6.618V12.84l2.6.618a8.525,8.525,0,0,0,.417,1l-1.406,2.284,2.106,2.017a6.584,6.584,0,0,0-.338,2.085V24H45.607V20.849a6.584,6.584,0,0,0-.316-2.017l1.972-2.113-1.389-2.256a8.527,8.527,0,0,0,.417-1Zm-4.7,9.734H32.3V20.849a5.166,5.166,0,0,1,5.166-5.166h1.55a5.166,5.166,0,0,1,5.166,5.166ZM38.241,14.2a3.3,3.3,0,1,1,3.3-3.3A3.3,3.3,0,0,1,38.241,14.2Zm7.238,2.343-.829.888c-.027-.045-.054-.089-.082-.134a6.565,6.565,0,0,0-3.41-2.683,4.723,4.723,0,1,0-5.834,0,6.564,6.564,0,0,0-3.41,2.683c-.022.034-.043.069-.064.1l-.925-.886,1.233-2-.932-2.248-2.3-.547V9.672l2.3-.547.932-2.248L30.918,4.862l1.444-1.444,2.014,1.239,2.248-.932.547-2.3h2.042l.547,2.3,2.248.932,2.014-1.239,1.444,1.444L44.229,6.876l.932,2.248,2.3.547v2.042l-2.3.547-.932,2.248Z" fill="#515859" stroke="#515859" stroke-linecap="round" stroke-linejoin="round" stroke-width="0.2"/>
    </g>
  </g>
</svg>
