<svg xmlns="http://www.w3.org/2000/svg" xmlns:xlink="http://www.w3.org/1999/xlink" width="645.23" height="611.122" viewBox="0 0 645.23 611.122"><defs><style>.a{fill:none;}.b{fill:#71d154;}.af,.ai,.al,.b,.c,.d,.e,.i,.u,.w,.z{fill-rule:evenodd;}.c,.f{fill:#47ac27;}.d{fill:#f6fbfe;}.e,.g{fill:#fff;}.h,.z{fill:#2d292a;}.ab,.i{fill:#4db02d;}.j{opacity:0.62;}.k{clip-path:url(#a);}.l{clip-path:url(#b);}.m{clip-path:url(#c);}.n{clip-path:url(#d);}.o{clip-path:url(#e);}.p{clip-path:url(#f);}.q{fill:#5d71be;}.r{clip-path:url(#g);}.s{fill:#ffdb7b;}.t,.w{fill:#292526;}.u{fill:#f0f0f2;}.ai,.v{fill:#fcda7e;}.af,.x{fill:#ffb693;}.y{clip-path:url(#k);}.aa{clip-path:url(#m);}.ac{clip-path:url(#o);}.ad{opacity:0;}.ae{clip-path:url(#q);}.ag{clip-path:url(#r);}.ah{clip-path:url(#t);}.aj{clip-path:url(#v);}.ak{clip-path:url(#x);}.al{fill:#fcfdff;}.am{clip-path:url(#z);}.an{clip-path:url(#ab);}</style><clipPath id="a"><rect class="a" width="70.825" height="6.321"/></clipPath><clipPath id="b"><rect class="a" width="43.926" height="6.321"/></clipPath><clipPath id="c"><rect class="a" width="63.085" height="6.319"/></clipPath><clipPath id="d"><rect class="a" width="63.085" height="6.321"/></clipPath><clipPath id="e"><path class="a" d="M886.3,1170.754l.254,58.941,55.9-.354L942.2,1170.4Z" transform="translate(-886.3 -1170.4)"/></clipPath><clipPath id="f"><rect class="a" width="601.693" height="611.111"/></clipPath><clipPath id="g"><rect class="a" width="55.929" height="58.941"/></clipPath><clipPath id="k"><path class="a" d="M1554.716,1586.6l-9.516,101.963,31.8,6.123,17.89-108.085Z" transform="translate(-1545.2 -1586.6)"/></clipPath><clipPath id="m"><path class="a" d="M1851.7,1584.7l17.89,108.085,31.771-6.123-9.516-101.962Z" transform="translate(-1851.7 -1584.7)"/></clipPath><clipPath id="o"><path class="a" d="M1553.9,846.473l-30.426,36.056c-3.7,5.878-5.963,5.687-7,5.5s-.837-.3-.152,2.8c.2.925,6.319,10.939,7.714,12.273,3.857,3.674,11.242.435,13.855-2.34l32.278-35.647c4.872-5.333,3.6-14.994-2.588-19.7a10.818,10.818,0,0,0-6.522-2.313,9.262,9.262,0,0,0-7.156,3.374" transform="translate(-1515.749 -843.099)"/></clipPath><clipPath id="q"><rect class="a" width="17.154" height="50.053"/></clipPath><clipPath id="r"><path class="a" d="M1795.657,760.787s-1.4,12.817-4.492,15.647c-4.8,4.408,25.046,5.306,25.046,5.306s-8.2-1.823-5.05-22.64Z" transform="translate(-1790.644 -759.1)"/></clipPath><clipPath id="t"><path class="a" d="M1663.449,867l54.838,27.457,10.861-24.953a52.673,52.673,0,0,0,4.06-15.4l1.827-17.143c.3-16.381-1.015-24.327-1.015-24.327L1683.04,802.4c-16.8,15.293-21.189,34.205-19.616,64.6" transform="translate(-1663.126 -802.4)"/></clipPath><clipPath id="v"><path class="a" d="M1365.3,851.39l101.1,90.18,25.934-32.79L1390.955,818.3Z" transform="translate(-1365.3 -818.3)"/></clipPath><clipPath id="x"><path class="a" d="M1334.28,841.035l25.655-33.09L1323.8,803.7Z" transform="translate(-1323.8 -803.7)"/></clipPath><clipPath id="z"><path class="a" d="M1783.8,1145.027a3.088,3.088,0,0,0-2.132,1.2l-23.524,30.341a3.541,3.541,0,0,0-.719,2.471,3.455,3.455,0,0,0,1.125,2.291l9.541,8.517a3.006,3.006,0,0,0,2.3.771,3.087,3.087,0,0,0,2.136-1.207l23.549-30.341a3.574,3.574,0,0,0-.406-4.762l-9.542-8.517a3.022,3.022,0,0,0-2-.789h-.3" transform="translate(-1757.413 -1145)"/></clipPath><clipPath id="ab"><path class="a" d="M1875.236,904.956l.127,50.369c-.025,3.782-2.335,23.293,8.729,22.477,1.853-.136,15.378.925,17.712-11.238l1.472-66.614c.3-5.279-7.638-5.633-13.12-6.558a12.6,12.6,0,0,0-2.132-.191c-6.674,0-12.662,5.252-12.789,11.755" transform="translate(-1875.146 -893.2)"/></clipPath></defs><g transform="translate(344.384 285.5)"><g transform="translate(-344.384 -285.5)"><g transform="translate(0)"><path class="b" d="M1612.768,37.2,1562.6,54.915l2.538-15.62Z" transform="translate(-1122.536 -27.077)"/><path class="c" d="M1608.245,10.177,1556.3,0l4.06,12.653Z" transform="translate(-1117.835)"/><path class="b" d="M1565.644,65.727l-2.944,9.742,10-1.5-5.2-8.272Z" transform="translate(-1122.611 -47.822)"/><path class="c" d="M1622,37.3l-39.714,26.477L1574.8,45.055Z" transform="translate(-1131.641 -27.15)"/><path class="d" d="M1838.837,1414.816s122.364-179.162,67.577-235.491c-43.469-44.682-95.389,68.655-98.358,163s30.781,72.492,30.781,72.492" transform="translate(-1305.567 -851.097)"/><path d="M1906.567,1493.915a.254.254,0,0,1-.228-.163l-19.286-53.743a.281.281,0,0,1,.152-.354.252.252,0,0,1,.33.163l19.286,53.743a.291.291,0,0,1-.007.211.261.261,0,0,1-.146.142h-.1" transform="translate(-1364.644 -1047.887)"/><path d="M2012.133,1472.336a.26.26,0,0,1-.292-.231.273.273,0,0,1,.216-.313l43.419-12.463a.241.241,0,0,1,.278.042.285.285,0,0,1,.071.291.257.257,0,0,1-.222.183l-43.419,12.463h-.076" transform="translate(-1457.776 -1062.2)"/><path d="M2016.623,1303.993a.258.258,0,0,1-.228-.191l-12.942-38.995a.281.281,0,0,1,.152-.354.252.252,0,0,1,.33.163l12.942,38.995a.29.29,0,0,1-.007.211.261.261,0,0,1-.146.142h-.076" transform="translate(-1451.507 -920.362)"/><path d="M1847.436,1505.993h-.051a.253.253,0,0,1-.166-.117.289.289,0,0,1-.037-.21c.1-.653,10.734-66.124,29.512-128.113,14.185-46.777,29.208-79.567,44.687-97.391a.248.248,0,0,1,.368-.014.294.294,0,0,1,.013.395c-15.429,17.769-30.426,50.478-44.56,97.2-18.753,61.934-29.386,127.378-29.487,128.031a.259.259,0,0,1-.254.218" transform="translate(-1334.899 -931.743)"/><path class="d" d="M1803.1,1827.921a106.126,106.126,0,0,0-18.281-55.485c-15.3-22.266-39.259-36.735-66.12-36.735-45.144,0-82.092,40.872-84.4,92.221Z" transform="translate(-1176.042 -1263.386)"/><path d="M1746.286,1932.7a.245.245,0,0,1-.178-.082l-46.515-52.873a.294.294,0,0,1,.013-.395.248.248,0,0,1,.368.014l46.515,52.872a.287.287,0,0,1,.053.294.254.254,0,0,1-.231.168" transform="translate(-1224.715 -1367.891)"/><path d="M1690.082,1957.157h-.025l-29.766-2.014a.266.266,0,0,1-.241-.286.261.261,0,0,1,.266-.258l29.766,2.014a.266.266,0,0,1,.241.286.262.262,0,0,1-.266.259" transform="translate(-1195.256 -1422.718)"/><path d="M1755.449,1861.618a.258.258,0,0,1-.254-.218l-7.41-37.688a.277.277,0,0,1,.2-.327.26.26,0,0,1,.3.218l7.41,37.688a.289.289,0,0,1-.037.21.253.253,0,0,1-.166.117h-.051" transform="translate(-1260.725 -1327.206)"/><path d="M1932.142,1829.909a.261.261,0,0,1-.254-.245L1924,1738.7a.269.269,0,0,1,.228-.3.26.26,0,0,1,.279.245l7.892,90.942a.286.286,0,0,1-.056.2.248.248,0,0,1-.172.1h-.025" transform="translate(-1392.223 -1265.347)"/><path d="M1886.51,1771.2a.249.249,0,0,1-.2-.109l-15.479-20.518a.3.3,0,0,1,.038-.395.25.25,0,0,1,.368.041l15.479,20.49a.286.286,0,0,1-.025.381l-.152.054" transform="translate(-1352.505 -1273.881)"/><path d="M1933.329,1760.9h-.1a.282.282,0,0,1-.1-.354l11.343-24.354a.248.248,0,0,1,.343-.123.283.283,0,0,1,.114.367l-11.343,24.354a.254.254,0,0,1-.228.163" transform="translate(-1399.018 -1263.636)"/><path d="M1834.494,1862.286a.254.254,0,0,1-.228-.163l-27.812-78.615a.282.282,0,0,1,.152-.354.252.252,0,0,1,.33.163l27.812,78.615a.29.29,0,0,1-.006.211.262.262,0,0,1-.146.143h-.1" transform="translate(-1304.498 -1297.914)"/><path d="M1683.372,2022.225h-.1l-38.8-19.157a.284.284,0,0,1-.09-.336.249.249,0,0,1,.293-.153l38.8,19.157a.278.278,0,0,1,.138.3.259.259,0,0,1-.24.216" transform="translate(-1183.547 -1457.636)"/><path class="e" d="M2063.234,1621.019s89.451-166.59,39.333-211.326c-39.764-35.484-74.961,67.812-70.495,150.508s31.162,60.818,31.162,60.818" transform="translate(-1472.588 -1020.864)"/><path d="M2089.75,1701.271h-.025a.25.25,0,0,1-.172-.1.284.284,0,0,1-.056-.2c.025-.381,2.715-38.614,9.643-82.533,4.086-25.8,8.805-48.491,14.033-67.458,6.547-23.7,13.932-41.607,21.95-53.172a.243.243,0,0,1,.355-.055.286.286,0,0,1,.051.381c-18.068,26.123-29.487,79.894-35.882,120.385-6.928,43.892-9.618,82.1-9.643,82.479a.261.261,0,0,1-.254.245" transform="translate(-1515.726 -1090.149)"/><path d="M2073.742,1827.911a.251.251,0,0,1-.229-.136l-19.489-37.471a.288.288,0,0,1-.033-.3.252.252,0,0,1,.24-.151.257.257,0,0,1,.225.175l19.489,37.471a.287.287,0,0,1,.026.214.267.267,0,0,1-.127.167h-.127" transform="translate(-1489.213 -1302.805)"/><path d="M2148.744,1799.935a.263.263,0,0,1-.22-.228.277.277,0,0,1,.144-.289l34.359-12.436a.252.252,0,0,1,.3.184.279.279,0,0,1-.145.333l-34.359,12.436h-.076" transform="translate(-1559.773 -1300.708)"/><path d="M2131.709,1638.3a.254.254,0,0,1-.229-.163l-14.16-32a.283.283,0,0,1,.114-.367.247.247,0,0,1,.343.123l14.16,32.028a.28.28,0,0,1-.127.354h-.1" transform="translate(-1536.47 -1168.793)"/><path d="M2209.68,1578.753a.26.26,0,0,1-.24-.216.279.279,0,0,1,.138-.3l26.036-14.014a.247.247,0,0,1,.343.123.284.284,0,0,1-.114.367l-26.036,14.014h-.1" transform="translate(-1605.23 -1138.549)"/><g transform="translate(0 275.405)"><path class="d" d="M124.917,1424.4S-40.84,1242.949,9.507,1167.954c39.942-59.485,116.806,60.192,136.549,167.6s-21.138,88.874-21.138,88.874" transform="translate(0.013 -1152.123)"/><path d="M232.934,1529.121a.257.257,0,0,1-.228-.19c-.152-.49-15.353-48.41-37.76-102.126-20.656-49.553-51.843-114.317-83.031-141.338a.294.294,0,0,1-.038-.395.25.25,0,0,1,.368-.041c13.8,11.973,28.751,32.246,44.434,60.247,12.536,22.4,25.554,49.743,38.724,81.309,22.407,53.743,37.633,101.69,37.785,102.18a.291.291,0,0,1-.007.211.261.261,0,0,1-.146.142h-.076" transform="translate(-83.44 -1248.819)"/><path d="M236.6,1664.2h-.025l-47.783-3.755a.266.266,0,0,1-.241-.286.262.262,0,0,1,.266-.259l47.809,3.755a.266.266,0,0,1,.241.286.261.261,0,0,1-.266.258" transform="translate(-140.698 -1521.724)"/><path d="M309.436,1419.69h-.051a.254.254,0,0,1-.166-.117.288.288,0,0,1-.037-.21l8.273-45.961a.26.26,0,0,1,.3-.218.277.277,0,0,1,.2.327l-8.273,45.961a.258.258,0,0,1-.254.218" transform="translate(-230.716 -1313.026)"/><path d="M116.772,1393.438h-.051l-37.633-8.708a.277.277,0,0,1-.2-.327.26.26,0,0,1,.3-.218l37.633,8.681a.269.269,0,0,1,.228.3.26.26,0,0,1-.279.245" transform="translate(-58.859 -1321.033)"/></g><path d="M563.078,1509.213h-.127a.273.273,0,0,1-.113-.173.288.288,0,0,1,.037-.208l15.809-28.192a.242.242,0,0,1,.323-.06.282.282,0,0,1,.108.332L563.306,1509.1a.25.25,0,0,1-.228.136" transform="translate(-376.471 -1077.661)"/><g transform="translate(120.196 351.074)"><path d="M430.932,1643.471h-.076a.275.275,0,0,1-.178-.326l13.4-54.859a.249.249,0,0,1,.294-.146.271.271,0,0,1,.189.282l-13.4,54.859a.255.255,0,0,1-.254.19" transform="translate(-425.993 -1533.536)"/><path class="e" d="M449.048,1587.014s-69-160.141-18.068-194.755c40.4-27.457,64.2,69.553,52.655,143.515s-34.613,51.24-34.613,51.24" transform="translate(-412.237 -1387.497)"/><path d="M598.178,1674.085l-.127-.054a.273.273,0,0,1-.113-.173.288.288,0,0,1,.037-.208l22.889-38.586a.247.247,0,0,1,.355-.082.288.288,0,0,1,.076.381l-22.889,38.586a.252.252,0,0,1-.2.136" transform="translate(-550.81 -1567.605)"/><path d="M486.686,1621.447h-.127l-31.974-17.035a.283.283,0,0,1-.114-.367.248.248,0,0,1,.343-.122l31.974,17.034a.278.278,0,0,1,.138.3.259.259,0,0,1-.24.216" transform="translate(-443.734 -1545.009)"/><path d="M541.819,1659.727a.263.263,0,0,1-.254-.272c.025-.517,1.345-53.281-4.187-104.656-4.162-38.75-11.039-66.75-20.428-83.186a.282.282,0,0,1,.108-.332.242.242,0,0,1,.323.06c9.44,16.518,16.342,44.573,20.5,83.4,5.532,51.43,4.187,104.221,4.187,104.738a.263.263,0,0,1-.254.272" transform="translate(-490.365 -1448.454)"/></g><g transform="translate(43.714 23.075)"><path class="f" d="M258.027,588.925a.246.246,0,0,1-.178-.082c-2.411-2.612-4.771-5.2-7.055-7.728a.286.286,0,0,1,0-.381.242.242,0,0,1,.355,0l7.055,7.728a.282.282,0,0,1,.076.19.263.263,0,0,1-.254.272m-16.875-18.831a.246.246,0,0,1-.178-.082c-2.335-2.667-4.644-5.333-6.852-7.946a.286.286,0,0,1,.025-.381.242.242,0,0,1,.355.027c2.233,2.612,4.542,5.279,6.852,7.946a.276.276,0,0,1,0,.381l-.178.082M224.809,550.8a.245.245,0,0,1-.2-.082c-2.233-2.721-4.466-5.47-6.623-8.164a.286.286,0,0,1,.025-.381.242.242,0,0,1,.355.027c2.182,2.721,4.39,5.47,6.6,8.164a.31.31,0,0,1,.076.19.283.283,0,0,1-.076.218l-.178.082M209,530.991a.248.248,0,0,1-.2-.109h0c-2.132-2.776-4.263-5.606-6.344-8.408a.285.285,0,0,1,.051-.381.243.243,0,0,1,.355.054c2.081,2.8,4.212,5.606,6.344,8.409a.285.285,0,0,1,.051.163.279.279,0,0,1-.1.218l-.152.054M193.9,510.5a.248.248,0,0,1-.2-.109c-2.03-2.857-4.06-5.8-6.014-8.681a.286.286,0,0,1-.051-.19.274.274,0,0,1,.1-.163.243.243,0,0,1,.355.054c1.954,2.857,3.984,5.8,6.014,8.653a.257.257,0,0,1,.051.163.279.279,0,0,1-.1.218l-.152.054m-14.287-21.116a.248.248,0,0,1-.2-.109c-1.9-2.966-3.806-5.987-5.659-8.953a.288.288,0,0,1,.076-.381.247.247,0,0,1,.355.082c1.852,2.966,3.756,5.987,5.659,8.925a.285.285,0,0,1,.051.163.279.279,0,0,1-.1.218l-.152.054m-13.373-21.8a.253.253,0,0,1-.2-.136c-1.776-3.048-3.553-6.15-5.253-9.225a.289.289,0,0,1-.025-.19.274.274,0,0,1,.1-.163.24.24,0,0,1,.194-.039.255.255,0,0,1,.162.121c1.726,3.075,3.5,6.177,5.253,9.225a.284.284,0,0,1,.051.136.275.275,0,0,1-.127.218l-.127.054m-12.434-22.422a.251.251,0,0,1-.228-.136c-1.624-3.075-3.248-6.259-4.872-9.47a.289.289,0,0,1-.026-.214.269.269,0,0,1,.127-.167.245.245,0,0,1,.33.109c1.624,3.211,3.274,6.395,4.872,9.442a.289.289,0,0,1,.025.136.277.277,0,0,1-.127.245h-.127m-11.546-22.967a.25.25,0,0,1-.228-.136c-1.472-3.048-2.969-6.2-4.568-9.633a.283.283,0,0,1,.114-.367.248.248,0,0,1,.343.122c1.6,3.429,3.1,6.585,4.568,9.633a.289.289,0,0,1,.026.214.269.269,0,0,1-.127.167h-.127m-10.937-23.32a.254.254,0,0,1-.228-.163l-1.472-3.184-3.02-6.531a.32.32,0,0,1,0-.218.255.255,0,0,1,.22-.168.251.251,0,0,1,.236.14l3.045,6.612,1.4,3.075a.26.26,0,0,1,.025.136.277.277,0,0,1-.127.245h-.1m-10.861-23.348a.254.254,0,0,1-.228-.163c-1.624-3.429-3.147-6.585-4.644-9.579a.289.289,0,0,1-.025-.218.258.258,0,0,1,.212-.183.249.249,0,0,1,.245.129c1.472,2.993,2.994,6.15,4.644,9.606a.289.289,0,0,1,.025.136.273.273,0,0,1-.152.245h-.1m-9.871-23.674a.258.258,0,0,1-.254-.218c-.66-3.51-1.218-7.129-1.624-10.694a.286.286,0,0,1,.051-.19.251.251,0,0,1,.178-.109.242.242,0,0,1,.187.06.278.278,0,0,1,.092.185c.406,3.565.939,7.157,1.6,10.667v.054a.269.269,0,0,1-.2.272h-.051m-2.487-25.933a.263.263,0,0,1-.254-.272v-.789c0-3.32.127-6.694.33-10.041a.262.262,0,0,1,.266-.259.266.266,0,0,1,.241.286c-.228,3.32-.33,6.694-.33,9.987v.789a.263.263,0,0,1-.254.272M110.16,299.8h-.051a.269.269,0,0,1-.2-.272v-.054c.584-3.538,1.294-7.1,2.132-10.585a.253.253,0,0,1,.3-.19.275.275,0,0,1,.178.327c-.837,3.51-1.548,7.048-2.132,10.558a.258.258,0,0,1-.254.218m6.319-25.2h-.076a.27.27,0,0,1-.178-.245.317.317,0,0,1,.025-.109c1.142-3.374,2.411-6.776,3.756-10.068a.247.247,0,0,1,.33-.136.28.28,0,0,1,.127.354c-1.345,3.293-2.614,6.667-3.73,10.041a.258.258,0,0,1-.228.19M244.2,254.356a.26.26,0,0,1-.279-.245.269.269,0,0,1,.228-.3,27.47,27.47,0,0,0,9.288-3.837.24.24,0,0,1,.194-.039.255.255,0,0,1,.162.121.283.283,0,0,1,.051.136.275.275,0,0,1-.127.218,28.038,28.038,0,0,1-9.44,3.918h-.051m-14.058-.9h-.1a35.192,35.192,0,0,1-9.135-4.653.273.273,0,0,1-.113-.173.288.288,0,0,1,.037-.208.255.255,0,0,1,.162-.121.24.24,0,0,1,.194.039,34.753,34.753,0,0,0,9.008,4.6.272.272,0,0,1,.178.272v.082a.255.255,0,0,1-.254.19m-103.484-2.612h-.127a.277.277,0,0,1-.127-.245.289.289,0,0,1,.025-.136c1.624-3.157,3.4-6.259,5.2-9.279a.255.255,0,0,1,.162-.121.24.24,0,0,1,.194.039.273.273,0,0,1,.113.173.289.289,0,0,1-.037.208c-1.827,2.993-3.578,6.1-5.2,9.252a.251.251,0,0,1-.228.136m137.158-10.939-.127-.054a.247.247,0,0,1-.1-.163.29.29,0,0,1,.025-.19,36.235,36.235,0,0,0,4.162-9.715.26.26,0,0,1,.292-.231.273.273,0,0,1,.216.313.232.232,0,0,1,0,.082,36.738,36.738,0,0,1-4.238,9.878.248.248,0,0,1-.2.109m-53.163-1.442a.248.248,0,0,1-.2-.109,34.027,34.027,0,0,1-4.669-9.633.29.29,0,0,1,.016-.219.257.257,0,0,1,.162-.135.238.238,0,0,1,.2.007.266.266,0,0,1,.133.156,33.394,33.394,0,0,0,4.568,9.47.285.285,0,0,1,.051.163.279.279,0,0,1-.1.218l-.152.054m-70.469-9.334-.152-.054a.279.279,0,0,1-.1-.218.285.285,0,0,1,.051-.163c2.106-2.83,4.314-5.606,6.572-8.245a.242.242,0,0,1,.355-.027.282.282,0,0,1,.076.191.254.254,0,0,1-.076.19c-2.233,2.612-4.441,5.388-6.547,8.191a.248.248,0,0,1-.2.109m128.581-14.2a.258.258,0,0,1-.254-.218,36.977,36.977,0,0,0-3.2-10.123.289.289,0,0,1-.025-.136.277.277,0,0,1,.127-.245.245.245,0,0,1,.33.109,37.45,37.45,0,0,1,3.3,10.34.257.257,0,0,1-.051.19.254.254,0,0,1-.152.109h-.051m-63.9-1.143h-.025a.266.266,0,0,1-.228-.272h0a53.164,53.164,0,0,1,2.411-10.531.266.266,0,0,1,.133-.156.238.238,0,0,1,.2-.007.259.259,0,0,1,.152.136.29.29,0,0,1,0,.218,52.442,52.442,0,0,0-2.385,10.422.261.261,0,0,1-.254.245m-47.935-3.619a.263.263,0,0,1-.254-.272.283.283,0,0,1,.076-.218c2.538-2.395,5.2-4.708,7.841-6.83a.243.243,0,0,1,.355.054.285.285,0,0,1-.051.381c-2.639,2.122-5.278,4.408-7.816,6.8l-.178.082M176.7,195.089a.251.251,0,0,1-.228-.136.289.289,0,0,1-.025-.136.277.277,0,0,1,.127-.245,97.415,97.415,0,0,1,9.034-4.844.247.247,0,0,1,.33.136.28.28,0,0,1-.127.354,96.333,96.333,0,0,0-8.983,4.816H176.7m79.021-1.007h-.127a74.136,74.136,0,0,0-8.882-5.007.273.273,0,0,1-.152-.245.288.288,0,0,1,.025-.109.247.247,0,0,1,.33-.136,74.741,74.741,0,0,1,8.958,5.034.283.283,0,0,1,.094.292.259.259,0,0,1-.221.2m-42.251-4.436h-.127a.277.277,0,0,1-.127-.245.318.318,0,0,1,.025-.136q2.655-4.642,5.735-8.98a.243.243,0,0,1,.355-.054.285.285,0,0,1,.051.381q-3.05,4.292-5.684,8.9a.251.251,0,0,1-.228.136M199.2,185.266a.255.255,0,0,1-.254-.19v-.082a.269.269,0,0,1,.2-.272,75.344,75.344,0,0,1,9.922-2.041.26.26,0,0,1,.292.231.273.273,0,0,1-.216.313,74.3,74.3,0,0,0-9.871,2.041H199.2m34.105-.952h-.051a65,65,0,0,0-9.947-1.524.266.266,0,0,1-.228-.272h0a.278.278,0,0,1,.092-.185.242.242,0,0,1,.187-.06h0a65.366,65.366,0,0,1,10,1.551.269.269,0,0,1,.228.3.26.26,0,0,1-.279.245m-4.847-15.239a.246.246,0,0,1-.178-.082.276.276,0,0,1,0-.381c2.233-2.531,4.644-5.116,7.156-7.646a.242.242,0,0,1,.355,0,.286.286,0,0,1,0,.381c-2.512,2.531-4.923,5.089-7.156,7.619a.246.246,0,0,1-.178.082m17.916-17.66a.248.248,0,0,1-.2-.109.285.285,0,0,1-.051-.163.279.279,0,0,1,.1-.218c2.563-2.231,5.253-4.463,7.993-6.64a.243.243,0,0,1,.355.054.285.285,0,0,1-.051.381c-2.715,2.177-5.405,4.408-7.968,6.612l-.152.054m19.666-15.4a.248.248,0,0,1-.2-.109.312.312,0,0,1-.051-.136.279.279,0,0,1,.1-.218c2.766-1.959,5.659-3.891,8.552-5.8a.24.24,0,0,1,.276-.035.276.276,0,0,1,.141.257.271.271,0,0,1-.163.241c-2.893,1.878-5.735,3.81-8.526,5.769l-.152.054m20.91-13.388a.263.263,0,0,1-.254-.272.277.277,0,0,1,.127-.245c2.944-1.714,5.963-3.4,8.958-5.007a.245.245,0,0,1,.33.109.28.28,0,0,1-.127.354c-2.994,1.605-6.014,3.293-8.932,5.007h-.127m21.849-11.565a.254.254,0,0,1-.228-.163.288.288,0,0,1-.025-.109.273.273,0,0,1,.152-.245c3.07-1.469,6.192-2.912,9.288-4.245a.238.238,0,0,1,.2.007.266.266,0,0,1,.133.156.29.29,0,0,1-.007.211.261.261,0,0,1-.146.142c-3.1,1.361-6.217,2.776-9.262,4.245h-.1m22.635-9.715a.258.258,0,0,1-.228-.19.315.315,0,0,1-.025-.082.27.27,0,0,1,.178-.245l.964-.354c2.791-1.061,5.684-2.1,8.628-3.048a.239.239,0,0,1,.2.017.27.27,0,0,1,.126.173.29.29,0,0,1-.016.219.257.257,0,0,1-.162.135c-2.918.98-5.811,1.986-8.6,3.048l-.939.354h-.127m23.321-7.483a.258.258,0,0,1-.254-.218v-.054a.269.269,0,0,1,.2-.272c3.223-.844,6.547-1.633,9.846-2.367a.24.24,0,0,1,.2.039.274.274,0,0,1,.109.178.26.26,0,0,1-.025.218.254.254,0,0,1-.152.109c-3.324.735-6.623,1.524-9.821,2.367h-.051m23.828-5.034a.258.258,0,0,1-.254-.218.234.234,0,0,1,0-.054.266.266,0,0,1,.228-.272c3.3-.544,6.674-1.007,10-1.442a.26.26,0,0,1,.279.245.269.269,0,0,1-.228.3c-3.35.408-6.7.9-10,1.415h-.051m82.878-.517h-.051c-3.248-.544-6.623-1.007-10-1.388a.266.266,0,0,1-.228-.272h0a.279.279,0,0,1,.092-.185.242.242,0,0,1,.187-.06h.025c3.375.381,6.75.871,10,1.415a.266.266,0,0,1,.241.286.262.262,0,0,1-.266.259M402.8,86.025a.261.261,0,0,1-.254-.245h0a.266.266,0,0,1,.228-.272c3.35-.245,6.75-.435,10.1-.544a.273.273,0,0,1,0,.544c-3.35.109-6.725.3-10.074.544Zm34.435-.327h-.025c-3.324-.19-6.7-.3-10.074-.354a.273.273,0,0,1,0-.544c3.375.054,6.775.19,10.1.354a.273.273,0,0,1,0,.544" transform="translate(-80.622 -84.8)"/><path class="c" d="M179.7,1814.021c-2.309-51.349-39.257-92.221-84.4-92.221s-82.117,40.872-84.4,92.221Z" transform="translate(-8.311 -1276.343)"/><path class="f" d="M122.886,1918.8a.246.246,0,0,1-.178-.082l-46.514-52.873a.294.294,0,0,1,.013-.395.248.248,0,0,1,.368.014l46.514,52.872a.287.287,0,0,1,.053.294.254.254,0,0,1-.231.169" transform="translate(-56.984 -1380.848)"/><path class="f" d="M66.682,1943.257h-.025l-29.766-2.013a.266.266,0,0,1-.241-.286.261.261,0,0,1,.266-.259l29.766,2.014a.266.266,0,0,1,.241.286.261.261,0,0,1-.266.259" transform="translate(-27.526 -1435.676)"/><path class="f" d="M132.049,1847.818a.258.258,0,0,1-.254-.218l-7.41-37.688a.277.277,0,0,1,.2-.326.26.26,0,0,1,.3.218l7.41,37.688a.289.289,0,0,1-.037.21.253.253,0,0,1-.166.117h-.051" transform="translate(-92.995 -1340.236)"/><path class="f" d="M308.742,1816.083a.261.261,0,0,1-.254-.245L300.6,1724.9a.269.269,0,0,1,.228-.3.26.26,0,0,1,.279.245L309,1815.783a.286.286,0,0,1-.056.2.249.249,0,0,1-.172.1h-.025" transform="translate(-224.493 -1278.378)"/><path class="f" d="M263.11,1757.3a.249.249,0,0,1-.2-.109l-15.479-20.518a.294.294,0,0,1,.038-.395.25.25,0,0,1,.368.041l15.479,20.491a.286.286,0,0,1-.025.381l-.152.054" transform="translate(-184.774 -1286.839)"/><path class="f" d="M309.929,1747.1h-.1a.282.282,0,0,1-.1-.354l11.343-24.354a.248.248,0,0,1,.343-.123.283.283,0,0,1,.114.367l-11.368,24.3a.254.254,0,0,1-.228.163" transform="translate(-231.288 -1276.667)"/><path class="f" d="M211.094,1848.386a.254.254,0,0,1-.228-.163l-27.812-78.615a.282.282,0,0,1,.152-.354.253.253,0,0,1,.33.163l27.812,78.615a.291.291,0,0,1-.007.211.261.261,0,0,1-.146.142h-.1" transform="translate(-136.767 -1310.872)"/><path class="f" d="M59.736,2008.15h-.1l-38.8-19.184a.266.266,0,0,1-.189-.22.281.281,0,0,1,.113-.273.24.24,0,0,1,.279,0l38.825,19.157a.278.278,0,0,1,.138.3.26.26,0,0,1-.239.216" transform="translate(-15.582 -1470.418)"/><path class="f" d="M581.254,2066.144H.954a.273.273,0,0,1,0-.544h580.3a.273.273,0,0,1,0,.544" transform="translate(-0.7 -1526.589)"/></g><rect class="g" width="450.273" height="260.365" transform="translate(144.204 141.42)"/><path class="h" d="M846.2,779.606H395.954a.263.263,0,0,1-.254-.272V518.972a.263.263,0,0,1,.254-.272H846.2a.263.263,0,0,1,.254.272V779.334a.263.263,0,0,1-.254.272m-450.02-.544H845.948V519.244H396.208Z" transform="translate(-251.75 -377.553)"/><path class="h" d="M846.727,657.344H396.454a.273.273,0,0,1,0-.544H846.727a.273.273,0,0,1,0,.544" transform="translate(-252.123 -478.073)"/><path class="i" d="M362.837,740.73c-.208-17.424-13.44-31.431-29.69-31.43H212.89a28.685,28.685,0,0,0-21,9.317,33.017,33.017,0,0,0-8.689,22.521v30.45a33.013,33.013,0,0,0,8.724,22.559,28.675,28.675,0,0,0,21.067,9.279l120.562-.408a28.733,28.733,0,0,0,21.071-9.488,33.085,33.085,0,0,0,8.543-22.73c-.1-9.715-.228-20.354-.33-30.042" transform="translate(-93.174 -516.287)"/><path class="g" d="M318.509,844.744l-64.227-.136a.263.263,0,0,1-.254-.272l-.228-44.464a.263.263,0,0,1,.254-.272l64.227.109a.263.263,0,0,1,.254.272l.228,44.464a.263.263,0,0,1-.254.272m-63.973-.653,63.719.109-.228-43.92-63.719-.109Z" transform="translate(-145.859 -582.015)"/><path class="g" d="M287.791,822.013h-.127l-32.431-20.9a.286.286,0,0,1-.056-.346.246.246,0,0,1,.309-.116l32.3,20.763L318.826,800.9a.246.246,0,0,1,.309.116.286.286,0,0,1-.056.346l-31.162,20.626h-.127" transform="translate(-146.861 -582.767)"/><g class="j" transform="translate(184.856 218.129)"><g class="k"><path class="e" d="M627.725,804.757a3.056,3.056,0,0,0-2.944-3.156H559.844a3.164,3.164,0,0,0,0,6.313h64.937a3.056,3.056,0,0,0,2.944-3.157" transform="translate(-556.9 -801.6)"/></g></g><g class="j" transform="translate(184.856 230.783)"><g class="l"><path class="e" d="M600.826,851.257a3.082,3.082,0,0,0-2.944-3.157H559.843a3.056,3.056,0,0,0-2.944,3.157,3.25,3.25,0,0,0,.855,2.24,2.82,2.82,0,0,0,2.089.916h38.039a2.847,2.847,0,0,0,2.081-.925,3.3,3.3,0,0,0,.863-2.231" transform="translate(-556.9 -848.1)"/></g></g><g class="j" transform="translate(184.856 243.464)"><g class="m"><path class="e" d="M619.985,897.857a3.056,3.056,0,0,0-2.944-3.157h-57.2a3.164,3.164,0,0,0,0,6.313h57.2a3.056,3.056,0,0,0,2.944-3.157" transform="translate(-556.9 -894.7)"/></g></g><g class="j" transform="translate(184.856 256.117)"><g class="n"><path class="e" d="M619.985,944.357a3.056,3.056,0,0,0-2.944-3.157h-57.2a3.164,3.164,0,0,0,0,6.313h57.2a3.056,3.056,0,0,0,2.944-3.157" transform="translate(-556.9 -941.2)"/></g></g><path class="b" d="M886.3,1170.754l55.9-.354.254,58.941-55.9.354Z" transform="translate(-617.855 -851.914)"/></g><g class="o" transform="translate(268.445 318.486)"><path class="h" d="M885.654,1209.689a.273.273,0,0,1,0-.544l55.929-.245a.273.273,0,0,1,0,.544Z" transform="translate(-885.628 -1198.424)"/><path class="g" d="M911.754,1260.489a.273.273,0,0,1,0-.544l42.809-.245a.273.273,0,0,1,0,.544l-42.809.245Z" transform="translate(-905.105 -1235.4)"/><path class="g" d="M911.854,1293.589a.273.273,0,0,1,0-.544l42.809-.245a.273.273,0,0,1,0,.544Z" transform="translate(-905.18 -1259.493)"/><path class="g" d="M912.054,1325.189a.273.273,0,0,1,0-.544l42.809-.245a.273.273,0,0,1,0,.544Z" transform="translate(-905.329 -1282.494)"/></g><g class="p" transform="translate(43.537)"><rect class="q" width="55.929" height="58.941" transform="translate(152.739 318.677)"/></g><g class="r" transform="translate(196.275 318.677)"><path class="h" d="M656.983,1204.753l-55.929-.109a.273.273,0,0,1,0-.544l55.929.109a.273.273,0,0,1,0,.544" transform="translate(-601.079 -1195.12)"/><path class="g" d="M669.763,1260.744h-42.81a.273.273,0,0,1,0-.544h42.81a.273.273,0,0,1,0,.544" transform="translate(-620.407 -1235.954)"/><path class="g" d="M669.763,1293.844h-42.81a.273.273,0,0,1,0-.544h42.81a.273.273,0,0,1,0,.544" transform="translate(-620.407 -1260.047)"/><path class="g" d="M669.763,1325.444h-42.81a.273.273,0,0,1,0-.544h42.81a.273.273,0,0,1,0,.544" transform="translate(-620.407 -1283.048)"/></g><g class="p" transform="translate(43.537)"><rect class="s" width="55.929" height="58.941" transform="translate(79.478 318.677)"/></g><g class="r" transform="translate(123.014 318.677)"><path class="h" d="M368.283,1204.753l-55.929-.109a.273.273,0,0,1,0-.544l55.929.109a.273.273,0,0,1,0,.544" transform="translate(-312.379 -1195.12)"/><path class="g" d="M381.063,1260.744H338.254a.273.273,0,0,1,0-.544h42.809a.273.273,0,0,1,0,.544" transform="translate(-331.707 -1235.954)"/><path class="g" d="M381.063,1293.844H338.254a.273.273,0,0,1,0-.544h42.809a.273.273,0,0,1,0,.544" transform="translate(-331.707 -1260.047)"/><path class="g" d="M381.063,1325.444H338.254a.273.273,0,0,1,0-.544h42.809a.273.273,0,0,1,0,.544" transform="translate(-331.707 -1283.048)"/></g><g class="p" transform="translate(43.537)"><rect class="g" width="236.226" height="95.494" transform="translate(306.442 282.621)"/><path class="t" d="M1443.08,1133.63H1206.854a.264.264,0,0,1-.254-.272v-95.486a.264.264,0,0,1,.254-.272H1443.08a.263.263,0,0,1,.254.272v95.486a.263.263,0,0,1-.254.272m-235.972-.544h235.719v-94.942H1207.107Z" transform="translate(-900.412 -755.251)"/><path class="h" d="M1262.724,1187.617l-.178-.082a.286.286,0,0,1-.025-.381,168.875,168.875,0,0,1,15.378-15.647c8.07-7.157,19.667-15.728,29.132-15.81,7.943-.082,15.961,5.687,24.463,11.783,11.115,7.973,22.635,16.218,35.07,12.272,11.825-3.755,18.271-14.449,24.513-24.763,5.2-8.6,10.1-16.735,17.636-19.157,14.211-4.544,22.077,1.524,29.03,6.912,4.618,3.565,9.008,6.939,14.769,7.129,13.551.381,22.585-14.8,22.686-14.966a.247.247,0,0,1,.355-.082.288.288,0,0,1,.076.381,40.236,40.236,0,0,1-6.293,7.755c-3.578,3.429-9.313,7.456-16.292,7.483h-.533c-5.913-.163-10.354-3.592-15.048-7.211-7.207-5.551-14.642-11.32-28.6-6.83-7.334,2.34-12.206,10.395-17.357,18.939-5.989,9.932-12.79,21.2-24.792,25.008a22.052,22.052,0,0,1-6.7,1.034c-10.1,0-19.565-6.8-28.777-13.388-8.425-6.041-16.418-11.783-24.183-11.7-17.839.19-43.875,30.967-44.129,31.294a.246.246,0,0,1-.178.082" transform="translate(-942.097 -825.592)"/><path class="t" d="M1443.005,1105.444H1206.754a.273.273,0,0,1,0-.544H1442.98a.273.273,0,0,1,0,.544" transform="translate(-900.337 -804.237)"/><rect class="g" width="133.631" height="67.453" transform="translate(308.091 197.176)"/><path class="t" d="M1346.984,791.6h-133.63a.263.263,0,0,1-.254-.272V723.872a.263.263,0,0,1,.254-.272h133.63a.263.263,0,0,1,.254.272V791.33a.263.263,0,0,1-.254.272m-133.377-.544H1346.73V724.144H1213.608Z" transform="translate(-905.263 -526.696)"/><path class="b" d="M1277.682,767.1c11.422,0,20.682,9.929,20.682,22.178s-9.259,22.178-20.682,22.178S1257,801.526,1257,789.278s9.26-22.178,20.682-22.178" transform="translate(-938.022 -558.359)"/><path class="u" d="M1535.088,784.765a3.161,3.161,0,0,0-3.045-3.265h-59.482a3.294,3.294,0,0,0,0,6.5h59.507a3.161,3.161,0,0,0,3.045-3.265" transform="translate(-1096.818 -568.84)"/><path class="u" d="M1535.088,842.165a3.161,3.161,0,0,0-3.045-3.265h-59.482a3.294,3.294,0,0,0,0,6.5h59.507a3.161,3.161,0,0,0,3.045-3.266" transform="translate(-1096.818 -610.621)"/><path class="u" d="M1535.088,899.665a3.161,3.161,0,0,0-3.045-3.265h-59.482a3.294,3.294,0,0,0,0,6.5h59.507a3.161,3.161,0,0,0,3.045-3.266" transform="translate(-1096.818 -652.474)"/><rect class="g" width="109.904" height="52.576" transform="translate(473.29 160.794)"/><path class="t" d="M1974.258,643.017h-109.9a.264.264,0,0,1-.254-.272V590.172a.263.263,0,0,1,.254-.272h109.9a.263.263,0,0,1,.254.272v52.573a.264.264,0,0,1-.254.272m-109.65-.544H1974V590.417h-109.4Z" transform="translate(-1391.064 -429.378)"/><rect class="v" width="10.607" height="37.83" transform="translate(480.877 168.332)"/><rect class="v" width="10.607" height="18.915" transform="translate(497.854 187.244)"/><rect class="v" width="10.607" height="31.487" transform="translate(514.83 174.672)"/><rect class="v" width="10.607" height="6.898" transform="translate(531.782 199.245)"/><rect class="v" width="10.607" height="13.519" transform="translate(548.758 192.632)"/><rect class="v" width="10.607" height="24.082" transform="translate(565.709 182.074)"/><path class="w" d="M1515.7,1778.727a25.148,25.148,0,0,0,7.258,2.8,20.541,20.541,0,0,0,5.126.49c9.161-.327,25.452,2.449,34.613,0,2.284-.626,5-2.993,4.974-4.136l-23.5-11.483Z" transform="translate(-1131.074 -1285.732)"/><path class="x" d="M1545.2,1688.563l31.8,6.123,17.89-108.085h-40.17Z" transform="translate(-1153.089 -1154.858)"/></g><g class="y" transform="translate(435.648 431.742)"><path class="z" d="M1585.93,1805.1l-40.83,1.442,38.749,9.034Z" transform="translate(-1545.125 -1745.642)"/></g><g class="p" transform="translate(43.537)"><path class="g" d="M1438.378,1944.53a21.919,21.919,0,0,1,5.887-2.885c4.542-1.442,11.419-3.51,13.932-4.436,1.675-.6,3.1-3.7,3.984-5.116l2.411-4.844h.025a8.921,8.921,0,0,1,10.2.027l3.172,2.885a6.019,6.019,0,0,0,7.588.218c2.157-1.742,9.212-2.939,12.561-2.776v.218l-.228,27.947s-61.461,2.34-62.451.3c-.685-1.388-.3-3.4-.051-4.871.406-2.313.964-4.952,2.994-6.667" transform="translate(-1070.907 -1401.656)"/><path class="t" d="M1427.6,2027.585v-.844q.025-2.64.051-5.252h.711l62.7-.49h1.294a28.456,28.456,0,0,0-.025,2.966q0,1.17-.025,2.367c-.025,2.068-.1,4-2.055,5.007-1.523.789-3.781.952-5.075-.408-.609-.626-1.218-1.606-2.132-1.633s-1.37.517-1.929,1.2a3.445,3.445,0,0,1-2.715,1.605,3.264,3.264,0,0,1-2.69-1.66c-.609-.789-.99-1.252-1.9-1.252s-1.37.517-1.929,1.2a3.445,3.445,0,0,1-2.715,1.605,3.263,3.263,0,0,1-2.69-1.66c-.609-.789-.99-1.252-1.9-1.252s-1.37.517-1.928,1.2a3.444,3.444,0,0,1-2.715,1.605,3.264,3.264,0,0,1-2.69-1.66c-.609-.789-.99-1.252-1.9-1.252s-1.37.517-1.929,1.2a3.445,3.445,0,0,1-2.715,1.605,3.264,3.264,0,0,1-2.69-1.66c-.609-.789-.99-1.252-1.9-1.252s-1.37.517-1.929,1.2a3.445,3.445,0,0,1-2.715,1.605,3.264,3.264,0,0,1-2.69-1.66c-.609-.789-.99-1.252-1.9-1.252s-1.37.517-1.928,1.2a3.835,3.835,0,0,1-3.5,1.578,4.153,4.153,0,0,1-3.781-4.027" transform="translate(-1065.331 -1471.05)"/><path class="f" d="M1518.1,1914.192s5.507-11.021,7.156-15.973,9.973-4.572,7.867,3.973-6.065,14.123-9.8,14.177-5.227-2.177-5.227-2.177" transform="translate(-1132.866 -1379.345)"/><path class="g" d="M1427.8,2028.068l64.709-.3a.457.457,0,0,0,.3-.752.366.366,0,0,0-.3-.119l-64.709.326a.444.444,0,0,0,0,.844" transform="translate(-1065.254 -1475.342)"/><path class="t" d="M1511.12,1898.618a2.552,2.552,0,0,1,1.9.844c2.233,2.313,2.36,8.572,2.309,11.075-2.36-2.966-6.623-8.953-5.837-11.13.152-.463.584-.708,1.269-.789h.355m4.568,13.47h.127a.431.431,0,0,0,.279-.381c.025-.381.558-9.633-2.512-12.817a3.338,3.338,0,0,0-2.868-1.061,2.049,2.049,0,0,0-1.929,1.333c-1.218,3.347,5.837,11.864,6.623,12.817a.393.393,0,0,0,.3.136" transform="translate(-1125.809 -1381.377)"/><path class="t" d="M1550.787,1912.2a2.651,2.651,0,0,1,1.294.381c.609.354.914.762.888,1.252-.051,2.34-6.09,6.15-9.339,7.918.837-2.34,3.172-8.082,6.065-9.306a2.672,2.672,0,0,1,1.091-.218m-7.867,10.83.178-.054c1.091-.572,10.607-5.578,10.683-9.17a2.217,2.217,0,0,0-1.32-2.014,3.269,3.269,0,0,0-3.045-.19c-3.959,1.714-6.75,10.449-6.877,10.83a.462.462,0,0,0,.055.389.4.4,0,0,0,.325.182" transform="translate(-1151.088 -1391.231)"/><path class="c" d="M1549.753,1048.2,1515.8,1255.989h51.742l23.016-133.691,6.065-65.8Z" transform="translate(-1131.149 -762.966)"/><path class="z" d="M1759.3,1394.277l3.2-75.077,6.649,19.592Z" transform="translate(-1312.858 -960.222)"/><path class="w" d="M1910.37,1778.927a25.144,25.144,0,0,1-7.258,2.8,20.54,20.54,0,0,1-5.126.49c-9.161-.327-25.452,2.449-34.613,0-2.284-.626-5-2.993-4.974-4.136l23.5-11.483Z" transform="translate(-1386.81 -1285.877)"/><path class="x" d="M1901.361,1686.662l-31.771,6.123L1851.7,1584.7h40.145Z" transform="translate(-1381.811 -1153.475)"/></g><g class="aa" transform="translate(513.426 431.225)"><path class="z" d="M1886.7,1803.1l40.8,1.469-38.724,9.034Z" transform="translate(-1877.818 -1743.67)"/></g><g class="p" transform="translate(43.537)"><path class="g" d="M1968.861,1942.63a21.912,21.912,0,0,0-5.887-2.884c-4.542-1.442-11.419-3.51-13.931-4.436-1.675-.6-3.1-3.7-3.984-5.116l-2.411-4.844h-.025a8.92,8.92,0,0,0-10.2.027l-3.172,2.884a6.018,6.018,0,0,1-7.587.218c-2.157-1.741-9.212-2.939-12.561-2.776v.218l.229,27.947s61.461,2.34,62.451.3c.685-1.388.3-3.4.051-4.871-.406-2.313-.964-4.953-2.994-6.667" transform="translate(-1424.645 -1400.272)"/><path class="t" d="M1974.585,2025.685v-.844q-.025-2.64-.051-5.252h-.736l-62.7-.49H1909.8a28.456,28.456,0,0,1,.025,2.966q0,1.17.025,2.367c.025,2.068.1,4,2.055,5.007,1.523.789,3.781.952,5.075-.408.609-.626,1.218-1.605,2.132-1.633s1.37.517,1.929,1.2a3.444,3.444,0,0,0,2.715,1.605,3.264,3.264,0,0,0,2.69-1.66c.609-.789.99-1.252,1.9-1.252s1.37.517,1.929,1.2a3.445,3.445,0,0,0,2.715,1.605,3.264,3.264,0,0,0,2.69-1.66c.609-.789.99-1.252,1.9-1.252s1.37.517,1.928,1.2a3.445,3.445,0,0,0,2.715,1.605,3.264,3.264,0,0,0,2.69-1.66c.609-.789.99-1.252,1.9-1.252s1.37.517,1.929,1.2a3.444,3.444,0,0,0,2.715,1.606,3.264,3.264,0,0,0,2.69-1.66c.609-.789.99-1.252,1.9-1.252s1.37.517,1.928,1.2a3.445,3.445,0,0,0,2.715,1.605,3.264,3.264,0,0,0,2.69-1.66c.609-.789.99-1.252,1.9-1.252s1.37.517,1.929,1.225a3.835,3.835,0,0,0,3.5,1.578,4.153,4.153,0,0,0,3.781-4.027" transform="translate(-1425.167 -1469.667)"/><path class="ab" d="M2029.325,1912.292s-5.507-11.021-7.156-15.973-9.973-4.572-7.866,3.973,6.065,14.1,9.8,14.177,5.227-2.177,5.227-2.177" transform="translate(-1502.898 -1377.962)"/><path class="g" d="M1972.415,2026.1l-64.709-.326a.436.436,0,0,1,0-.871l64.709.326a.444.444,0,0,1,0,.844" transform="translate(-1423.302 -1473.889)"/><path class="t" d="M2059.425,1896.718a2.553,2.553,0,0,0-1.9.843c-2.233,2.313-2.36,8.572-2.309,11.075,2.36-2.966,6.623-8.953,5.836-11.13-.152-.463-.584-.708-1.269-.789h-.355m-4.568,13.47h-.127a.43.43,0,0,1-.279-.381c-.025-.381-.558-9.633,2.512-12.817a3.338,3.338,0,0,1,2.867-1.061,2.049,2.049,0,0,1,1.928,1.333c1.218,3.347-5.836,11.864-6.623,12.817a.393.393,0,0,1-.3.136" transform="translate(-1533.074 -1379.994)"/><path class="t" d="M2008.692,1910.3a2.649,2.649,0,0,0-1.294.381c-.609.354-.914.762-.888,1.252.051,2.34,6.09,6.15,9.338,7.919-.837-2.34-3.172-8.082-6.065-9.306a2.675,2.675,0,0,0-1.091-.218m7.866,10.83-.177-.054c-1.091-.572-10.607-5.578-10.683-9.17a2.217,2.217,0,0,1,1.32-2.014,3.269,3.269,0,0,1,3.045-.19c3.958,1.714,6.75,10.449,6.877,10.83a.461.461,0,0,1-.055.389.4.4,0,0,1-.325.182" transform="translate(-1496.729 -1389.848)"/><path class="c" d="M1774.834,1094l34.715,194.51h-51.767l-22.991-133.691L1723.6,1094.49Z" transform="translate(-1286.218 -796.303)"/><path class="h" d="M1852.925,1187.749h-.025a20.051,20.051,0,0,1-9.948-4.381c-4.72-3.7-10.734-11.293-12.561-26.613a.273.273,0,0,1,.216-.313.26.26,0,0,1,.292.231c1.8,15.1,7.689,22.586,12.307,26.232a19.9,19.9,0,0,0,9.719,4.3.266.266,0,0,1,.241.286.261.261,0,0,1-.266.259" transform="translate(-1365.907 -841.752)"/><path class="z" d="M1756.8,712.848c2.233.735,40.855,1.687,57.984-5.687.584-.245-.812-5.9-2.893-11.1-2.512-6.313-4.238-8.572-4.238-8.572s1.776,2.122,4.466,8.055a63.7,63.7,0,0,1,3.857,10.721c.381,1.66,2.233.762,4.187-4.762a13.283,13.283,0,0,0,.558-4.789,40.834,40.834,0,0,0-4.745-10.041c-2.766-4.109-1.675-2.912-3.4-5.116-.584-.735-.228-.735,3.1,3.946,2.893,4.027,5.837,11.184,5.887,10.558a15.9,15.9,0,0,0-1.5-8.354c-1.015-2.2-3.527-7.4-5.76-10.1-5.38-6.449-11.242-9.2-14.439-13.96-12.46-18.64-10.049-24.79-26.036-26.613-21.95-2.476-31.568,71.023-17.053,75.812" transform="translate(-1305.819 -463.643)"/><path class="x" d="M1567.918,845.408c6.192,4.708,7.46,14.368,2.588,19.7l-32.278,35.647c-2.614,2.776-10,6.014-13.855,2.34-1.4-1.333-7.511-11.347-7.714-12.273-1.523-6.885.406,2.34,7.131-8.3l30.426-36.056c3.426-4.055,9.161-4.517,13.7-1.061" transform="translate(-1131.424 -613.673)"/></g><g class="ac" transform="translate(428.175 229.422)"><path class="t" d="M1584.7,935.4l7.258,29.416,4.415-2.776Z" transform="translate(-1567.203 -910.283)"/></g><g class="p" transform="translate(43.537)"><path class="h" d="M1582.9,838.03l12.155,28.164,33.877-37.715a16.718,16.718,0,0,0,.913-22.64c-5.786-6.857-14.236-5.823-20.25.272Z" transform="translate(-1181.222 -583.11)"/><path class="z" d="M1641.5,899.131s4.314-34.994,6.116-41.09-16.52,49.036-16.52,49.036Z" transform="translate(-1217.191 -624.211)"/><g class="ad" transform="translate(413.656 233.096)"><g class="ae"><path class="h" d="M1630.385,906.694l-.152-.054a.285.285,0,0,1-.076-.3c.051-.136,4.161-12.545,8.247-24.763,2.411-7.184,4.314-12.926,5.71-17.007l1.9-5.606c.812-2.367.812-2.367,1.091-2.259s.2.272.051.816c-1.751,5.987-6.04,40.682-6.09,41.035a.277.277,0,0,1-.1.19l-10.429,7.946-.152.054m15.479-45.688c-3.071,8.98-10.506,31.239-14.972,44.709l9.668-7.374c.279-2.259,3.35-26.912,5.278-37.335" transform="translate(-1630.132 -856.652)"/></g></g><path class="x" d="M1368.5,912.212l2.335-4.544,9.846-6.368,34.892,20.246c.812.544,2.994,1.9,5.228,3.293a13.228,13.228,0,0,1,5.726,8.4,14.056,14.056,0,0,1-1.692,10.243,10.081,10.081,0,0,1-6.742,4.73,9.59,9.59,0,0,1-7.824-2.064c-14.337-11.728-41.236-33.688-41.769-33.96" transform="translate(-1021.228 -656.04)"/><path class="z" d="M1797.7,668.745s.051-15.7,11.242-16.518c22.382-1.633,26.67,28.164,8.323,35.566-21.088,8.517-6.344-1.088-6.344-1.088Z" transform="translate(-1341.514 -474.698)"/><path class="af" d="M1816.137,781.74s-8.2-1.823-5.05-22.64l-15.53,1.714s-1.4,12.817-4.492,15.647c-4.8,4.408,25.046,5.306,25.046,5.306" transform="translate(-1336.174 -552.536)"/></g><g class="ag" transform="translate(497.932 206.564)"><path class="w" d="M1801.4,763.847s11.47.136,13.8-4.68-13.551-6.667-13.551-6.667Z" transform="translate(-1798.67 -754.296)"/></g><g class="p" transform="translate(43.537)"><path class="x" d="M1867.227,739.847c4.542.381,7.41-1.66,7.994-4.3a5.691,5.691,0,0,0-3.959-6.5,5.073,5.073,0,0,0-3.6.381c-.609.163-3.172,10.531-.457,10.422" transform="translate(-1392.465 -530.534)"/><path class="af" d="M1816.675,679.631c.279,4.245.228,26.314-15.048,23.538-4.938-.9-8.418-5.694-8.019-11.048.076-1.088.152-2.177.254-3.156.711-7.755,3.68-14.613,9.465-16.436,2.436-.762,12.891.272,13.323,7.129" transform="translate(-1338.437 -489.367)"/><path class="t" d="M1819.922,730.289h-.051c-.609-.109-1.7-.381-1.979-1.088a1.209,1.209,0,0,1,.178-1.143,29.418,29.418,0,0,0,1.573-4.572.249.249,0,0,1,.294-.146.271.271,0,0,1,.189.282,30.469,30.469,0,0,1-1.624,4.735.649.649,0,0,0-.127.626,3.194,3.194,0,0,0,1.6.762.266.266,0,0,1,.241.286.261.261,0,0,1-.266.259" transform="translate(-1356.529 -526.5)"/><path class="t" d="M1843.938,731.445a.942.942,0,0,1-1.109.776,1.007,1.007,0,0,1-.729-1.186.919.919,0,0,1,1.7-.354,1.066,1.066,0,0,1,.134.764" transform="translate(-1374.632 -531.521)"/><path class="t" d="M1810.138,725.746a.942.942,0,0,1-1.109.776,1.007,1.007,0,0,1-.729-1.186.919.919,0,0,1,1.7-.354,1.067,1.067,0,0,1,.134.764" transform="translate(-1349.409 -527.372)"/><path class="e" d="M1830.971,762.153s-2.741,2.64-4.822.354,2.182-2.34,3.7-2.612,2.36.9,1.117,2.259" transform="translate(-1362.325 -553.085)"/><path class="t" d="M1810.782,714.511a.8.8,0,0,0-.162-.573.7.7,0,0,0-.5-.271,13.9,13.9,0,0,0-2.766-.163c-.71.245-.761,1.361-.051,1.5.254.054,1.776.163,2.69.19a.753.753,0,0,0,.787-.707Z" transform="translate(-1348.303 -519.321)"/><path class="t" d="M1840.2,718.8a.749.749,0,0,1,.28-.532.648.648,0,0,1,.558-.121,17.357,17.357,0,0,1,2.665.571c.634.435.457,1.551-.279,1.5-.254-.027-1.7-.326-2.563-.517a.81.81,0,0,1-.635-.925Z" transform="translate(-1373.229 -522.714)"/><path class="z" d="M1810.263,654.432a10.658,10.658,0,0,0-10.912,3.1,20.973,20.973,0,0,0-5.151,11.429l3.959.735,1.244-2.857v3.1l2.994.571,2.36-5.687.66,6.232,7.435,1.388.761-4.653-.1,4.789,4.314.816,1.852-11.4-.888-1.279a16.011,16.011,0,0,0-8.552-6.286" transform="translate(-1338.902 -476.032)"/><path class="g" d="M1734.216,812.632s1.32,7.946,1.015,24.327L1733.4,854.1a52.645,52.645,0,0,1-4.06,15.4l-10.861,24.953L1663.645,867c-1.548-30.4,2.817-49.308,19.616-64.6Z" transform="translate(-1241.26 -584.053)"/></g><g class="ah" transform="translate(465.573 218.347)"><path class="h" d="M1801.221,928.345a5.539,5.539,0,0,1-1.446-.191l-2.233-.6-.584-.163a6.368,6.368,0,0,1-4.415-7.021l1.193-9.443a.278.278,0,0,1,.1-.2.241.241,0,0,1,.2-.049l13.754,2.367a.27.27,0,0,1,.2.3l-.837,9.252a6.114,6.114,0,0,1-5.887,5.742m-7.029-17.062-1.167,9.17a5.824,5.824,0,0,0,4.035,6.422l.584.163,2.233.6a5.134,5.134,0,0,0,4.442-.882,5.916,5.916,0,0,0,2.283-4.18l.812-9.007Z" transform="translate(-1759.661 -881.214)"/></g><g class="p" transform="translate(43.537)"><path class="ai" d="M1466.4,941.569l-101.1-90.18,25.655-33.089,101.378,90.479Z" transform="translate(-1018.84 -595.626)"/></g><g class="aj" transform="translate(389.996 222.674)"><path class="g" d="M1533.079,947.711l-.152-.054-100.819-89.472a.287.287,0,0,1,0-.36.242.242,0,0,1,.333-.048l100.819,89.472a.284.284,0,0,1,.089.3.256.256,0,0,1-.241.186" transform="translate(-1415.106 -847.001)"/><path class="g" d="M1493.366,993.885l-.152-.055-99.906-89.146a.287.287,0,0,1,0-.36.242.242,0,0,1,.333-.048l99.88,89.146a.284.284,0,0,1,.089.3.256.256,0,0,1-.241.186" transform="translate(-1386.152 -880.847)"/></g><g class="p" transform="translate(43.537)"><path class="e" d="M1334.28,841.035,1323.8,803.7l36.136,4.245Z" transform="translate(-987.871 -584.999)"/></g><g class="ak" transform="translate(379.465 218.701)"><path class="v" d="M0,0,17.929-.595,17.586,9.622l-17.929.595Z" transform="matrix(0.64, -0.768, 0.768, 0.64, -5.391, 7.403)"/></g><g class="p" transform="translate(43.537)"><path class="al" d="M1814.707,1219.814a7.022,7.022,0,0,1-10.277,1.089l-10.43-9.062,23.549-30.341,10.277,8.953a8.07,8.07,0,0,1,2.676,5.352,8.285,8.285,0,0,1-1.661,5.805Z" transform="translate(-1338.753 -859.993)"/><path class="h" d="M1808.247,1222.16a7.255,7.255,0,0,1-4.771-1.823l-10.43-9.062a.286.286,0,0,1-.025-.381l23.549-30.341a.242.242,0,0,1,.355-.027l10.277,8.953a8.346,8.346,0,0,1,2.787,5.543,8.57,8.57,0,0,1-1.722,6.021l-14.135,18.232a7.418,7.418,0,0,1-5.862,2.939m-14.693-11.13,10.227,8.9a6.8,6.8,0,0,0,9.922-1.034l14.134-18.232a8,8,0,0,0,1.6-5.609,7.792,7.792,0,0,0-2.59-5.167l-10.1-8.789Z" transform="translate(-1337.977 -859.237)"/><path class="e" d="M1772.534,1189.549a3.088,3.088,0,0,1-2.136,1.207,3.007,3.007,0,0,1-2.3-.772l-9.541-8.517a3.455,3.455,0,0,1-1.125-2.291,3.54,3.54,0,0,1,.719-2.471l23.549-30.341a3.026,3.026,0,0,1,4.441-.436l9.542,8.517a3.574,3.574,0,0,1,.406,4.762l-23.549,30.341" transform="translate(-1311.45 -833.537)"/></g><g class="am" transform="translate(489.5 311.575)"><path class="t" d="M1788.8,1206.669l-.152-.054a.286.286,0,0,1-.025-.381l27.812-35.321a.241.241,0,0,1,.336,0,.286.286,0,0,1,.045.357L1789,1206.587a.248.248,0,0,1-.2.109" transform="translate(-1780.657 -1163.81)"/><path class="t" d="M1769.4,1190.5l-.152-.054a.286.286,0,0,1-.025-.381l27.812-35.348a.241.241,0,0,1,.336,0,.286.286,0,0,1,.045.357l-27.812,35.321a.248.248,0,0,1-.2.109" transform="translate(-1766.179 -1152.019)"/></g><g class="p" transform="translate(43.537)"><path class="h" d="M1769.4,1190.3a3.313,3.313,0,0,1-2.182-.844l-9.541-8.517a3.789,3.789,0,0,1-1.218-2.476,3.829,3.829,0,0,1,.761-2.667l23.549-30.341a3.362,3.362,0,0,1,2.309-1.306,3.223,3.223,0,0,1,2.487.816l9.541,8.517a3.705,3.705,0,0,1,1.218,2.476,3.857,3.857,0,0,1-.761,2.667L1772.01,1189a3.337,3.337,0,0,1-2.309,1.306h-.3m13.982-45.634h-.279a2.863,2.863,0,0,0-1.979,1.116l-23.524,30.341a3.254,3.254,0,0,0,.381,4.381l9.541,8.517a2.787,2.787,0,0,0,2.132.707,2.84,2.84,0,0,0,1.954-1.116l23.549-30.341a3.285,3.285,0,0,0,.66-2.286,3.149,3.149,0,0,0-1.04-2.123l-9.542-8.517a2.752,2.752,0,0,0-1.852-.708" transform="translate(-1310.723 -832.796)"/><path class="af" d="M1339.378,907.334c1.167-1.007,6.5-4.245,8.4-1.361s-5.405,6.15-7,6.068c-1.117-.054-2.284-3.946-1.4-4.708" transform="translate(-999.262 -658.592)"/><path class="t" d="M1341.128,911.016h-.076a.266.266,0,0,1-.241-.286.262.262,0,0,1,.266-.259c1.193.054,5.075-1.225,6.471-3.32a2.477,2.477,0,0,0,.33-2.34,1.626,1.626,0,0,0-1.04-1.061c-2.309-.789-6.953,2.5-7,2.558a.247.247,0,0,1-.355-.082.288.288,0,0,1,.076-.381c.2-.136,4.9-3.456,7.435-2.612a2.123,2.123,0,0,1,1.345,1.361,3.026,3.026,0,0,1-.381,2.857c-1.5,2.231-5.405,3.538-6.8,3.538" transform="translate(-999.541 -657.348)"/><path class="af" d="M1328.678,888.051c1.573-1.17,8.653-4.98,10.861-2.2s-7.943,7.293-9.465,6.939c-1.878-.435-2.588-3.864-1.4-4.735" transform="translate(-991.074 -644.071)"/><path class="af" d="M1342.323,884.9s3.5-.027,3.071,2.612-7.562,5.225-9.694,5.47Z" transform="translate(-996.752 -644.103)"/><path class="t" d="M1334.916,892.526a.261.261,0,0,1-.266-.258.266.266,0,0,1,.241-.286c2.056-.218,9.059-2.776,9.465-5.225a1.638,1.638,0,0,0-.279-1.361,3.662,3.662,0,0,0-2.537-.952.273.273,0,0,1,0-.544,4.176,4.176,0,0,1,2.944,1.143,2.21,2.21,0,0,1,.406,1.8c-.482,2.912-8.019,5.47-9.922,5.687h-.025" transform="translate(-995.967 -643.375)"/><path class="af" d="M1319.9,866.956c3.045-2.068,11.039-5.551,13.145-2.014s-9.846,7.483-11.648,7.483-2.918-4.49-1.5-5.469" transform="translate(-984.481 -628.472)"/><path class="t" d="M1325.568,871.766a.261.261,0,0,1-.266-.258.266.266,0,0,1,.241-.286c.711-.109,9.8-2.395,11.369-5.469a1.678,1.678,0,0,0,.076-1.524,2,2,0,0,0-1.193-1.116c-3.2-1.225-10.506,2.585-10.582,2.64a.248.248,0,0,1-.343-.122.283.283,0,0,1,.114-.367c.3-.163,7.562-3.946,10.962-2.667a2.547,2.547,0,0,1,1.5,1.388,2.257,2.257,0,0,1-.1,2.014c-1.726,3.347-10.937,5.633-11.749,5.742h-.025" transform="translate(-988.65 -627.676)"/><path class="af" d="M1312.15,849.094c2.664-1.932,9.694-5.089,11.673-1.524s-8.577,7.048-10.176,6.993-2.74-4.544-1.5-5.469" transform="translate(-978.784 -615.753)"/><path class="t" d="M1317.2,853.976a.262.262,0,0,1-.266-.259.266.266,0,0,1,.241-.286c.609-.082,8.349-1.932,9.871-4.789a1.88,1.88,0,0,0,.1-1.687,2.113,2.113,0,0,0-1.269-1.225c-2.969-1.116-9.11,2.259-9.161,2.286a.248.248,0,0,1-.343-.122.283.283,0,0,1,.114-.367c.254-.136,6.395-3.51,9.567-2.313a2.636,2.636,0,0,1,1.573,1.524,2.43,2.43,0,0,1-.127,2.177c-1.7,3.156-9.567,4.98-10.252,5.061h-.025" transform="translate(-982.307 -615.029)"/><path class="x" d="M1890.057,893.415c-7.46-1.279-14.794,4.381-14.921,11.565l.127,50.369c-.025,3.782-2.335,23.293,8.729,22.477,1.852-.136,15.378.925,17.712-11.239l1.5-66.614c.3-5.279-7.638-5.633-13.12-6.558" transform="translate(-1399.232 -650.169)"/></g><g class="an" transform="translate(519.375 243.055)"><path class="t" d="M1893.945,1052.992l-28.345,6.2.508-9.8Z" transform="translate(-1868.022 -1006.895)"/></g><g class="p" transform="translate(43.537)"><path class="g" d="M1898.652,899.922l-30.553-1.034-.711-44.3a15.056,15.056,0,0,1,14.464-15.783c8.628-.49,13.7,4.109,15.327,10.014,2.791,10.177,1.472,51.1,1.472,51.1" transform="translate(-1393.515 -610.525)"/><path class="h" d="M1899.932,967.037,1869.354,966a.264.264,0,0,1-.254-.272l.888-34.858a.254.254,0,1,1,.507,0l-.888,34.586,30.3,1.007a.273.273,0,0,1,0,.544" transform="translate(-1394.795 -677.367)"/><path class="x" d="M1730.5,1141.274l2.208-8.953-3.908-14.014,36.516-12.844c1.243-.326,5.1-1.551,8.247-2.558a11.705,11.705,0,0,1,9.77,1.333c3.6,2.259,7.892,5.823,9.009,10.313a12.229,12.229,0,0,1-1.235,8.949,10.788,10.788,0,0,1-6.885,5.228c-14.82,3.429-53.137,12.272-53.721,12.517" transform="translate(-1290.098 -802.406)"/><path class="x" d="M1701.479,1173.91l-11.47,3.1c-1.624.435-5.989.762-5.913.027s-.2-1.769,1.193-1.85a2.927,2.927,0,0,1-3.248-1.932c-.761-2.34,2.335-3.347,2.335-3.347s-3.147.844-3.806-1.66c-.457-1.742.66-3.755,2.182-3.891,0,0-4.568-2.83-1.675-4.218,3.883-1.85,15.048-6.041,15.048-6.041Z" transform="translate(-1253.769 -840.049)"/><path class="x" d="M1679.716,1225.472l-5.557,1.959c-6.014,2.123-16.621,4.027-21.113-3.265-1.345-2.15,23.524-2.966,23.524-2.966Z" transform="translate(-1233.528 -888.89)"/><path class="x" d="M1650.852,1216.564s-15.784,1.878-14.947-4.653c.482-3.728,13.373-.6,13.373-.6Z" transform="translate(-1220.752 -880.799)"/><path class="x" d="M1695.531,1145.725s4.72-6.912,1.776-6.177c-9.947,2.422-23.245-6.885-23.955-3.973-1.8,7.456,17.611,11.783,17.89,14.858s4.289-4.708,4.289-4.708" transform="translate(-1248.633 -826.15)"/><path class="x" d="M1652.3,1167.258s-9.465.109-11.242-.327c-2.614-.653-9.389-1.17-9.617,1.2-.406,4.572,5.177,4.055,7.917,4.68,2.03.463,5.3.9,4.923,2.422s.152.49.152.49,1.269-.435,1.573-1.252,8.273.435,8.273.435Z" transform="translate(-1217.427 -848.99)"/><path class="x" d="M1643.581,1192.662a5.417,5.417,0,0,0-3.426-2.395c-2.182-.326-14.414-2.83-15.276-.789-2.335,5.524,12.739,5.878,13.982,6.721s6.065.789,6.065.789Z" transform="translate(-1212.365 -865.223)"/><path class="t" d="M1637.443,1202.225l-.863-.054c-10.429-1.415-11.064-4.98-11.089-5.116a.273.273,0,0,1,.216-.313.26.26,0,0,1,.292.231c0,.054.71,3.32,10.632,4.653a5.779,5.779,0,0,0,1.4.027l6.293-.68.051.544-6.293.68h-.66" transform="translate(-1213.003 -871.085)"/><path class="t" d="M1646.892,1224.349H1646l-1.117-.082c-2.69-.136-7.207-.408-9.262-4.163a.288.288,0,0,1-.033-.3.252.252,0,0,1,.239-.151.256.256,0,0,1,.225.175c1.9,3.51,6.242,3.755,8.856,3.891l1.142.082a34.479,34.479,0,0,0,6.877-.68.26.26,0,0,1,.3.218.277.277,0,0,1-.2.326,39.578,39.578,0,0,1-6.116.735" transform="translate(-1220.523 -887.767)"/><path class="e" d="M1689.9,307.687l169.842.952s.3-59.158-55.142-45.144c0,0-34.334-32.736-66.891,6.395,0,0-48.874-12.545-47.783,37.824" transform="translate(-1261.069 -182.459)"/><path class="e" d="M254.722,182.866l148.907-2.34s13.3-45.906-34.892-46.069c0,0-31.8-34.749-60.091,10.422,0,0-56.792-17.035-53.95,37.988" transform="translate(-189.987 -88.578)"/></g></g></g></svg>