<svg xmlns="http://www.w3.org/2000/svg" width="138.335" height="63.389" viewBox="0 0 138.335 63.389"><defs><style>.a{fill:#7a8081;}.b{fill:#fff;}.c{fill:#515859;}</style></defs><g transform="translate(226.2 103.665)"><g transform="translate(-226.2 -103.665)"><path class="a" d="M16.953,31,.2,47.753V70.284H39.484V31Z" transform="translate(-0.139 -21.523)"/><path class="b" d="M45.285,88.612A10.211,10.211,0,0,1,41.8,86.869L43.115,83.6a11.159,11.159,0,0,0,6.756,2.14,4.818,4.818,0,0,0,2.476-.52,1.681,1.681,0,0,0,.856-1.5,1.529,1.529,0,0,0-.581-1.284,5.8,5.8,0,0,0-2.109-.825l-3.027-.673a7.534,7.534,0,0,1-3.791-1.9,4.555,4.555,0,0,1-1.253-3.332,4.922,4.922,0,0,1,.948-3A6.237,6.237,0,0,1,46.08,70.7a10.272,10.272,0,0,1,3.974-.7,12.048,12.048,0,0,1,3.793.612,10.547,10.547,0,0,1,3.239,1.711L55.771,75.5a9.768,9.768,0,0,0-5.747-2.079A4.273,4.273,0,0,0,47.609,74a1.8,1.8,0,0,0-.856,1.59,1.59,1.59,0,0,0,.55,1.253,3.883,3.883,0,0,0,1.743.764l3.149.7a8.111,8.111,0,0,1,4.035,1.9,4.647,4.647,0,0,1,1.284,3.424,4.769,4.769,0,0,1-2.079,4.066,9.442,9.442,0,0,1-5.625,1.5,15.989,15.989,0,0,1-4.525-.611" transform="translate(-29.021 -48.594)"/><rect class="c" width="39.315" height="39.299" transform="translate(33.292 24.09)"/><path class="b" d="M145.956,132.517a8.1,8.1,0,0,1-3.3-3.363,11.732,11.732,0,0,1,0-10.18,8.132,8.132,0,0,1,3.3-3.332,11.128,11.128,0,0,1,9.936,0,8.01,8.01,0,0,1,3.271,3.332,11.732,11.732,0,0,1,0,10.18,7.979,7.979,0,0,1-3.271,3.363,11.128,11.128,0,0,1-9.936,0m8.438-4a6.939,6.939,0,0,0,1.223-4.463,6.807,6.807,0,0,0-1.223-4.433,4.737,4.737,0,0,0-6.97,0,6.961,6.961,0,0,0-1.223,4.433,7.1,7.1,0,0,0,1.223,4.463,4.242,4.242,0,0,0,3.485,1.5,4.331,4.331,0,0,0,3.516-1.5" transform="translate(-98.234 -79.476)"/><path class="c" d="M0,47.814,16.814,31V47.814Z" transform="translate(0 -21.523)"/><rect class="a" width="39.315" height="39.299" transform="translate(66.554)"/><path class="b" d="M267.88,50.619v3.546H251.8V50.894l10.027-11.648h-9.844V35.7h15.5v3.21L257.364,50.619Z" transform="translate(-174.822 -24.786)"/><rect class="c" width="39.315" height="39.299" transform="translate(99.02 19.657)"/><path class="b" d="M360.956,117.117a8.1,8.1,0,0,1-3.3-3.363,11.732,11.732,0,0,1,0-10.18,8.132,8.132,0,0,1,3.3-3.332,11.128,11.128,0,0,1,9.936,0,8.01,8.01,0,0,1,3.271,3.332,11.732,11.732,0,0,1,0,10.18,7.979,7.979,0,0,1-3.271,3.363,11.128,11.128,0,0,1-9.936,0m8.438-4a6.939,6.939,0,0,0,1.223-4.463,6.807,6.807,0,0,0-1.223-4.433,4.737,4.737,0,0,0-6.97,0,6.961,6.961,0,0,0-1.223,4.433,7.1,7.1,0,0,0,1.223,4.463,4.242,4.242,0,0,0,3.485,1.5,4.332,4.332,0,0,0,3.516-1.5" transform="translate(-247.506 -68.784)"/></g></g></svg>