<svg xmlns="http://www.w3.org/2000/svg" width="42" height="41" viewBox="0 0 42 41"><defs><style>.a{fill:none;stroke:#202225;stroke-width:2px;}.b{fill:#202225;}.c,.d{stroke:none;}.d{fill:#202225;}</style></defs><g transform="translate(0 0)"><path class="a" d="M12222.5,6325.467h-16.062v30.919h-17.262" transform="translate(-12184.269 -6320.693)"/><g class="b" transform="translate(42 0) rotate(90)"><path class="c" d="M 10.19098472595215 10.5 L 0.8090149760246277 10.5 L 5.5 1.118029952049255 L 10.19098472595215 10.5 Z"/><path class="d" d="M 5.5 2.236069679260254 L 1.618035316467285 10 L 9.381964683532715 10 L 5.5 2.236069679260254 M 5.5 0 L 11 11 L 0 11 L 5.5 0 Z"/></g><g class="b" transform="translate(0 41) rotate(-90)"><path class="c" d="M 10.19098472595215 10.5 L 0.8090149760246277 10.5 L 5.5 1.118029952049255 L 10.19098472595215 10.5 Z"/><path class="d" d="M 5.5 2.236069679260254 L 1.618035316467285 10 L 9.381964683532715 10 L 5.5 2.236069679260254 M 5.5 0 L 11 11 L 0 11 L 5.5 0 Z"/></g></g></svg>