<svg xmlns="http://www.w3.org/2000/svg" width="91" height="91" viewBox="0 0 91 91">
  <g id="Group_18931" data-name="Group 18931" transform="translate(814 -16625)">
    <circle id="Ellipse_1461" data-name="Ellipse 1461" cx="45.5" cy="45.5" r="45.5" transform="translate(-814 16625)" fill="#39be3d"/>
    <path id="phone-call_1_" data-name="phone-call (1)" d="M35.647,25.483a22.107,22.107,0,0,1-6.942-1.1,2.98,2.98,0,0,0-3.021.64l-4.4,3.316a24.549,24.549,0,0,1-10.922-10.92l3.229-4.29a3.082,3.082,0,0,0,.756-3.117,22.132,22.132,0,0,1-1.11-6.952A3.055,3.055,0,0,0,10.185,0H3.055A3.055,3.055,0,0,0,0,3.055,35.688,35.688,0,0,0,35.647,38.7,3.055,3.055,0,0,0,38.7,35.647V28.538A3.055,3.055,0,0,0,35.647,25.483Z" transform="translate(-787.851 16652.148)" fill="#fff"/>
  </g>
</svg>
