<svg xmlns="http://www.w3.org/2000/svg" width="91" height="91" viewBox="0 0 91 91">
  <g id="Group_18933" data-name="Group 18933" transform="translate(814 -16625)">
    <circle id="Ellipse_1461" data-name="Ellipse 1461" cx="45.5" cy="45.5" r="45.5" transform="translate(-814 16625)" fill="#fff"/>
    <path id="Union_129" data-name="Union 129" d="M0,6.518A3.588,3.588,0,0,1,3.586,2.926h8.366a3.588,3.588,0,0,1,3.585,3.591,26.074,26.074,0,0,0,1.3,8.171,3.625,3.625,0,0,1-.887,3.663l-3.788,5.043A28.834,28.834,0,0,0,24.981,36.229l5.158-3.9a3.491,3.491,0,0,1,3.544-.752,25.928,25.928,0,0,0,8.146,1.3,3.588,3.588,0,0,1,3.586,3.591v8.356a3.589,3.589,0,0,1-3.586,3.591A41.912,41.912,0,0,1,0,6.518ZM36.2,17.55V11.232H29.894V6.318H36.2V0h4.907V6.318h6.308v4.914H41.108V17.55Z" transform="translate(-795.208 16649.293)" fill="#137ef9"/>
  </g>
</svg>
