<svg xmlns="http://www.w3.org/2000/svg" width="24.649" height="24.649" viewBox="0 0 24.649 24.649"><defs><style>.a{fill:#b8b8b8;}</style></defs><path class="a" d="M97.128,429.648H95.163a2.172,2.172,0,0,1-2.124-1.742L92.857,427H85.992l-.181.906a2.172,2.172,0,0,1-2.124,1.741H81.722a.722.722,0,0,0,0,1.444H97.128a.722.722,0,0,0,0-1.444Z" transform="translate(-77.1 -406.443)"/><path class="a" d="M22.482,0H2.166A2.169,2.169,0,0,0,0,2.166v14.78a2.169,2.169,0,0,0,2.166,2.166H22.482a2.169,2.169,0,0,0,2.166-2.166V2.166A2.169,2.169,0,0,0,22.482,0ZM20.99,15.983H7.751v.241a.722.722,0,0,1-1.444,0v-.241H3.659a.722.722,0,0,1,0-1.444H6.307V14.3a.722.722,0,0,1,1.444,0v.241H20.99a.722.722,0,0,1,0,1.444Z"/></svg>