<svg xmlns="http://www.w3.org/2000/svg" width="13.584" height="16.282" viewBox="0 0 13.584 16.282"><defs><style>.a{fill:#62AF49;}</style></defs><g transform="translate(0)"><path class="a" d="M90.953,7.843a3.794,3.794,0,0,0,2.773-1.149,3.794,3.794,0,0,0,1.149-2.773,3.8,3.8,0,0,0-1.149-2.773,3.921,3.921,0,0,0-5.545,0,3.8,3.8,0,0,0-1.149,2.773,3.794,3.794,0,0,0,1.149,2.773,3.8,3.8,0,0,0,2.773,1.149Zm0,0" transform="translate(-84.031 0)"/><path class="a" d="M13.551,251.971a9.686,9.686,0,0,0-.132-1.029,8.105,8.105,0,0,0-.253-1.034,5.108,5.108,0,0,0-.425-.965,3.64,3.64,0,0,0-.641-.836,2.827,2.827,0,0,0-.921-.579A3.183,3.183,0,0,0,10,247.316a1.194,1.194,0,0,0-.637.27c-.191.125-.415.269-.664.428a3.8,3.8,0,0,1-.859.379,3.336,3.336,0,0,1-2.1,0,3.8,3.8,0,0,1-.858-.378c-.247-.158-.471-.3-.665-.428a1.192,1.192,0,0,0-.637-.27,3.179,3.179,0,0,0-1.176.213,2.825,2.825,0,0,0-.921.579,3.641,3.641,0,0,0-.641.836,5.119,5.119,0,0,0-.425.965,8.125,8.125,0,0,0-.253,1.034,9.653,9.653,0,0,0-.132,1.029c-.022.312-.033.635-.033.961a2.7,2.7,0,0,0,.8,2.045,2.891,2.891,0,0,0,2.069.755h7.84a2.89,2.89,0,0,0,2.069-.755,2.7,2.7,0,0,0,.8-2.046c0-.328-.011-.652-.033-.962Zm0,0" transform="translate(0 -239.451)"/></g></svg>