<svg xmlns="http://www.w3.org/2000/svg" width="166" height="166" viewBox="0 0 166 166"><defs><style>.a,.d{fill:none;}.a{stroke:#137ef9;stroke-linecap:round;stroke-width:2px;stroke-dasharray:5;}.b{fill:#137ef9;}.c{stroke:none;}</style></defs><g class="a"><rect class="c" width="166" height="166" rx="15"/><rect class="d" x="1" y="1" width="164" height="164" rx="14"/></g><g transform="translate(45.632 51.461)"><g transform="translate(58.167 34.227)"><g transform="translate(0 0)"><path class="b" d="M404.274,273.32h-5.78a15.035,15.035,0,0,1,.911,5.168v21.844a6.441,6.441,0,0,1-.371,2.158h9.555a6.48,6.48,0,0,0,6.473-6.473V284.108A10.8,10.8,0,0,0,404.274,273.32Z" transform="translate(-398.494 -273.32)"/></g></g><g transform="translate(0 34.227)"><g transform="translate(0 0)"><path class="b" d="M15.657,278.489a15.034,15.034,0,0,1,.911-5.168h-5.78A10.8,10.8,0,0,0,0,284.109v11.908a6.48,6.48,0,0,0,6.473,6.473h9.555a6.444,6.444,0,0,1-.371-2.158Z" transform="translate(0 -273.321)"/></g></g><g transform="translate(19.973 28.606)"><g transform="translate(0 0)"><path class="b" d="M160.831,234.815H147.617A10.8,10.8,0,0,0,136.829,245.6v21.844a2.158,2.158,0,0,0,2.158,2.158h30.475a2.158,2.158,0,0,0,2.158-2.158V245.6A10.8,10.8,0,0,0,160.831,234.815Z" transform="translate(-136.829 -234.815)"/></g></g><g transform="translate(24.393)"><path class="b" d="M180.089,38.84a12.972,12.972,0,1,0,12.974,12.975A12.989,12.989,0,0,0,180.089,38.84Z" transform="translate(-167.114 -38.84)"/></g><g transform="translate(4.882 12.093)"><g transform="translate(0 0)"><path class="b" d="M43.146,121.689a9.7,9.7,0,1,0,9.7,9.7A9.714,9.714,0,0,0,43.146,121.689Z" transform="translate(-33.443 -121.689)"/></g></g><g transform="translate(50.447 12.093)"><g transform="translate(0 0)"><path class="b" d="M355.31,121.689a9.7,9.7,0,1,0,9.7,9.7A9.714,9.714,0,0,0,355.31,121.689Z" transform="translate(-345.607 -121.689)"/></g></g></g></svg>