<svg xmlns="http://www.w3.org/2000/svg" width="140" height="72" viewBox="0 0 140 72">
  <g id="Group_21678" data-name="Group 21678" transform="translate(-981 -179)">
    <rect id="Rectangle_6532" data-name="Rectangle 6532" width="140" height="72" rx="8" transform="translate(981 179)" fill="#f8f8f8"/>
    <path id="Path_63059" data-name="Path 63059" d="M14.053,2.849h3.859L11.368-15.378H7.117L.572,2.849H4.405L5.6-.619h7.249Zm-2.19-6.389H6.6l2.634-7.614Zm28.71,6.389h3.651V-5.625c0-3.99-2.451-6.18-5.919-6.18A5.72,5.72,0,0,0,33.35-9.041a5.529,5.529,0,0,0-5.085-2.764,5.26,5.26,0,0,0-4.25,1.956V-11.6H20.364V2.849h3.651V-5.13c0-2.295,1.278-3.494,3.26-3.494,1.93,0,3.207,1.2,3.207,3.494V2.849h3.651V-5.13c0-2.295,1.278-3.494,3.233-3.494,1.93,0,3.207,1.2,3.207,3.494ZM53.9-8.833a3.21,3.21,0,0,1,3.442,3.1H50.482A3.355,3.355,0,0,1,53.9-8.833Zm6.858,7.145H56.818A2.977,2.977,0,0,1,53.924.059a3.38,3.38,0,0,1-3.468-3.338H61.017a8.533,8.533,0,0,0,.1-1.408A6.782,6.782,0,0,0,54-11.832c-4.276,0-7.249,2.894-7.249,7.458C46.753.163,49.8,3.084,54,3.084A6.714,6.714,0,0,0,60.756-1.688Zm11,4.537h4.12L71.082-4.4l4.746-7.2H71.917l-2.66,4.459L66.31-11.6H62.19l4.772,7.2-4.72,7.249h3.911l2.634-4.485Z" transform="translate(1012.089 221.378)" fill="#d9d9d9"/>
  </g>
</svg>
