<svg xmlns="http://www.w3.org/2000/svg" width="140" height="72" viewBox="0 0 140 72">
  <g id="Group_21679" data-name="Group 21679" transform="translate(-806 -179)">
    <rect id="Rectangle_6532" data-name="Rectangle 6532" width="140" height="72" rx="8" transform="translate(806 179)" fill="#f8f8f8"/>
    <g id="mastercard" transform="translate(849.163 199)">
      <path id="Subtraction_7" data-name="Subtraction 7" d="M38.05,32.043a15.824,15.824,0,0,1-10.1-3.57,17.153,17.153,0,0,0,4.526-7.4H31.171a15.627,15.627,0,0,1-4.18,6.618,16.473,16.473,0,0,1-4.18-6.618h-1.3a17.147,17.147,0,0,0,4.527,7.4A16,16,0,0,1,4.669,4.713,15.825,15.825,0,0,1,25.948,3.57a17.154,17.154,0,0,0-4.529,7.4h1.307a16.431,16.431,0,0,1,4.179-6.618,16.417,16.417,0,0,1,4.18,6.618h1.307a16.3,16.3,0,0,0-4.529-7.4A15.845,15.845,0,0,1,37.964,0,16.023,16.023,0,0,1,49.316,27.33,15.775,15.775,0,0,1,38.05,32.043ZM39.792,19.5h0l.174.348h1.48l.611-3.222a2.3,2.3,0,0,0-.264-1.989,2.447,2.447,0,0,0-2-.71,1.723,1.723,0,0,0-.507-.057,9,9,0,0,0-1.409.145l-.261,1.306h.01c.211,0,.549-.039.907-.08h.008c.4-.046.808-.092,1.08-.092h.263a.8.8,0,0,1,.626.178.719.719,0,0,1,.068.606h0c-.041,0-.1,0-.179-.008-.14-.009-.331-.02-.553-.02-1.73,0-2.772.733-3.011,2.12a1.5,1.5,0,0,0,.335,1.235,1.812,1.812,0,0,0,1.318.593,1.943,1.943,0,0,0,1.3-.348Zm-27.167,0h0l.174.348h1.479l.61-3.222a2.293,2.293,0,0,0-.261-1.987,2.447,2.447,0,0,0-2-.712,2.271,2.271,0,0,0-.545-.057,8.7,8.7,0,0,0-1.369.145l-.263,1.306h.01c.208,0,.541-.038.895-.079h.013c.4-.046.811-.093,1.085-.093h.269c.256,0,.54.015.672.193a.668.668,0,0,1,.019.592c-.04,0-.1,0-.18-.008-.141-.009-.332-.02-.555-.02-1.731,0-2.772.733-3.011,2.12A1.5,1.5,0,0,0,10,19.261a1.814,1.814,0,0,0,1.318.592,1.944,1.944,0,0,0,1.3-.348ZM4,14.628l.436,5.137h1.48l2.26-5.039h0l-.958,5.039H8.881l1.393-7.139h-2.7L5.66,16.979l-.349-4.354H2.787l-1.4,7.139H2.959Zm45.192,4.7h0l.174.432h1.741l1.393-7.487H50.852l-.435,2.264a2.185,2.185,0,0,1-.255-.235,1.208,1.208,0,0,0-.964-.462h-.318c-.7,0-2,0-2.73,2.527a3.074,3.074,0,0,0,.4,2.686,1.615,1.615,0,0,0,1.254.709,3.3,3.3,0,0,0,1.38-.427l.011-.006Zm-5.835-5.486-1.132,5.919h1.656l.523-2.7c.5-1.654,1.168-1.654,1.53-1.654h.124l.436-1.567a2.03,2.03,0,0,0-1.567.608l-.175-.608Zm-7.906-1.573a3.914,3.914,0,0,0-3.5,2.966,3.8,3.8,0,0,0,.459,3.438,2.85,2.85,0,0,0,2.24,1.089,3.982,3.982,0,0,0,1.916-.347l-.435-1.479a3.174,3.174,0,0,1-.946.159,1.57,1.57,0,0,1-1.237-.5,2.027,2.027,0,0,1-.343-1.662,2.146,2.146,0,0,1,1.916-1.914,1.954,1.954,0,0,1,1.22.261l1.043-1.046a2.678,2.678,0,0,0-2.177-.957C35.563,12.274,35.511,12.272,35.456,12.272Zm-9.77,1.573c-2.785,0-2.959,2.93-2.959,2.96a2.9,2.9,0,0,0,.539,2.044,2.578,2.578,0,0,0,2.16.916,7.167,7.167,0,0,0,2.091-.261l.261-1.218a8.668,8.668,0,0,1-1.83.174,1.7,1.7,0,0,1-1.282-.355,1.168,1.168,0,0,1-.2-.952h3.4v-.008a3.26,3.26,0,0,0-.3-2.617A2.324,2.324,0,0,0,25.686,13.845ZM20.9,12.364l-1.22,5.574a1.6,1.6,0,0,0,.271,1.349,1.462,1.462,0,0,0,1.035.478A1.963,1.963,0,0,0,22.2,19.5l.172-1.3a1.841,1.841,0,0,1-.349.039.552.552,0,0,1-.449-.164.68.68,0,0,1-.071-.571l.434-2.352h.785l.261-1.22h-.872l.35-1.567Zm-5.66,5.921L14.975,19.5a7.817,7.817,0,0,0,1.916.175h.154c1.009,0,2.254-.287,2.459-1.653a1.366,1.366,0,0,0-.465-1.426L19,16.562l-.019-.018c-.128-.064-.266-.15-.412-.241a2.931,2.931,0,0,0-.72-.369.621.621,0,0,1-.365-.531c.01-.11.082-.257.365-.337a4.009,4.009,0,0,0,.716.089,7.086,7.086,0,0,1,.763.083l.349-1.218a4.918,4.918,0,0,0-1.567-.263c-.511,0-2.2.1-2.438,1.395-.254,1.1.144,1.552.522,1.74a7.682,7.682,0,0,1,.917.479l.005,0c.133.079.259.153.383.215a.452.452,0,0,1,.27.513.433.433,0,0,1-.445.357c-.039,0-.1,0-.167,0h-.007c-.114,0-.27.009-.444.009a4.786,4.786,0,0,1-1.47-.188Z" transform="translate(0 0)" fill="#d9d9d9"/>
      <g id="Group_236" data-name="Group 236" transform="translate(11.281 14.977)">
        <path id="Path_512" data-name="Path 512" d="M224.8,239.445h2c.087-.61-.087-1.045-.7-1.045a1.235,1.235,0,0,0-1.306,1.045" transform="translate(-211.613 -238.4)" fill="#d9d9d9"/>
        <path id="Path_513" data-name="Path 513" d="M105.516,258.044a2.1,2.1,0,0,0-1.393.174c-.522.348-.7.958-.087,1.132a1.184,1.184,0,0,0,1.393-.7l.087-.61" transform="translate(-103.649 -255.867)" fill="#d9d9d9"/>
        <path id="Path_514" data-name="Path 514" d="M440.721,242.146a2.059,2.059,0,0,0-.087-1.48c-.522-.7-1.654-.174-2,1.132-.261.871.261,1.48.784,1.48.609,0,.958-.435,1.306-1.132" transform="translate(-402.108 -240.143)" fill="#d9d9d9"/>
        <path id="Path_515" data-name="Path 515" d="M355.916,258.044a2.105,2.105,0,0,0-1.393.174c-.522.348-.7.958-.087,1.132a1.141,1.141,0,0,0,1.393-.7l.087-.61" transform="translate(-326.794 -255.867)" fill="#d9d9d9"/>
      </g>
      <path id="Path_516" data-name="Path 516" d="M256,234.634l1.132-5.834h1.393l.174.61a2.034,2.034,0,0,1,1.567-.61l-.435,1.567c-.348,0-1.132-.087-1.655,1.654l-.522,2.7H256" transform="translate(-228.136 -214.868)" fill="#d9d9d9"/>
      <g id="Group_237" data-name="Group 237" transform="translate(0.87)">
        <path id="Path_517" data-name="Path 517" d="M23.151,100.8A15.982,15.982,0,0,0,8,111.772H28.724a17.072,17.072,0,0,1,4.528-7.4A16.769,16.769,0,0,0,23.151,100.8Z" transform="translate(-8 -100.8)" fill="#d9d9d9"/>
        <path id="Path_518" data-name="Path 518" d="M213.78,141.6a15.927,15.927,0,0,0-4.18,6.618h8.359A16.5,16.5,0,0,0,213.78,141.6Z" transform="translate(-187.657 -137.159)" fill="#d9d9d9"/>
        <path id="Path_519" data-name="Path 519" d="M266.1,100.8a15.871,15.871,0,0,0-10.1,3.57,17.073,17.073,0,0,1,4.528,7.4h20.724A15.819,15.819,0,0,0,266.1,100.8Z" transform="translate(-229.007 -100.8)" fill="#d9d9d9"/>
      </g>
    </g>
  </g>
</svg>
