<svg xmlns="http://www.w3.org/2000/svg" width="31" height="31" viewBox="0 0 31 31"><defs><style>.a,.b{fill:none;}.b{stroke:#2c3e50;stroke-linecap:round;stroke-linejoin:round;stroke-width:2.5px;}</style></defs><path class="a" d="M0,0H31V31H0Z"/><line class="b" x2="21" transform="translate(4.975 9)"/><line class="b" y2="8" transform="translate(12.975 14)"/><line class="b" y2="8" transform="translate(17.975 14)"/><path class="b" d="M5,7,6.292,22.5a2.583,2.583,0,0,0,2.583,2.583H19.208A2.583,2.583,0,0,0,21.792,22.5L23.083,7" transform="translate(1.458 2.042)"/><path class="b" d="M9,8.167V4.292A1.292,1.292,0,0,1,10.292,3h5.167A1.292,1.292,0,0,1,16.75,4.292V8.167" transform="translate(2.625 0.875)"/></svg>