<svg xmlns="http://www.w3.org/2000/svg" width="41.787" height="14.526" viewBox="0 0 41.787 14.526"><defs><style>.a{fill:#d5d7d7;}</style></defs><path class="a" d="M43.2,187.057h1.459l-.73-1.857Z" transform="translate(-39.618 -183.475)"/><path class="a" d="M241.057,187.666a1.293,1.293,0,0,0-.531-.066H239.2v1.061h1.327a1.293,1.293,0,0,0,.531-.066.516.516,0,0,0,.2-.464A.369.369,0,0,0,241.057,187.666Z" transform="translate(-219.368 -185.676)"/><path class="a" d="M35.883,164.4v.8l-.4-.8H32.368v.8l-.4-.8H27.725a4.038,4.038,0,0,0-1.857.4v-.4H22.883v.4a1.912,1.912,0,0,0-1.26-.4H10.944l-.73,1.658-.73-1.658H6.1v.8l-.4-.8H2.852l-1.327,3.118L0,170.967H3.383l.4-1.061h.929l.4,1.061H8.954v-.8l.332.8h1.924l.332-.8v.8h9.22v-1.725h.133c.133,0,.133,0,.133.2V170.9H25.8v-.4a3.974,3.974,0,0,0,1.791.4h1.99l.4-1.061h.929l.4,1.061h3.847v-.995l.6.995h3.117v-6.5Zm-22.419,5.572H12.337v-3.648l-1.592,3.648H9.75l-1.592-3.648v3.648H5.9l-.464-.995H3.184l-.4,1.061H1.526l1.99-4.709H5.174l1.857,4.444v-4.444H8.822l1.459,3.184,1.327-3.184h1.857Zm4.51-3.648H15.388v.862h2.52v.929h-2.52v.929h2.587v.995H14.261v-4.709h3.714Zm4.975,1.924a1.66,1.66,0,0,1,.2.862v.929H22.021v-.6a1.58,1.58,0,0,0-.2-.929c-.2-.2-.4-.2-.8-.2H19.832v1.725H18.7v-4.709h2.52a2.543,2.543,0,0,1,1.327.2,1.13,1.13,0,0,1,.531,1.061,1.32,1.32,0,0,1-.8,1.26A1.262,1.262,0,0,1,22.949,168.247Zm1.99,1.725H23.812v-4.709h1.128Zm13.067,0H36.414l-2.122-3.516v3.516H32.036l-.4-.995H29.317l-.4,1.061h-1.26a1.994,1.994,0,0,1-2.189-2.322,2.719,2.719,0,0,1,.6-1.857,2.091,2.091,0,0,1,1.658-.531h1.061v.995H27.725a1.223,1.223,0,0,0-.862.265,1.558,1.558,0,0,0-.332,1.061,1.443,1.443,0,0,0,.332,1.128,1.057,1.057,0,0,0,.8.265h.464l1.526-3.648h1.658l1.857,4.444v-4.444h1.658l1.924,3.25v-3.25h1.128v4.577Z" transform="translate(0 -164.4)"/><g transform="translate(16.715 1.725)"><path class="a" d="M358.4,187.057h1.526l-.73-1.857Z" transform="translate(-345.4 -185.2)"/><path class="a" d="M203.325,280.981V277.2l-1.725,1.857Z" transform="translate(-201.6 -269.572)"/></g><path class="a" d="M136.8,282.8v.862h2.454v.929H136.8v.995h2.719l1.26-1.393-1.194-1.393Z" transform="translate(-125.458 -272.983)"/><path class="a" d="M237.393,282.8H236v1.194h1.459c.4,0,.663-.2.663-.6A.669.669,0,0,0,237.393,282.8Z" transform="translate(-216.433 -272.983)"/><path class="a" d="M143.435,263.385V260.4H140.65a2.176,2.176,0,0,0-1.393.4v-.4h-3.051a2.1,2.1,0,0,0-1.327.4v-.4h-5.373v.4a2.564,2.564,0,0,0-1.459-.4h-3.582v.4a2.517,2.517,0,0,0-1.526-.4h-3.98l-.929.995-.862-.995H111.2v6.5h5.837l.929-.995.862.995h3.582v-1.526h.464a4.035,4.035,0,0,0,1.526-.2v1.791h2.985v-1.725h.133c.2,0,.2,0,.2.2v1.526h9.021a2.6,2.6,0,0,0,1.526-.4v.4h2.852a2.979,2.979,0,0,0,1.592-.332h0a2.258,2.258,0,0,0,1.061-1.99A2.54,2.54,0,0,0,143.435,263.385Zm-20.562,1.061h-1.327v1.592h-2.122l-1.327-1.526-1.393,1.526h-4.378v-4.709h4.444l1.327,1.526,1.393-1.526h3.515c.862,0,1.857.265,1.857,1.526C124.8,264.181,123.869,264.446,122.874,264.446Zm6.633-.265a1.5,1.5,0,0,1,.2.862v.929h-1.128v-.6a1.481,1.481,0,0,0-.2-.929c-.133-.2-.4-.2-.8-.2h-1.194v1.725h-1.128v-4.709h2.52a2.671,2.671,0,0,1,1.327.2,1.173,1.173,0,0,1,.6,1.061,1.321,1.321,0,0,1-.8,1.26A1.134,1.134,0,0,1,129.507,264.181Zm4.577-1.924H131.5v.862h2.52v.929H131.5v.929h2.587v.995h-3.714v-4.709h3.714Zm2.786,3.714h-2.122v-.995h2.122a.56.56,0,0,0,.464-.133.481.481,0,0,0,0-.663.561.561,0,0,0-.4-.133c-1.061-.066-2.321,0-2.321-1.459,0-.663.4-1.393,1.592-1.393h2.189v1.128h-2.056a.984.984,0,0,0-.464.066c-.133.066-.133.2-.133.332,0,.2.133.265.265.332a.841.841,0,0,0,.4.066h.6a1.689,1.689,0,0,1,1.26.4,1.373,1.373,0,0,1,.332.995C138.593,265.507,138,265.972,136.869,265.972Zm5.7-.464a1.934,1.934,0,0,1-1.393.464h-2.122v-.995h2.122a.56.56,0,0,0,.464-.133.481.481,0,0,0,0-.663.561.561,0,0,0-.4-.133c-1.061-.066-2.321,0-2.321-1.459,0-.663.4-1.393,1.592-1.393h2.189v1.128h-1.99a.984.984,0,0,0-.464.066c-.133.066-.133.2-.133.332,0,.2.066.265.265.332a.841.841,0,0,0,.4.066h.6a1.689,1.689,0,0,1,1.26.4.065.065,0,0,1,.066.066,1.523,1.523,0,0,1,.265.929A1.35,1.35,0,0,1,142.573,265.507Z" transform="translate(-101.98 -252.441)"/><path class="a" d="M297.057,283.666a1.292,1.292,0,0,0-.531-.066H295.2v1.061h1.327a1.294,1.294,0,0,0,.531-.066.517.517,0,0,0,.2-.464A.369.369,0,0,0,297.057,283.666Z" transform="translate(-270.725 -273.717)"/><g transform="translate(16.715 1.725)"><path class="a" d="M241.057,187.666a1.293,1.293,0,0,0-.531-.066H239.2v1.061h1.327a1.293,1.293,0,0,0,.531-.066.516.516,0,0,0,.2-.464A.369.369,0,0,0,241.057,187.666Z" transform="translate(-236.083 -187.401)"/><path class="a" d="M358.4,187.057h1.526l-.73-1.857Z" transform="translate(-345.4 -185.2)"/><path class="a" d="M203.325,280.981V277.2l-1.725,1.857Z" transform="translate(-201.6 -269.572)"/></g><g transform="translate(19.567 9.817)"><path class="a" d="M237.393,282.8H236v1.194h1.459c.4,0,.663-.2.663-.6A.669.669,0,0,0,237.393,282.8Z" transform="translate(-236 -282.8)"/></g><g transform="translate(24.475 9.883)"><path class="a" d="M297.057,283.666a1.292,1.292,0,0,0-.531-.066H295.2v1.061h1.327a1.294,1.294,0,0,0,.531-.066.517.517,0,0,0,.2-.464A.369.369,0,0,0,297.057,283.666Z" transform="translate(-295.2 -283.6)"/></g><g transform="translate(0 0)"><path class="a" d="M122.476,265.839l-.929-.995v1.128h-2.189l-1.327-1.526-1.459,1.526h-4.378v-4.643h4.444l1.393,1.526.663-.8-1.658-1.658H111.2v6.5h5.837l.995-.995.862.995h3.582Z" transform="translate(-101.98 -252.441)"/><path class="a" d="M13.6,170.9l-.862-.929h-.4v-.4l-.995-.995-.663,1.393H9.75l-1.592-3.648v3.648H5.9l-.464-.995H3.184l-.464.995H1.526l1.99-4.643H5.174l1.857,4.444v-4.444h.995L7.1,164.4H6.1v.8l-.332-.8H2.852l-1.327,3.118L0,170.9H3.449l.4-.995h.929l.464.995H8.954v-.8l.332.8h1.924l.332-.8v.8Z" transform="translate(0 -164.4)"/><path class="a" d="M115.461,194.261,114.4,193.2l.8,1.725Z" transform="translate(-104.915 -190.812)"/></g><g transform="translate(6.566 0.066)"><path class="a" d="M200.666,264.368a2.426,2.426,0,0,0,1.061-1.791l-.929-.929a1.963,1.963,0,0,1,.133.663,1.35,1.35,0,0,1-.4.995,1.934,1.934,0,0,1-1.393.464h-2.122v-.995h2.122a.56.56,0,0,0,.464-.133.481.481,0,0,0,0-.663.561.561,0,0,0-.4-.133c-1.061-.066-2.321,0-2.321-1.459,0-.663.4-1.26,1.393-1.393l-.73-.73c-.133.066-.2.133-.265.133V258h-3.051a2.1,2.1,0,0,0-1.327.4V258h-5.439v.4a2.564,2.564,0,0,0-1.459-.4h-3.582v.4a2.517,2.517,0,0,0-1.526-.4h-3.98l-.929.995L175.13,258h-.73l1.99,1.99.995-1.061H180.9c.862,0,1.857.265,1.857,1.526,0,1.327-.929,1.592-1.923,1.592h-1.327v.995l.995.995v-.995h.332a4.034,4.034,0,0,0,1.526-.2v1.791h2.985v-1.725h.133c.2,0,.2,0,.2.2v1.526H194.7a2.6,2.6,0,0,0,1.526-.4v.4h2.852a2.632,2.632,0,0,0,1.592-.265Zm-13.2-2.388a1.505,1.505,0,0,1,.2.862v.929h-1.128v-.6a1.481,1.481,0,0,0-.2-.929c-.133-.2-.4-.2-.8-.2h-1.194v1.725h-1.128v-4.709h2.52a2.671,2.671,0,0,1,1.327.2,1.173,1.173,0,0,1,.6,1.061,1.321,1.321,0,0,1-.8,1.26A1.134,1.134,0,0,1,187.467,261.98Zm4.577-1.924h-2.587v.862h2.52v.929h-2.52v.929h2.587v.995h-3.714v-4.709h3.714Zm2.786,3.714h-2.122v-.995h2.122a.56.56,0,0,0,.464-.133.481.481,0,0,0,0-.663.561.561,0,0,0-.4-.133c-1.061-.066-2.321,0-2.321-1.459,0-.663.4-1.393,1.592-1.393h2.189v1.128H194.3a.984.984,0,0,0-.464.066c-.133.066-.133.2-.133.332,0,.2.133.265.265.332a.841.841,0,0,0,.4.066h.6a1.689,1.689,0,0,1,1.26.4,1.373,1.373,0,0,1,.332.995C196.554,263.306,195.957,263.771,194.829,263.771Z" transform="translate(-166.507 -250.306)"/><path class="a" d="M459.2,284c0,.2.066.265.265.332a.842.842,0,0,0,.4.066h.6a1.926,1.926,0,0,1,.929.2l-.995-.995h-.6a.983.983,0,0,0-.464.066A.507.507,0,0,0,459.2,284Z" transform="translate(-427.694 -273.783)"/><path class="a" d="M431.2,240.4l.133.2h.066Z" transform="translate(-402.016 -234.165)"/><path class="a" d="M387.2,196.4l1.128,2.72v-1.592Z" transform="translate(-361.664 -193.813)"/><path class="a" d="M93.394,169.976h.133c.133,0,.133,0,.133.2v1.459h4.776v-.4a3.973,3.973,0,0,0,1.791.4h1.99l.4-1.061h.929l.4,1.061h3.847v-.663l-.929-.929v.73H104.6l-.332-1.061h-2.321l-.4,1.061h-1.26A1.994,1.994,0,0,1,98.1,168.45a2.719,2.719,0,0,1,.6-1.857,2.091,2.091,0,0,1,1.658-.531h1.061v.995h-1.061a1.223,1.223,0,0,0-.862.265,1.558,1.558,0,0,0-.332,1.061,1.443,1.443,0,0,0,.332,1.128,1.057,1.057,0,0,0,.8.265h.464l1.526-3.648h.663l-.929-.929h-1.725a4.038,4.038,0,0,0-1.857.4v-.4H95.517v.4a1.912,1.912,0,0,0-1.26-.4H83.578l-.73,1.658-.73-1.658H79.2l.929.929h1.327l1.128,2.454.4.4,1.194-2.919h1.857v4.709H84.9v-3.648l-1.128,2.653L85.7,171.7h7.628Zm3.051-3.913h1.128v4.709H96.445Zm-5.837.995H88.022v.862h2.52v.929h-2.52v.929h2.587v.995H86.894v-4.709h3.714Zm1.857,3.648H91.338V166h2.52a2.543,2.543,0,0,1,1.327.2,1.13,1.13,0,0,1,.531,1.061,1.32,1.32,0,0,1-.8,1.26.868.868,0,0,1,.531.4,1.66,1.66,0,0,1,.2.862v.929H94.522v-.6a1.58,1.58,0,0,0-.2-.929c-.066-.133-.265-.133-.663-.133H92.466v1.658Z" transform="translate(-79.2 -165.2)"/></g></svg>