<svg xmlns="http://www.w3.org/2000/svg" width="64.277" height="10.989" viewBox="0 0 64.277 10.989"><defs><style>.a{fill:#d5d7d7;}</style></defs><ellipse class="a" cx="5.391" cy="5.391" rx="5.391" ry="5.391" transform="translate(28.717 0.104)"/><path class="a" d="M221.6,175.391a5.391,5.391,0,1,1,5.391,5.391" transform="translate(-192.883 -169.896)"/><path class="a" d="M234.4,171.555a5.352,5.352,0,0,1,7.568,7.568" transform="translate(-204.024 -169.896)"/><path class="a" d="M2.9,172.4H0v10.16H2.9a5.624,5.624,0,0,0,3.629-1.14A5.127,5.127,0,0,0,8.4,177.48C8.4,174.473,6.22,172.4,2.9,172.4Zm2.384,7.672a3.985,3.985,0,0,1-2.7.829H1.97v-6.739h.518a3.518,3.518,0,0,1,2.7.829,3.312,3.312,0,0,1,1.14,2.488A3.1,3.1,0,0,1,5.287,180.072Z" transform="translate(0 -171.985)"/><rect class="a" width="1.97" height="10.16" transform="translate(9.331 0.415)"/><path class="a" d="M97.747,175.643c-1.244-.415-1.555-.726-1.555-1.244a1.312,1.312,0,0,1,1.451-1.14,2.006,2.006,0,0,1,1.659.829l1.037-1.348a4.517,4.517,0,0,0-3.007-1.14,3.042,3.042,0,0,0-3.214,2.9c0,1.451.622,2.074,2.488,2.8a4.031,4.031,0,0,1,1.348.622,1.14,1.14,0,0,1,.622,1.037,1.445,1.445,0,0,1-1.555,1.451,2.418,2.418,0,0,1-2.177-1.348L93.6,180.309a4.066,4.066,0,0,0,3.525,1.97,3.269,3.269,0,0,0,3.525-3.318C100.65,177.2,100.028,176.473,97.747,175.643Z" transform="translate(-81.47 -171.289)"/><path class="a" d="M152.8,174.695a5.267,5.267,0,0,0,5.391,5.287,5.865,5.865,0,0,0,2.488-.622v-2.385a3.223,3.223,0,0,1-2.384,1.14,3.35,3.35,0,0,1-3.421-3.525,3.39,3.39,0,0,1,3.318-3.525,3.269,3.269,0,0,1,2.488,1.14v-2.385a5.21,5.21,0,0,0-2.488-.622A5.73,5.73,0,0,0,152.8,174.695Z" transform="translate(-132.998 -169.2)"/><path class="a" d="M306.473,179.242l-2.7-6.842H301.6l4.251,10.471h1.14l4.458-10.471h-2.177Z" transform="translate(-262.515 -171.985)"/><path class="a" d="M384,182.56h5.7V180.9h-3.629v-2.8H389.6V176.34h-3.525v-2.177H389.7V172.4H384Z" transform="translate(-334.237 -171.985)"/><g transform="translate(0 0.415)"><path class="a" d="M442.651,178.309a2.736,2.736,0,0,0,2.384-2.9c0-1.866-1.348-3.007-3.629-3.007H438.4v10.16h1.97v-4.043h.311l2.8,4.043h2.384Zm-1.659-1.244h-.622v-3.11h.622c1.244,0,1.97.518,1.97,1.555S442.236,177.065,440.992,177.065Z" transform="translate(-381.587 -172.4)"/><path class="a" d="M2.9,172.4H0v10.16H2.9a5.624,5.624,0,0,0,3.629-1.14A5.127,5.127,0,0,0,8.4,177.48C8.4,174.473,6.22,172.4,2.9,172.4Zm2.384,7.672a3.985,3.985,0,0,1-2.7.829H1.97v-6.739h.518a3.518,3.518,0,0,1,2.7.829,3.312,3.312,0,0,1,1.14,2.488A3.1,3.1,0,0,1,5.287,180.072Z" transform="translate(0 -172.4)"/></g><g transform="translate(9.331 0.415)"><rect class="a" width="1.97" height="10.16" transform="translate(0 0)"/></g><g transform="translate(12.13 0.311)"><path class="a" d="M97.747,175.643c-1.244-.415-1.555-.726-1.555-1.244a1.312,1.312,0,0,1,1.451-1.14,2.006,2.006,0,0,1,1.659.829l1.037-1.348a4.517,4.517,0,0,0-3.007-1.14,3.042,3.042,0,0,0-3.214,2.9c0,1.451.622,2.074,2.488,2.8a4.031,4.031,0,0,1,1.348.622,1.14,1.14,0,0,1,.622,1.037,1.445,1.445,0,0,1-1.555,1.451,2.418,2.418,0,0,1-2.177-1.348L93.6,180.309a4.066,4.066,0,0,0,3.525,1.97,3.269,3.269,0,0,0,3.525-3.318C100.65,177.2,100.028,176.473,97.747,175.643Z" transform="translate(-93.6 -171.6)"/><path class="a" d="M158.969,189.731a5.864,5.864,0,0,0,2.488-.622v-2.384a3.223,3.223,0,0,1-2.384,1.14,3.35,3.35,0,0,1-3.421-3.525,3.877,3.877,0,0,1,1.037-2.592l-1.348-1.348a5.4,5.4,0,0,0-1.762,3.94A5.171,5.171,0,0,0,158.969,189.731Z" transform="translate(-145.803 -179.26)"/></g><path class="a" d="M442.651,178.309a2.736,2.736,0,0,0,2.384-2.9c0-1.866-1.348-3.007-3.629-3.007H438.4v10.16h1.97v-4.043h.311l2.8,4.043h2.384Zm-1.659-1.244h-.622v-3.11h.622c1.244,0,1.97.518,1.97,1.555S442.236,177.065,440.992,177.065Z" transform="translate(-381.587 -171.985)"/><g transform="translate(39.085 0.415)"><path class="a" d="M387.94,211.54h-1.866v-1.866L384,207.6v5.6h5.6Z" transform="translate(-373.322 -203.038)"/><path class="a" d="M308.753,173.437l-2.281,5.806-2.7-6.842H301.6l4.251,10.471h1.14l3.318-7.879Z" transform="translate(-301.6 -172.4)"/></g></svg>