<svg xmlns="http://www.w3.org/2000/svg" width="140" height="72" viewBox="0 0 140 72">
  <g id="Group_21682" data-name="Group 21682" transform="translate(-1157 -179)">
    <g id="Rectangle_6532" data-name="Rectangle 6532" transform="translate(1157 179)" fill="#fff" stroke="#46ab27" stroke-width="1">
      <rect width="140" height="72" rx="8" stroke="none"/>
      <rect x="0.5" y="0.5" width="139" height="71" rx="7.5" fill="none"/>
    </g>
    <path id="Path_63060" data-name="Path 63060" d="M6.863-15.552h-5.5V-.875h5.5c4.683,0,7.694-2.99,7.694-7.339C14.557-12.583,11.546-15.552,6.863-15.552ZM4.939-3.969V-12.5H6.633a3.926,3.926,0,0,1,4.286,4.286c0,2.7-1.589,4.244-4.286,4.244ZM16.564-.875h3.575V-12.541H16.564Zm1.8-12.879a1.968,1.968,0,0,0,2.112-1.924,1.972,1.972,0,0,0-2.112-1.944,1.978,1.978,0,0,0-2.133,1.944A1.975,1.975,0,0,0,18.362-13.754ZM32.2-4.262c-.063-4.349-6.377-3.032-6.377-4.892,0-.565.46-.9,1.3-.9a1.538,1.538,0,0,1,1.714,1.317h3.3c-.23-2.3-1.9-3.973-4.913-3.973-3.053,0-4.746,1.631-4.746,3.617,0,4.286,6.356,2.927,6.356,4.809,0,.523-.481.941-1.4.941a1.638,1.638,0,0,1-1.8-1.359H22.1c.167,2.258,2.258,3.993,5.373,3.993C30.405-.707,32.2-2.234,32.2-4.262Zm1.484-2.446a5.593,5.593,0,0,0,5.854,6,5.418,5.418,0,0,0,5.6-4.391H41.34A1.815,1.815,0,0,1,39.479-3.76c-1.275,0-2.154-1-2.154-2.948s.878-2.948,2.154-2.948A1.843,1.843,0,0,1,41.34-8.318h3.805a5.344,5.344,0,0,0-5.6-4.391A5.6,5.6,0,0,0,33.688-6.708Zm24.776,0a5.755,5.755,0,0,0-6.063-6,5.767,5.767,0,0,0-6.063,6,5.722,5.722,0,0,0,6.022,6A5.789,5.789,0,0,0,58.464-6.708Zm-8.489,0c0-1.986,1.129-2.906,2.425-2.906,1.254,0,2.425.92,2.425,2.906,0,1.965-1.192,2.906-2.467,2.906C51.062-3.8,49.975-4.743,49.975-6.708Zm9.283-5.833L63.4-.875H67.81l4.14-11.667H68.144L65.614-4.22l-2.53-8.321Zm19.34,2.7a2.017,2.017,0,0,1,2.2,2.007H76.319A2.211,2.211,0,0,1,78.6-9.844Zm5.582,5.1H80.376a1.9,1.9,0,0,1-1.861,1.129A2.163,2.163,0,0,1,76.3-5.851H84.39A9.036,9.036,0,0,0,84.453-6.9a5.5,5.5,0,0,0-5.812-5.812,5.6,5.6,0,0,0-5.9,6,5.625,5.625,0,0,0,5.9,6A5.453,5.453,0,0,0,84.181-4.743ZM89.91-6.29c0-2.007.983-2.593,2.676-2.593h.983v-3.784A4.349,4.349,0,0,0,89.91-10.6v-1.944H86.334V-.875H89.91Z" transform="translate(1179.636 224.622)" fill="#46ab27"/>
  </g>
</svg>
