<svg xmlns="http://www.w3.org/2000/svg" width="27.6" height="23" viewBox="0 0 27.6 23"><defs><style>.a{fill:#7a8081;}</style></defs><path class="a" d="M24.438,2H3.162A3.161,3.161,0,0,0,0,5.162V21.837A3.161,3.161,0,0,0,3.162,25H24.438A3.161,3.161,0,0,0,27.6,21.837V5.162A3.161,3.161,0,0,0,24.438,2ZM8.625,7.75H6.9A1.151,1.151,0,0,0,5.75,8.9v1.725a1.15,1.15,0,0,1-2.3,0V8.9A3.454,3.454,0,0,1,6.9,5.45H8.625a1.15,1.15,0,0,1,0,2.3ZM24.15,18.1a3.454,3.454,0,0,1-3.45,3.45H18.975a1.15,1.15,0,1,1,0-2.3H20.7a1.151,1.151,0,0,0,1.15-1.15V16.375a1.15,1.15,0,1,1,2.3,0Z" transform="translate(0 -2)"/></svg>