<svg xmlns="http://www.w3.org/2000/svg" width="130.507" height="114.127" viewBox="0 0 130.507 114.127"><defs><style>.a{fill:#f2f8ff;}</style></defs><g transform="translate(0 -32.102)"><path class="a" d="M346.691,53.7h5.528V59.23a5.358,5.358,0,0,0,10.715,0V53.7h5.528a5.358,5.358,0,0,0,0-10.715h-5.528V37.46a5.358,5.358,0,0,0-10.715,0v5.528h-5.528a5.358,5.358,0,0,0,0,10.715Z" transform="translate(-254.25)"/><circle class="a" cx="27.214" cy="27.214" r="27.214" transform="translate(21.686 48.345)"/><path class="a" d="M97.756,347.874a48.57,48.57,0,0,0-16.1-36.27,6.135,6.135,0,0,0-8.093-.137,37.932,37.932,0,0,1-49.321,0,6.125,6.125,0,0,0-8.084.126A48.779,48.779,0,0,0,0,347.848a5.377,5.377,0,0,0,5.358,5.384H92.4A5.358,5.358,0,0,0,97.756,347.874Z" transform="translate(0 -207.003)"/><path class="a" d="M429.8,344.669a26.854,26.854,0,0,1-10.265,5.194,5.357,5.357,0,0,0-3.823,6.65,58.929,58.929,0,0,1,2.26,16.266,5.358,5.358,0,0,0,5.358,5.358H434.6a5.358,5.358,0,0,0,5.358-5.358c0-16.691.522-19.941-1.76-25.939a5.344,5.344,0,0,0-8.4-2.171Z" transform="translate(-309.499 -231.907)"/><circle class="a" cx="16.328" cy="16.328" r="16.328" transform="translate(86.998 75.559)"/></g></svg>