<svg xmlns="http://www.w3.org/2000/svg" width="29.845" height="25.486" viewBox="0 0 29.845 25.486"><defs><style>.a{fill:none;stroke:#137ef9;stroke-linecap:square;stroke-linejoin:round;stroke-width:2px;}.b{fill:#137ef9;}</style></defs><g transform="translate(2.513 6.5)"><path class="a" d="M136.421,5.345a2.588,2.588,0,0,0,0-3.656l-6.434-6.434a2.567,2.567,0,0,0-1.828-.755,2.567,2.567,0,0,0-1.828.755L115.415,5.536l10.09,10.09Zm0,0" transform="translate(-111.063 0)"/><path class="b" d="M24.563,190.929H15.488L4.656,180.1.819,183.936a2.8,2.8,0,0,0,0,3.956l4.3,4.3a.741.741,0,0,0,.524.217H24.563a.741.741,0,1,0,0-1.483Zm0,0" transform="translate(-2.513 -173.426)"/></g></svg>