<svg xmlns="http://www.w3.org/2000/svg" width="55" height="55" viewBox="0 0 55 55"><defs><style>.a{fill:#ecf5ff;}.b{fill:#137ef9;}</style></defs><g transform="translate(-1341 -270)"><rect class="a" width="55" height="55" rx="10" transform="translate(1341 270)"/><g transform="translate(1358.609 285.227)"><path class="b" d="M92.776,11.488A5.558,5.558,0,0,0,96.837,9.8a5.557,5.557,0,0,0,1.683-4.061,5.558,5.558,0,0,0-1.683-4.061,5.742,5.742,0,0,0-8.122,0,5.558,5.558,0,0,0-1.683,4.061A5.557,5.557,0,0,0,88.715,9.8,5.559,5.559,0,0,0,92.776,11.488Zm0,0" transform="translate(-82.978 0)"/><path class="b" d="M19.847,254.134a14.185,14.185,0,0,0-.193-1.507,11.871,11.871,0,0,0-.371-1.515,7.483,7.483,0,0,0-.623-1.413,5.332,5.332,0,0,0-.939-1.224,4.141,4.141,0,0,0-1.349-.848,4.662,4.662,0,0,0-1.722-.312,1.748,1.748,0,0,0-.934.4c-.28.182-.607.394-.972.627a5.573,5.573,0,0,1-1.258.554,4.886,4.886,0,0,1-3.078,0,5.56,5.56,0,0,1-1.257-.554c-.362-.231-.689-.442-.973-.627a1.746,1.746,0,0,0-.933-.4,4.657,4.657,0,0,0-1.722.312,4.137,4.137,0,0,0-1.349.848,5.333,5.333,0,0,0-.939,1.224,7.5,7.5,0,0,0-.623,1.413,11.9,11.9,0,0,0-.37,1.515,14.136,14.136,0,0,0-.193,1.507c-.032.456-.048.93-.048,1.408a3.96,3.96,0,0,0,1.176,3,4.234,4.234,0,0,0,3.031,1.105H15.689a4.233,4.233,0,0,0,3.03-1.105,3.958,3.958,0,0,0,1.176-3c0-.481-.016-.954-.048-1.409Zm0,0" transform="translate(0 -235.797)"/></g></g></svg>