<svg xmlns="http://www.w3.org/2000/svg" width="32.05" height="28.028" viewBox="0 0 32.05 28.028"><defs><style>.a{fill:#fff;}</style></defs><g transform="translate(0 -32.102)"><path class="a" d="M342.649,37.407h1.357v1.357a1.316,1.316,0,1,0,2.631,0V37.407H348a1.316,1.316,0,1,0,0-2.632h-1.358V33.418a1.316,1.316,0,1,0-2.631,0v1.358h-1.357a1.316,1.316,0,0,0,0,2.632Z" transform="translate(-319.947)"/><circle class="a" cx="6.683" cy="6.683" r="6.683" transform="translate(5.326 36.091)"/><path class="a" d="M24.007,319.306a11.928,11.928,0,0,0-3.955-8.907,1.507,1.507,0,0,0-1.987-.034,9.315,9.315,0,0,1-12.112,0,1.5,1.5,0,0,0-1.985.031A11.979,11.979,0,0,0,0,319.3a1.32,1.32,0,0,0,1.316,1.322H22.691A1.316,1.316,0,0,0,24.007,319.306Z" transform="translate(0 -260.492)"/><path class="a" d="M419.016,343.742a6.6,6.6,0,0,1-2.521,1.276,1.316,1.316,0,0,0-.939,1.633,14.472,14.472,0,0,1,.555,3.995,1.316,1.316,0,0,0,1.316,1.316h2.768a1.316,1.316,0,0,0,1.316-1.316c0-4.1.128-4.9-.432-6.37A1.312,1.312,0,0,0,419.016,343.742Z" transform="translate(-389.472 -291.831)"/><circle class="a" cx="4.01" cy="4.01" r="4.01" transform="translate(21.365 42.774)"/></g></svg>