<svg xmlns="http://www.w3.org/2000/svg" width="37" height="37" viewBox="0 0 37 37"><defs><style>.a,.b{fill:none;}.a{stroke:#202225;stroke-width:2px;}</style></defs><g transform="translate(0 0.109)"><g transform="translate(6 5.575)"><path class="a" d="M3.6,0H21.572a3.6,3.6,0,0,1,3.6,3.6V21.572a3.6,3.6,0,0,1-3.6,3.6H10.786A10.786,10.786,0,0,1,0,14.381V3.6A3.6,3.6,0,0,1,3.6,0Z" transform="translate(0.036)"/><path class="a" d="M5142.985,4566.553s9.361.007,9.854,0a1.111,1.111,0,0,1,1,.965c0,1.067,0,10.793,0,10.793a10.574,10.574,0,0,1-7.949-3.339A11.251,11.251,0,0,1,5142.985,4566.553Z" transform="translate(-5142.949 -4553.212)"/></g><rect class="b" width="37" height="37" transform="translate(0 -0.109)"/></g></svg>