<svg xmlns="http://www.w3.org/2000/svg" width="25.08" height="14.886" viewBox="0 0 25.08 14.886"><defs><style>.a{fill:#00c07f;}</style></defs><path class="a" d="M17.677,14.886a7.362,7.362,0,0,1-4.692-1.659,8,8,0,0,0,2.1-3.437H14.48a7.285,7.285,0,0,1-1.94,3.074A7.673,7.673,0,0,1,10.6,9.79H9.992a7.986,7.986,0,0,0,2.1,3.437A7.433,7.433,0,0,1,2.169,2.19a7.325,7.325,0,0,1,9.885-.53A7.954,7.954,0,0,0,9.952,5.1h.606A7.627,7.627,0,0,1,12.5,2.023,7.608,7.608,0,0,1,14.441,5.1h.608A7.553,7.553,0,0,0,12.943,1.66,7.361,7.361,0,0,1,17.637,0a7.444,7.444,0,0,1,5.274,12.7A7.329,7.329,0,0,1,17.677,14.886Zm.808-5.826h0l.08.163h.689l.283-1.5a1.07,1.07,0,0,0-.122-.925,1.138,1.138,0,0,0-.93-.33.8.8,0,0,0-.235-.025,4.282,4.282,0,0,0-.656.066l-.12.608,0,0c.09,0,.231-.015.381-.032l.042-.006c.2-.023.381-.043.5-.043h.03l.031,0h.062a.366.366,0,0,1,.29.084.336.336,0,0,1,.03.283h-.015l-.068,0h-.013c-.062,0-.147-.009-.244-.009-.8,0-1.287.341-1.4.985a.7.7,0,0,0,.154.573.84.84,0,0,0,.614.276.88.88,0,0,0,.605-.163Zm-12.62,0h0l.08.163h.689l.283-1.5A1.066,1.066,0,0,0,6.8,6.8a1.14,1.14,0,0,0-.932-.331,1.047,1.047,0,0,0-.253-.025,4.086,4.086,0,0,0-.638.066l-.12.608,0,0c.09,0,.231-.015.381-.032l.042-.006c.2-.023.381-.043.5-.043h.03l.032,0h.064c.118,0,.248.008.31.091a.309.309,0,0,1,.008.276H6.214l-.068,0H6.133c-.062,0-.147-.009-.244-.009-.8,0-1.287.341-1.4.985a.7.7,0,0,0,.154.573.838.838,0,0,0,.612.276.882.882,0,0,0,.607-.163Zm16.989-.08h0l.08.2h.809l.648-3.48h-.768l-.2,1.052a.933.933,0,0,1-.117-.108.562.562,0,0,0-.448-.214h-.069l-.038,0h-.039c-.324,0-.927,0-1.268,1.173a1.428,1.428,0,0,0,.184,1.25.749.749,0,0,0,.582.329,1.517,1.517,0,0,0,.631-.194l.007,0,.009,0ZM20.146,6.432h0l-.528,2.75h.768l.243-1.253c.231-.77.543-.77.71-.77H21.4l.2-.728a.957.957,0,0,0-.728.283l-.08-.283ZM16.473,5.7A1.821,1.821,0,0,0,14.846,7.08a1.764,1.764,0,0,0,.212,1.6,1.327,1.327,0,0,0,1.042.507,1.829,1.829,0,0,0,.889-.162l-.2-.689a1.478,1.478,0,0,1-.441.074.731.731,0,0,1-.574-.233.943.943,0,0,1-.158-.771,1,1,0,0,1,.889-.891.9.9,0,0,1,.568.123l.483-.486A1.241,1.241,0,0,0,16.546,5.7C16.522,5.7,16.5,5.7,16.473,5.7Zm-4.539.731a1.413,1.413,0,0,0-1.377,1.376,1.349,1.349,0,0,0,.252.951,1.2,1.2,0,0,0,1,.423,3.258,3.258,0,0,0,.972-.122l.12-.566a3.961,3.961,0,0,1-.849.081.789.789,0,0,1-.6-.165.541.541,0,0,1-.092-.441h1.577A1.534,1.534,0,0,0,12.8,6.75,1.077,1.077,0,0,0,11.934,6.432ZM9.709,5.744h0L9.143,8.332a.748.748,0,0,0,.126.629.679.679,0,0,0,.48.221.9.9,0,0,0,.566-.122l.083-.606a.861.861,0,0,1-.162.019.257.257,0,0,1-.209-.077.315.315,0,0,1-.034-.267l.2-1.091h.363l.123-.566h-.406l.163-.728ZM3.8,6.84h0L3.357,9.182h.768l.649-3.316H3.52L2.629,7.888l-.16-2.022H1.295L.648,9.182h.729L1.86,6.8l.2,2.385h.688ZM7.08,8.495l-.122.565a3.559,3.559,0,0,0,.891.083H7.92c.849,0,1.089-.418,1.141-.768a.631.631,0,0,0-.216-.662l-.027-.027c-.053-.027-.11-.062-.17-.1l-.013-.009-.009-.006A1.308,1.308,0,0,0,8.292,7.4a.291.291,0,0,1-.169-.248c0-.051.038-.119.169-.158a1.765,1.765,0,0,0,.329.042H8.63a3.216,3.216,0,0,1,.35.04l.163-.568a2.35,2.35,0,0,0-.728-.121c-.237,0-1.021.047-1.132.647-.119.509.066.72.241.809a3.219,3.219,0,0,1,.412.215l.009.006.009,0c.062.037.12.072.178.1a.207.207,0,0,1,.125.235.2.2,0,0,1-.207.167l-.077,0c-.072,0-.144,0-.213,0A2.213,2.213,0,0,1,7.08,8.495Z" transform="translate(0 0)"/><g transform="translate(5.242 6.957)"><path class="a" d="M224.8,238.885h.93c.04-.283-.04-.485-.324-.485a.574.574,0,0,0-.607.485" transform="translate(-218.674 -238.4)"/><path class="a" d="M104.516,258.02a.978.978,0,0,0-.647.081c-.243.162-.324.445-.04.526a.55.55,0,0,0,.647-.324l.04-.283" transform="translate(-103.649 -257.009)"/><path class="a" d="M439.565,241.187a.956.956,0,0,0-.04-.688c-.243-.324-.769-.081-.93.526-.121.4.121.688.364.688.283,0,.445-.2.607-.526" transform="translate(-421.628 -240.257)"/><path class="a" d="M354.916,258.02a.978.978,0,0,0-.647.081c-.243.162-.324.445-.04.526a.53.53,0,0,0,.647-.324l.041-.283" transform="translate(-341.388 -257.009)"/></g><path class="a" d="M256,231.51l.526-2.71h.647l.081.283a.945.945,0,0,1,.728-.283l-.2.728c-.162,0-.526-.04-.769.768l-.243,1.254H256" transform="translate(-243.055 -222.328)"/><g transform="translate(0.405 0)"><path class="a" d="M15.038,100.8A7.424,7.424,0,0,0,8,105.9h9.627a7.93,7.93,0,0,1,2.1-3.438A7.79,7.79,0,0,0,15.038,100.8Z" transform="translate(-8 -100.8)"/><path class="a" d="M211.542,141.6a7.4,7.4,0,0,0-1.942,3.074h3.883A7.666,7.666,0,0,0,211.542,141.6Z" transform="translate(-199.407 -139.537)"/><path class="a" d="M260.692,100.8A7.372,7.372,0,0,0,256,102.458a7.931,7.931,0,0,1,2.1,3.438h9.627A7.348,7.348,0,0,0,260.692,100.8Z" transform="translate(-243.461 -100.8)"/></g></svg>