<svg xmlns="http://www.w3.org/2000/svg" width="35.15" height="10.82" viewBox="0 0 35.15 10.82"><defs><style>.a{fill:#00c07f;}</style></defs><g transform="translate(12.288 0.18)"><path class="a" d="M18.508,16.8,16.722,27.282h2.857L21.367,16.8Z" transform="translate(-16.722 -16.799)"/></g><g transform="translate(2.838 0.19)"><path class="a" d="M10.916,16.814l-2.8,7.149-.3-1.079a11.216,11.216,0,0,0-3.958-4.346L6.421,27.28l3.023-.005,4.5-10.463Z" transform="translate(-3.862 -16.812)"/></g><g transform="translate(0 0.09)"><path class="a" d="M5.711,17.529a1.15,1.15,0,0,0-1.245-.852H.037L0,16.886c3.447.836,5.728,2.851,6.674,5.274Z" transform="translate(0 -16.677)"/></g><g transform="translate(16.933 0)"><path class="a" d="M28.833,18.744a5.275,5.275,0,0,1,2.138.4l.258.121.387-2.272a7.375,7.375,0,0,0-2.559-.44c-2.823,0-4.813,1.422-4.829,3.459-.018,1.506,1.417,2.346,2.5,2.848,1.113.514,1.487.841,1.481,1.3-.009.7-.888,1.024-1.708,1.024a6,6,0,0,1-2.69-.549l-.368-.168-.4,2.346a9.049,9.049,0,0,0,3.183.558c3,0,4.955-1.4,4.976-3.582.012-1.191-.75-2.1-2.4-2.846-1-.486-1.611-.81-1.6-1.3C27.2,19.21,27.715,18.744,28.833,18.744Z" transform="translate(-23.043 -16.554)"/></g><g transform="translate(24.892 0.192)"><path class="a" d="M41.82,16.815H39.613a1.421,1.421,0,0,0-1.5.87l-4.242,9.607h3s.489-1.292.6-1.575l3.659,0c.085.366.348,1.57.348,1.57h2.651ZM38.3,23.571c.235-.6,1.138-2.93,1.138-2.93-.015.029.233-.606.381-1l.193.9.662,3.027Z" transform="translate(-33.874 -16.815)"/></g></svg>