<svg xmlns="http://www.w3.org/2000/svg" width="166" height="166" viewBox="0 0 166 166"><defs><style>.a,.d{fill:none;}.a{stroke:#137ef9;stroke-linecap:round;stroke-width:2px;stroke-dasharray:5;}.b{fill:#137ef9;}.c{stroke:none;}</style></defs><g class="a"><rect class="c" width="166" height="166" rx="15"/><rect class="d" x="1" y="1" width="164" height="164" rx="14"/></g><g transform="translate(58.021 51.021)"><path class="b" d="M25.3,5.163h-2.84a7.114,7.114,0,0,0-13.683,0H5.936A1.95,1.95,0,0,0,4,7.1v3.872A4.539,4.539,0,0,0,8.518,15.49h14.2a4.539,4.539,0,0,0,4.518-4.518V7.1A1.95,1.95,0,0,0,25.3,5.163Z" transform="translate(6.326)"/><path class="b" d="M36.788,3h-.645V6.227a7.1,7.1,0,0,1-7.1,7.1h-14.2a7.1,7.1,0,0,1-7.1-7.1V3H7.1A7.1,7.1,0,0,0,0,10.1V42.37a7.1,7.1,0,0,0,7.1,7.1H26.152l.568-3.175A7.189,7.189,0,0,1,28.682,42.5l2.065-2.065H9.681a1.936,1.936,0,0,1,0-3.872H34.206a.879.879,0,0,1,.361.052h.026l9.294-9.294V10.1a7.1,7.1,0,0,0-7.1-7.1ZM34.206,32.043H9.681a1.936,1.936,0,1,1,0-3.872H34.206a1.936,1.936,0,1,1,0,3.872Zm0-8.39H9.681a1.936,1.936,0,1,1,0-3.872H34.206a1.936,1.936,0,1,1,0,3.872Z" transform="translate(0 4.745)"/><path class="b" d="M13.713,43.494a1.937,1.937,0,0,1-1.905-2.274l1.368-7.758a1.943,1.943,0,0,1,.537-1.033L32.881,13.263c2.354-2.36,4.668-1.722,5.933-.457L42.007,16a4.52,4.52,0,0,1,0,6.39L22.839,41.558a1.907,1.907,0,0,1-1.033.537l-7.758,1.368a1.845,1.845,0,0,1-.336.031Zm7.758-3.3H21.5Z" transform="translate(18.627 18.465)"/></g></svg>