<svg xmlns="http://www.w3.org/2000/svg" width="160.201" height="125.685" viewBox="0 0 160.201 125.685"><defs><style>.a{fill:#47ac27;}.b{fill:#ebf0f3;}.c{fill:#71d154;}</style></defs><g transform="translate(0 -50.447)"><path class="a" d="M10.1,50.447H48.414a7.015,7.015,0,0,1,6.079,3.515L60.8,62.576a7.015,7.015,0,0,0,6.079,3.515H160.2v98.351a9.353,9.353,0,0,1-9.353,9.353H9.353A9.353,9.353,0,0,1,0,164.442V77A70.184,70.184,0,0,1,3.311,55.7h0A7.015,7.015,0,0,1,10.1,50.447Z" transform="translate(0 0)"/><rect class="b" width="123.141" height="52.018" transform="translate(14.578 64.482)"/><path class="c" d="M153.186,64.117H114.577a7.014,7.014,0,0,0-6.38,4.1L101.59,82.676a7.015,7.015,0,0,1-6.38,4.1H0v89a9.353,9.353,0,0,0,9.353,9.353h141.5a9.353,9.353,0,0,0,9.353-9.353V71.132A7.015,7.015,0,0,0,153.186,64.117Z" transform="translate(0 -8.994)"/></g></svg>