<svg xmlns="http://www.w3.org/2000/svg" width="82.121" height="76.135" viewBox="0 0 82.121 76.135">
  <g id="Group_18965" data-name="Group 18965" transform="translate(-557.401 -254.621)">
    <path id="Union_133" data-name="Union 133" d="M1446.066-9149.865a37.828,37.828,0,0,1-14.817-2.992,37.929,37.929,0,0,1-12.1-8.157,37.96,37.96,0,0,1-8.158-12.1,37.832,37.832,0,0,1-2.991-14.818,37.819,37.819,0,0,1,2.991-14.816,37.948,37.948,0,0,1,8.158-12.1,37.957,37.957,0,0,1,12.1-8.157,37.846,37.846,0,0,1,14.817-2.991,37.869,37.869,0,0,1,14.81,3,37.984,37.984,0,0,1,12.095,8.157,38,38,0,0,1,8.159,12.1,37.865,37.865,0,0,1,3,14.809c0,1.144-.051,2.3-.153,3.436a18.869,18.869,0,0,0-6.825-1.559c.037-.616.057-1.247.058-1.877a30.947,30.947,0,0,0-2.448-12.123,31.041,31.041,0,0,0-6.675-9.9,31.041,31.041,0,0,0-9.9-6.675,30.955,30.955,0,0,0-12.124-2.447,30.95,30.95,0,0,0-12.123,2.447,31.043,31.043,0,0,0-9.9,6.675,31.04,31.04,0,0,0-6.675,9.9,30.945,30.945,0,0,0-2.448,12.123,30.954,30.954,0,0,0,2.448,12.124,31.055,31.055,0,0,0,6.675,9.9,31.033,31.033,0,0,0,9.9,6.674,30.929,30.929,0,0,0,12.123,2.448,30.933,30.933,0,0,0,12.868-2.788,18.944,18.944,0,0,0,3.913,5.821,37.848,37.848,0,0,1-8.03,2.878A38.186,38.186,0,0,1,1446.066-9149.865Zm9.69-26.76a2.983,2.983,0,0,1-2.121-.879l-9-9a2.98,2.98,0,0,1-.88-2.121v-18a3,3,0,0,1,3-3,3,3,0,0,1,3,3v16.759l8.121,8.12a2.984,2.984,0,0,1,.879,2.122,2.978,2.978,0,0,1-.879,2.121A2.976,2.976,0,0,1,1455.756-9176.625Z" transform="translate(-850.599 9480.621)" fill="#47ac28"/>
    <g id="information_1_" data-name="information(1)" transform="translate(611.348 299.191)">
      <path id="Subtraction_6" data-name="Subtraction 6" d="M14.086,28.177A14.089,14.089,0,1,1,28.174,14.088,14.1,14.1,0,0,1,14.086,28.177Zm0-16.222a1.282,1.282,0,0,0-1.279,1.281v7.682a1.28,1.28,0,1,0,2.561,0V13.236A1.283,1.283,0,0,0,14.086,11.955Zm0-5.978a1.708,1.708,0,1,0,1.708,1.711A1.711,1.711,0,0,0,14.086,5.976Z" transform="translate(0 0)" fill="#ff5055"/>
    </g>
  </g>
</svg>
