<svg xmlns="http://www.w3.org/2000/svg" width="33.6" height="28" viewBox="0 0 33.6 28">
  <path id="display-frame" d="M29.75,2H3.85A3.848,3.848,0,0,0,0,5.85v20.3A3.848,3.848,0,0,0,3.85,30h25.9a3.848,3.848,0,0,0,3.85-3.85V5.85A3.848,3.848,0,0,0,29.75,2ZM10.5,9H8.4A1.4,1.4,0,0,0,7,10.4v2.1a1.4,1.4,0,0,1-2.8,0V10.4A4.205,4.205,0,0,1,8.4,6.2h2.1a1.4,1.4,0,0,1,0,2.8ZM29.4,21.6a4.205,4.205,0,0,1-4.2,4.2H23.1a1.4,1.4,0,1,1,0-2.8h2.1a1.4,1.4,0,0,0,1.4-1.4V19.5a1.4,1.4,0,1,1,2.8,0Z" transform="translate(0 -2)" fill="#137ef9"/>
</svg>
