<svg xmlns="http://www.w3.org/2000/svg" width="65" height="65" viewBox="0 0 65 65"><defs><style>.a{fill:#3aebff;}.b{fill:#fff;}</style></defs><g transform="translate(-1193 -625)"><circle class="a" cx="32.5" cy="32.5" r="32.5" transform="translate(1193 625)"/><path class="b" d="M34.083,51.278a14.568,14.568,0,0,1-4.026,1.1,6.948,6.948,0,0,0,3.074-3.862A13.964,13.964,0,0,1,28.7,50.211a6.987,6.987,0,0,0-12.087,4.778,7.2,7.2,0,0,0,.162,1.593,19.778,19.778,0,0,1-14.4-7.309A6.989,6.989,0,0,0,4.52,58.613a6.9,6.9,0,0,1-3.157-.861v.077a7.019,7.019,0,0,0,5.6,6.866,6.974,6.974,0,0,1-1.832.23A6.178,6.178,0,0,1,3.807,64.8a7.054,7.054,0,0,0,6.529,4.867,14.04,14.04,0,0,1-8.663,2.98A13.084,13.084,0,0,1,0,72.557a19.671,19.671,0,0,0,10.719,3.136c12.858,0,19.887-10.651,19.887-19.883,0-.309-.011-.607-.026-.9A13.939,13.939,0,0,0,34.083,51.278Z" transform="translate(1208.143 595.867)"/></g></svg>