<svg xmlns="http://www.w3.org/2000/svg" width="244.278" height="14.886" viewBox="0 0 244.278 14.886"><defs><style>.a{fill:#caefe2;}</style></defs><g transform="translate(-60.299 -223.756)"><g transform="translate(60.299 225.799)"><g transform="translate(12.288 0.18)"><path class="a" d="M18.508,16.8,16.722,27.282h2.857L21.367,16.8Z" transform="translate(-16.722 -16.799)"/></g><g transform="translate(2.838 0.19)"><path class="a" d="M10.916,16.814l-2.8,7.149-.3-1.079a11.216,11.216,0,0,0-3.958-4.346L6.421,27.28l3.023-.005,4.5-10.463Z" transform="translate(-3.862 -16.812)"/></g><g transform="translate(0 0.09)"><path class="a" d="M5.711,17.529a1.15,1.15,0,0,0-1.245-.852H.037L0,16.886c3.447.836,5.728,2.851,6.674,5.274Z" transform="translate(0 -16.677)"/></g><g transform="translate(16.933 0)"><path class="a" d="M28.833,18.744a5.275,5.275,0,0,1,2.138.4l.258.121.387-2.272a7.375,7.375,0,0,0-2.559-.44c-2.823,0-4.813,1.422-4.829,3.459-.018,1.506,1.417,2.346,2.5,2.848,1.113.514,1.487.841,1.481,1.3-.009.7-.888,1.024-1.708,1.024a6,6,0,0,1-2.69-.549l-.368-.168-.4,2.346a9.049,9.049,0,0,0,3.183.558c3,0,4.955-1.4,4.976-3.582.012-1.191-.75-2.1-2.4-2.846-1-.486-1.611-.81-1.6-1.3C27.2,19.21,27.715,18.744,28.833,18.744Z" transform="translate(-23.043 -16.554)"/></g><g transform="translate(24.892 0.192)"><path class="a" d="M41.82,16.815H39.613a1.421,1.421,0,0,0-1.5.87l-4.242,9.607h3s.489-1.292.6-1.575l3.659,0c.085.366.348,1.57.348,1.57h2.651ZM38.3,23.571c.235-.6,1.138-2.93,1.138-2.93-.015.029.233-.606.381-1l.193.9.662,3.027Z" transform="translate(-33.874 -16.815)"/></g></g><g transform="translate(121.299 223.756)"><path class="a" d="M17.677,14.886a7.362,7.362,0,0,1-4.692-1.659,8,8,0,0,0,2.1-3.437H14.48a7.285,7.285,0,0,1-1.94,3.074A7.673,7.673,0,0,1,10.6,9.79H9.992a7.986,7.986,0,0,0,2.1,3.437A7.433,7.433,0,0,1,2.169,2.19a7.325,7.325,0,0,1,9.885-.53A7.954,7.954,0,0,0,9.952,5.1h.606A7.627,7.627,0,0,1,12.5,2.023,7.608,7.608,0,0,1,14.441,5.1h.608A7.553,7.553,0,0,0,12.943,1.66,7.361,7.361,0,0,1,17.637,0a7.444,7.444,0,0,1,5.274,12.7A7.329,7.329,0,0,1,17.677,14.886Zm.808-5.826h0l.08.163h.689l.283-1.5a1.07,1.07,0,0,0-.122-.925,1.138,1.138,0,0,0-.93-.33.8.8,0,0,0-.235-.025,4.282,4.282,0,0,0-.656.066l-.12.608,0,0c.09,0,.231-.015.381-.032l.042-.006c.2-.023.381-.043.5-.043h.03l.031,0h.062a.366.366,0,0,1,.29.084.336.336,0,0,1,.03.283h-.015l-.068,0h-.013c-.062,0-.147-.009-.244-.009-.8,0-1.287.341-1.4.985a.7.7,0,0,0,.154.573.84.84,0,0,0,.614.276.88.88,0,0,0,.605-.163Zm-12.62,0h0l.08.163h.689l.283-1.5A1.066,1.066,0,0,0,6.8,6.8a1.14,1.14,0,0,0-.932-.331,1.047,1.047,0,0,0-.253-.025,4.086,4.086,0,0,0-.638.066l-.12.608,0,0c.09,0,.231-.015.381-.032l.042-.006c.2-.023.381-.043.5-.043h.03l.032,0h.064c.118,0,.248.008.31.091a.309.309,0,0,1,.008.276H6.214l-.068,0H6.133c-.062,0-.147-.009-.244-.009-.8,0-1.287.341-1.4.985a.7.7,0,0,0,.154.573.838.838,0,0,0,.612.276.882.882,0,0,0,.607-.163Zm16.989-.08h0l.08.2h.809l.648-3.48h-.768l-.2,1.052a.933.933,0,0,1-.117-.108.562.562,0,0,0-.448-.214h-.069l-.038,0h-.039c-.324,0-.927,0-1.268,1.173a1.428,1.428,0,0,0,.184,1.25.749.749,0,0,0,.582.329,1.517,1.517,0,0,0,.631-.194l.007,0,.009,0ZM20.146,6.432h0l-.528,2.75h.768l.243-1.253c.231-.77.543-.77.71-.77H21.4l.2-.728a.957.957,0,0,0-.728.283l-.08-.283ZM16.473,5.7A1.821,1.821,0,0,0,14.846,7.08a1.764,1.764,0,0,0,.212,1.6,1.327,1.327,0,0,0,1.042.507,1.829,1.829,0,0,0,.889-.162l-.2-.689a1.478,1.478,0,0,1-.441.074.731.731,0,0,1-.574-.233.943.943,0,0,1-.158-.771,1,1,0,0,1,.889-.891.9.9,0,0,1,.568.123l.483-.486A1.241,1.241,0,0,0,16.546,5.7C16.522,5.7,16.5,5.7,16.473,5.7Zm-4.539.731a1.413,1.413,0,0,0-1.377,1.376,1.349,1.349,0,0,0,.252.951,1.2,1.2,0,0,0,1,.423,3.258,3.258,0,0,0,.972-.122l.12-.566a3.961,3.961,0,0,1-.849.081.789.789,0,0,1-.6-.165.541.541,0,0,1-.092-.441h1.577A1.534,1.534,0,0,0,12.8,6.75,1.077,1.077,0,0,0,11.934,6.432ZM9.709,5.744h0L9.143,8.332a.748.748,0,0,0,.126.629.679.679,0,0,0,.48.221.9.9,0,0,0,.566-.122l.083-.606a.861.861,0,0,1-.162.019.257.257,0,0,1-.209-.077.315.315,0,0,1-.034-.267l.2-1.091h.363l.123-.566h-.406l.163-.728ZM3.8,6.84h0L3.357,9.182h.768l.649-3.316H3.52L2.629,7.888l-.16-2.022H1.295L.648,9.182h.729L1.86,6.8l.2,2.385h.688ZM7.08,8.495l-.122.565a3.559,3.559,0,0,0,.891.083H7.92c.849,0,1.089-.418,1.141-.768a.631.631,0,0,0-.216-.662l-.027-.027c-.053-.027-.11-.062-.17-.1l-.013-.009-.009-.006A1.308,1.308,0,0,0,8.292,7.4a.291.291,0,0,1-.169-.248c0-.051.038-.119.169-.158a1.765,1.765,0,0,0,.329.042H8.63a3.216,3.216,0,0,1,.35.04l.163-.568a2.35,2.35,0,0,0-.728-.121c-.237,0-1.021.047-1.132.647-.119.509.066.72.241.809a3.219,3.219,0,0,1,.412.215l.009.006.009,0c.062.037.12.072.178.1a.207.207,0,0,1,.125.235.2.2,0,0,1-.207.167l-.077,0c-.072,0-.144,0-.213,0A2.213,2.213,0,0,1,7.08,8.495Z" transform="translate(0 0)"/><g transform="translate(5.242 6.957)"><path class="a" d="M224.8,238.885h.93c.04-.283-.04-.485-.324-.485a.574.574,0,0,0-.607.485" transform="translate(-218.674 -238.4)"/><path class="a" d="M104.516,258.02a.978.978,0,0,0-.647.081c-.243.162-.324.445-.04.526a.55.55,0,0,0,.647-.324l.04-.283" transform="translate(-103.649 -257.009)"/><path class="a" d="M439.565,241.187a.956.956,0,0,0-.04-.688c-.243-.324-.769-.081-.93.526-.121.4.121.688.364.688.283,0,.445-.2.607-.526" transform="translate(-421.628 -240.257)"/><path class="a" d="M354.916,258.02a.978.978,0,0,0-.647.081c-.243.162-.324.445-.04.526a.53.53,0,0,0,.647-.324l.041-.283" transform="translate(-341.388 -257.009)"/></g><path class="a" d="M256,231.51l.526-2.71h.647l.081.283a.945.945,0,0,1,.728-.283l-.2.728c-.162,0-.526-.04-.769.768l-.243,1.254H256" transform="translate(-243.055 -222.328)"/><g transform="translate(0.405 0)"><path class="a" d="M15.038,100.8A7.424,7.424,0,0,0,8,105.9h9.627a7.93,7.93,0,0,1,2.1-3.438A7.79,7.79,0,0,0,15.038,100.8Z" transform="translate(-8 -100.8)"/><path class="a" d="M211.542,141.6a7.4,7.4,0,0,0-1.942,3.074h3.883A7.666,7.666,0,0,0,211.542,141.6Z" transform="translate(-199.407 -139.537)"/><path class="a" d="M260.692,100.8A7.372,7.372,0,0,0,256,102.458a7.931,7.931,0,0,1,2.1,3.438h9.627A7.348,7.348,0,0,0,260.692,100.8Z" transform="translate(-243.461 -100.8)"/></g></g><g transform="translate(172.299 224.117)"><path class="a" d="M43.2,187.057h1.459l-.73-1.857Z" transform="translate(-39.618 -183.475)"/><path class="a" d="M241.057,187.666a1.293,1.293,0,0,0-.531-.066H239.2v1.061h1.327a1.293,1.293,0,0,0,.531-.066.516.516,0,0,0,.2-.464A.369.369,0,0,0,241.057,187.666Z" transform="translate(-219.368 -185.676)"/><path class="a" d="M35.883,164.4v.8l-.4-.8H32.368v.8l-.4-.8H27.725a4.038,4.038,0,0,0-1.857.4v-.4H22.883v.4a1.912,1.912,0,0,0-1.26-.4H10.944l-.73,1.658-.73-1.658H6.1v.8l-.4-.8H2.852l-1.327,3.118L0,170.967H3.383l.4-1.061h.929l.4,1.061H8.954v-.8l.332.8h1.924l.332-.8v.8h9.22v-1.725h.133c.133,0,.133,0,.133.2V170.9H25.8v-.4a3.974,3.974,0,0,0,1.791.4h1.99l.4-1.061h.929l.4,1.061h3.847v-.995l.6.995h3.117v-6.5Zm-22.419,5.572H12.337v-3.648l-1.592,3.648H9.75l-1.592-3.648v3.648H5.9l-.464-.995H3.184l-.4,1.061H1.526l1.99-4.709H5.174l1.857,4.444v-4.444H8.822l1.459,3.184,1.327-3.184h1.857Zm4.51-3.648H15.388v.862h2.52v.929h-2.52v.929h2.587v.995H14.261v-4.709h3.714Zm4.975,1.924a1.66,1.66,0,0,1,.2.862v.929H22.021v-.6a1.58,1.58,0,0,0-.2-.929c-.2-.2-.4-.2-.8-.2H19.832v1.725H18.7v-4.709h2.52a2.543,2.543,0,0,1,1.327.2,1.13,1.13,0,0,1,.531,1.061,1.32,1.32,0,0,1-.8,1.26A1.262,1.262,0,0,1,22.949,168.247Zm1.99,1.725H23.812v-4.709h1.128Zm13.067,0H36.414l-2.122-3.516v3.516H32.036l-.4-.995H29.317l-.4,1.061h-1.26a1.994,1.994,0,0,1-2.189-2.322,2.719,2.719,0,0,1,.6-1.857,2.091,2.091,0,0,1,1.658-.531h1.061v.995H27.725a1.223,1.223,0,0,0-.862.265,1.558,1.558,0,0,0-.332,1.061,1.443,1.443,0,0,0,.332,1.128,1.057,1.057,0,0,0,.8.265h.464l1.526-3.648h1.658l1.857,4.444v-4.444h1.658l1.924,3.25v-3.25h1.128v4.577Z" transform="translate(0 -164.4)"/><g transform="translate(16.715 1.725)"><path class="a" d="M358.4,187.057h1.526l-.73-1.857Z" transform="translate(-345.4 -185.2)"/><path class="a" d="M203.325,280.981V277.2l-1.725,1.857Z" transform="translate(-201.6 -269.572)"/></g><path class="a" d="M136.8,282.8v.862h2.454v.929H136.8v.995h2.719l1.26-1.393-1.194-1.393Z" transform="translate(-125.458 -272.983)"/><path class="a" d="M237.393,282.8H236v1.194h1.459c.4,0,.663-.2.663-.6A.669.669,0,0,0,237.393,282.8Z" transform="translate(-216.433 -272.983)"/><path class="a" d="M143.435,263.385V260.4H140.65a2.176,2.176,0,0,0-1.393.4v-.4h-3.051a2.1,2.1,0,0,0-1.327.4v-.4h-5.373v.4a2.564,2.564,0,0,0-1.459-.4h-3.582v.4a2.517,2.517,0,0,0-1.526-.4h-3.98l-.929.995-.862-.995H111.2v6.5h5.837l.929-.995.862.995h3.582v-1.526h.464a4.035,4.035,0,0,0,1.526-.2v1.791h2.985v-1.725h.133c.2,0,.2,0,.2.2v1.526h9.021a2.6,2.6,0,0,0,1.526-.4v.4h2.852a2.979,2.979,0,0,0,1.592-.332h0a2.258,2.258,0,0,0,1.061-1.99A2.54,2.54,0,0,0,143.435,263.385Zm-20.562,1.061h-1.327v1.592h-2.122l-1.327-1.526-1.393,1.526h-4.378v-4.709h4.444l1.327,1.526,1.393-1.526h3.515c.862,0,1.857.265,1.857,1.526C124.8,264.181,123.869,264.446,122.874,264.446Zm6.633-.265a1.5,1.5,0,0,1,.2.862v.929h-1.128v-.6a1.481,1.481,0,0,0-.2-.929c-.133-.2-.4-.2-.8-.2h-1.194v1.725h-1.128v-4.709h2.52a2.671,2.671,0,0,1,1.327.2,1.173,1.173,0,0,1,.6,1.061,1.321,1.321,0,0,1-.8,1.26A1.134,1.134,0,0,1,129.507,264.181Zm4.577-1.924H131.5v.862h2.52v.929H131.5v.929h2.587v.995h-3.714v-4.709h3.714Zm2.786,3.714h-2.122v-.995h2.122a.56.56,0,0,0,.464-.133.481.481,0,0,0,0-.663.561.561,0,0,0-.4-.133c-1.061-.066-2.321,0-2.321-1.459,0-.663.4-1.393,1.592-1.393h2.189v1.128h-2.056a.984.984,0,0,0-.464.066c-.133.066-.133.2-.133.332,0,.2.133.265.265.332a.841.841,0,0,0,.4.066h.6a1.689,1.689,0,0,1,1.26.4,1.373,1.373,0,0,1,.332.995C138.593,265.507,138,265.972,136.869,265.972Zm5.7-.464a1.934,1.934,0,0,1-1.393.464h-2.122v-.995h2.122a.56.56,0,0,0,.464-.133.481.481,0,0,0,0-.663.561.561,0,0,0-.4-.133c-1.061-.066-2.321,0-2.321-1.459,0-.663.4-1.393,1.592-1.393h2.189v1.128h-1.99a.984.984,0,0,0-.464.066c-.133.066-.133.2-.133.332,0,.2.066.265.265.332a.841.841,0,0,0,.4.066h.6a1.689,1.689,0,0,1,1.26.4.065.065,0,0,1,.066.066,1.523,1.523,0,0,1,.265.929A1.35,1.35,0,0,1,142.573,265.507Z" transform="translate(-101.98 -252.441)"/><path class="a" d="M297.057,283.666a1.292,1.292,0,0,0-.531-.066H295.2v1.061h1.327a1.294,1.294,0,0,0,.531-.066.517.517,0,0,0,.2-.464A.369.369,0,0,0,297.057,283.666Z" transform="translate(-270.725 -273.717)"/><g transform="translate(16.715 1.725)"><path class="a" d="M241.057,187.666a1.293,1.293,0,0,0-.531-.066H239.2v1.061h1.327a1.293,1.293,0,0,0,.531-.066.516.516,0,0,0,.2-.464A.369.369,0,0,0,241.057,187.666Z" transform="translate(-236.083 -187.401)"/><path class="a" d="M358.4,187.057h1.526l-.73-1.857Z" transform="translate(-345.4 -185.2)"/><path class="a" d="M203.325,280.981V277.2l-1.725,1.857Z" transform="translate(-201.6 -269.572)"/></g><g transform="translate(19.567 9.817)"><path class="a" d="M237.393,282.8H236v1.194h1.459c.4,0,.663-.2.663-.6A.669.669,0,0,0,237.393,282.8Z" transform="translate(-236 -282.8)"/></g><g transform="translate(24.475 9.883)"><path class="a" d="M297.057,283.666a1.292,1.292,0,0,0-.531-.066H295.2v1.061h1.327a1.294,1.294,0,0,0,.531-.066.517.517,0,0,0,.2-.464A.369.369,0,0,0,297.057,283.666Z" transform="translate(-295.2 -283.6)"/></g><g transform="translate(0 0)"><path class="a" d="M122.476,265.839l-.929-.995v1.128h-2.189l-1.327-1.526-1.459,1.526h-4.378v-4.643h4.444l1.393,1.526.663-.8-1.658-1.658H111.2v6.5h5.837l.995-.995.862.995h3.582Z" transform="translate(-101.98 -252.441)"/><path class="a" d="M13.6,170.9l-.862-.929h-.4v-.4l-.995-.995-.663,1.393H9.75l-1.592-3.648v3.648H5.9l-.464-.995H3.184l-.464.995H1.526l1.99-4.643H5.174l1.857,4.444v-4.444h.995L7.1,164.4H6.1v.8l-.332-.8H2.852l-1.327,3.118L0,170.9H3.449l.4-.995h.929l.464.995H8.954v-.8l.332.8h1.924l.332-.8v.8Z" transform="translate(0 -164.4)"/><path class="a" d="M115.461,194.261,114.4,193.2l.8,1.725Z" transform="translate(-104.915 -190.812)"/></g><g transform="translate(6.566 0.066)"><path class="a" d="M200.666,264.368a2.426,2.426,0,0,0,1.061-1.791l-.929-.929a1.963,1.963,0,0,1,.133.663,1.35,1.35,0,0,1-.4.995,1.934,1.934,0,0,1-1.393.464h-2.122v-.995h2.122a.56.56,0,0,0,.464-.133.481.481,0,0,0,0-.663.561.561,0,0,0-.4-.133c-1.061-.066-2.321,0-2.321-1.459,0-.663.4-1.26,1.393-1.393l-.73-.73c-.133.066-.2.133-.265.133V258h-3.051a2.1,2.1,0,0,0-1.327.4V258h-5.439v.4a2.564,2.564,0,0,0-1.459-.4h-3.582v.4a2.517,2.517,0,0,0-1.526-.4h-3.98l-.929.995L175.13,258h-.73l1.99,1.99.995-1.061H180.9c.862,0,1.857.265,1.857,1.526,0,1.327-.929,1.592-1.923,1.592h-1.327v.995l.995.995v-.995h.332a4.034,4.034,0,0,0,1.526-.2v1.791h2.985v-1.725h.133c.2,0,.2,0,.2.2v1.526H194.7a2.6,2.6,0,0,0,1.526-.4v.4h2.852a2.632,2.632,0,0,0,1.592-.265Zm-13.2-2.388a1.505,1.505,0,0,1,.2.862v.929h-1.128v-.6a1.481,1.481,0,0,0-.2-.929c-.133-.2-.4-.2-.8-.2h-1.194v1.725h-1.128v-4.709h2.52a2.671,2.671,0,0,1,1.327.2,1.173,1.173,0,0,1,.6,1.061,1.321,1.321,0,0,1-.8,1.26A1.134,1.134,0,0,1,187.467,261.98Zm4.577-1.924h-2.587v.862h2.52v.929h-2.52v.929h2.587v.995h-3.714v-4.709h3.714Zm2.786,3.714h-2.122v-.995h2.122a.56.56,0,0,0,.464-.133.481.481,0,0,0,0-.663.561.561,0,0,0-.4-.133c-1.061-.066-2.321,0-2.321-1.459,0-.663.4-1.393,1.592-1.393h2.189v1.128H194.3a.984.984,0,0,0-.464.066c-.133.066-.133.2-.133.332,0,.2.133.265.265.332a.841.841,0,0,0,.4.066h.6a1.689,1.689,0,0,1,1.26.4,1.373,1.373,0,0,1,.332.995C196.554,263.306,195.957,263.771,194.829,263.771Z" transform="translate(-166.507 -250.306)"/><path class="a" d="M459.2,284c0,.2.066.265.265.332a.842.842,0,0,0,.4.066h.6a1.926,1.926,0,0,1,.929.2l-.995-.995h-.6a.983.983,0,0,0-.464.066A.507.507,0,0,0,459.2,284Z" transform="translate(-427.694 -273.783)"/><path class="a" d="M431.2,240.4l.133.2h.066Z" transform="translate(-402.016 -234.165)"/><path class="a" d="M387.2,196.4l1.128,2.72v-1.592Z" transform="translate(-361.664 -193.813)"/><path class="a" d="M93.394,169.976h.133c.133,0,.133,0,.133.2v1.459h4.776v-.4a3.973,3.973,0,0,0,1.791.4h1.99l.4-1.061h.929l.4,1.061h3.847v-.663l-.929-.929v.73H104.6l-.332-1.061h-2.321l-.4,1.061h-1.26A1.994,1.994,0,0,1,98.1,168.45a2.719,2.719,0,0,1,.6-1.857,2.091,2.091,0,0,1,1.658-.531h1.061v.995h-1.061a1.223,1.223,0,0,0-.862.265,1.558,1.558,0,0,0-.332,1.061,1.443,1.443,0,0,0,.332,1.128,1.057,1.057,0,0,0,.8.265h.464l1.526-3.648h.663l-.929-.929h-1.725a4.038,4.038,0,0,0-1.857.4v-.4H95.517v.4a1.912,1.912,0,0,0-1.26-.4H83.578l-.73,1.658-.73-1.658H79.2l.929.929h1.327l1.128,2.454.4.4,1.194-2.919h1.857v4.709H84.9v-3.648l-1.128,2.653L85.7,171.7h7.628Zm3.051-3.913h1.128v4.709H96.445Zm-5.837.995H88.022v.862h2.52v.929h-2.52v.929h2.587v.995H86.894v-4.709h3.714Zm1.857,3.648H91.338V166h2.52a2.543,2.543,0,0,1,1.327.2,1.13,1.13,0,0,1,.531,1.061,1.32,1.32,0,0,1-.8,1.26.868.868,0,0,1,.531.4,1.66,1.66,0,0,1,.2.862v.929H94.522v-.6a1.58,1.58,0,0,0-.2-.929c-.066-.133-.265-.133-.663-.133H92.466v1.658Z" transform="translate(-79.2 -165.2)"/></g></g><g transform="translate(240.299 225.628)"><ellipse class="a" cx="5.391" cy="5.391" rx="5.391" ry="5.391" transform="translate(28.717 0.104)"/><path class="a" d="M221.6,175.391a5.391,5.391,0,1,1,5.391,5.391" transform="translate(-192.883 -169.896)"/><path class="a" d="M234.4,171.555a5.352,5.352,0,0,1,7.568,7.568" transform="translate(-204.024 -169.896)"/><path class="a" d="M2.9,172.4H0v10.16H2.9a5.624,5.624,0,0,0,3.629-1.14A5.127,5.127,0,0,0,8.4,177.48C8.4,174.473,6.22,172.4,2.9,172.4Zm2.384,7.672a3.985,3.985,0,0,1-2.7.829H1.97v-6.739h.518a3.518,3.518,0,0,1,2.7.829,3.312,3.312,0,0,1,1.14,2.488A3.1,3.1,0,0,1,5.287,180.072Z" transform="translate(0 -171.985)"/><rect class="a" width="1.97" height="10.16" transform="translate(9.331 0.415)"/><path class="a" d="M97.747,175.643c-1.244-.415-1.555-.726-1.555-1.244a1.312,1.312,0,0,1,1.451-1.14,2.006,2.006,0,0,1,1.659.829l1.037-1.348a4.517,4.517,0,0,0-3.007-1.14,3.042,3.042,0,0,0-3.214,2.9c0,1.451.622,2.074,2.488,2.8a4.031,4.031,0,0,1,1.348.622,1.14,1.14,0,0,1,.622,1.037,1.445,1.445,0,0,1-1.555,1.451,2.418,2.418,0,0,1-2.177-1.348L93.6,180.309a4.066,4.066,0,0,0,3.525,1.97,3.269,3.269,0,0,0,3.525-3.318C100.65,177.2,100.028,176.473,97.747,175.643Z" transform="translate(-81.47 -171.289)"/><path class="a" d="M152.8,174.695a5.267,5.267,0,0,0,5.391,5.287,5.865,5.865,0,0,0,2.488-.622v-2.385a3.223,3.223,0,0,1-2.384,1.14,3.35,3.35,0,0,1-3.421-3.525,3.39,3.39,0,0,1,3.318-3.525,3.269,3.269,0,0,1,2.488,1.14v-2.385a5.21,5.21,0,0,0-2.488-.622A5.73,5.73,0,0,0,152.8,174.695Z" transform="translate(-132.998 -169.2)"/><path class="a" d="M306.473,179.242l-2.7-6.842H301.6l4.251,10.471h1.14l4.458-10.471h-2.177Z" transform="translate(-262.515 -171.985)"/><path class="a" d="M384,182.56h5.7V180.9h-3.629v-2.8H389.6V176.34h-3.525v-2.177H389.7V172.4H384Z" transform="translate(-334.237 -171.985)"/><g transform="translate(0 0.415)"><path class="a" d="M442.651,178.309a2.736,2.736,0,0,0,2.384-2.9c0-1.866-1.348-3.007-3.629-3.007H438.4v10.16h1.97v-4.043h.311l2.8,4.043h2.384Zm-1.659-1.244h-.622v-3.11h.622c1.244,0,1.97.518,1.97,1.555S442.236,177.065,440.992,177.065Z" transform="translate(-381.587 -172.4)"/><path class="a" d="M2.9,172.4H0v10.16H2.9a5.624,5.624,0,0,0,3.629-1.14A5.127,5.127,0,0,0,8.4,177.48C8.4,174.473,6.22,172.4,2.9,172.4Zm2.384,7.672a3.985,3.985,0,0,1-2.7.829H1.97v-6.739h.518a3.518,3.518,0,0,1,2.7.829,3.312,3.312,0,0,1,1.14,2.488A3.1,3.1,0,0,1,5.287,180.072Z" transform="translate(0 -172.4)"/></g><g transform="translate(9.331 0.415)"><rect class="a" width="1.97" height="10.16" transform="translate(0 0)"/></g><g transform="translate(12.13 0.311)"><path class="a" d="M97.747,175.643c-1.244-.415-1.555-.726-1.555-1.244a1.312,1.312,0,0,1,1.451-1.14,2.006,2.006,0,0,1,1.659.829l1.037-1.348a4.517,4.517,0,0,0-3.007-1.14,3.042,3.042,0,0,0-3.214,2.9c0,1.451.622,2.074,2.488,2.8a4.031,4.031,0,0,1,1.348.622,1.14,1.14,0,0,1,.622,1.037,1.445,1.445,0,0,1-1.555,1.451,2.418,2.418,0,0,1-2.177-1.348L93.6,180.309a4.066,4.066,0,0,0,3.525,1.97,3.269,3.269,0,0,0,3.525-3.318C100.65,177.2,100.028,176.473,97.747,175.643Z" transform="translate(-93.6 -171.6)"/><path class="a" d="M158.969,189.731a5.864,5.864,0,0,0,2.488-.622v-2.384a3.223,3.223,0,0,1-2.384,1.14,3.35,3.35,0,0,1-3.421-3.525,3.877,3.877,0,0,1,1.037-2.592l-1.348-1.348a5.4,5.4,0,0,0-1.762,3.94A5.171,5.171,0,0,0,158.969,189.731Z" transform="translate(-145.803 -179.26)"/></g><path class="a" d="M442.651,178.309a2.736,2.736,0,0,0,2.384-2.9c0-1.866-1.348-3.007-3.629-3.007H438.4v10.16h1.97v-4.043h.311l2.8,4.043h2.384Zm-1.659-1.244h-.622v-3.11h.622c1.244,0,1.97.518,1.97,1.555S442.236,177.065,440.992,177.065Z" transform="translate(-381.587 -171.985)"/><g transform="translate(39.085 0.415)"><path class="a" d="M387.94,211.54h-1.866v-1.866L384,207.6v5.6h5.6Z" transform="translate(-373.322 -203.038)"/><path class="a" d="M308.753,173.437l-2.281,5.806-2.7-6.842H301.6l4.251,10.471h1.14l3.318-7.879Z" transform="translate(-301.6 -172.4)"/></g></g></g></svg>