<svg xmlns="http://www.w3.org/2000/svg" width="1936" height="1249" viewBox="0 0 1936 1249"><defs><style>.a{fill:#fafdff;}.b{fill:#cfeeff;}</style></defs><rect class="a" width="1920" height="1249"/><circle class="b" cx="2.5" cy="2.5" r="2.5" transform="translate(58)"/><circle class="b" cx="2.5" cy="2.5" r="2.5" transform="translate(58 58)"/><circle class="b" cx="2.5" cy="2.5" r="2.5"/><circle class="b" cx="2.5" cy="2.5" r="2.5" transform="translate(0 58)"/><circle class="b" cx="2.5" cy="2.5" r="2.5" transform="translate(176)"/><circle class="b" cx="2.5" cy="2.5" r="2.5" transform="translate(176 58)"/><circle class="b" cx="2.5" cy="2.5" r="2.5" transform="translate(117)"/><circle class="b" cx="2.5" cy="2.5" r="2.5" transform="translate(117 58)"/><circle class="b" cx="2.5" cy="2.5" r="2.5" transform="translate(293)"/><circle class="b" cx="2.5" cy="2.5" r="2.5" transform="translate(293 58)"/><circle class="b" cx="2.5" cy="2.5" r="2.5" transform="translate(234)"/><circle class="b" cx="2.5" cy="2.5" r="2.5" transform="translate(234 58)"/><circle class="b" cx="2.5" cy="2.5" r="2.5" transform="translate(409)"/><circle class="b" cx="2.5" cy="2.5" r="2.5" transform="translate(409 58)"/><circle class="b" cx="2.5" cy="2.5" r="2.5" transform="translate(351)"/><circle class="b" cx="2.5" cy="2.5" r="2.5" transform="translate(351 58)"/><circle class="b" cx="2.5" cy="2.5" r="2.5" transform="translate(527)"/><circle class="b" cx="2.5" cy="2.5" r="2.5" transform="translate(527 58)"/><circle class="b" cx="2.5" cy="2.5" r="2.5" transform="translate(469)"/><circle class="b" cx="2.5" cy="2.5" r="2.5" transform="translate(469 58)"/><circle class="b" cx="2.5" cy="2.5" r="2.5" transform="translate(644)"/><circle class="b" cx="2.5" cy="2.5" r="2.5" transform="translate(644 58)"/><circle class="b" cx="2.5" cy="2.5" r="2.5" transform="translate(585)"/><circle class="b" cx="2.5" cy="2.5" r="2.5" transform="translate(585 58)"/><circle class="b" cx="2.5" cy="2.5" r="2.5" transform="translate(761)"/><circle class="b" cx="2.5" cy="2.5" r="2.5" transform="translate(761 58)"/><circle class="b" cx="2.5" cy="2.5" r="2.5" transform="translate(702)"/><circle class="b" cx="2.5" cy="2.5" r="2.5" transform="translate(702 58)"/><circle class="b" cx="2.5" cy="2.5" r="2.5" transform="translate(878)"/><circle class="b" cx="2.5" cy="2.5" r="2.5" transform="translate(878 58)"/><circle class="b" cx="2.5" cy="2.5" r="2.5" transform="translate(820)"/><circle class="b" cx="2.5" cy="2.5" r="2.5" transform="translate(820 58)"/><circle class="b" cx="2.5" cy="2.5" r="2.5" transform="translate(995)"/><circle class="b" cx="2.5" cy="2.5" r="2.5" transform="translate(995 58)"/><circle class="b" cx="2.5" cy="2.5" r="2.5" transform="translate(936)"/><circle class="b" cx="2.5" cy="2.5" r="2.5" transform="translate(936 58)"/><circle class="b" cx="2.5" cy="2.5" r="2.5" transform="translate(1112)"/><circle class="b" cx="2.5" cy="2.5" r="2.5" transform="translate(1112 58)"/><circle class="b" cx="2.5" cy="2.5" r="2.5" transform="translate(1054)"/><circle class="b" cx="2.5" cy="2.5" r="2.5" transform="translate(1054 58)"/><circle class="b" cx="2.5" cy="2.5" r="2.5" transform="translate(1229)"/><circle class="b" cx="2.5" cy="2.5" r="2.5" transform="translate(1229 58)"/><circle class="b" cx="2.5" cy="2.5" r="2.5" transform="translate(1171)"/><circle class="b" cx="2.5" cy="2.5" r="2.5" transform="translate(1171 58)"/><circle class="b" cx="2.5" cy="2.5" r="2.5" transform="translate(1347)"/><circle class="b" cx="2.5" cy="2.5" r="2.5" transform="translate(1347 58)"/><circle class="b" cx="2.5" cy="2.5" r="2.5" transform="translate(1287)"/><circle class="b" cx="2.5" cy="2.5" r="2.5" transform="translate(1287 58)"/><circle class="b" cx="2.5" cy="2.5" r="2.5" transform="translate(1463)"/><circle class="b" cx="2.5" cy="2.5" r="2.5" transform="translate(1463 58)"/><circle class="b" cx="2.5" cy="2.5" r="2.5" transform="translate(1405)"/><circle class="b" cx="2.5" cy="2.5" r="2.5" transform="translate(1405 58)"/><circle class="b" cx="2.5" cy="2.5" r="2.5" transform="translate(1580)"/><circle class="b" cx="2.5" cy="2.5" r="2.5" transform="translate(1580 58)"/><circle class="b" cx="2.5" cy="2.5" r="2.5" transform="translate(1522)"/><circle class="b" cx="2.5" cy="2.5" r="2.5" transform="translate(1522 58)"/><circle class="b" cx="2.5" cy="2.5" r="2.5" transform="translate(1698)"/><circle class="b" cx="2.5" cy="2.5" r="2.5" transform="translate(1698 58)"/><circle class="b" cx="2.5" cy="2.5" r="2.5" transform="translate(1638)"/><circle class="b" cx="2.5" cy="2.5" r="2.5" transform="translate(1638 58)"/><circle class="b" cx="2.5" cy="2.5" r="2.5" transform="translate(1814)"/><circle class="b" cx="2.5" cy="2.5" r="2.5" transform="translate(1814 58)"/><circle class="b" cx="2.5" cy="2.5" r="2.5" transform="translate(1756)"/><circle class="b" cx="2.5" cy="2.5" r="2.5" transform="translate(1756 58)"/><circle class="b" cx="2.5" cy="2.5" r="2.5" transform="translate(1872)"/><circle class="b" cx="2.5" cy="2.5" r="2.5" transform="translate(1872 58)"/><circle class="b" cx="2.5" cy="2.5" r="2.5" transform="translate(58 117)"/><circle class="b" cx="2.5" cy="2.5" r="2.5" transform="translate(58 176)"/><circle class="b" cx="2.5" cy="2.5" r="2.5" transform="translate(0 117)"/><circle class="b" cx="2.5" cy="2.5" r="2.5" transform="translate(0 176)"/><circle class="b" cx="2.5" cy="2.5" r="2.5" transform="translate(176 117)"/><circle class="b" cx="2.5" cy="2.5" r="2.5" transform="translate(176 176)"/><circle class="b" cx="2.5" cy="2.5" r="2.5" transform="translate(117 117)"/><circle class="b" cx="2.5" cy="2.5" r="2.5" transform="translate(117 176)"/><circle class="b" cx="2.5" cy="2.5" r="2.5" transform="translate(293 117)"/><circle class="b" cx="2.5" cy="2.5" r="2.5" transform="translate(293 176)"/><circle class="b" cx="2.5" cy="2.5" r="2.5" transform="translate(234 117)"/><circle class="b" cx="2.5" cy="2.5" r="2.5" transform="translate(234 176)"/><circle class="b" cx="2.5" cy="2.5" r="2.5" transform="translate(409 117)"/><circle class="b" cx="2.5" cy="2.5" r="2.5" transform="translate(409 176)"/><circle class="b" cx="2.5" cy="2.5" r="2.5" transform="translate(351 117)"/><circle class="b" cx="2.5" cy="2.5" r="2.5" transform="translate(351 176)"/><circle class="b" cx="2.5" cy="2.5" r="2.5" transform="translate(527 117)"/><circle class="b" cx="2.5" cy="2.5" r="2.5" transform="translate(527 176)"/><circle class="b" cx="2.5" cy="2.5" r="2.5" transform="translate(469 117)"/><circle class="b" cx="2.5" cy="2.5" r="2.5" transform="translate(469 176)"/><circle class="b" cx="2.5" cy="2.5" r="2.5" transform="translate(644 117)"/><circle class="b" cx="2.5" cy="2.5" r="2.5" transform="translate(644 176)"/><circle class="b" cx="2.5" cy="2.5" r="2.5" transform="translate(585 117)"/><circle class="b" cx="2.5" cy="2.5" r="2.5" transform="translate(585 176)"/><circle class="b" cx="2.5" cy="2.5" r="2.5" transform="translate(761 117)"/><circle class="b" cx="2.5" cy="2.5" r="2.5" transform="translate(761 176)"/><circle class="b" cx="2.5" cy="2.5" r="2.5" transform="translate(702 117)"/><circle class="b" cx="2.5" cy="2.5" r="2.5" transform="translate(702 176)"/><circle class="b" cx="2.5" cy="2.5" r="2.5" transform="translate(878 117)"/><circle class="b" cx="2.5" cy="2.5" r="2.5" transform="translate(878 176)"/><circle class="b" cx="2.5" cy="2.5" r="2.5" transform="translate(820 117)"/><circle class="b" cx="2.5" cy="2.5" r="2.5" transform="translate(820 176)"/><circle class="b" cx="2.5" cy="2.5" r="2.5" transform="translate(995 117)"/><circle class="b" cx="2.5" cy="2.5" r="2.5" transform="translate(995 176)"/><circle class="b" cx="2.5" cy="2.5" r="2.5" transform="translate(936 117)"/><circle class="b" cx="2.5" cy="2.5" r="2.5" transform="translate(936 176)"/><circle class="b" cx="2.5" cy="2.5" r="2.5" transform="translate(1112 117)"/><circle class="b" cx="2.5" cy="2.5" r="2.5" transform="translate(1112 176)"/><circle class="b" cx="2.5" cy="2.5" r="2.5" transform="translate(1054 117)"/><circle class="b" cx="2.5" cy="2.5" r="2.5" transform="translate(1054 176)"/><circle class="b" cx="2.5" cy="2.5" r="2.5" transform="translate(1229 117)"/><circle class="b" cx="2.5" cy="2.5" r="2.5" transform="translate(1229 176)"/><circle class="b" cx="2.5" cy="2.5" r="2.5" transform="translate(1171 117)"/><circle class="b" cx="2.5" cy="2.5" r="2.5" transform="translate(1171 176)"/><circle class="b" cx="2.5" cy="2.5" r="2.5" transform="translate(1347 117)"/><circle class="b" cx="2.5" cy="2.5" r="2.5" transform="translate(1347 176)"/><circle class="b" cx="2.5" cy="2.5" r="2.5" transform="translate(1287 117)"/><circle class="b" cx="2.5" cy="2.5" r="2.5" transform="translate(1287 176)"/><circle class="b" cx="2.5" cy="2.5" r="2.5" transform="translate(1463 117)"/><circle class="b" cx="2.5" cy="2.5" r="2.5" transform="translate(1463 176)"/><circle class="b" cx="2.5" cy="2.5" r="2.5" transform="translate(1405 117)"/><circle class="b" cx="2.5" cy="2.5" r="2.5" transform="translate(1405 176)"/><circle class="b" cx="2.5" cy="2.5" r="2.5" transform="translate(1580 117)"/><circle class="b" cx="2.5" cy="2.5" r="2.5" transform="translate(1580 176)"/><circle class="b" cx="2.5" cy="2.5" r="2.5" transform="translate(1522 117)"/><circle class="b" cx="2.5" cy="2.5" r="2.5" transform="translate(1522 176)"/><circle class="b" cx="2.5" cy="2.5" r="2.5" transform="translate(1698 117)"/><circle class="b" cx="2.5" cy="2.5" r="2.5" transform="translate(1698 176)"/><circle class="b" cx="2.5" cy="2.5" r="2.5" transform="translate(1638 117)"/><circle class="b" cx="2.5" cy="2.5" r="2.5" transform="translate(1638 176)"/><circle class="b" cx="2.5" cy="2.5" r="2.5" transform="translate(1814 117)"/><circle class="b" cx="2.5" cy="2.5" r="2.5" transform="translate(1814 176)"/><circle class="b" cx="2.5" cy="2.5" r="2.5" transform="translate(1756 117)"/><circle class="b" cx="2.5" cy="2.5" r="2.5" transform="translate(1756 176)"/><circle class="b" cx="2.5" cy="2.5" r="2.5" transform="translate(1872 117)"/><circle class="b" cx="2.5" cy="2.5" r="2.5" transform="translate(1872 176)"/><circle class="b" cx="2.5" cy="2.5" r="2.5" transform="translate(58 234)"/><circle class="b" cx="2.5" cy="2.5" r="2.5" transform="translate(58 293)"/><circle class="b" cx="2.5" cy="2.5" r="2.5" transform="translate(0 234)"/><circle class="b" cx="2.5" cy="2.5" r="2.5" transform="translate(0 293)"/><circle class="b" cx="2.5" cy="2.5" r="2.5" transform="translate(176 234)"/><circle class="b" cx="2.5" cy="2.5" r="2.5" transform="translate(176 293)"/><circle class="b" cx="2.5" cy="2.5" r="2.5" transform="translate(117 234)"/><circle class="b" cx="2.5" cy="2.5" r="2.5" transform="translate(117 293)"/><circle class="b" cx="2.5" cy="2.5" r="2.5" transform="translate(293 234)"/><circle class="b" cx="2.5" cy="2.5" r="2.5" transform="translate(293 293)"/><circle class="b" cx="2.5" cy="2.5" r="2.5" transform="translate(234 234)"/><circle class="b" cx="2.5" cy="2.5" r="2.5" transform="translate(234 293)"/><circle class="b" cx="2.5" cy="2.5" r="2.5" transform="translate(409 234)"/><circle class="b" cx="2.5" cy="2.5" r="2.5" transform="translate(409 293)"/><circle class="b" cx="2.5" cy="2.5" r="2.5" transform="translate(351 234)"/><circle class="b" cx="2.5" cy="2.5" r="2.5" transform="translate(351 293)"/><circle class="b" cx="2.5" cy="2.5" r="2.5" transform="translate(527 234)"/><circle class="b" cx="2.5" cy="2.5" r="2.5" transform="translate(527 293)"/><circle class="b" cx="2.5" cy="2.5" r="2.5" transform="translate(469 234)"/><circle class="b" cx="2.5" cy="2.5" r="2.5" transform="translate(469 293)"/><circle class="b" cx="2.5" cy="2.5" r="2.5" transform="translate(644 234)"/><circle class="b" cx="2.5" cy="2.5" r="2.5" transform="translate(644 293)"/><circle class="b" cx="2.5" cy="2.5" r="2.5" transform="translate(585 234)"/><circle class="b" cx="2.5" cy="2.5" r="2.5" transform="translate(585 293)"/><circle class="b" cx="2.5" cy="2.5" r="2.5" transform="translate(761 234)"/><circle class="b" cx="2.5" cy="2.5" r="2.5" transform="translate(761 293)"/><circle class="b" cx="2.5" cy="2.5" r="2.5" transform="translate(702 234)"/><circle class="b" cx="2.5" cy="2.5" r="2.5" transform="translate(702 293)"/><circle class="b" cx="2.5" cy="2.5" r="2.5" transform="translate(878 234)"/><circle class="b" cx="2.5" cy="2.5" r="2.5" transform="translate(878 293)"/><circle class="b" cx="2.5" cy="2.5" r="2.5" transform="translate(820 234)"/><circle class="b" cx="2.5" cy="2.5" r="2.5" transform="translate(820 293)"/><circle class="b" cx="2.5" cy="2.5" r="2.5" transform="translate(995 234)"/><circle class="b" cx="2.5" cy="2.5" r="2.5" transform="translate(995 293)"/><circle class="b" cx="2.5" cy="2.5" r="2.5" transform="translate(936 234)"/><circle class="b" cx="2.5" cy="2.5" r="2.5" transform="translate(936 293)"/><circle class="b" cx="2.5" cy="2.5" r="2.5" transform="translate(1112 234)"/><circle class="b" cx="2.5" cy="2.5" r="2.5" transform="translate(1112 293)"/><circle class="b" cx="2.5" cy="2.5" r="2.5" transform="translate(1054 234)"/><circle class="b" cx="2.5" cy="2.5" r="2.5" transform="translate(1054 293)"/><circle class="b" cx="2.5" cy="2.5" r="2.5" transform="translate(1229 234)"/><circle class="b" cx="2.5" cy="2.5" r="2.5" transform="translate(1229 293)"/><circle class="b" cx="2.5" cy="2.5" r="2.5" transform="translate(1171 234)"/><circle class="b" cx="2.5" cy="2.5" r="2.5" transform="translate(1171 293)"/><circle class="b" cx="2.5" cy="2.5" r="2.5" transform="translate(1347 234)"/><circle class="b" cx="2.5" cy="2.5" r="2.5" transform="translate(1347 293)"/><circle class="b" cx="2.5" cy="2.5" r="2.5" transform="translate(1287 234)"/><circle class="b" cx="2.5" cy="2.5" r="2.5" transform="translate(1287 293)"/><circle class="b" cx="2.5" cy="2.5" r="2.5" transform="translate(1463 234)"/><circle class="b" cx="2.5" cy="2.5" r="2.5" transform="translate(1463 293)"/><circle class="b" cx="2.5" cy="2.5" r="2.5" transform="translate(1405 234)"/><circle class="b" cx="2.5" cy="2.5" r="2.5" transform="translate(1405 293)"/><circle class="b" cx="2.5" cy="2.5" r="2.5" transform="translate(1580 234)"/><circle class="b" cx="2.5" cy="2.5" r="2.5" transform="translate(1580 293)"/><circle class="b" cx="2.5" cy="2.5" r="2.5" transform="translate(1522 234)"/><circle class="b" cx="2.5" cy="2.5" r="2.5" transform="translate(1522 293)"/><circle class="b" cx="2.5" cy="2.5" r="2.5" transform="translate(1698 234)"/><circle class="b" cx="2.5" cy="2.5" r="2.5" transform="translate(1698 293)"/><circle class="b" cx="2.5" cy="2.5" r="2.5" transform="translate(1638 234)"/><circle class="b" cx="2.5" cy="2.5" r="2.5" transform="translate(1638 293)"/><circle class="b" cx="2.5" cy="2.5" r="2.5" transform="translate(1814 234)"/><circle class="b" cx="2.5" cy="2.5" r="2.5" transform="translate(1814 293)"/><circle class="b" cx="2.5" cy="2.5" r="2.5" transform="translate(1756 234)"/><circle class="b" cx="2.5" cy="2.5" r="2.5" transform="translate(1756 293)"/><circle class="b" cx="2.5" cy="2.5" r="2.5" transform="translate(1872 234)"/><circle class="b" cx="2.5" cy="2.5" r="2.5" transform="translate(1872 293)"/><circle class="b" cx="2.5" cy="2.5" r="2.5" transform="translate(58 351)"/><circle class="b" cx="2.5" cy="2.5" r="2.5" transform="translate(58 409)"/><circle class="b" cx="2.5" cy="2.5" r="2.5" transform="translate(0 351)"/><circle class="b" cx="2.5" cy="2.5" r="2.5" transform="translate(0 409)"/><circle class="b" cx="2.5" cy="2.5" r="2.5" transform="translate(176 351)"/><circle class="b" cx="2.5" cy="2.5" r="2.5" transform="translate(176 409)"/><circle class="b" cx="2.5" cy="2.5" r="2.5" transform="translate(117 351)"/><circle class="b" cx="2.5" cy="2.5" r="2.5" transform="translate(117 409)"/><circle class="b" cx="2.5" cy="2.5" r="2.5" transform="translate(293 351)"/><circle class="b" cx="2.5" cy="2.5" r="2.5" transform="translate(293 409)"/><circle class="b" cx="2.5" cy="2.5" r="2.5" transform="translate(234 351)"/><circle class="b" cx="2.5" cy="2.5" r="2.5" transform="translate(234 409)"/><circle class="b" cx="2.5" cy="2.5" r="2.5" transform="translate(409 351)"/><circle class="b" cx="2.5" cy="2.5" r="2.5" transform="translate(409 409)"/><circle class="b" cx="2.5" cy="2.5" r="2.5" transform="translate(351 351)"/><circle class="b" cx="2.5" cy="2.5" r="2.5" transform="translate(351 409)"/><circle class="b" cx="2.5" cy="2.5" r="2.5" transform="translate(527 351)"/><circle class="b" cx="2.5" cy="2.5" r="2.5" transform="translate(527 409)"/><circle class="b" cx="2.5" cy="2.5" r="2.5" transform="translate(469 351)"/><circle class="b" cx="2.5" cy="2.5" r="2.5" transform="translate(469 409)"/><circle class="b" cx="2.5" cy="2.5" r="2.5" transform="translate(644 351)"/><circle class="b" cx="2.5" cy="2.5" r="2.5" transform="translate(644 409)"/><circle class="b" cx="2.5" cy="2.5" r="2.5" transform="translate(585 351)"/><circle class="b" cx="2.5" cy="2.5" r="2.5" transform="translate(585 409)"/><circle class="b" cx="2.5" cy="2.5" r="2.5" transform="translate(761 351)"/><circle class="b" cx="2.5" cy="2.5" r="2.5" transform="translate(761 409)"/><circle class="b" cx="2.5" cy="2.5" r="2.5" transform="translate(702 351)"/><circle class="b" cx="2.5" cy="2.5" r="2.5" transform="translate(702 409)"/><circle class="b" cx="2.5" cy="2.5" r="2.5" transform="translate(878 351)"/><circle class="b" cx="2.5" cy="2.5" r="2.5" transform="translate(878 409)"/><circle class="b" cx="2.5" cy="2.5" r="2.5" transform="translate(820 351)"/><circle class="b" cx="2.5" cy="2.5" r="2.5" transform="translate(820 409)"/><circle class="b" cx="2.5" cy="2.5" r="2.5" transform="translate(995 351)"/><circle class="b" cx="2.5" cy="2.5" r="2.5" transform="translate(995 409)"/><circle class="b" cx="2.5" cy="2.5" r="2.5" transform="translate(936 351)"/><circle class="b" cx="2.5" cy="2.5" r="2.5" transform="translate(936 409)"/><circle class="b" cx="2.5" cy="2.5" r="2.5" transform="translate(1112 351)"/><circle class="b" cx="2.5" cy="2.5" r="2.5" transform="translate(1112 409)"/><circle class="b" cx="2.5" cy="2.5" r="2.5" transform="translate(1054 351)"/><circle class="b" cx="2.5" cy="2.5" r="2.5" transform="translate(1054 409)"/><circle class="b" cx="2.5" cy="2.5" r="2.5" transform="translate(1229 351)"/><circle class="b" cx="2.5" cy="2.5" r="2.5" transform="translate(1229 409)"/><circle class="b" cx="2.5" cy="2.5" r="2.5" transform="translate(1171 351)"/><circle class="b" cx="2.5" cy="2.5" r="2.5" transform="translate(1171 409)"/><circle class="b" cx="2.5" cy="2.5" r="2.5" transform="translate(1347 351)"/><circle class="b" cx="2.5" cy="2.5" r="2.5" transform="translate(1347 409)"/><circle class="b" cx="2.5" cy="2.5" r="2.5" transform="translate(1287 351)"/><circle class="b" cx="2.5" cy="2.5" r="2.5" transform="translate(1287 409)"/><circle class="b" cx="2.5" cy="2.5" r="2.5" transform="translate(1463 351)"/><circle class="b" cx="2.5" cy="2.5" r="2.5" transform="translate(1463 409)"/><circle class="b" cx="2.5" cy="2.5" r="2.5" transform="translate(1405 351)"/><circle class="b" cx="2.5" cy="2.5" r="2.5" transform="translate(1405 409)"/><circle class="b" cx="2.5" cy="2.5" r="2.5" transform="translate(1580 351)"/><circle class="b" cx="2.5" cy="2.5" r="2.5" transform="translate(1580 409)"/><circle class="b" cx="2.5" cy="2.5" r="2.5" transform="translate(1522 351)"/><circle class="b" cx="2.5" cy="2.5" r="2.5" transform="translate(1522 409)"/><circle class="b" cx="2.5" cy="2.5" r="2.5" transform="translate(1698 351)"/><circle class="b" cx="2.5" cy="2.5" r="2.5" transform="translate(1698 409)"/><circle class="b" cx="2.5" cy="2.5" r="2.5" transform="translate(1638 351)"/><circle class="b" cx="2.5" cy="2.5" r="2.5" transform="translate(1638 409)"/><circle class="b" cx="2.5" cy="2.5" r="2.5" transform="translate(1814 351)"/><circle class="b" cx="2.5" cy="2.5" r="2.5" transform="translate(1814 409)"/><circle class="b" cx="2.5" cy="2.5" r="2.5" transform="translate(1756 351)"/><circle class="b" cx="2.5" cy="2.5" r="2.5" transform="translate(1756 409)"/><circle class="b" cx="2.5" cy="2.5" r="2.5" transform="translate(1872 351)"/><circle class="b" cx="2.5" cy="2.5" r="2.5" transform="translate(1872 409)"/><circle class="b" cx="2.5" cy="2.5" r="2.5" transform="translate(58 469)"/><circle class="b" cx="2.5" cy="2.5" r="2.5" transform="translate(58 527)"/><circle class="b" cx="2.5" cy="2.5" r="2.5" transform="translate(0 469)"/><circle class="b" cx="2.5" cy="2.5" r="2.5" transform="translate(0 527)"/><circle class="b" cx="2.5" cy="2.5" r="2.5" transform="translate(176 469)"/><circle class="b" cx="2.5" cy="2.5" r="2.5" transform="translate(176 527)"/><circle class="b" cx="2.5" cy="2.5" r="2.5" transform="translate(117 469)"/><circle class="b" cx="2.5" cy="2.5" r="2.5" transform="translate(117 527)"/><circle class="b" cx="2.5" cy="2.5" r="2.5" transform="translate(293 469)"/><circle class="b" cx="2.5" cy="2.5" r="2.5" transform="translate(293 527)"/><circle class="b" cx="2.5" cy="2.5" r="2.5" transform="translate(234 469)"/><circle class="b" cx="2.5" cy="2.5" r="2.5" transform="translate(234 527)"/><circle class="b" cx="2.5" cy="2.5" r="2.5" transform="translate(409 469)"/><circle class="b" cx="2.5" cy="2.5" r="2.5" transform="translate(409 527)"/><circle class="b" cx="2.5" cy="2.5" r="2.5" transform="translate(351 469)"/><circle class="b" cx="2.5" cy="2.5" r="2.5" transform="translate(351 527)"/><circle class="b" cx="2.5" cy="2.5" r="2.5" transform="translate(527 469)"/><circle class="b" cx="2.5" cy="2.5" r="2.5" transform="translate(527 527)"/><circle class="b" cx="2.5" cy="2.5" r="2.5" transform="translate(469 469)"/><circle class="b" cx="2.5" cy="2.5" r="2.5" transform="translate(469 527)"/><circle class="b" cx="2.5" cy="2.5" r="2.5" transform="translate(644 469)"/><circle class="b" cx="2.5" cy="2.5" r="2.5" transform="translate(644 527)"/><circle class="b" cx="2.5" cy="2.5" r="2.5" transform="translate(585 469)"/><circle class="b" cx="2.5" cy="2.5" r="2.5" transform="translate(585 527)"/><circle class="b" cx="2.5" cy="2.5" r="2.5" transform="translate(761 469)"/><circle class="b" cx="2.5" cy="2.5" r="2.5" transform="translate(761 527)"/><circle class="b" cx="2.5" cy="2.5" r="2.5" transform="translate(702 469)"/><circle class="b" cx="2.5" cy="2.5" r="2.5" transform="translate(702 527)"/><circle class="b" cx="2.5" cy="2.5" r="2.5" transform="translate(878 469)"/><circle class="b" cx="2.5" cy="2.5" r="2.5" transform="translate(878 527)"/><circle class="b" cx="2.5" cy="2.5" r="2.5" transform="translate(820 469)"/><circle class="b" cx="2.5" cy="2.5" r="2.5" transform="translate(820 527)"/><circle class="b" cx="2.5" cy="2.5" r="2.5" transform="translate(995 469)"/><circle class="b" cx="2.5" cy="2.5" r="2.5" transform="translate(995 527)"/><circle class="b" cx="2.5" cy="2.5" r="2.5" transform="translate(936 469)"/><circle class="b" cx="2.5" cy="2.5" r="2.5" transform="translate(936 527)"/><circle class="b" cx="2.5" cy="2.5" r="2.5" transform="translate(1112 469)"/><circle class="b" cx="2.5" cy="2.5" r="2.5" transform="translate(1112 527)"/><circle class="b" cx="2.5" cy="2.5" r="2.5" transform="translate(1054 469)"/><circle class="b" cx="2.5" cy="2.5" r="2.5" transform="translate(1054 527)"/><circle class="b" cx="2.5" cy="2.5" r="2.5" transform="translate(1229 469)"/><circle class="b" cx="2.5" cy="2.5" r="2.5" transform="translate(1229 527)"/><circle class="b" cx="2.5" cy="2.5" r="2.5" transform="translate(1171 469)"/><circle class="b" cx="2.5" cy="2.5" r="2.5" transform="translate(1171 527)"/><circle class="b" cx="2.5" cy="2.5" r="2.5" transform="translate(1347 469)"/><circle class="b" cx="2.5" cy="2.5" r="2.5" transform="translate(1347 527)"/><circle class="b" cx="2.5" cy="2.5" r="2.5" transform="translate(1287 469)"/><circle class="b" cx="2.5" cy="2.5" r="2.5" transform="translate(1287 527)"/><circle class="b" cx="2.5" cy="2.5" r="2.5" transform="translate(1463 469)"/><circle class="b" cx="2.5" cy="2.5" r="2.5" transform="translate(1463 527)"/><circle class="b" cx="2.5" cy="2.5" r="2.5" transform="translate(1405 469)"/><circle class="b" cx="2.5" cy="2.5" r="2.5" transform="translate(1405 527)"/><circle class="b" cx="2.5" cy="2.5" r="2.5" transform="translate(1580 469)"/><circle class="b" cx="2.5" cy="2.5" r="2.5" transform="translate(1580 527)"/><circle class="b" cx="2.5" cy="2.5" r="2.5" transform="translate(1522 469)"/><circle class="b" cx="2.5" cy="2.5" r="2.5" transform="translate(1522 527)"/><circle class="b" cx="2.5" cy="2.5" r="2.5" transform="translate(1698 469)"/><circle class="b" cx="2.5" cy="2.5" r="2.5" transform="translate(1698 527)"/><circle class="b" cx="2.5" cy="2.5" r="2.5" transform="translate(1638 469)"/><circle class="b" cx="2.5" cy="2.5" r="2.5" transform="translate(1638 527)"/><circle class="b" cx="2.5" cy="2.5" r="2.5" transform="translate(1814 469)"/><circle class="b" cx="2.5" cy="2.5" r="2.5" transform="translate(1814 527)"/><circle class="b" cx="2.5" cy="2.5" r="2.5" transform="translate(1756 469)"/><circle class="b" cx="2.5" cy="2.5" r="2.5" transform="translate(1756 527)"/><circle class="b" cx="2.5" cy="2.5" r="2.5" transform="translate(1872 469)"/><circle class="b" cx="2.5" cy="2.5" r="2.5" transform="translate(1872 527)"/><circle class="b" cx="2.5" cy="2.5" r="2.5" transform="translate(58 585)"/><circle class="b" cx="2.5" cy="2.5" r="2.5" transform="translate(58 644)"/><circle class="b" cx="2.5" cy="2.5" r="2.5" transform="translate(0 585)"/><circle class="b" cx="2.5" cy="2.5" r="2.5" transform="translate(0 644)"/><circle class="b" cx="2.5" cy="2.5" r="2.5" transform="translate(176 585)"/><circle class="b" cx="2.5" cy="2.5" r="2.5" transform="translate(176 644)"/><circle class="b" cx="2.5" cy="2.5" r="2.5" transform="translate(117 585)"/><circle class="b" cx="2.5" cy="2.5" r="2.5" transform="translate(117 644)"/><circle class="b" cx="2.5" cy="2.5" r="2.5" transform="translate(293 585)"/><circle class="b" cx="2.5" cy="2.5" r="2.5" transform="translate(293 644)"/><circle class="b" cx="2.5" cy="2.5" r="2.5" transform="translate(234 585)"/><circle class="b" cx="2.5" cy="2.5" r="2.5" transform="translate(234 644)"/><circle class="b" cx="2.5" cy="2.5" r="2.5" transform="translate(409 585)"/><circle class="b" cx="2.5" cy="2.5" r="2.5" transform="translate(409 644)"/><circle class="b" cx="2.5" cy="2.5" r="2.5" transform="translate(351 585)"/><circle class="b" cx="2.5" cy="2.5" r="2.5" transform="translate(351 644)"/><circle class="b" cx="2.5" cy="2.5" r="2.5" transform="translate(527 585)"/><circle class="b" cx="2.5" cy="2.5" r="2.5" transform="translate(527 644)"/><circle class="b" cx="2.5" cy="2.5" r="2.5" transform="translate(469 585)"/><circle class="b" cx="2.5" cy="2.5" r="2.5" transform="translate(469 644)"/><circle class="b" cx="2.5" cy="2.5" r="2.5" transform="translate(644 585)"/><circle class="b" cx="2.5" cy="2.5" r="2.5" transform="translate(644 644)"/><circle class="b" cx="2.5" cy="2.5" r="2.5" transform="translate(585 585)"/><circle class="b" cx="2.5" cy="2.5" r="2.5" transform="translate(585 644)"/><circle class="b" cx="2.5" cy="2.5" r="2.5" transform="translate(761 585)"/><circle class="b" cx="2.5" cy="2.5" r="2.5" transform="translate(761 644)"/><circle class="b" cx="2.5" cy="2.5" r="2.5" transform="translate(702 585)"/><circle class="b" cx="2.5" cy="2.5" r="2.5" transform="translate(702 644)"/><circle class="b" cx="2.5" cy="2.5" r="2.5" transform="translate(878 585)"/><circle class="b" cx="2.5" cy="2.5" r="2.5" transform="translate(878 644)"/><circle class="b" cx="2.5" cy="2.5" r="2.5" transform="translate(820 585)"/><circle class="b" cx="2.5" cy="2.5" r="2.5" transform="translate(820 644)"/><circle class="b" cx="2.5" cy="2.5" r="2.5" transform="translate(995 585)"/><circle class="b" cx="2.5" cy="2.5" r="2.5" transform="translate(995 644)"/><circle class="b" cx="2.5" cy="2.5" r="2.5" transform="translate(936 585)"/><circle class="b" cx="2.5" cy="2.5" r="2.5" transform="translate(936 644)"/><circle class="b" cx="2.5" cy="2.5" r="2.5" transform="translate(1112 585)"/><circle class="b" cx="2.5" cy="2.5" r="2.5" transform="translate(1112 644)"/><circle class="b" cx="2.5" cy="2.5" r="2.5" transform="translate(1054 585)"/><circle class="b" cx="2.5" cy="2.5" r="2.5" transform="translate(1054 644)"/><circle class="b" cx="2.5" cy="2.5" r="2.5" transform="translate(1229 585)"/><circle class="b" cx="2.5" cy="2.5" r="2.5" transform="translate(1229 644)"/><circle class="b" cx="2.5" cy="2.5" r="2.5" transform="translate(1171 585)"/><circle class="b" cx="2.5" cy="2.5" r="2.5" transform="translate(1171 644)"/><circle class="b" cx="2.5" cy="2.5" r="2.5" transform="translate(1347 585)"/><circle class="b" cx="2.5" cy="2.5" r="2.5" transform="translate(1347 644)"/><circle class="b" cx="2.5" cy="2.5" r="2.5" transform="translate(1287 585)"/><circle class="b" cx="2.5" cy="2.5" r="2.5" transform="translate(1287 644)"/><circle class="b" cx="2.5" cy="2.5" r="2.5" transform="translate(1463 585)"/><circle class="b" cx="2.5" cy="2.5" r="2.5" transform="translate(1463 644)"/><circle class="b" cx="2.5" cy="2.5" r="2.5" transform="translate(1405 585)"/><circle class="b" cx="2.5" cy="2.5" r="2.5" transform="translate(1405 644)"/><circle class="b" cx="2.5" cy="2.5" r="2.5" transform="translate(1580 585)"/><circle class="b" cx="2.5" cy="2.5" r="2.5" transform="translate(1580 644)"/><circle class="b" cx="2.5" cy="2.5" r="2.5" transform="translate(1522 585)"/><circle class="b" cx="2.5" cy="2.5" r="2.5" transform="translate(1522 644)"/><circle class="b" cx="2.5" cy="2.5" r="2.5" transform="translate(1698 585)"/><circle class="b" cx="2.5" cy="2.5" r="2.5" transform="translate(1698 644)"/><circle class="b" cx="2.5" cy="2.5" r="2.5" transform="translate(1638 585)"/><circle class="b" cx="2.5" cy="2.5" r="2.5" transform="translate(1638 644)"/><circle class="b" cx="2.5" cy="2.5" r="2.5" transform="translate(1814 585)"/><circle class="b" cx="2.5" cy="2.5" r="2.5" transform="translate(1814 644)"/><circle class="b" cx="2.5" cy="2.5" r="2.5" transform="translate(1756 585)"/><circle class="b" cx="2.5" cy="2.5" r="2.5" transform="translate(1756 644)"/><circle class="b" cx="2.5" cy="2.5" r="2.5" transform="translate(1872 585)"/><circle class="b" cx="2.5" cy="2.5" r="2.5" transform="translate(1872 644)"/><circle class="b" cx="2.5" cy="2.5" r="2.5" transform="translate(58 702)"/><circle class="b" cx="2.5" cy="2.5" r="2.5" transform="translate(58 761)"/><circle class="b" cx="2.5" cy="2.5" r="2.5" transform="translate(0 702)"/><circle class="b" cx="2.5" cy="2.5" r="2.5" transform="translate(0 761)"/><circle class="b" cx="2.5" cy="2.5" r="2.5" transform="translate(176 702)"/><circle class="b" cx="2.5" cy="2.5" r="2.5" transform="translate(176 761)"/><circle class="b" cx="2.5" cy="2.5" r="2.5" transform="translate(117 702)"/><circle class="b" cx="2.5" cy="2.5" r="2.5" transform="translate(117 761)"/><circle class="b" cx="2.5" cy="2.5" r="2.5" transform="translate(293 702)"/><circle class="b" cx="2.5" cy="2.5" r="2.5" transform="translate(293 761)"/><circle class="b" cx="2.5" cy="2.5" r="2.5" transform="translate(234 702)"/><circle class="b" cx="2.5" cy="2.5" r="2.5" transform="translate(234 761)"/><circle class="b" cx="2.5" cy="2.5" r="2.5" transform="translate(409 702)"/><circle class="b" cx="2.5" cy="2.5" r="2.5" transform="translate(409 761)"/><circle class="b" cx="2.5" cy="2.5" r="2.5" transform="translate(351 702)"/><circle class="b" cx="2.5" cy="2.5" r="2.5" transform="translate(351 761)"/><circle class="b" cx="2.5" cy="2.5" r="2.5" transform="translate(527 702)"/><circle class="b" cx="2.5" cy="2.5" r="2.5" transform="translate(527 761)"/><circle class="b" cx="2.5" cy="2.5" r="2.5" transform="translate(469 702)"/><circle class="b" cx="2.5" cy="2.5" r="2.5" transform="translate(469 761)"/><circle class="b" cx="2.5" cy="2.5" r="2.5" transform="translate(644 702)"/><circle class="b" cx="2.5" cy="2.5" r="2.5" transform="translate(644 761)"/><circle class="b" cx="2.5" cy="2.5" r="2.5" transform="translate(585 702)"/><circle class="b" cx="2.5" cy="2.5" r="2.5" transform="translate(585 761)"/><circle class="b" cx="2.5" cy="2.5" r="2.5" transform="translate(761 702)"/><circle class="b" cx="2.5" cy="2.5" r="2.5" transform="translate(761 761)"/><circle class="b" cx="2.5" cy="2.5" r="2.5" transform="translate(702 702)"/><circle class="b" cx="2.5" cy="2.5" r="2.5" transform="translate(702 761)"/><circle class="b" cx="2.5" cy="2.5" r="2.5" transform="translate(878 702)"/><circle class="b" cx="2.5" cy="2.5" r="2.5" transform="translate(878 761)"/><circle class="b" cx="2.5" cy="2.5" r="2.5" transform="translate(820 702)"/><circle class="b" cx="2.5" cy="2.5" r="2.5" transform="translate(820 761)"/><circle class="b" cx="2.5" cy="2.5" r="2.5" transform="translate(995 702)"/><circle class="b" cx="2.5" cy="2.5" r="2.5" transform="translate(995 761)"/><circle class="b" cx="2.5" cy="2.5" r="2.5" transform="translate(936 702)"/><circle class="b" cx="2.5" cy="2.5" r="2.5" transform="translate(936 761)"/><circle class="b" cx="2.5" cy="2.5" r="2.5" transform="translate(1112 702)"/><circle class="b" cx="2.5" cy="2.5" r="2.5" transform="translate(1112 761)"/><circle class="b" cx="2.5" cy="2.5" r="2.5" transform="translate(1054 702)"/><circle class="b" cx="2.5" cy="2.5" r="2.5" transform="translate(1054 761)"/><circle class="b" cx="2.5" cy="2.5" r="2.5" transform="translate(1229 702)"/><circle class="b" cx="2.5" cy="2.5" r="2.5" transform="translate(1229 761)"/><circle class="b" cx="2.5" cy="2.5" r="2.5" transform="translate(1171 702)"/><circle class="b" cx="2.5" cy="2.5" r="2.5" transform="translate(1171 761)"/><circle class="b" cx="2.5" cy="2.5" r="2.5" transform="translate(1347 702)"/><circle class="b" cx="2.5" cy="2.5" r="2.5" transform="translate(1347 761)"/><circle class="b" cx="2.5" cy="2.5" r="2.5" transform="translate(1287 702)"/><circle class="b" cx="2.5" cy="2.5" r="2.5" transform="translate(1287 761)"/><circle class="b" cx="2.5" cy="2.5" r="2.5" transform="translate(1463 702)"/><circle class="b" cx="2.5" cy="2.5" r="2.5" transform="translate(1463 761)"/><circle class="b" cx="2.5" cy="2.5" r="2.5" transform="translate(1405 702)"/><circle class="b" cx="2.5" cy="2.5" r="2.5" transform="translate(1405 761)"/><circle class="b" cx="2.5" cy="2.5" r="2.5" transform="translate(1580 702)"/><circle class="b" cx="2.5" cy="2.5" r="2.5" transform="translate(1580 761)"/><circle class="b" cx="2.5" cy="2.5" r="2.5" transform="translate(1522 702)"/><circle class="b" cx="2.5" cy="2.5" r="2.5" transform="translate(1522 761)"/><circle class="b" cx="2.5" cy="2.5" r="2.5" transform="translate(1698 702)"/><circle class="b" cx="2.5" cy="2.5" r="2.5" transform="translate(1698 761)"/><circle class="b" cx="2.5" cy="2.5" r="2.5" transform="translate(1638 702)"/><circle class="b" cx="2.5" cy="2.5" r="2.5" transform="translate(1638 761)"/><circle class="b" cx="2.5" cy="2.5" r="2.5" transform="translate(1814 702)"/><circle class="b" cx="2.5" cy="2.5" r="2.5" transform="translate(1814 761)"/><circle class="b" cx="2.5" cy="2.5" r="2.5" transform="translate(1756 702)"/><circle class="b" cx="2.5" cy="2.5" r="2.5" transform="translate(1756 761)"/><circle class="b" cx="2.5" cy="2.5" r="2.5" transform="translate(1872 702)"/><circle class="b" cx="2.5" cy="2.5" r="2.5" transform="translate(1872 761)"/><circle class="b" cx="2.5" cy="2.5" r="2.5" transform="translate(58 820)"/><circle class="b" cx="2.5" cy="2.5" r="2.5" transform="translate(58 878)"/><circle class="b" cx="2.5" cy="2.5" r="2.5" transform="translate(0 820)"/><circle class="b" cx="2.5" cy="2.5" r="2.5" transform="translate(0 878)"/><circle class="b" cx="2.5" cy="2.5" r="2.5" transform="translate(176 820)"/><circle class="b" cx="2.5" cy="2.5" r="2.5" transform="translate(176 878)"/><circle class="b" cx="2.5" cy="2.5" r="2.5" transform="translate(117 820)"/><circle class="b" cx="2.5" cy="2.5" r="2.5" transform="translate(117 878)"/><circle class="b" cx="2.5" cy="2.5" r="2.5" transform="translate(293 820)"/><circle class="b" cx="2.5" cy="2.5" r="2.5" transform="translate(293 878)"/><circle class="b" cx="2.5" cy="2.5" r="2.5" transform="translate(234 820)"/><circle class="b" cx="2.5" cy="2.5" r="2.5" transform="translate(234 878)"/><circle class="b" cx="2.5" cy="2.5" r="2.5" transform="translate(409 820)"/><circle class="b" cx="2.5" cy="2.5" r="2.5" transform="translate(409 878)"/><circle class="b" cx="2.5" cy="2.5" r="2.5" transform="translate(351 820)"/><circle class="b" cx="2.5" cy="2.5" r="2.5" transform="translate(351 878)"/><circle class="b" cx="2.5" cy="2.5" r="2.5" transform="translate(527 820)"/><circle class="b" cx="2.5" cy="2.5" r="2.5" transform="translate(527 878)"/><circle class="b" cx="2.5" cy="2.5" r="2.5" transform="translate(469 820)"/><circle class="b" cx="2.5" cy="2.5" r="2.5" transform="translate(469 878)"/><circle class="b" cx="2.5" cy="2.5" r="2.5" transform="translate(644 820)"/><circle class="b" cx="2.5" cy="2.5" r="2.5" transform="translate(644 878)"/><circle class="b" cx="2.5" cy="2.5" r="2.5" transform="translate(585 820)"/><circle class="b" cx="2.5" cy="2.5" r="2.5" transform="translate(585 878)"/><circle class="b" cx="2.5" cy="2.5" r="2.5" transform="translate(761 820)"/><circle class="b" cx="2.5" cy="2.5" r="2.5" transform="translate(761 878)"/><circle class="b" cx="2.5" cy="2.5" r="2.5" transform="translate(702 820)"/><circle class="b" cx="2.5" cy="2.5" r="2.5" transform="translate(702 878)"/><circle class="b" cx="2.5" cy="2.5" r="2.5" transform="translate(878 820)"/><circle class="b" cx="2.5" cy="2.5" r="2.5" transform="translate(878 878)"/><circle class="b" cx="2.5" cy="2.5" r="2.5" transform="translate(820 820)"/><circle class="b" cx="2.5" cy="2.5" r="2.5" transform="translate(820 878)"/><circle class="b" cx="2.5" cy="2.5" r="2.5" transform="translate(995 820)"/><circle class="b" cx="2.5" cy="2.5" r="2.5" transform="translate(995 878)"/><circle class="b" cx="2.5" cy="2.5" r="2.5" transform="translate(936 820)"/><circle class="b" cx="2.5" cy="2.5" r="2.5" transform="translate(936 878)"/><circle class="b" cx="2.5" cy="2.5" r="2.5" transform="translate(1112 820)"/><circle class="b" cx="2.5" cy="2.5" r="2.5" transform="translate(1112 878)"/><circle class="b" cx="2.5" cy="2.5" r="2.5" transform="translate(1054 820)"/><circle class="b" cx="2.5" cy="2.5" r="2.5" transform="translate(1054 878)"/><circle class="b" cx="2.5" cy="2.5" r="2.5" transform="translate(1229 820)"/><circle class="b" cx="2.5" cy="2.5" r="2.5" transform="translate(1229 878)"/><circle class="b" cx="2.5" cy="2.5" r="2.5" transform="translate(1171 820)"/><circle class="b" cx="2.5" cy="2.5" r="2.5" transform="translate(1171 878)"/><circle class="b" cx="2.5" cy="2.5" r="2.5" transform="translate(1347 820)"/><circle class="b" cx="2.5" cy="2.5" r="2.5" transform="translate(1347 878)"/><circle class="b" cx="2.5" cy="2.5" r="2.5" transform="translate(1287 820)"/><circle class="b" cx="2.5" cy="2.5" r="2.5" transform="translate(1287 878)"/><circle class="b" cx="2.5" cy="2.5" r="2.5" transform="translate(1463 820)"/><circle class="b" cx="2.5" cy="2.5" r="2.5" transform="translate(1463 878)"/><circle class="b" cx="2.5" cy="2.5" r="2.5" transform="translate(1405 820)"/><circle class="b" cx="2.5" cy="2.5" r="2.5" transform="translate(1405 878)"/><circle class="b" cx="2.5" cy="2.5" r="2.5" transform="translate(1580 820)"/><circle class="b" cx="2.5" cy="2.5" r="2.5" transform="translate(1580 878)"/><circle class="b" cx="2.5" cy="2.5" r="2.5" transform="translate(1522 820)"/><circle class="b" cx="2.5" cy="2.5" r="2.5" transform="translate(1522 878)"/><circle class="b" cx="2.5" cy="2.5" r="2.5" transform="translate(1698 820)"/><circle class="b" cx="2.5" cy="2.5" r="2.5" transform="translate(1698 878)"/><circle class="b" cx="2.5" cy="2.5" r="2.5" transform="translate(1638 820)"/><circle class="b" cx="2.5" cy="2.5" r="2.5" transform="translate(1638 878)"/><circle class="b" cx="2.5" cy="2.5" r="2.5" transform="translate(1814 820)"/><circle class="b" cx="2.5" cy="2.5" r="2.5" transform="translate(1814 878)"/><circle class="b" cx="2.5" cy="2.5" r="2.5" transform="translate(1756 820)"/><circle class="b" cx="2.5" cy="2.5" r="2.5" transform="translate(1756 878)"/><circle class="b" cx="2.5" cy="2.5" r="2.5" transform="translate(1872 820)"/><circle class="b" cx="2.5" cy="2.5" r="2.5" transform="translate(1872 878)"/><circle class="b" cx="2.5" cy="2.5" r="2.5" transform="translate(58 936)"/><circle class="b" cx="2.5" cy="2.5" r="2.5" transform="translate(58 995)"/><circle class="b" cx="2.5" cy="2.5" r="2.5" transform="translate(0 936)"/><circle class="b" cx="2.5" cy="2.5" r="2.5" transform="translate(0 995)"/><circle class="b" cx="2.5" cy="2.5" r="2.5" transform="translate(176 936)"/><circle class="b" cx="2.5" cy="2.5" r="2.5" transform="translate(176 995)"/><circle class="b" cx="2.5" cy="2.5" r="2.5" transform="translate(117 936)"/><circle class="b" cx="2.5" cy="2.5" r="2.5" transform="translate(117 995)"/><circle class="b" cx="2.5" cy="2.5" r="2.5" transform="translate(293 936)"/><circle class="b" cx="2.5" cy="2.5" r="2.5" transform="translate(293 995)"/><circle class="b" cx="2.5" cy="2.5" r="2.5" transform="translate(234 936)"/><circle class="b" cx="2.5" cy="2.5" r="2.5" transform="translate(234 995)"/><circle class="b" cx="2.5" cy="2.5" r="2.5" transform="translate(409 936)"/><circle class="b" cx="2.5" cy="2.5" r="2.5" transform="translate(409 995)"/><circle class="b" cx="2.5" cy="2.5" r="2.5" transform="translate(351 936)"/><circle class="b" cx="2.5" cy="2.5" r="2.5" transform="translate(351 995)"/><circle class="b" cx="2.5" cy="2.5" r="2.5" transform="translate(527 936)"/><circle class="b" cx="2.5" cy="2.5" r="2.5" transform="translate(527 995)"/><circle class="b" cx="2.5" cy="2.5" r="2.5" transform="translate(469 936)"/><circle class="b" cx="2.5" cy="2.5" r="2.5" transform="translate(469 995)"/><circle class="b" cx="2.5" cy="2.5" r="2.5" transform="translate(644 936)"/><circle class="b" cx="2.5" cy="2.5" r="2.5" transform="translate(644 995)"/><circle class="b" cx="2.5" cy="2.5" r="2.5" transform="translate(585 936)"/><circle class="b" cx="2.5" cy="2.5" r="2.5" transform="translate(585 995)"/><circle class="b" cx="2.5" cy="2.5" r="2.5" transform="translate(761 936)"/><circle class="b" cx="2.5" cy="2.5" r="2.5" transform="translate(761 995)"/><circle class="b" cx="2.5" cy="2.5" r="2.5" transform="translate(702 936)"/><circle class="b" cx="2.5" cy="2.5" r="2.5" transform="translate(702 995)"/><circle class="b" cx="2.5" cy="2.5" r="2.5" transform="translate(878 936)"/><circle class="b" cx="2.5" cy="2.5" r="2.5" transform="translate(878 995)"/><circle class="b" cx="2.5" cy="2.5" r="2.5" transform="translate(820 936)"/><circle class="b" cx="2.5" cy="2.5" r="2.5" transform="translate(820 995)"/><circle class="b" cx="2.5" cy="2.5" r="2.5" transform="translate(995 936)"/><circle class="b" cx="2.5" cy="2.5" r="2.5" transform="translate(995 995)"/><circle class="b" cx="2.5" cy="2.5" r="2.5" transform="translate(936 936)"/><circle class="b" cx="2.5" cy="2.5" r="2.5" transform="translate(936 995)"/><circle class="b" cx="2.5" cy="2.5" r="2.5" transform="translate(1112 936)"/><circle class="b" cx="2.5" cy="2.5" r="2.5" transform="translate(1112 995)"/><circle class="b" cx="2.5" cy="2.5" r="2.5" transform="translate(1054 936)"/><circle class="b" cx="2.5" cy="2.5" r="2.5" transform="translate(1054 995)"/><circle class="b" cx="2.5" cy="2.5" r="2.5" transform="translate(1229 936)"/><circle class="b" cx="2.5" cy="2.5" r="2.5" transform="translate(1229 995)"/><circle class="b" cx="2.5" cy="2.5" r="2.5" transform="translate(1171 936)"/><circle class="b" cx="2.5" cy="2.5" r="2.5" transform="translate(1171 995)"/><circle class="b" cx="2.5" cy="2.5" r="2.5" transform="translate(1347 936)"/><circle class="b" cx="2.5" cy="2.5" r="2.5" transform="translate(1347 995)"/><circle class="b" cx="2.5" cy="2.5" r="2.5" transform="translate(1287 936)"/><circle class="b" cx="2.5" cy="2.5" r="2.5" transform="translate(1287 995)"/><circle class="b" cx="2.5" cy="2.5" r="2.5" transform="translate(1463 936)"/><circle class="b" cx="2.5" cy="2.5" r="2.5" transform="translate(1463 995)"/><circle class="b" cx="2.5" cy="2.5" r="2.5" transform="translate(1405 936)"/><circle class="b" cx="2.5" cy="2.5" r="2.5" transform="translate(1405 995)"/><circle class="b" cx="2.5" cy="2.5" r="2.5" transform="translate(1580 936)"/><circle class="b" cx="2.5" cy="2.5" r="2.5" transform="translate(1580 995)"/><circle class="b" cx="2.5" cy="2.5" r="2.5" transform="translate(1522 936)"/><circle class="b" cx="2.5" cy="2.5" r="2.5" transform="translate(1522 995)"/><circle class="b" cx="2.5" cy="2.5" r="2.5" transform="translate(1698 936)"/><circle class="b" cx="2.5" cy="2.5" r="2.5" transform="translate(1698 995)"/><circle class="b" cx="2.5" cy="2.5" r="2.5" transform="translate(1638 936)"/><circle class="b" cx="2.5" cy="2.5" r="2.5" transform="translate(1638 995)"/><circle class="b" cx="2.5" cy="2.5" r="2.5" transform="translate(1814 936)"/><circle class="b" cx="2.5" cy="2.5" r="2.5" transform="translate(1814 995)"/><circle class="b" cx="2.5" cy="2.5" r="2.5" transform="translate(1756 936)"/><circle class="b" cx="2.5" cy="2.5" r="2.5" transform="translate(1756 995)"/><circle class="b" cx="2.5" cy="2.5" r="2.5" transform="translate(1872 936)"/><circle class="b" cx="2.5" cy="2.5" r="2.5" transform="translate(1872 995)"/><circle class="b" cx="2.5" cy="2.5" r="2.5" transform="translate(58 1054)"/><circle class="b" cx="2.5" cy="2.5" r="2.5" transform="translate(58 1112)"/><circle class="b" cx="2.5" cy="2.5" r="2.5" transform="translate(0 1054)"/><circle class="b" cx="2.5" cy="2.5" r="2.5" transform="translate(0 1112)"/><circle class="b" cx="2.5" cy="2.5" r="2.5" transform="translate(176 1054)"/><circle class="b" cx="2.5" cy="2.5" r="2.5" transform="translate(176 1112)"/><circle class="b" cx="2.5" cy="2.5" r="2.5" transform="translate(117 1054)"/><circle class="b" cx="2.5" cy="2.5" r="2.5" transform="translate(117 1112)"/><circle class="b" cx="2.5" cy="2.5" r="2.5" transform="translate(293 1054)"/><circle class="b" cx="2.5" cy="2.5" r="2.5" transform="translate(293 1112)"/><circle class="b" cx="2.5" cy="2.5" r="2.5" transform="translate(234 1054)"/><circle class="b" cx="2.5" cy="2.5" r="2.5" transform="translate(234 1112)"/><circle class="b" cx="2.5" cy="2.5" r="2.5" transform="translate(409 1054)"/><circle class="b" cx="2.5" cy="2.5" r="2.5" transform="translate(409 1112)"/><circle class="b" cx="2.5" cy="2.5" r="2.5" transform="translate(351 1054)"/><circle class="b" cx="2.5" cy="2.5" r="2.5" transform="translate(351 1112)"/><circle class="b" cx="2.5" cy="2.5" r="2.5" transform="translate(527 1054)"/><circle class="b" cx="2.5" cy="2.5" r="2.5" transform="translate(527 1112)"/><circle class="b" cx="2.5" cy="2.5" r="2.5" transform="translate(469 1054)"/><circle class="b" cx="2.5" cy="2.5" r="2.5" transform="translate(469 1112)"/><circle class="b" cx="2.5" cy="2.5" r="2.5" transform="translate(644 1054)"/><circle class="b" cx="2.5" cy="2.5" r="2.5" transform="translate(644 1112)"/><circle class="b" cx="2.5" cy="2.5" r="2.5" transform="translate(585 1054)"/><circle class="b" cx="2.5" cy="2.5" r="2.5" transform="translate(585 1112)"/><circle class="b" cx="2.5" cy="2.5" r="2.5" transform="translate(761 1054)"/><circle class="b" cx="2.5" cy="2.5" r="2.5" transform="translate(761 1112)"/><circle class="b" cx="2.5" cy="2.5" r="2.5" transform="translate(702 1054)"/><circle class="b" cx="2.5" cy="2.5" r="2.5" transform="translate(702 1112)"/><circle class="b" cx="2.5" cy="2.5" r="2.5" transform="translate(878 1054)"/><circle class="b" cx="2.5" cy="2.5" r="2.5" transform="translate(878 1112)"/><circle class="b" cx="2.5" cy="2.5" r="2.5" transform="translate(820 1054)"/><circle class="b" cx="2.5" cy="2.5" r="2.5" transform="translate(820 1112)"/><circle class="b" cx="2.5" cy="2.5" r="2.5" transform="translate(995 1054)"/><circle class="b" cx="2.5" cy="2.5" r="2.5" transform="translate(995 1112)"/><circle class="b" cx="2.5" cy="2.5" r="2.5" transform="translate(936 1054)"/><circle class="b" cx="2.5" cy="2.5" r="2.5" transform="translate(936 1112)"/><circle class="b" cx="2.5" cy="2.5" r="2.5" transform="translate(1112 1054)"/><circle class="b" cx="2.5" cy="2.5" r="2.5" transform="translate(1112 1112)"/><circle class="b" cx="2.5" cy="2.5" r="2.5" transform="translate(1054 1054)"/><circle class="b" cx="2.5" cy="2.5" r="2.5" transform="translate(1054 1112)"/><circle class="b" cx="2.5" cy="2.5" r="2.5" transform="translate(1229 1054)"/><circle class="b" cx="2.5" cy="2.5" r="2.5" transform="translate(1229 1112)"/><circle class="b" cx="2.5" cy="2.5" r="2.5" transform="translate(1171 1054)"/><circle class="b" cx="2.5" cy="2.5" r="2.5" transform="translate(1171 1112)"/><circle class="b" cx="2.5" cy="2.5" r="2.5" transform="translate(1347 1054)"/><circle class="b" cx="2.5" cy="2.5" r="2.5" transform="translate(1347 1112)"/><circle class="b" cx="2.5" cy="2.5" r="2.5" transform="translate(1287 1054)"/><circle class="b" cx="2.5" cy="2.5" r="2.5" transform="translate(1287 1112)"/><circle class="b" cx="2.5" cy="2.5" r="2.5" transform="translate(1463 1054)"/><circle class="b" cx="2.5" cy="2.5" r="2.5" transform="translate(1463 1112)"/><circle class="b" cx="2.5" cy="2.5" r="2.5" transform="translate(1405 1054)"/><circle class="b" cx="2.5" cy="2.5" r="2.5" transform="translate(1405 1112)"/><circle class="b" cx="2.5" cy="2.5" r="2.5" transform="translate(1580 1054)"/><circle class="b" cx="2.5" cy="2.5" r="2.5" transform="translate(1580 1112)"/><circle class="b" cx="2.5" cy="2.5" r="2.5" transform="translate(1522 1054)"/><circle class="b" cx="2.5" cy="2.5" r="2.5" transform="translate(1522 1112)"/><circle class="b" cx="2.5" cy="2.5" r="2.5" transform="translate(1698 1054)"/><circle class="b" cx="2.5" cy="2.5" r="2.5" transform="translate(1698 1112)"/><circle class="b" cx="2.5" cy="2.5" r="2.5" transform="translate(1638 1054)"/><circle class="b" cx="2.5" cy="2.5" r="2.5" transform="translate(1638 1112)"/><circle class="b" cx="2.5" cy="2.5" r="2.5" transform="translate(1814 1054)"/><circle class="b" cx="2.5" cy="2.5" r="2.5" transform="translate(1814 1112)"/><circle class="b" cx="2.5" cy="2.5" r="2.5" transform="translate(1756 1054)"/><circle class="b" cx="2.5" cy="2.5" r="2.5" transform="translate(1756 1112)"/><circle class="b" cx="2.5" cy="2.5" r="2.5" transform="translate(1872 1054)"/><circle class="b" cx="2.5" cy="2.5" r="2.5" transform="translate(1872 1112)"/><circle class="b" cx="2.5" cy="2.5" r="2.5" transform="translate(58 1171)"/><circle class="b" cx="2.5" cy="2.5" r="2.5" transform="translate(58 1229)"/><circle class="b" cx="2.5" cy="2.5" r="2.5" transform="translate(0 1171)"/><circle class="b" cx="2.5" cy="2.5" r="2.5" transform="translate(0 1229)"/><circle class="b" cx="2.5" cy="2.5" r="2.5" transform="translate(176 1171)"/><circle class="b" cx="2.5" cy="2.5" r="2.5" transform="translate(176 1229)"/><circle class="b" cx="2.5" cy="2.5" r="2.5" transform="translate(117 1171)"/><circle class="b" cx="2.5" cy="2.5" r="2.5" transform="translate(117 1229)"/><circle class="b" cx="2.5" cy="2.5" r="2.5" transform="translate(293 1171)"/><circle class="b" cx="2.5" cy="2.5" r="2.5" transform="translate(293 1229)"/><circle class="b" cx="2.5" cy="2.5" r="2.5" transform="translate(234 1171)"/><circle class="b" cx="2.5" cy="2.5" r="2.5" transform="translate(234 1229)"/><circle class="b" cx="2.5" cy="2.5" r="2.5" transform="translate(409 1171)"/><circle class="b" cx="2.5" cy="2.5" r="2.5" transform="translate(409 1229)"/><circle class="b" cx="2.5" cy="2.5" r="2.5" transform="translate(351 1171)"/><circle class="b" cx="2.5" cy="2.5" r="2.5" transform="translate(351 1229)"/><circle class="b" cx="2.5" cy="2.5" r="2.5" transform="translate(527 1171)"/><circle class="b" cx="2.5" cy="2.5" r="2.5" transform="translate(527 1229)"/><circle class="b" cx="2.5" cy="2.5" r="2.5" transform="translate(469 1171)"/><circle class="b" cx="2.5" cy="2.5" r="2.5" transform="translate(469 1229)"/><circle class="b" cx="2.5" cy="2.5" r="2.5" transform="translate(644 1171)"/><circle class="b" cx="2.5" cy="2.5" r="2.5" transform="translate(644 1229)"/><circle class="b" cx="2.5" cy="2.5" r="2.5" transform="translate(585 1171)"/><circle class="b" cx="2.5" cy="2.5" r="2.5" transform="translate(585 1229)"/><circle class="b" cx="2.5" cy="2.5" r="2.5" transform="translate(761 1171)"/><circle class="b" cx="2.5" cy="2.5" r="2.5" transform="translate(761 1229)"/><circle class="b" cx="2.5" cy="2.5" r="2.5" transform="translate(702 1171)"/><circle class="b" cx="2.5" cy="2.5" r="2.5" transform="translate(702 1229)"/><circle class="b" cx="2.5" cy="2.5" r="2.5" transform="translate(878 1171)"/><circle class="b" cx="2.5" cy="2.5" r="2.5" transform="translate(878 1229)"/><circle class="b" cx="2.5" cy="2.5" r="2.5" transform="translate(820 1171)"/><circle class="b" cx="2.5" cy="2.5" r="2.5" transform="translate(820 1229)"/><circle class="b" cx="2.5" cy="2.5" r="2.5" transform="translate(995 1171)"/><circle class="b" cx="2.5" cy="2.5" r="2.5" transform="translate(995 1229)"/><circle class="b" cx="2.5" cy="2.5" r="2.5" transform="translate(936 1171)"/><circle class="b" cx="2.5" cy="2.5" r="2.5" transform="translate(936 1229)"/><circle class="b" cx="2.5" cy="2.5" r="2.5" transform="translate(1112 1171)"/><circle class="b" cx="2.5" cy="2.5" r="2.5" transform="translate(1112 1229)"/><circle class="b" cx="2.5" cy="2.5" r="2.5" transform="translate(1054 1171)"/><circle class="b" cx="2.5" cy="2.5" r="2.5" transform="translate(1054 1229)"/><circle class="b" cx="2.5" cy="2.5" r="2.5" transform="translate(1229 1171)"/><circle class="b" cx="2.5" cy="2.5" r="2.5" transform="translate(1229 1229)"/><circle class="b" cx="2.5" cy="2.5" r="2.5" transform="translate(1171 1171)"/><circle class="b" cx="2.5" cy="2.5" r="2.5" transform="translate(1171 1229)"/><circle class="b" cx="2.5" cy="2.5" r="2.5" transform="translate(1347 1171)"/><circle class="b" cx="2.5" cy="2.5" r="2.5" transform="translate(1347 1229)"/><circle class="b" cx="2.5" cy="2.5" r="2.5" transform="translate(1287 1171)"/><circle class="b" cx="2.5" cy="2.5" r="2.5" transform="translate(1287 1229)"/><circle class="b" cx="2.5" cy="2.5" r="2.5" transform="translate(1463 1171)"/><circle class="b" cx="2.5" cy="2.5" r="2.5" transform="translate(1463 1229)"/><circle class="b" cx="2.5" cy="2.5" r="2.5" transform="translate(1405 1171)"/><circle class="b" cx="2.5" cy="2.5" r="2.5" transform="translate(1405 1229)"/><circle class="b" cx="2.5" cy="2.5" r="2.5" transform="translate(1580 1171)"/><circle class="b" cx="2.5" cy="2.5" r="2.5" transform="translate(1580 1229)"/><circle class="b" cx="2.5" cy="2.5" r="2.5" transform="translate(1522 1171)"/><circle class="b" cx="2.5" cy="2.5" r="2.5" transform="translate(1522 1229)"/><circle class="b" cx="2.5" cy="2.5" r="2.5" transform="translate(1698 1171)"/><circle class="b" cx="2.5" cy="2.5" r="2.5" transform="translate(1698 1229)"/><circle class="b" cx="2.5" cy="2.5" r="2.5" transform="translate(1638 1171)"/><circle class="b" cx="2.5" cy="2.5" r="2.5" transform="translate(1638 1229)"/><circle class="b" cx="2.5" cy="2.5" r="2.5" transform="translate(1814 1171)"/><circle class="b" cx="2.5" cy="2.5" r="2.5" transform="translate(1814 1229)"/><circle class="b" cx="2.5" cy="2.5" r="2.5" transform="translate(1756 1171)"/><circle class="b" cx="2.5" cy="2.5" r="2.5" transform="translate(1756 1229)"/><circle class="b" cx="2.5" cy="2.5" r="2.5" transform="translate(1872 1171)"/><circle class="b" cx="2.5" cy="2.5" r="2.5" transform="translate(1872 1229)"/><circle class="b" cx="2.5" cy="2.5" r="2.5" transform="translate(1931)"/><circle class="b" cx="2.5" cy="2.5" r="2.5" transform="translate(1931 58)"/><circle class="b" cx="2.5" cy="2.5" r="2.5" transform="translate(1931 117)"/><circle class="b" cx="2.5" cy="2.5" r="2.5" transform="translate(1931 176)"/><circle class="b" cx="2.5" cy="2.5" r="2.5" transform="translate(1931 234)"/><circle class="b" cx="2.5" cy="2.5" r="2.5" transform="translate(1931 293)"/><circle class="b" cx="2.5" cy="2.5" r="2.5" transform="translate(1931 351)"/><circle class="b" cx="2.5" cy="2.5" r="2.5" transform="translate(1931 409)"/><circle class="b" cx="2.5" cy="2.5" r="2.5" transform="translate(1931 469)"/><circle class="b" cx="2.5" cy="2.5" r="2.5" transform="translate(1931 527)"/><circle class="b" cx="2.5" cy="2.5" r="2.5" transform="translate(1931 585)"/><circle class="b" cx="2.5" cy="2.5" r="2.5" transform="translate(1931 644)"/><circle class="b" cx="2.5" cy="2.5" r="2.5" transform="translate(1931 702)"/><circle class="b" cx="2.5" cy="2.5" r="2.5" transform="translate(1931 761)"/><circle class="b" cx="2.5" cy="2.5" r="2.5" transform="translate(1931 820)"/><circle class="b" cx="2.5" cy="2.5" r="2.5" transform="translate(1931 878)"/><circle class="b" cx="2.5" cy="2.5" r="2.5" transform="translate(1931 936)"/><circle class="b" cx="2.5" cy="2.5" r="2.5" transform="translate(1931 995)"/><circle class="b" cx="2.5" cy="2.5" r="2.5" transform="translate(1931 1054)"/><circle class="b" cx="2.5" cy="2.5" r="2.5" transform="translate(1931 1112)"/><circle class="b" cx="2.5" cy="2.5" r="2.5" transform="translate(1931 1171)"/><circle class="b" cx="2.5" cy="2.5" r="2.5" transform="translate(1931 1229)"/></svg>