<svg xmlns="http://www.w3.org/2000/svg" xmlns:xlink="http://www.w3.org/1999/xlink" width="1613" height="249" viewBox="0 0 1613 249"><defs><style>.a,.d{fill:none;}.b{fill:#137ef9;}.c{clip-path:url(#a);}.d{stroke:#53a3ff;stroke-miterlimit:10;}.e{clip-path:url(#b);}.f{clip-path:url(#c);}.g{fill:#2c8eff;}.h{clip-path:url(#d);}</style><clipPath id="a"><rect class="a" width="444.9" height="219.82"/></clipPath><clipPath id="b"><rect class="b" width="1613" height="249" transform="translate(307 110)"/></clipPath><clipPath id="c"><path class="a" d="M460.8,260.4c-7.5-21.6-5.5-45.4-1.5-67.9s9.8-45,9.5-67.9c-.5-37.4-18.4-74.2-47.7-97.5S351.8-5.4,315.4,3.1c-23,5.4-44.7,17.3-68.3,18.3s-47.3-9.7-71.2-14.1C119.2-3.1,58.5,25.4,26.7,73.6S-8,186.3,15.2,239,86,332.2,140.5,351s115.2,16.6,169.9-1.7c26.8-8.9,52.3-21.6,79.5-29.3s57.2-10.1,83.1,1.3l37.5-19.8c-22.9-.6-42.2-19.5-49.8-41.1"/></clipPath><clipPath id="d"><rect class="a" width="68.2" height="68.16"/></clipPath></defs><g transform="translate(-307 -110)"><rect class="b" width="1613" height="249" transform="translate(307 110)"/><g transform="translate(-128.017)"><g class="c" transform="translate(435.017 110)"><path class="d" d="M0,24.8c41.6,0,82.8,19.1,109.5,50.9,23.2,27.6,35.2,62.8,55.1,92.8s53.5,56.4,89,49.8c24.3-4.5,43.7-23.9,55.1-45.9s16.4-46.6,22.5-70.6S345.1,53.5,361,34.5c20.1-24.1,52.7-37.1,83.9-33.4"/><path class="d" d="M13.9,23.2A136,136,0,0,1,116.6,71c21.8,25.8,33,58.9,51.6,87s50.2,52.9,83.4,46.7c22.8-4.2,40.9-22.4,51.7-43s15.4-43.7,21.1-66.1,13-45.3,27.9-63.1C371.2,9.8,401.7-2.4,431,1.1"/><path class="d" d="M27.8,21.7a126.9,126.9,0,0,1,95.8,44.5c20.3,24.1,30.8,54.9,48.2,81.2s46.8,49.3,77.8,43.6c21.3-4,38.2-20.9,48.2-40.1s14.3-40.7,19.7-61.7,12.2-42.3,26-58.9A84.5,84.5,0,0,1,417,1"/><path class="d" d="M41.8,20.2a117.8,117.8,0,0,1,89,41.3c18.9,22.4,28.6,51,44.7,75.4s43.5,45.8,72.3,40.4c19.8-3.7,35.5-19.4,44.8-37.3s13.3-37.8,18.3-57.3S322.1,43.6,335,28.1A78.4,78.4,0,0,1,403.1,1"/><path class="d" d="M55.7,18.7a108.7,108.7,0,0,1,82.1,38.2c17.4,20.7,26.4,47.1,41.3,69.6s40.1,42.3,66.7,37.3c18.2-3.4,32.7-17.9,41.3-34.4S299.4,94.5,304,76.5,314.4,40.3,326.3,26A72.4,72.4,0,0,1,389.2,1"/></g></g><g class="e"><g class="f" transform="translate(1113.529 151.956)"><rect class="g" width="518.6" height="375.1" transform="translate(-8 -5.4)"/></g></g><g transform="translate(984 186.023)"><g transform="translate(-34.1 -34.08)"><g class="h"><g class="h"><path class="g" d="M68.2,34.1A34.1,34.1,0,1,1,34.1,0,34.1,34.1,0,0,1,68.2,34.1"/></g></g></g></g></g></svg>