<svg xmlns="http://www.w3.org/2000/svg" xmlns:xlink="http://www.w3.org/1999/xlink" width="169.159" height="169.159" viewBox="0 0 169.159 169.159"><defs><style>.a{fill:#fff;stroke-linecap:round;}.b{fill:#62AF49;}.c,.d{stroke:none;}.d{fill:#62AF49;}.e{filter:url(#a);}</style><filter id="a" x="0" y="0" width="169.159" height="169.159" filterUnits="userSpaceOnUse"><feOffset dy="15" input="SourceAlpha"/><feGaussianBlur stdDeviation="12.5" result="b"/><feFlood flood-opacity="0.11"/><feComposite operator="in" in2="b"/><feComposite in="SourceGraphic"/></filter></defs><g transform="translate(-1762.42 -884.5)"><g class="e" transform="matrix(1, 0, 0, 1, 1762.42, 884.5)"><g class="a" transform="translate(37.5 22.5)"><path class="c" d="M 47.07964706420898 92.6593017578125 C 40.92576599121094 92.6593017578125 34.95676803588867 91.45439147949219 29.33844757080078 89.07804870605469 C 23.91103363037109 86.78243255615234 19.03640747070312 83.49576568603516 14.84996700286865 79.309326171875 C 10.66354084014893 75.12288665771484 7.376860618591309 70.24826049804688 5.081260204315186 64.82084655761719 C 2.70491361618042 59.2025260925293 1.500007033348083 53.23352813720703 1.500007033348083 47.07964706420898 C 1.500007033348083 40.92576599121094 2.70491361618042 34.95676803588867 5.081260204315186 29.33844757080078 C 7.376860618591309 23.91103363037109 10.66354084014893 19.03640747070312 14.84996700286865 14.84996700286865 C 19.03640747070312 10.66354084014893 23.91103363037109 7.376860618591309 29.33844757080078 5.081260204315186 C 34.95676803588867 2.70491361618042 40.92576599121094 1.500007033348083 47.07964706420898 1.500007033348083 C 53.23352813720703 1.500007033348083 59.2025260925293 2.70491361618042 64.82084655761719 5.081260204315186 C 70.24826049804688 7.376860618591309 75.12288665771484 10.66354084014893 79.309326171875 14.84996700286865 C 83.49576568603516 19.03640747070312 86.78243255615234 23.91103363037109 89.07804870605469 29.33844757080078 C 91.45439147949219 34.95676803588867 92.6593017578125 40.92576599121094 92.6593017578125 47.07964706420898 C 92.6593017578125 53.23352813720703 91.45439147949219 59.2025260925293 89.07804870605469 64.82084655761719 C 86.78243255615234 70.24826049804688 83.49576568603516 75.12288665771484 79.309326171875 79.309326171875 C 75.12288665771484 83.49576568603516 70.24826049804688 86.78243255615234 64.82084655761719 89.07804870605469 C 59.2025260925293 91.45439147949219 53.23352813720703 92.6593017578125 47.07964706420898 92.6593017578125 Z"/><path class="d" d="M 47.07964706420898 3.000007629394531 C 41.12760543823242 3.000007629394531 35.35520553588867 4.165046691894531 29.92277526855469 6.462776184082031 C 24.67416381835938 8.682746887207031 19.95980072021484 11.86145782470703 15.91062927246094 15.91062927246094 C 11.86145782470703 19.95980072021484 8.682746887207031 24.67416381835938 6.462776184082031 29.92277526855469 C 4.165046691894531 35.35520553588867 3.000007629394531 41.12760543823242 3.000007629394531 47.07964706420898 C 3.000007629394531 53.03168869018555 4.165046691894531 58.8040885925293 6.462776184082031 64.23651885986328 C 8.682746887207031 69.48513031005859 11.86145782470703 74.19949340820312 15.91062927246094 78.2486572265625 C 19.95980072021484 82.29783630371094 24.67416381835938 85.47654724121094 29.92277526855469 87.69651794433594 C 35.35520553588867 89.99424743652344 41.12760543823242 91.15928649902344 47.07964706420898 91.15928649902344 C 53.03168869018555 91.15928649902344 58.8040885925293 89.99424743652344 64.23651885986328 87.69651794433594 C 69.48513031005859 85.47654724121094 74.19949340820312 82.29783630371094 78.2486572265625 78.2486572265625 C 82.29783630371094 74.19949340820312 85.47654724121094 69.48513031005859 87.69651794433594 64.23651885986328 C 89.99424743652344 58.8040885925293 91.15928649902344 53.03168869018555 91.15928649902344 47.07964706420898 C 91.15928649902344 41.12760543823242 89.99424743652344 35.35520553588867 87.69651794433594 29.92277526855469 C 85.47654724121094 24.67416381835938 82.29783630371094 19.95980072021484 78.2486572265625 15.91062927246094 C 74.19949340820312 11.86145782470703 69.48513031005859 8.682746887207031 64.23651885986328 6.462776184082031 C 58.8040885925293 4.165046691894531 53.03168869018555 3.000007629394531 47.07964706420898 3.000007629394531 M 47.07964706420898 7.62939453125e-06 C 73.08101654052734 7.62939453125e-06 94.15928649902344 21.07827758789062 94.15928649902344 47.07964706420898 C 94.15928649902344 73.08101654052734 73.08101654052734 94.15928649902344 47.07964706420898 94.15928649902344 C 21.07827758789062 94.15928649902344 7.62939453125e-06 73.08101654052734 7.62939453125e-06 47.07964706420898 C 7.62939453125e-06 21.07827758789062 21.07827758789062 7.62939453125e-06 47.07964706420898 7.62939453125e-06 Z"/></g></g><path class="b" d="M18.646-2.815H11.86V3.971H8.185V-2.815H1.4v-3.64H8.185v-6.82H11.86v6.82h6.785Z" transform="translate(1836.977 958.732)"/></g></svg>