<svg xmlns="http://www.w3.org/2000/svg" width="29" height="29" viewBox="0 0 29 29"><defs><style>.a,.b{fill:none;}.b{stroke:#fff;stroke-linecap:round;stroke-linejoin:round;stroke-width:2px;}</style></defs><path class="a" d="M0,0H29V29H0Z"/><path class="b" d="M21.914,21.365s.1-.071.256-.193A9.557,9.557,0,0,0,26,13.662C26,8.1,20.851,3.59,14.5,3.59S3,8.1,3,13.662s5.149,9.919,11.5,9.919q.813,0,2.668-.109a11.831,11.831,0,0,0,6.026,1.937.626.626,0,0,0,.529-1.074,11.818,11.818,0,0,1-1.809-2.971Z" transform="translate(0)"/><path class="b" d="M7.5,13.5a6.338,6.338,0,0,0,9,0" transform="translate(2.5 3.051)"/></svg>