<svg xmlns="http://www.w3.org/2000/svg" width="30.553" height="29.827" viewBox="0 0 30.553 29.827"><defs><style>.a{fill:#202225;}</style></defs><path class="a" d="M563.234,26.592,560.5,26.9l-.311-2.612L571.09,12H550.756a7.856,7.856,0,0,0-7.856,7.856V33.971a7.856,7.856,0,0,0,7.856,7.856H565.6a7.856,7.856,0,0,0,7.856-7.856V15.047Zm-13.059-.58h6.654a1.016,1.016,0,1,1,0,2.031H550.2a1.016,1.016,0,0,1,0-2.031Zm14.945,8.851H550.2a1.016,1.016,0,0,1,0-2.031h14.945a1.016,1.016,0,0,1,0,2.031Z" transform="translate(-542.9 -12)"/></svg>