<svg xmlns="http://www.w3.org/2000/svg" width="16.001" height="15.991" viewBox="0 0 16.001 15.991">
  <g id="Group_21704" data-name="Group 21704" transform="translate(-611.105 -1054.9)">
    <path id="Subtraction_8" data-name="Subtraction 8" d="M10440.615-4638.426h-2.047a1.359,1.359,0,0,0,.081-.461v-4.678a3.222,3.222,0,0,0-.194-1.106h1.237a2.311,2.311,0,0,1,2.309,2.309v2.55A1.388,1.388,0,0,1,10440.615-4638.426Zm-11.194,0h-2.035a1.388,1.388,0,0,1-1.386-1.387v-2.55a2.311,2.311,0,0,1,2.309-2.309h1.239a3.232,3.232,0,0,0-.2,1.106v4.678a1.327,1.327,0,0,0,.064.412c0,.015,0,.029,0,.043h0Zm8.3-2.839,0,0a4.48,4.48,0,0,0-3.827-2.132,4.521,4.521,0,0,0-3.619,1.826v-1.991a2.311,2.311,0,0,1,2.309-2.309h2.83a2.312,2.312,0,0,1,2.31,2.309v2.3Zm1.152-3.991a2.065,2.065,0,0,1-.817-.167,2.1,2.1,0,0,1-1.014-.936,2.047,2.047,0,0,1-.244-.975,2.079,2.079,0,0,1,2.075-2.078,2.081,2.081,0,0,1,2.078,2.078A2.081,2.081,0,0,1,10438.877-4645.255Zm-9.756,0a2.08,2.08,0,0,1-2.076-2.078,2.08,2.08,0,0,1,2.076-2.078,2.081,2.081,0,0,1,2.078,2.078,2.047,2.047,0,0,1-.244.975,2.085,2.085,0,0,1-1.014.936A2.072,2.072,0,0,1,10429.121-4645.255Zm4.879-1.189a2.776,2.776,0,0,1-1.357-.354,2.786,2.786,0,0,1-1.42-2.421A2.782,2.782,0,0,1,10434-4652a2.782,2.782,0,0,1,2.778,2.78,2.786,2.786,0,0,1-1.421,2.421A2.77,2.77,0,0,1,10434-4646.445Z" transform="translate(-9814.895 5706.9)" fill="#c7cbcc"/>
    <g id="Group_21703" data-name="Group 21703" transform="translate(560.014 1047.633)">
      <g id="microphone-black-shape_2_" data-name="microphone-black-shape (2)" transform="translate(56.871 16.976)">
        <g id="Group_18807" data-name="Group 18807">
          <path id="Path_56512" data-name="Path 56512" d="M147.413,4.536a1.176,1.176,0,0,0,.871-.37,1.226,1.226,0,0,0,.362-.89V1.26a1.226,1.226,0,0,0-.362-.89,1.21,1.21,0,0,0-1.742,0,1.226,1.226,0,0,0-.362.89V3.276a1.227,1.227,0,0,0,.362.89A1.176,1.176,0,0,0,147.413,4.536Z" transform="translate(-145.192)" fill="#c7cbcc"/>
          <path id="Path_56513" data-name="Path 56513" d="M77.455,182.8a.247.247,0,0,0-.42.173v.493a1.727,1.727,0,0,1-3.454,0v-.493a.247.247,0,0,0-.493,0v.493a2.22,2.22,0,0,0,1.974,2.205v.682h.494v-.682a2.221,2.221,0,0,0,1.974-2.205v-.493A.237.237,0,0,0,77.455,182.8Z" transform="translate(-73.087 -180.069)" fill="#c7cbcc"/>
        </g>
      </g>
    </g>
  </g>
</svg>
