<svg xmlns="http://www.w3.org/2000/svg" width="22.988" height="22.452" viewBox="0 0 22.988 22.452"><defs><style>.a{fill:#fff;}.b{fill:none;stroke:#fd4e53;stroke-linecap:round;stroke-width:2.2px;}</style></defs><g transform="translate(-1635.006 -616.827)"><g transform="translate(1638.755 616.827)"><g transform="translate(0 0)"><path class="a" d="M150.263,15.016a3.892,3.892,0,0,0,2.884-1.225,4.06,4.06,0,0,0,1.2-2.946V4.171a4.059,4.059,0,0,0-1.2-2.946,4.007,4.007,0,0,0-5.768,0,4.06,4.06,0,0,0-1.2,2.946v6.674a4.06,4.06,0,0,0,1.2,2.946A3.892,3.892,0,0,0,150.263,15.016Z" transform="translate(-142.912)"/><path class="a" d="M87.546,183.653a.817.817,0,0,0-1.391.574v1a5.717,5.717,0,0,1-11.435,0v-1a.817.817,0,0,0-1.634,0v1a7.35,7.35,0,0,0,6.534,7.3v2.256H77.452v1.655h5.985v-1.655H81.255v-2.256a7.351,7.351,0,0,0,6.534-7.3v-1A.785.785,0,0,0,87.546,183.653Z" transform="translate(-73.087 -173.989)"/></g></g><line class="b" x2="20" y2="11" transform="translate(1636.5 621.33)"/></g></svg>