<svg id="Component_8_28" data-name="Component 8 – 28" xmlns="http://www.w3.org/2000/svg" width="29.353" height="29.353" viewBox="0 0 29.353 29.353">
  <path id="Path_49083" data-name="Path 49083" d="M0,0H29.353V29.353H0Z" fill="none"/>
  <path id="Path_49084" data-name="Path 49084" d="M11.338,5.446a2.446,2.446,0,0,1,4.892,0,8.561,8.561,0,0,1,4.892,7.338v3.669a4.892,4.892,0,0,0,2.446,3.669H4a4.892,4.892,0,0,0,2.446-3.669V12.784a8.561,8.561,0,0,1,4.892-7.338" transform="translate(0.892 0.669)" fill="#202225" stroke="#1c1c1c" stroke-linecap="round" stroke-linejoin="round" stroke-width="2"/>
  <path id="Path_49085" data-name="Path 49085" d="M9,17v1.223a3.669,3.669,0,0,0,7.338,0V17" transform="translate(2.007 3.792)" fill="none" stroke="#1c1c1c" stroke-linecap="round" stroke-linejoin="round" stroke-width="2"/>
</svg>
