<svg id="Group_18622" data-name="Group 18622" xmlns="http://www.w3.org/2000/svg" width="24" height="24" viewBox="0 0 24 24">
  <path id="Path_56263" data-name="Path 56263" d="M0,0H24V24H0Z" fill="none"/>
  <path id="Path_56264" data-name="Path 56264" d="M10,5a2,2,0,0,1,4,0,7,7,0,0,1,4,6v3a4,4,0,0,0,2,3H4a4,4,0,0,0,2-3V11a7,7,0,0,1,4-6" fill="none" stroke="#515859" stroke-linecap="round" stroke-linejoin="round" stroke-width="2"/>
  <path id="Path_56265" data-name="Path 56265" d="M9,17v1a3,3,0,0,0,6,0V17" fill="none" stroke="#515859" stroke-linecap="round" stroke-linejoin="round" stroke-width="2"/>
  <path id="Path_56266" data-name="Path 56266" d="M21,6.727A11.05,11.05,0,0,0,18.206,3" fill="none" stroke="#515859" stroke-linecap="round" stroke-linejoin="round" stroke-width="2"/>
  <path id="Path_56267" data-name="Path 56267" d="M3,6.727A11.05,11.05,0,0,1,5.792,3" fill="none" stroke="#515859" stroke-linecap="round" stroke-linejoin="round" stroke-width="2"/>
</svg>
