<svg xmlns="http://www.w3.org/2000/svg" width="34.125" height="39" viewBox="0 0 34.125 39"><defs><style>.a{fill:#e2e5e7;}.b{fill:#b0b7bd;}.c{fill:#cad1d8;}.d{fill:#f15642;}.e{fill:#fff;}</style></defs><g transform="translate(-32)"><path class="a" d="M98.438,0A2.445,2.445,0,0,0,96,2.438V36.563A2.445,2.445,0,0,0,98.438,39h24.375a2.445,2.445,0,0,0,2.438-2.437V9.75L115.5,0Z" transform="translate(-59.125)"/><path class="b" d="M354.438,9.75h7.313L352,0V7.313A2.445,2.445,0,0,0,354.438,9.75Z" transform="translate(-295.625)"/><path class="c" d="M391.313,135.313,384,128h7.313Z" transform="translate(-325.188 -118.25)"/><path class="d" d="M61.25,253.406a1.222,1.222,0,0,1-1.219,1.219H33.219A1.222,1.222,0,0,1,32,253.406V241.219A1.222,1.222,0,0,1,33.219,240H60.031a1.222,1.222,0,0,1,1.219,1.219Z" transform="translate(0 -221.719)"/><path class="c" d="M119.156,417.219H96v1.219h23.156a1.222,1.222,0,0,0,1.219-1.219V416A1.222,1.222,0,0,1,119.156,417.219Z" transform="translate(-59.125 -384.313)"/><path class="e" d="M1.26-12.69H4.395a2.487,2.487,0,0,1,1.732.561,2.008,2.008,0,0,1,.619,1.567,2.008,2.008,0,0,1-.619,1.567,2.487,2.487,0,0,1-1.732.561H2.769v2.564H1.26ZM4.2-9.574q1.132,0,1.132-.977a.931.931,0,0,0-.281-.745,1.277,1.277,0,0,0-.851-.242H2.769v1.964ZM7.723-12.69h2.651a4.2,4.2,0,0,1,1.916.406,2.837,2.837,0,0,1,1.229,1.171,3.7,3.7,0,0,1,.426,1.829,3.766,3.766,0,0,1-.421,1.834A2.8,2.8,0,0,1,12.3-6.275a4.221,4.221,0,0,1-1.925.406H7.723Zm2.545,5.6a1.933,1.933,0,0,0,2.177-2.2,1.929,1.929,0,0,0-2.177-2.187H9.233v4.383Zm4.838-5.6h4.606v1.19H16.6v1.567h2.922v1.19H16.6v2.874h-1.49Z" transform="translate(35.891 35.092)"/></g></svg>