<svg xmlns="http://www.w3.org/2000/svg" width="34.234" height="39" viewBox="0 0 34.234 39"><defs><style>.a{fill:#e2e5e7;}.b{fill:#b0b7bd;}.c{fill:#cad1d8;}.d{fill:#f15642;}.e{fill:#fff;}</style></defs><g transform="translate(-31.891)"><path class="a" d="M98.438,0A2.445,2.445,0,0,0,96,2.438V36.563A2.445,2.445,0,0,0,98.438,39h24.375a2.445,2.445,0,0,0,2.438-2.437V9.75L115.5,0Z" transform="translate(-59.125)"/><path class="b" d="M354.438,9.75h7.313L352,0V7.313A2.445,2.445,0,0,0,354.438,9.75Z" transform="translate(-295.625)"/><path class="c" d="M391.313,135.313,384,128h7.313Z" transform="translate(-325.188 -118.25)"/><path class="d" d="M61.25,253.406a1.222,1.222,0,0,1-1.219,1.219H33.219A1.222,1.222,0,0,1,32,253.406V241.219A1.222,1.222,0,0,1,33.219,240H60.031a1.222,1.222,0,0,1,1.219,1.219Z" transform="translate(-0.109 -221.908)"/><g transform="translate(36.89 22.092)"><path class="e" d="M105.456,295.038a.715.715,0,0,1,.706-.718h2.4a2.6,2.6,0,0,1,0,5.2h-1.736v1.373a.652.652,0,0,1-.664.716.7.7,0,0,1-.706-.716v-5.853Zm1.372.592v2.59h1.736a1.3,1.3,0,0,0,0-2.59Z" transform="translate(-105.456 -294.32)"/><path class="e" d="M191.616,295.038a.716.716,0,0,1,.707-.718h2.4a2.6,2.6,0,0,1,0,5.2h-1.736v1.373a.653.653,0,0,1-.666.716.7.7,0,0,1-.707-.716Zm1.372.592v2.59h1.736a1.3,1.3,0,0,0,0-2.59Z" transform="translate(-184.615 -294.32)"/><path class="e" d="M273.456,296.434h-1.817a.665.665,0,1,1,0-1.33h4.916a.666.666,0,1,1,0,1.33h-1.725v5.25a.686.686,0,0,1-1.373,0Z" transform="translate(-257.512 -295.04)"/></g><path class="c" d="M119.156,417.219H96v1.219h23.156a1.222,1.222,0,0,0,1.219-1.219V416A1.222,1.222,0,0,1,119.156,417.219Z" transform="translate(-59.125 -384.313)"/></g></svg>