<svg xmlns="http://www.w3.org/2000/svg" width="166" height="166" viewBox="0 0 166 166"><defs><style>.a,.d{fill:none;}.a{stroke:#137ef9;stroke-linecap:round;stroke-width:2px;stroke-dasharray:5;}.b{fill:#137ef9;}.c{stroke:none;}</style></defs><g class="a"><rect class="c" width="166" height="166" rx="15"/><rect class="d" x="1" y="1" width="164" height="164" rx="14"/></g><g transform="translate(49.971 49.913)"><path class="b" d="M374.676,16.647A8.323,8.323,0,0,1,383,8.323,8.324,8.324,0,0,1,374.676,0a8.324,8.324,0,0,1-8.323,8.323A8.323,8.323,0,0,1,374.676,16.647Z" transform="translate(-316.412)"/><path class="b" d="M403.126,183.176a6.243,6.243,0,0,1-6.243,6.243,6.242,6.242,0,0,1,6.243,6.243,6.243,6.243,0,0,1,6.243-6.243A6.242,6.242,0,0,1,403.126,183.176Z" transform="translate(-342.781 -158.206)"/><path class="b" d="M134.6,24.97a12.485,12.485,0,0,1,12.485-12.485A12.485,12.485,0,0,1,134.6,0a12.485,12.485,0,0,1-12.485,12.485A12.485,12.485,0,0,1,134.6,24.97Z" transform="translate(-105.471)"/><path class="b" d="M45.779,91.588,0,137.367l8.323,8.323L54.1,99.911Zm-7.1,13.347,5.885-5.885,2.081,2.081-5.885,5.885-2.081-2.081Z" transform="translate(0 -79.103)"/></g></svg>