<svg xmlns="http://www.w3.org/2000/svg" xmlns:xlink="http://www.w3.org/1999/xlink" width="65" height="65" viewBox="0 0 65 65"><defs><style>.a{fill:url(#a);}.b{fill:#fff;}</style><linearGradient id="a" x1="1.214" y1="0.129" x2="0" y2="1" gradientUnits="objectBoundingBox"><stop offset="0" stop-color="#f99d13"/><stop offset="0.13" stop-color="#fbca38"/><stop offset="0.21" stop-color="#fbce3b"/><stop offset="1" stop-color="#ff0e77"/></linearGradient></defs><g transform="translate(-1282 -625)"><circle class="a" cx="32.5" cy="32.5" r="32.5" transform="translate(1282 625)"/><path class="b" d="M18.074,3.145C11.955,3.145,6.143,2.6,3.923,8.3c-.917,2.353-.784,5.409-.784,9.784,0,3.839-.123,7.448.784,9.782,2.215,5.7,8.073,5.154,14.148,5.154,5.86,0,11.9.61,14.149-5.154.919-2.376.784-5.387.784-9.782,0-5.835.322-9.6-2.508-12.43-2.865-2.865-6.74-2.506-12.428-2.506ZM16.736,5.837C29.5,5.816,31.127,4.4,30.23,24.112c-.319,6.973-5.628,6.207-12.154,6.207-11.9,0-12.241-.34-12.241-12.245,0-12.042.944-12.231,10.9-12.241Zm9.31,2.479a1.792,1.792,0,1,0,1.792,1.792A1.792,1.792,0,0,0,26.047,8.316Zm-7.972,2.1a7.67,7.67,0,1,0,7.667,7.67,7.67,7.67,0,0,0-7.667-7.67Zm0,2.692c6.582,0,6.59,9.958,0,9.958S11.484,13.1,18.074,13.1Z" transform="translate(1296.869 639.87)"/></g></svg>