<svg xmlns="http://www.w3.org/2000/svg" width="387.57" height="288.786" viewBox="0 0 387.57 288.786"><defs><style>.a{fill:#ebebeb;}.b{fill:#f5f5f5;}.c{fill:#f0f0f0;}.d{fill:#e6e6e6;}.e,.h{fill:#e0e0e0;}.f{fill:#fafafa;}.g,.j,.o,.p,.q{fill:#fff;}.h,.j,.k{opacity:0.5;}.i{fill:#137ef9;}.l,.n{opacity:0.6;}.m,.n,.t{fill:#263238;}.o,.s,.t{opacity:0.3;}.p{opacity:0.9;}.q,.w{opacity:0.4;}.r{fill:#ffc3bd;}.u{opacity:0.2;}.v{fill:#ed847e;}.x{fill:#b55b52;}.y{fill:#b65b52;}.z{fill:#a02724;}</style></defs><g transform="translate(0 -55)"><g transform="translate(0 55)"><rect class="a" width="387.57" height="0.194" transform="translate(0 253.781)"/><rect class="a" width="12.449" height="0.194" transform="translate(40.664 261.16)"/><rect class="a" width="41.493" height="0.194" transform="translate(132.658 259.06)"/><rect class="a" width="28.099" height="0.194" transform="translate(53.888 268.361)"/><rect class="a" width="33.478" height="0.194" transform="translate(293.887 258.959)"/><rect class="a" width="4.907" height="0.194" transform="translate(334.272 258.959)"/><rect class="a" width="41.772" height="0.194" transform="translate(245.72 263.788)"/><path class="a" d="M192.3,274.21H42.628a4.426,4.426,0,0,1-4.418-4.426V59.387A4.426,4.426,0,0,1,42.628,55H192.3a4.426,4.426,0,0,1,4.426,4.426V269.784A4.426,4.426,0,0,1,192.3,274.21ZM42.628,55.155A4.232,4.232,0,0,0,38.4,59.387v210.4a4.232,4.232,0,0,0,4.225,4.232H192.3a4.24,4.24,0,0,0,4.232-4.232V59.387a4.24,4.24,0,0,0-4.232-4.232Z" transform="translate(-8.592 -55)"/><path class="a" d="M408.606,274.21H258.926a4.434,4.434,0,0,1-4.426-4.426V59.387A4.434,4.434,0,0,1,258.926,55h149.68a4.426,4.426,0,0,1,4.411,4.387v210.4A4.426,4.426,0,0,1,408.606,274.21ZM258.926,55.155a4.24,4.24,0,0,0-4.232,4.232v210.4a4.24,4.24,0,0,0,4.232,4.232h149.68a4.24,4.24,0,0,0,4.232-4.232V59.387a4.24,4.24,0,0,0-4.232-4.232Z" transform="translate(-57.227 -55)"/><rect class="b" width="5.147" height="64.794" transform="translate(302.08 188.987)"/><rect class="c" width="4.48" height="64.794" transform="translate(304.987 188.987)"/><rect class="b" width="5.147" height="64.794" transform="translate(182.026 188.987)"/><rect class="c" width="4.48" height="64.794" transform="translate(184.933 188.987)"/><rect class="b" width="5.147" height="64.794" transform="translate(321.59 188.987)"/><rect class="c" width="4.48" height="64.794" transform="translate(324.497 188.987)"/><rect class="b" width="5.147" height="64.794" transform="translate(201.537 188.987)"/><rect class="c" width="146.943" height="2.457" transform="translate(328.977 190.212) rotate(180)"/><rect class="d" width="22.417" height="2.457" transform="translate(204.443 190.212) rotate(180)"/><rect class="c" width="4.48" height="64.794" transform="translate(204.443 188.987)"/><rect class="a" width="13.898" height="47.191" transform="translate(241.619 140.564)"/><path class="e" d="M362.855,281.2H316.719L309.75,225.97h46.136Z" transform="translate(-69.65 -93.444)"/><path class="c" d="M365.914,281.2H318.259L311.29,225.97h47.656Z" transform="translate(-69.996 -93.444)"/><path class="f" d="M344.587,281.2H335.34l2.6-55.229h9.247Z" transform="translate(-75.404 -93.444)"/><path class="f" d="M358.3,281.2h-9.1l2.6-55.229h9.1Z" transform="translate(-78.521 -93.444)"/><rect class="d" width="119.86" height="93.784" transform="translate(214.187 13.573)"/><rect class="c" width="121.775" height="93.784" transform="translate(215.869 13.573)"/><rect class="d" width="119.86" height="3.139" transform="translate(214.187 107.357)"/><rect class="c" width="121.775" height="3.139" transform="translate(217.784 107.357)"/><rect class="f" width="83.715" height="111.706" transform="translate(332.613 18.603) rotate(90)"/><path class="g" d="M363.85,162.717l8.061-83.707h13.953L377.8,162.717Z" transform="translate(-81.815 -60.399)"/><path class="g" d="M318.43,162.717l8.061-83.707h13.953l-8.061,83.707Z" transform="translate(-71.602 -60.399)"/><path class="c" d="M287.89,135.184a.388.388,0,0,1-.38-.388V83.118a.388.388,0,0,1,.775,0V134.8a.388.388,0,0,1-.4.388Z" transform="translate(-64.649 -61.235)"/><path class="g" d="M385.71,162.717l8.061-83.707h5.441l-8.061,83.707Z" transform="translate(-86.731 -60.399)"/><rect class="d" width="83.715" height="0.636" transform="translate(332.613 18.611) rotate(90)"/><path class="h" d="M402.225,88.7H282.365l-.465-7.17H401.76Z" transform="translate(-63.388 -60.966)"/><path class="h" d="M402.225,103.91H282.365l-.465-7.17H401.76Z" transform="translate(-63.388 -64.386)"/><path class="h" d="M402.225,119.12H282.365l-.465-7.17H401.76Z" transform="translate(-63.388 -67.806)"/><path class="h" d="M402.225,134.33H282.365l-.465-7.17H401.76Z" transform="translate(-63.388 -71.226)"/><path class="h" d="M402.225,149.53H282.365l-.465-7.17H401.76Z" transform="translate(-63.388 -74.644)"/><path class="h" d="M402.225,164.74H282.365l-.465-7.17H401.76Z" transform="translate(-63.388 -78.064)"/><path class="h" d="M402.225,96.31H282.365l-.465-7.17H401.76Z" transform="translate(-63.388 -62.677)"/><path class="h" d="M402.225,111.51H282.365l-.465-7.17H401.76Z" transform="translate(-63.388 -66.095)"/><path class="h" d="M402.225,126.72H282.365l-.465-7.17H401.76Z" transform="translate(-63.388 -69.515)"/><path class="h" d="M402.225,141.93H282.365l-.465-7.17H401.76Z" transform="translate(-63.388 -72.935)"/><path class="h" d="M402.225,157.14H282.365l-.465-7.17H401.76Z" transform="translate(-63.388 -76.355)"/><path class="h" d="M402.225,172.348H282.365l-.465-7.178H401.76Z" transform="translate(-63.388 -79.773)"/><rect class="b" width="23.743" height="13.72" rx="4.82" transform="translate(96.9 60.12) rotate(180)"/><rect class="b" width="23.743" height="13.72" rx="4.82" transform="translate(96.9 46.392) rotate(180)"/><rect class="e" width="8.224" height="4.752" rx="1.67" transform="translate(89.141 32.672) rotate(180)"/><rect class="b" width="23.743" height="13.72" rx="4.82" transform="translate(96.9 73.832) rotate(180)"/><path class="c" d="M192.578,138s-.775,9.534-30.92,9.534S130.73,138,130.73,138Z" transform="translate(-29.396 -73.663)"/><rect class="c" width="23.89" height="169.159" transform="translate(46.834 75.77)"/><rect class="c" width="117.806" height="8.852" transform="translate(51.415 244.929)"/><rect class="b" width="103.086" height="169.159" transform="translate(173.81 244.921) rotate(180)"/><rect class="c" width="84.304" height="39.92" transform="translate(164.415 175.794) rotate(180)"/><rect class="c" width="84.304" height="39.92" transform="translate(164.415 224.62) rotate(180)"/><rect class="c" width="84.304" height="6.085" transform="translate(164.415 239.015) rotate(180)"/><path class="b" d="M171.968,232.429h-42.85a3.356,3.356,0,0,1-3.349-3.349h0a3.356,3.356,0,0,1,3.349-3.341h42.85a3.356,3.356,0,0,1,3.349,3.341h0a3.356,3.356,0,0,1-3.349,3.349Z" transform="translate(-28.281 -93.392)"/><rect class="c" width="84.304" height="39.92" transform="translate(164.415 126.976) rotate(180)"/><path class="b" d="M171.968,169.447h-42.85a3.356,3.356,0,0,1-3.349-3.349h0a3.356,3.356,0,0,1,3.349-3.349h42.85a3.356,3.356,0,0,1,3.349,3.349h0A3.356,3.356,0,0,1,171.968,169.447Z" transform="translate(-28.281 -79.229)"/><path class="b" d="M171.968,295.417h-42.85a3.356,3.356,0,0,1-3.349-3.349h0a3.356,3.356,0,0,1,3.349-3.349h42.85a3.356,3.356,0,0,1,3.349,3.349h0a3.356,3.356,0,0,1-3.349,3.349Z" transform="translate(-28.281 -107.554)"/><rect class="c" width="106.272" height="1.93" transform="translate(70.716 73.84)"/><rect class="d" width="27.223" height="1.93" transform="translate(70.724 75.77) rotate(180)"/></g><g transform="translate(43.493 326.237)"><ellipse class="b" cx="150.292" cy="8.775" rx="150.292" ry="8.775"/></g><g transform="translate(39.424 252.979)"><path class="i" d="M354.1,315.6H56.348L50.86,310.41H359.583Z" transform="translate(-50.86 -310.41)"/><path class="j" d="M354.1,315.6H56.348L50.86,310.41H359.583Z" transform="translate(-50.86 -310.41)"/><path class="i" d="M336.241,319.908H89.56l-4.55-2.8H340.791Z" transform="translate(-58.539 -311.917)"/><path class="k" d="M336.241,319.908H89.56l-4.55-2.8H340.791Z" transform="translate(-58.539 -311.917)"/><path class="i" d="M87.332,394.761H83.79L94.774,320.72h7.9Z" transform="translate(-58.265 -312.728)"/><path class="k" d="M87.332,394.761H83.79L94.774,320.72h7.9Z" transform="translate(-58.265 -312.728)"/><path class="i" d="M112.075,394.761H108.54l10.984-74.041h7.9Z" transform="translate(-63.83 -312.728)"/><path class="k" d="M112.075,394.761H108.54l10.984-74.041h7.9Z" transform="translate(-63.83 -312.728)"/><path class="i" d="M407.19,394.761h3.542L399.749,320.72h-7.9Z" transform="translate(-127.535 -312.728)"/><path class="k" d="M407.19,394.761h3.542L399.749,320.72h-7.9Z" transform="translate(-127.535 -312.728)"/><path class="i" d="M382.448,394.761h3.535L375,320.72h-7.9Z" transform="translate(-121.97 -312.728)"/><path class="k" d="M382.448,394.761h3.535L375,320.72h-7.9Z" transform="translate(-121.97 -312.728)"/></g><g transform="translate(144.14 86.11)"><path class="i" d="M215.662,95.139l10.007.674a2.132,2.132,0,0,1,1.814,1.256l1.054,2.325a2.139,2.139,0,0,0,1.155,1.1,28.952,28.952,0,0,1,3.643,1.806,2.155,2.155,0,0,0,1.55.248l2.511-.589a2.155,2.155,0,0,1,2.1.674l6.6,7.55a2.147,2.147,0,0,1,.388,2.178l-.915,2.4a2.147,2.147,0,0,0,.039,1.6,29.223,29.223,0,0,1,1.3,3.876,2.108,2.108,0,0,0,.938,1.287l2.186,1.356a2.132,2.132,0,0,1,1.008,1.961l-.667,10.015a2.124,2.124,0,0,1-1.263,1.806l-2.325,1.054a2.194,2.194,0,0,0-1.1,1.155,27.908,27.908,0,0,1-1.8,3.643,2.132,2.132,0,0,0-.248,1.55l.581,2.5a2.132,2.132,0,0,1-.674,2.1l-7.55,6.6a2.132,2.132,0,0,1-2.17.388l-2.411-.915a2.163,2.163,0,0,0-1.589,0,30.012,30.012,0,0,1-3.876,1.3,2.139,2.139,0,0,0-1.287.938l-1.357,2.186a2.147,2.147,0,0,1-1.969,1.008l-10.007-.667a2.147,2.147,0,0,1-1.814-1.256l-1.054-2.325a2.139,2.139,0,0,0-1.155-1.1,28.951,28.951,0,0,1-3.643-1.806,2.147,2.147,0,0,0-1.55-.248l-2.5.589a2.139,2.139,0,0,1-2.1-.674l-6.612-7.55a2.163,2.163,0,0,1-.388-2.178l.915-2.4a2.124,2.124,0,0,0-.039-1.589,29.718,29.718,0,0,1-1.3-3.876,2.108,2.108,0,0,0-.938-1.287l-2.186-1.357a2.132,2.132,0,0,1-1.008-1.961l.667-10.015a2.155,2.155,0,0,1,1.263-1.814l2.325-1.046a2.139,2.139,0,0,0,1.1-1.155,29.047,29.047,0,0,1,1.806-3.651,2.163,2.163,0,0,0,.256-1.55l-.589-2.5a2.139,2.139,0,0,1,.674-2.1l7.55-6.6a2.139,2.139,0,0,1,2.17-.4l2.411.915a2.124,2.124,0,0,0,1.589,0,28.858,28.858,0,0,1,3.876-1.3,2.178,2.178,0,0,0,1.287-.93l1.356-2.186A2.155,2.155,0,0,1,215.662,95.139Zm-16.084,31.292a18.983,18.983,0,1,0,20.2-17.673A18.983,18.983,0,0,0,199.578,126.431Z" transform="translate(-185.953 -95.135)"/><path class="i" d="M273.487,149.367l3.434-1.163a1.07,1.07,0,0,1,1.062.233l.566.543a1.093,1.093,0,0,0,.721.279,10.6,10.6,0,0,1,1.411.093,1.031,1.031,0,0,0,.775-.186l.636-.457a1.07,1.07,0,0,1,1.085-.085l3.248,1.612a1.054,1.054,0,0,1,.589.907v.775a1.07,1.07,0,0,0,.31.713,10.128,10.128,0,0,1,.93,1.062,1.077,1.077,0,0,0,.659.4l.775.124a1.046,1.046,0,0,1,.822.705l1.163,3.434a1.047,1.047,0,0,1-.225,1.062l-.543.566a1.077,1.077,0,0,0-.279.721,10.681,10.681,0,0,1-.093,1.411,1.039,1.039,0,0,0,.178.775l.457.636a1.039,1.039,0,0,1,.093,1.077l-1.612,3.256a1.054,1.054,0,0,1-.907.589h-.775a1.031,1.031,0,0,0-.705.31,13.6,13.6,0,0,1-1.062.93,1.078,1.078,0,0,0-.4.659l-.124.775a1.047,1.047,0,0,1-.705.822l-3.434,1.163a1.046,1.046,0,0,1-1.062-.233l-.574-.535a1.023,1.023,0,0,0-.721-.279,10.572,10.572,0,0,1-1.4-.093,1.031,1.031,0,0,0-.775.178l-.636.457a1.054,1.054,0,0,1-1.085.093l-3.248-1.612a1.054,1.054,0,0,1-.589-.915V169.4a1.07,1.07,0,0,0-.31-.705,10.992,10.992,0,0,1-.93-1.062,1.008,1.008,0,0,0-.659-.4l-.775-.124a1.085,1.085,0,0,1-.829-.705l-1.163-3.442a1.054,1.054,0,0,1,.233-1.054l.543-.566a1.093,1.093,0,0,0,.279-.729,10.686,10.686,0,0,1,.093-1.411,1.046,1.046,0,0,0-.186-.775l-.45-.636a1.039,1.039,0,0,1-.093-1.077l1.612-3.256a1.031,1.031,0,0,1,.907-.581h.775a1.07,1.07,0,0,0,.713-.31,10.994,10.994,0,0,1,1.062-.93,1.078,1.078,0,0,0,.4-.659l.124-.775a1.046,1.046,0,0,1,.7-.829Zm2.054,12.542a3.876,3.876,0,1,0,.195-2.966A3.876,3.876,0,0,0,275.541,161.909Z" transform="translate(-204.115 -107.056)"/><path class="j" d="M273.487,149.367l3.434-1.163a1.07,1.07,0,0,1,1.062.233l.566.543a1.093,1.093,0,0,0,.721.279,10.6,10.6,0,0,1,1.411.093,1.031,1.031,0,0,0,.775-.186l.636-.457a1.07,1.07,0,0,1,1.085-.085l3.248,1.612a1.054,1.054,0,0,1,.589.907v.775a1.07,1.07,0,0,0,.31.713,10.128,10.128,0,0,1,.93,1.062,1.077,1.077,0,0,0,.659.4l.775.124a1.046,1.046,0,0,1,.822.705l1.163,3.434a1.047,1.047,0,0,1-.225,1.062l-.543.566a1.077,1.077,0,0,0-.279.721,10.681,10.681,0,0,1-.093,1.411,1.039,1.039,0,0,0,.178.775l.457.636a1.039,1.039,0,0,1,.093,1.077l-1.612,3.256a1.054,1.054,0,0,1-.907.589h-.775a1.031,1.031,0,0,0-.705.31,13.6,13.6,0,0,1-1.062.93,1.078,1.078,0,0,0-.4.659l-.124.775a1.047,1.047,0,0,1-.705.822l-3.434,1.163a1.046,1.046,0,0,1-1.062-.233l-.574-.535a1.023,1.023,0,0,0-.721-.279,10.572,10.572,0,0,1-1.4-.093,1.031,1.031,0,0,0-.775.178l-.636.457a1.054,1.054,0,0,1-1.085.093l-3.248-1.612a1.054,1.054,0,0,1-.589-.915V169.4a1.07,1.07,0,0,0-.31-.705,10.992,10.992,0,0,1-.93-1.062,1.008,1.008,0,0,0-.659-.4l-.775-.124a1.085,1.085,0,0,1-.829-.705l-1.163-3.442a1.054,1.054,0,0,1,.233-1.054l.543-.566a1.093,1.093,0,0,0,.279-.729,10.686,10.686,0,0,1,.093-1.411,1.046,1.046,0,0,0-.186-.775l-.45-.636a1.039,1.039,0,0,1-.093-1.077l1.612-3.256a1.031,1.031,0,0,1,.907-.581h.775a1.07,1.07,0,0,0,.713-.31,10.994,10.994,0,0,1,1.062-.93,1.078,1.078,0,0,0,.4-.659l.124-.775a1.046,1.046,0,0,1,.7-.829Zm2.054,12.542a3.876,3.876,0,1,0,.195-2.966A3.876,3.876,0,0,0,275.541,161.909Z" transform="translate(-204.115 -107.056)"/><path class="i" d="M247.692,194.806l4.263-7.387a1.822,1.822,0,0,0-1.55-2.729h-8.527a1.814,1.814,0,0,0-1.55,2.729l4.263,7.387a1.822,1.822,0,0,0,3.1,0Z" transform="translate(-198.124 -115.272)"/></g><g transform="translate(48.692 114.926)"><path class="i" d="M68.145,283.145h104.5a2.666,2.666,0,0,0,2.674-2.759l-2.473-74.708a2.9,2.9,0,0,0-2.86-2.767H65.494a2.659,2.659,0,0,0-2.674,2.767l2.465,74.708A2.876,2.876,0,0,0,68.145,283.145Z" transform="translate(-62.817 -148.185)"/><path class="i" d="M69.245,283.145h104.5a2.666,2.666,0,0,0,2.674-2.759l-2.473-74.708a2.9,2.9,0,0,0-2.86-2.767H66.594a2.666,2.666,0,0,0-2.674,2.767l2.473,74.708a2.876,2.876,0,0,0,2.853,2.759Z" transform="translate(-63.065 -148.185)"/><g class="l" transform="translate(0.853 54.725)"><path class="m" d="M69.245,283.145h104.5a2.666,2.666,0,0,0,2.674-2.759l-2.473-74.708a2.9,2.9,0,0,0-2.86-2.767H66.594a2.666,2.666,0,0,0-2.674,2.767l2.473,74.708a2.876,2.876,0,0,0,2.853,2.759Z" transform="translate(-63.918 -202.91)"/></g><path class="i" d="M71.637,306.25h126.2a3.31,3.31,0,0,1,2.977,1.86.953.953,0,0,1-.868,1.364H69.529a.953.953,0,0,1-.876-1.364A3.318,3.318,0,0,1,71.637,306.25Z" transform="translate(-64.108 -171.422)"/><path class="n" d="M205.234,306.25H104.527a3.318,3.318,0,0,0-2.984,1.86.953.953,0,0,0,.876,1.364H207.342a.953.953,0,0,0,.868-1.364,3.31,3.31,0,0,0-2.977-1.86Z" transform="translate(-71.504 -171.422)"/><path class="o" d="M157.338,308.89h26.2a1.178,1.178,0,0,1,1.17,1.178H156.16A1.178,1.178,0,0,1,157.338,308.89Z" transform="translate(-83.806 -172.016)"/><path class="p" d="M174.644,278.955l-2.325-69.3a1.132,1.132,0,0,0-1.116-1.077H68.178a1.031,1.031,0,0,0-1.039,1.1l2.325,69.3a1.116,1.116,0,0,0,1.108,1.077H173.667a1.039,1.039,0,0,0,.977-1.1Z" transform="translate(-63.788 -149.46)"/><path class="g" d="M92.138,280.032H77.93L94.309,208.58h14.208Z" transform="translate(-66.215 -149.46)"/><path class="g" d="M106.456,280.032H101.34l16.379-71.452h5.116Z" transform="translate(-71.479 -149.46)"/><path class="g" d="M173.886,280.032H168.77l16.379-71.452h5.108Z" transform="translate(-86.642 -149.46)"/><path class="q" d="M133.82,205.675a.853.853,0,0,0,.837.775.775.775,0,0,0,.775-.775.837.837,0,0,0-.837-.775.775.775,0,0,0-.775.775Z" transform="translate(-78.783 -148.633)"/><path class="r" d="M174.008,196.06c1.372,2.2,2.853,4.535,4.333,6.782s3,4.5,4.55,6.7a140.781,140.781,0,0,0,9.744,12.581,49.315,49.315,0,0,0,5.31,5.217l.667.527a4.984,4.984,0,0,0,.457.349,12.486,12.486,0,0,0,1.248.721,23.313,23.313,0,0,0,3.24,1.287,37.822,37.822,0,0,0,3.659,1.062c1.256.287,2.55.62,3.876.891,2.6.55,5.31,1.054,7.922,1.5V239.1c-1.488.217-2.884.326-4.333.426s-2.884.139-4.341.147a53.966,53.966,0,0,1-8.883-.705,32.69,32.69,0,0,1-4.69-1.178,18.308,18.308,0,0,1-2.5-1.07,11.126,11.126,0,0,1-1.31-.775l-1-.7a53.814,53.814,0,0,1-6.9-6.038A123.461,123.461,0,0,1,173.985,215.9q-2.519-3.449-4.852-6.976c-1.55-2.387-3.1-4.728-4.542-7.271Z" transform="translate(-85.702 -146.645)"/><path class="i" d="M159.9,196.045c-.775,6.806,15.449,23.068,15.449,23.068l10.976-9.162a148.917,148.917,0,0,0-10.658-15.666C169.429,186.557,160.747,188.348,159.9,196.045Z" transform="translate(-84.642 -145.126)"/><path class="s" d="M168.769,202.828c-4.333-4.651-6.4-5.852-8.9-4,.333,7.186,15.5,22.223,15.5,22.223C176.365,213.339,172.435,208.378,168.769,202.828Z" transform="translate(-84.64 -147.08)"/><path class="i" d="M188.919,211.89l1.155,3.349L177.8,225.315,175.37,222.8Z" transform="translate(-88.126 -150.204)"/><path class="t" d="M188.919,211.89l1.155,3.349L177.8,225.315,175.37,222.8Z" transform="translate(-88.126 -150.204)"/><path class="r" d="M232.977,244.45l8.527,1.465-4.69,7.488c-1.116.178-5.566-2.232-7.534-5.224Z" transform="translate(-100.248 -157.526)"/><path class="r" d="M248.92,251.394l-3.4,3.86-6.527-1.465,4.682-7.449Z" transform="translate(-102.431 -157.951)"/><path class="i" d="M159.522,188.938s9.3,21.874,2.6,62.616H123.369c-.473-5.945,2.256-34.959-4.449-62.988a99.169,99.169,0,0,1,12.922-1.635,142.309,142.309,0,0,1,16.472,0,73.74,73.74,0,0,1,11.209,2.008Z" transform="translate(-75.432 -144.538)"/><path class="s" d="M127.763,196.762c.775,4.651-.264,15.642-4.217,28.4a184.993,184.993,0,0,0-3.806-32.556v-.054C122.267,192.344,127,192.468,127.763,196.762Z" transform="translate(-75.617 -145.843)"/><path class="r" d="M136.574,163.07c1.225,5.3,2.6,15.014-.984,18.549,0,0,1.55,4.387,11.395,4.387,10.852,0,5.077-4.387,5.077-4.387-5.961-1.411-5.961-5.8-5.077-9.914Z" transform="translate(-79.181 -139.227)"/><path class="g" d="M150.255,193.142l2.325,2.457a.5.5,0,0,1,.093.558l-1.163,2.426a.488.488,0,0,1-.426.287l-1.76.085a.488.488,0,0,1-.426-.217l-1.628-2.325a.5.5,0,0,1,0-.6l2.232-2.643a.488.488,0,0,1,.752-.023Z" transform="translate(-81.785 -145.951)"/><path class="m" d="M146.625,190.776a12.627,12.627,0,0,0-1.884,5.969s-12.581-4.3-12.007-10.6a24.92,24.92,0,0,0,3.217-1.868S136.362,188.256,146.625,190.776Z" transform="translate(-78.534 -143.996)"/><path class="m" d="M150.66,191.1a17.17,17.17,0,0,1,2.38,5.589s5.829-3.992,4.17-10.216l-3.426-.736A4.815,4.815,0,0,1,150.66,191.1Z" transform="translate(-82.569 -144.324)"/><path class="g" d="M151.834,200.157c.775,2.573,6.62,21.657,6.767,26.223a.587.587,0,0,1,0,.116c-.543,2.457-2.977,6.767-3.969,8.457a.411.411,0,0,1-.736-.047c-.682-1.667-2.325-5.659-3.411-7.992a.472.472,0,0,1-.039-.14c-.512-8.333-.651-21.293-.907-26.471a.411.411,0,0,1,.411-.434h1.5A.411.411,0,0,1,151.834,200.157Z" transform="translate(-82.317 -147.502)"/><path class="u" d="M142.3,167.61l6.162,5.108a16.675,16.675,0,0,0-.411,2.922c-2.271-.326-5.426-2.8-5.775-5.162A7.751,7.751,0,0,1,142.3,167.61Z" transform="translate(-80.656 -140.248)"/><path class="m" d="M155.8,142.616c1.465,1.093,3.969,5.713.775,6.922S152.211,139.934,155.8,142.616Z" transform="translate(-83.229 -134.531)"/><path class="r" d="M134.332,151.511c1.465,7.062,1.969,11.255,6.1,14.5a9.371,9.371,0,0,0,15.224-6.612c.6-6.55-1.907-16.991-9.3-19.053a9.48,9.48,0,0,0-12.022,11.162Z" transform="translate(-78.845 -134.024)"/><path class="m" d="M132.516,155.115l2.961-1.977.194-1.721a12.821,12.821,0,0,0-1.341-7.248h0s14.394.535,16.177-3.969-3.287-7.891-3.287-7.891-5.093,2.922-8.527,3.155-13.953-4.062-13.953,4.829c-4.651,1.434-4.5,9.085,7.751,14.821" transform="translate(-76.107 -132.31)"/><path class="m" d="M125.635,141.281s-1.907-1.512-.488-6.131C123.4,136.018,122.565,140.739,125.635,141.281Z" transform="translate(-76.481 -132.949)"/><path class="r" d="M131.461,163.965a7.17,7.17,0,0,0,4.651,2.519c2.4.256,3.1-1.961,2.062-4-.961-1.829-3.364-4.17-5.581-3.48S130.027,162.221,131.461,163.965Z" transform="translate(-78.059 -138.285)"/><path class="m" d="M170.531,293.927H145.765c-2.225-13.441-4.015-23.557-4.015-23.557h25.51S168.694,280.315,170.531,293.927Z" transform="translate(-80.566 -163.354)"/><path class="m" d="M125.6,293.927c-.558-13.441-.977-23.557-.977-23.557h25.006s.124,10.24.178,23.557Z" transform="translate(-76.714 -163.354)"/><path class="m" d="M148.725,155.573c.085.581.457,1.015.837.977s.62-.55.535-1.124-.457-1.015-.837-.977S148.64,154.992,148.725,155.573Z" transform="translate(-82.13 -137.288)"/><path class="m" d="M157.2,154.673c.085.581.457,1.015.837.969s.62-.543.535-1.116-.457-1.015-.837-.977S157.11,154.069,157.2,154.673Z" transform="translate(-84.035 -137.085)"/><path class="v" d="M154.56,155.64a21.952,21.952,0,0,0,3.488,4.651,3.305,3.305,0,0,1-2.7.822Z" transform="translate(-83.446 -137.556)"/><path class="m" d="M151.224,164.483a5.682,5.682,0,0,0,1.2,0,.171.171,0,0,0,.155-.186.178.178,0,0,0-.194-.155,4.806,4.806,0,0,1-4.015-1.38.173.173,0,0,0-.264.225A4.992,4.992,0,0,0,151.224,164.483Z" transform="translate(-81.986 -139.144)"/><path class="m" d="M145.58,152.815a.333.333,0,0,0,.333-.171,2.6,2.6,0,0,1,2.015-1.364.349.349,0,0,0,.326-.364.341.341,0,0,0-.357-.326,3.31,3.31,0,0,0-2.581,1.713.341.341,0,0,0,.132.473A.263.263,0,0,0,145.58,152.815Z" transform="translate(-81.357 -136.42)"/><path class="m" d="M159.574,151.04a.364.364,0,0,0,.233-.062.349.349,0,0,0,.093-.473,3.535,3.535,0,0,0-2.721-1.636.341.341,0,1,0-.008.682,2.852,2.852,0,0,1,2.155,1.333.364.364,0,0,0,.248.155Z" transform="translate(-83.957 -136.034)"/><path class="r" d="M122.185,201.438l-1.721,2.977q-.868,1.55-1.7,3.1-1.674,3.1-3.209,6.248c-1.008,2.1-1.969,4.209-2.829,6.333-.411,1.054-.829,2.116-1.186,3.178l-.55,1.589-.457,1.55-.116.4-.062.2v.047a.262.262,0,0,1-.054.171,4.411,4.411,0,0,0,0,.915,13.441,13.441,0,0,0,.574,2.713,47.539,47.539,0,0,0,2.48,6.2c1.961,4.209,4.349,8.457,6.7,12.6l-4.287,3.349c-1.829-1.837-3.473-3.705-5.085-5.674s-3.1-4.015-4.566-6.2a46.665,46.665,0,0,1-3.876-7.046,22.974,22.974,0,0,1-1.426-4.356,13.425,13.425,0,0,1-.295-2.752,9.689,9.689,0,0,1,.124-1.659l.062-.4.054-.248.1-.5a58.731,58.731,0,0,1,2.039-7.751c.822-2.5,1.783-4.9,2.806-7.271s2.147-4.651,3.349-6.93c.6-1.124,1.217-2.24,1.86-3.356s1.279-2.17,2.046-3.356Z" transform="translate(-71.295 -146.519)"/><path class="i" d="M114.912,189.071c-6.821,1-13.852,24.75-13.852,24.75l14.681,8.131s5.945-11.3,8.782-19.689C127.492,193.474,122.221,188,114.912,189.071Z" transform="translate(-71.416 -145.043)"/><path class="i" d="M101.27,216.72l-.62,3.488,15.084,8.3,2.008-2.876Z" transform="translate(-71.324 -151.29)"/><path class="t" d="M101.27,216.72l-.62,3.488,15.084,8.3,2.008-2.876Z" transform="translate(-71.324 -151.29)"/><path class="r" d="M122.392,262.926l7.209-1.256-3.7,8.348s-6.589-.039-6.286-3.434Z" transform="translate(-75.587 -161.398)"/><path class="r" d="M136.815,265.863l-3.4,6.744-5.69-2.589,3.7-8.348Z" transform="translate(-77.413 -161.398)"/></g><g transform="translate(185.817 116.05)"><path class="i" d="M399.22,283.145h-104.5a2.666,2.666,0,0,1-2.674-2.759l2.473-74.708a2.9,2.9,0,0,1,2.86-2.767H401.871a2.659,2.659,0,0,1,2.674,2.767l-2.465,74.708A2.876,2.876,0,0,1,399.22,283.145Z" transform="translate(-251.486 -149.309)"/><path class="n" d="M399.22,283.145h-104.5a2.666,2.666,0,0,1-2.674-2.759l2.473-74.708a2.9,2.9,0,0,1,2.86-2.767H401.871a2.659,2.659,0,0,1,2.674,2.767l-2.465,74.708A2.876,2.876,0,0,1,399.22,283.145Z" transform="translate(-251.486 -149.309)"/><path class="i" d="M398.12,283.145h-104.5a2.666,2.666,0,0,1-2.674-2.759l2.473-74.708a2.9,2.9,0,0,1,2.86-2.767H400.771a2.666,2.666,0,0,1,2.674,2.767l-2.473,74.708a2.876,2.876,0,0,1-2.853,2.759Z" transform="translate(-251.239 -149.309)"/><path class="i" d="M389.97,306.25H263.77a3.31,3.31,0,0,0-2.977,1.86.953.953,0,0,0,.868,1.364H392.079a.953.953,0,0,0,.876-1.364,3.318,3.318,0,0,0-2.984-1.86Z" transform="translate(-244.438 -172.546)"/><path class="n" d="M420.956,306.25H401.577a3.318,3.318,0,0,0-2.984,1.86.953.953,0,0,0,.876,1.364h23.557a.953.953,0,0,0,.876-1.364A3.318,3.318,0,0,0,420.956,306.25Z" transform="translate(-275.423 -172.546)"/><path class="u" d="M334.38,308.89h-26.2a1.178,1.178,0,0,0-1.17,1.178h28.548a1.178,1.178,0,0,0-1.178-1.178Z" transform="translate(-254.851 -173.139)"/><path class="p" d="M294.17,278.955l2.325-69.3a1.132,1.132,0,0,1,1.116-1.077H400.705a1.031,1.031,0,0,1,1.039,1.077l-2.325,69.3a1.116,1.116,0,0,1-1.108,1.077H295.216a1.039,1.039,0,0,1-1.046-1.077Z" transform="translate(-251.963 -150.584)"/><path class="g" d="M384.6,280.032H370.39l16.379-71.452h14.208Z" transform="translate(-269.102 -150.584)"/><path class="g" d="M307.646,280.032H302.53l16.379-71.452h5.108Z" transform="translate(-253.843 -150.584)"/><path class="g" d="M402.266,280.032H397.15l16.379-71.452h5.116Z" transform="translate(-275.12 -150.584)"/><path class="w" d="M365.712,205.675a.853.853,0,0,1-.837.775.775.775,0,0,1-.775-.775.837.837,0,0,1,.837-.775A.775.775,0,0,1,365.712,205.675Z" transform="translate(-267.688 -149.756)"/><path class="x" d="M351.524,163.07c-1.217,5.3-2.6,15.014.992,18.549,0,0-1.55,4.387-11.395,4.387-10.852,0-5.077-4.387-5.077-4.387,5.961-1.411,5.961-5.8,5.069-9.914Z" transform="translate(-261.034 -140.35)"/><path class="y" d="M374.132,195.56c.775,1.186,1.411,2.225,2.046,3.356s1.263,2.232,1.868,3.356c1.194,2.263,2.325,4.566,3.349,6.93s1.984,4.775,2.8,7.271a58.749,58.749,0,0,1,2.046,7.751l.1.5.047.248.07.4a11.554,11.554,0,0,1,.124,1.659,14.6,14.6,0,0,1-.295,2.752,22.965,22.965,0,0,1-1.434,4.356,45.969,45.969,0,0,1-3.876,7.046c-1.442,2.163-2.961,4.209-4.573,6.2a75.824,75.824,0,0,1-5.085,5.674l-4.279-3.349c2.325-4.147,4.736-8.395,6.7-12.6a47.463,47.463,0,0,0,2.473-6.2,13.44,13.44,0,0,0,.574-2.713,4.014,4.014,0,0,0,0-.915c0-.085,0-.163-.062-.171v-.047l-.054-.2-.116-.4-.465-1.55-.543-1.589c-.364-1.062-.775-2.124-1.194-3.178-.86-2.124-1.822-4.232-2.822-6.333s-2.1-4.178-3.209-6.248q-.822-1.55-1.7-3.1l-1.721-2.969Z" transform="translate(-267.868 -147.656)"/><path class="m" d="M371.367,189.071c6.821,1,13.844,24.75,13.844,24.75l-14.673,8.131s-5.953-11.263-8.782-19.689C358.779,193.474,364.081,188,371.367,189.071Z" transform="translate(-266.971 -146.167)"/><path class="s" d="M368.348,205.9l-1.108,10.154c1.108,2.442,2.194,4.651,3.039,6.395C370.6,218.38,370.589,211.76,368.348,205.9Z" transform="translate(-268.394 -149.981)"/><path class="i" d="M387.094,216.72l.628,3.488-15.084,8.3-2.008-2.876Z" transform="translate(-269.156 -152.414)"/><path class="t" d="M387.094,216.72l.628,3.488-15.084,8.3-2.008-2.876Z" transform="translate(-269.156 -152.414)"/><path class="x" d="M368.037,262.926l-7.217-1.256,3.705,8.348s6.581-.039,6.279-3.434Z" transform="translate(-266.95 -162.522)"/><path class="x" d="M353.88,265.863l3.387,6.744,5.7-2.589-3.705-8.348Z" transform="translate(-265.39 -162.522)"/><path class="m" d="M320.542,188.938s-9.3,21.874-2.6,62.616H356.7c.473-5.945-2.263-34.959,4.449-62.988a99.4,99.4,0,0,0-12.906-1.636,142.309,142.309,0,0,0-16.472,0,73.721,73.721,0,0,0-11.232,2.008Z" transform="translate(-256.763 -145.662)"/><path class="s" d="M316.4,213.078a131.656,131.656,0,0,0-.86,14.766c5.271-3.434,7.147-11.309,7.891-17.014Z" transform="translate(-256.769 -151.09)"/><path class="y" d="M312.99,201.659c-1.481,2.542-2.977,4.883-4.542,7.271s-3.17,4.705-4.852,6.976a123.544,123.544,0,0,1-11.085,13.317,54.253,54.253,0,0,1-6.891,6.038l-1.008.7c-.434.264-.884.55-1.3.775a18.813,18.813,0,0,1-2.5,1.07,32.7,32.7,0,0,1-4.69,1.178,53.9,53.9,0,0,1-8.883.705,42.443,42.443,0,0,1-4.333-.147c-1.434-.147-2.853-.209-4.341-.426v-5.426c2.612-.45,5.325-.953,7.914-1.5q1.953-.407,3.876-.891c1.279-.326,2.5-.667,3.659-1.062a22.94,22.94,0,0,0,3.24-1.287,12.486,12.486,0,0,0,1.248-.721c.194-.116.31-.24.465-.349l.667-.527a50.785,50.785,0,0,0,5.31-5.217,143.742,143.742,0,0,0,9.743-12.581c1.55-2.2,3.046-4.449,4.55-6.7s2.953-4.581,4.333-6.782Z" transform="translate(-243.956 -147.771)"/><path class="m" d="M325.749,196.046c.775,6.806-14.4,23.316-14.4,23.316l-12.007-9.395A148.228,148.228,0,0,1,309.99,194.3C316.223,186.558,324.889,188.348,325.749,196.046Z" transform="translate(-253.126 -146.25)"/><path class="i" d="M300.145,211.89l-1.155,3.349,12.271,10.077,2.434-2.519Z" transform="translate(-253.047 -151.328)"/><path class="t" d="M300.145,211.89l-1.155,3.349,12.271,10.077,2.434-2.519Z" transform="translate(-253.047 -151.328)"/><path class="x" d="M256.053,244.63l-8.643.124,3.48,8.092c1.07.349,5.845-1.349,8.247-4Z" transform="translate(-241.449 -158.69)"/><path class="x" d="M239.72,248.984l4.721,5.922,4.721-2.031-3.48-8.085Z" transform="translate(-239.72 -158.726)"/><path class="m" d="M332.946,154.673c-.085.581-.457,1.015-.837.969s-.62-.543-.543-1.116.465-1.015.845-.977S333.031,154.069,332.946,154.673Z" transform="translate(-260.369 -138.209)"/><path class="z" d="M332.546,155.64a21.8,21.8,0,0,1-3.5,4.651,3.325,3.325,0,0,0,2.705.822Z" transform="translate(-259.807 -138.68)"/><path class="m" d="M331.5,158.678c-1.294,0-2.465-1.868-2.674-4.256a5.209,5.209,0,0,1,.9-3.775,1.457,1.457,0,0,1,1.085-.527h0c1.294,0,2.465,1.86,2.674,4.248h0a5.193,5.193,0,0,1-.884,3.783,1.488,1.488,0,0,1-1.085.527Zm-.7-8.17h0a1.078,1.078,0,0,0-.775.4,4.852,4.852,0,0,0-.775,3.488c.186,2.116,1.233,3.876,2.325,3.876h0a1.085,1.085,0,0,0,.775-.4,4.79,4.79,0,0,0,.775-3.48c-.225-2.093-1.271-3.876-2.325-3.876Z" transform="translate(-259.743 -137.439)"/><path class="m" d="M335.2,151.04a.349.349,0,0,0,.326-.535,3.535,3.535,0,0,0-2.721-1.636.341.341,0,1,0-.008.682,2.853,2.853,0,0,1,2.155,1.333A.364.364,0,0,0,335.2,151.04Z" transform="translate(-260.573 -137.157)"/><path class="x" d="M352.719,151.512c-1.473,7.062-1.969,11.255-6.108,14.5a9.371,9.371,0,0,1-15.216-6.612c-.6-6.55,1.9-16.991,9.3-19.053a9.488,9.488,0,0,1,12.022,11.162Z" transform="translate(-260.315 -135.149)"/><path class="i" d="M363.5,293.927a89.236,89.236,0,0,0-2.054-23.557H336.44a94.281,94.281,0,0,1,2.86,23.557Z" transform="translate(-261.468 -164.478)"/><path class="o" d="M363.5,293.927a89.236,89.236,0,0,0-2.054-23.557H336.44a94.281,94.281,0,0,1,2.86,23.557Z" transform="translate(-261.468 -164.478)"/><path class="m" d="M338.385,153.451c-1.38-.69-3.1-7.581-2.628-10.03s6.031-5.085,11.5-4.093,7.813,2.907,8.875,7.883c1.093,5.162-2.891,13.759-4.86,14.425a8.713,8.713,0,0,1-7.155-.6C342.353,159.954,341.439,152.032,338.385,153.451Z" transform="translate(-261.297 -134.964)"/><path class="m" d="M336.212,144.689c-2.666.155-5.209-4.093-2.759-7.883a6.7,6.7,0,0,1,6.635-2.969s-1.116,2.178,2.6,1.721,10.65.581,13.069,3.186c2.992,3.209,1.186,9.519-3.318,7.968S336.212,144.689,336.212,144.689Z" transform="translate(-260.574 -133.76)"/><path class="m" d="M335.148,145.772a3.93,3.93,0,0,1-2.884-1.473,5.86,5.86,0,0,1-.884-6.085.2.2,0,1,1,.364.147,5.426,5.426,0,0,0,.814,5.682,3.271,3.271,0,0,0,3.155,1.271.2.2,0,0,1,.093.38,2.736,2.736,0,0,1-.659.078Z" transform="translate(-260.223 -134.734)"/><path class="x" d="M343.025,155.553a7.193,7.193,0,0,1-1.651,5.046c-1.55,1.837-3.62.729-4.248-1.481-.566-1.992-.434-5.341,1.651-6.372S342.863,153.313,343.025,155.553Z" transform="translate(-261.558 -137.957)"/><path class="i" d="M314.45,293.927h27.789a91.344,91.344,0,0,0,.984-23.557h-25.5S316.287,280.315,314.45,293.927Z" transform="translate(-256.524 -164.478)"/><path class="o" d="M314.45,293.927h27.789a91.344,91.344,0,0,0,.984-23.557h-25.5S316.287,280.315,314.45,293.927Z" transform="translate(-256.524 -164.478)"/></g></g></svg>