<svg xmlns="http://www.w3.org/2000/svg" width="16.833" height="15.191" viewBox="0 0 16.833 15.191">
  <g id="Group_21689" data-name="Group 21689" transform="translate(-53.989 -16.975)">
    <path id="Subtraction_9" data-name="Subtraction 9" d="M5.965,15.191H4.771V13.543a5.232,5.232,0,0,1-3.4-1.747A5.2,5.2,0,0,1,0,8.214V7.021A.572.572,0,0,1,.178,6.6a.581.581,0,0,1,.578-.155l.3.2a.571.571,0,0,1,.136.375V8.214a4.044,4.044,0,0,0,1.226,2.95,4.038,4.038,0,0,0,2.95,1.225,4.014,4.014,0,0,0,2.75-1.036l1.019.68a5.2,5.2,0,0,1-3.173,1.51V15.19Zm-.6-4.221a2.865,2.865,0,0,1-2.106-.895,2.988,2.988,0,0,1-.875-2.154V7.531L6.9,10.542A2.84,2.84,0,0,1,5.369,10.971ZM10.655,9.2h0L9.538,8.452c0-.078.006-.158.006-.238V7.021A.577.577,0,0,1,9.723,6.6a.587.587,0,0,1,.42-.178.605.605,0,0,1,.6.6V8.214a5.784,5.784,0,0,1-.083.98Zm-2.3-1.536h0L2.388,3.685V3.048A2.976,2.976,0,0,1,3.263.9,2.853,2.853,0,0,1,5.369,0,2.85,2.85,0,0,1,7.476.9a2.974,2.974,0,0,1,.876,2.151V7.661Z" transform="translate(57.037 16.975)" fill="#c7cbcc"/>
    <line id="Line_283" data-name="Line 283" x2="16.001" y2="10.668" transform="translate(54.405 19.238)" fill="none" stroke="#c7cbcc" stroke-width="1.5"/>
  </g>
</svg>
