<svg xmlns="http://www.w3.org/2000/svg" width="17.083" height="17.083" viewBox="0 0 17.083 17.083"><defs><style>.a{fill:#137ef9;}</style></defs><path class="a" d="M7.045,3.373,9.088,1.33a.784.784,0,0,1,1.108,0l2.043,2.043h2.888a.784.784,0,0,1,.784.784V7.045l2.043,2.043a.784.784,0,0,1,0,1.108l-2.043,2.043v2.888a.784.784,0,0,1-.784.784H12.238L10.2,17.954a.784.784,0,0,1-1.108,0L7.045,15.911H4.156a.784.784,0,0,1-.784-.784V12.239L1.33,10.2a.784.784,0,0,1,0-1.108L3.373,7.045V4.156a.784.784,0,0,1,.784-.784Zm2.6,8.62A2.351,2.351,0,1,0,7.291,9.642,2.351,2.351,0,0,0,9.642,11.992Z" transform="translate(-1.1 -1.1)"/></svg>