<svg xmlns="http://www.w3.org/2000/svg" width="18.358" height="18.358" viewBox="0 0 18.358 18.358"><defs><style>.a{fill:#62AF49;}</style></defs><g transform="translate(1.147)"><path class="a" d="M46.21,1.262H39.325V.574a.574.574,0,0,0-1.147,0v.688H31.294a.563.563,0,0,0-.574.574v9.619H46.784V1.836A.563.563,0,0,0,46.21,1.262Z" transform="translate(-30.72)"/></g><g transform="translate(0 12.411)"><path class="a" d="M17.785,332.288H.574a.588.588,0,0,0-.574.574.563.563,0,0,0,.574.574H8.013l-3.385,3.576a.568.568,0,0,0,.822.784l3.155-3.327v3.194a.574.574,0,1,0,1.147,0v-3.194l3.155,3.327a.568.568,0,0,0,.822-.784l-3.385-3.576h7.439a.574.574,0,0,0,0-1.147Z" transform="translate(0 -332.288)"/></g></svg>