<svg xmlns="http://www.w3.org/2000/svg" width="25.259" height="33.16" viewBox="0 0 25.259 33.16"><defs><style>.a{fill:#b8b8b8;}</style></defs><path class="a" d="M63.914,33.16h19.43a2.918,2.918,0,0,0,2.914-2.914V9.715h-6.8A2.918,2.918,0,0,1,76.544,6.8V0H63.914A2.918,2.918,0,0,0,61,2.914V30.246A2.918,2.918,0,0,0,63.914,33.16ZM67.8,13.666H79.458a.971.971,0,1,1,0,1.943H67.8a.971.971,0,1,1,0-1.943Zm0,3.886H79.458a.971.971,0,1,1,0,1.943H67.8a.971.971,0,1,1,0-1.943Zm0,3.886H79.458a.971.971,0,1,1,0,1.943H67.8a.971.971,0,1,1,0-1.943Zm0,3.886h7.772a.971.971,0,1,1,0,1.943H67.8a.971.971,0,1,1,0-1.943Z" transform="translate(-61)"/><path class="a" d="M331.971,15.992H338.2l-7.2-7.2V15.02A.972.972,0,0,0,331.971,15.992Z" transform="translate(-313.513 -8.22)"/></svg>