<svg xmlns="http://www.w3.org/2000/svg" xmlns:xlink="http://www.w3.org/1999/xlink" width="1920" height="856" viewBox="0 0 1920 856"><defs><style>.a{fill:#cfd9db;}.b{clip-path:url(#a);}</style><clipPath id="a"><rect class="a" width="1920" height="856" rx="30" transform="translate(0 0)"/></clipPath></defs><g class="b" transform="translate(0 0)"><g transform="translate(-508 -126.078)"><g transform="translate(0 0)"><circle class="a" cx="2.5" cy="2.5" r="2.5" transform="translate(83 0.078)"/><ellipse class="a" cx="2.5" cy="2" rx="2.5" ry="2" transform="translate(83 80.078)"/><circle class="a" cx="3.5" cy="3.5" r="3.5" transform="translate(0 0.078)"/><ellipse class="a" cx="2.5" cy="2" rx="2.5" ry="2" transform="translate(0 80.078)"/><circle class="a" cx="3" cy="3" r="3" transform="translate(250 0.078)"/><ellipse class="a" cx="2.5" cy="2" rx="2.5" ry="2" transform="translate(250 80.078)"/><circle class="a" cx="3.5" cy="3.5" r="3.5" transform="translate(165 0.078)"/><ellipse class="a" cx="3" cy="2.5" rx="3" ry="2.5" transform="translate(165 80.078)"/><circle class="a" cx="3.5" cy="3.5" r="3.5" transform="translate(416 0.078)"/><ellipse class="a" cx="3" cy="2.5" rx="3" ry="2.5" transform="translate(416 80.078)"/><circle class="a" cx="3.5" cy="3.5" r="3.5" transform="translate(332 0.078)"/><ellipse class="a" cx="3" cy="2.5" rx="3" ry="2.5" transform="translate(332 80.078)"/><circle class="a" cx="3.5" cy="3.5" r="3.5" transform="translate(581 0.078)"/><ellipse class="a" cx="3" cy="2.5" rx="3" ry="2.5" transform="translate(581 80.078)"/><circle class="a" cx="3.5" cy="3.5" r="3.5" transform="translate(499 0.078)"/><ellipse class="a" cx="2.5" cy="2" rx="2.5" ry="2" transform="translate(499 80.078)"/><circle class="a" cx="3" cy="3" r="3" transform="translate(750 0.078)"/><ellipse class="a" cx="2.5" cy="2" rx="2.5" ry="2" transform="translate(750 80.078)"/><circle class="a" cx="3.5" cy="3.5" r="3.5" transform="translate(667 0.078)"/><ellipse class="a" cx="2.5" cy="2" rx="2.5" ry="2" transform="translate(667 80.078)"/><circle class="a" cx="3.5" cy="3.5" r="3.5" transform="translate(915 0.078)"/><ellipse class="a" cx="3" cy="2.5" rx="3" ry="2.5" transform="translate(915 80.078)"/><circle class="a" cx="3.5" cy="3.5" r="3.5" transform="translate(831 0.078)"/><ellipse class="a" cx="2.5" cy="2" rx="2.5" ry="2" transform="translate(831 80.078)"/><circle class="a" cx="3.5" cy="3.5" r="3.5" transform="translate(1082 0.078)"/><ellipse class="a" cx="2.5" cy="2" rx="2.5" ry="2" transform="translate(1082 80.078)"/><circle class="a" cx="3" cy="3" r="3" transform="translate(998 0.078)"/><ellipse class="a" cx="2.5" cy="2" rx="2.5" ry="2" transform="translate(998 80.078)"/><circle class="a" cx="3.5" cy="3.5" r="3.5" transform="translate(1248 0.078)"/><ellipse class="a" cx="3" cy="2.5" rx="3" ry="2.5" transform="translate(1248 80.078)"/><circle class="a" cx="3" cy="3" r="3" transform="translate(1166 0.078)"/><ellipse class="a" cx="2.5" cy="2" rx="2.5" ry="2" transform="translate(1166 80.078)"/><circle class="a" cx="3.5" cy="3.5" r="3.5" transform="translate(1414 0.078)"/><ellipse class="a" cx="3" cy="2.5" rx="3" ry="2.5" transform="translate(1414 80.078)"/><circle class="a" cx="3.5" cy="3.5" r="3.5" transform="translate(1331 0.078)"/><ellipse class="a" cx="2.5" cy="2" rx="2.5" ry="2" transform="translate(1331 80.078)"/><circle class="a" cx="3.5" cy="3.5" r="3.5" transform="translate(1581 0.078)"/><ellipse class="a" cx="2.5" cy="2" rx="2.5" ry="2" transform="translate(1581 80.078)"/><circle class="a" cx="3.5" cy="3.5" r="3.5" transform="translate(1498 0.078)"/><ellipse class="a" cx="2.5" cy="2" rx="2.5" ry="2" transform="translate(1498 80.078)"/><circle class="a" cx="3.5" cy="3.5" r="3.5" transform="translate(1747 0.078)"/><ellipse class="a" cx="3" cy="2.5" rx="3" ry="2.5" transform="translate(1747 80.078)"/><circle class="a" cx="3" cy="3" r="3" transform="translate(1665 0.078)"/><ellipse class="a" cx="2.5" cy="2" rx="2.5" ry="2" transform="translate(1665 80.078)"/><circle class="a" cx="3.5" cy="3.5" r="3.5" transform="translate(1915 0.078)"/><ellipse class="a" cx="3" cy="2.5" rx="3" ry="2.5" transform="translate(1915 80.078)"/><circle class="a" cx="3.5" cy="3.5" r="3.5" transform="translate(1830 0.078)"/><ellipse class="a" cx="2.5" cy="2" rx="2.5" ry="2" transform="translate(1830 80.078)"/><circle class="a" cx="3" cy="3" r="3" transform="translate(2080 0.078)"/><ellipse class="a" cx="2.5" cy="2" rx="2.5" ry="2" transform="translate(2080 80.078)"/><circle class="a" cx="3.5" cy="3.5" r="3.5" transform="translate(1998 0.078)"/><ellipse class="a" cx="2.5" cy="2" rx="2.5" ry="2" transform="translate(1998 80.078)"/><circle class="a" cx="3.5" cy="3.5" r="3.5" transform="translate(2246 0.078)"/><ellipse class="a" cx="3" cy="2.5" rx="3" ry="2.5" transform="translate(2246 80.078)"/><circle class="a" cx="3.5" cy="3.5" r="3.5" transform="translate(2162 0.078)"/><ellipse class="a" cx="3" cy="2.5" rx="3" ry="2.5" transform="translate(2162 80.078)"/><circle class="a" cx="3.5" cy="3.5" r="3.5" transform="translate(2414 0.078)"/><ellipse class="a" cx="3" cy="2.5" rx="3" ry="2.5" transform="translate(2414 80.078)"/><circle class="a" cx="3.5" cy="3.5" r="3.5" transform="translate(2328 0.078)"/><ellipse class="a" cx="2.5" cy="2" rx="2.5" ry="2" transform="translate(2328 80.078)"/><circle class="a" cx="3.5" cy="3.5" r="3.5" transform="translate(2579 0.078)"/><ellipse class="a" cx="3" cy="2.5" rx="3" ry="2.5" transform="translate(2579 80.078)"/><circle class="a" cx="3.5" cy="3.5" r="3.5" transform="translate(2496 0.078)"/><ellipse class="a" cx="2.5" cy="2" rx="2.5" ry="2" transform="translate(2496 80.078)"/><circle class="a" cx="3" cy="3" r="3" transform="translate(2661 0.078)"/><ellipse class="a" cx="3" cy="2.5" rx="3" ry="2.5" transform="translate(2661 80.078)"/><circle class="a" cx="2.5" cy="2.5" r="2.5" transform="translate(83 158.078)"/><circle class="a" cx="2.5" cy="2.5" r="2.5" transform="translate(83 239.078)"/><circle class="a" cx="3.5" cy="3.5" r="3.5" transform="translate(0 158.078)"/><ellipse class="a" cx="3.5" cy="3" rx="3.5" ry="3" transform="translate(0 239.078)"/><circle class="a" cx="3" cy="3" r="3" transform="translate(250 158.078)"/><ellipse class="a" cx="3" cy="2.5" rx="3" ry="2.5" transform="translate(250 239.078)"/><circle class="a" cx="3.5" cy="3.5" r="3.5" transform="translate(165 158.078)"/><ellipse class="a" cx="3.5" cy="3" rx="3.5" ry="3" transform="translate(165 239.078)"/><circle class="a" cx="3.5" cy="3.5" r="3.5" transform="translate(416 158.078)"/><ellipse class="a" cx="3.5" cy="3" rx="3.5" ry="3" transform="translate(416 239.078)"/><circle class="a" cx="3.5" cy="3.5" r="3.5" transform="translate(332 158.078)"/><ellipse class="a" cx="3.5" cy="3" rx="3.5" ry="3" transform="translate(332 239.078)"/><circle class="a" cx="3.5" cy="3.5" r="3.5" transform="translate(581 158.078)"/><ellipse class="a" cx="3.5" cy="3" rx="3.5" ry="3" transform="translate(581 239.078)"/><circle class="a" cx="3.5" cy="3.5" r="3.5" transform="translate(499 158.078)"/><ellipse class="a" cx="3.5" cy="3" rx="3.5" ry="3" transform="translate(499 239.078)"/><circle class="a" cx="3" cy="3" r="3" transform="translate(750 158.078)"/><ellipse class="a" cx="3" cy="2.5" rx="3" ry="2.5" transform="translate(750 239.078)"/><circle class="a" cx="3.5" cy="3.5" r="3.5" transform="translate(667 158.078)"/><ellipse class="a" cx="3.5" cy="3" rx="3.5" ry="3" transform="translate(667 239.078)"/><circle class="a" cx="3.5" cy="3.5" r="3.5" transform="translate(915 158.078)"/><ellipse class="a" cx="3.5" cy="3" rx="3.5" ry="3" transform="translate(915 239.078)"/><circle class="a" cx="3.5" cy="3.5" r="3.5" transform="translate(831 158.078)"/><ellipse class="a" cx="3.5" cy="3" rx="3.5" ry="3" transform="translate(831 239.078)"/><circle class="a" cx="3.5" cy="3.5" r="3.5" transform="translate(1082 158.078)"/><ellipse class="a" cx="3.5" cy="3" rx="3.5" ry="3" transform="translate(1082 239.078)"/><circle class="a" cx="3" cy="3" r="3" transform="translate(998 158.078)"/><ellipse class="a" cx="3" cy="2.5" rx="3" ry="2.5" transform="translate(998 239.078)"/><circle class="a" cx="3.5" cy="3.5" r="3.5" transform="translate(1248 158.078)"/><ellipse class="a" cx="3.5" cy="3" rx="3.5" ry="3" transform="translate(1248 239.078)"/><circle class="a" cx="3" cy="3" r="3" transform="translate(1166 158.078)"/><ellipse class="a" cx="3" cy="2.5" rx="3" ry="2.5" transform="translate(1166 239.078)"/><circle class="a" cx="3.5" cy="3.5" r="3.5" transform="translate(1414 158.078)"/><ellipse class="a" cx="3.5" cy="3" rx="3.5" ry="3" transform="translate(1414 239.078)"/><circle class="a" cx="3.5" cy="3.5" r="3.5" transform="translate(1331 158.078)"/><ellipse class="a" cx="3.5" cy="3" rx="3.5" ry="3" transform="translate(1331 239.078)"/><circle class="a" cx="3.5" cy="3.5" r="3.5" transform="translate(1581 158.078)"/><ellipse class="a" cx="3.5" cy="3" rx="3.5" ry="3" transform="translate(1581 239.078)"/><circle class="a" cx="3.5" cy="3.5" r="3.5" transform="translate(1498 158.078)"/><ellipse class="a" cx="3.5" cy="3" rx="3.5" ry="3" transform="translate(1498 239.078)"/><circle class="a" cx="3.5" cy="3.5" r="3.5" transform="translate(1747 158.078)"/><ellipse class="a" cx="3.5" cy="3" rx="3.5" ry="3" transform="translate(1747 239.078)"/><circle class="a" cx="3" cy="3" r="3" transform="translate(1665 158.078)"/><ellipse class="a" cx="3" cy="2.5" rx="3" ry="2.5" transform="translate(1665 239.078)"/><circle class="a" cx="3.5" cy="3.5" r="3.5" transform="translate(1915 158.078)"/><ellipse class="a" cx="3.5" cy="3" rx="3.5" ry="3" transform="translate(1915 239.078)"/><circle class="a" cx="3.5" cy="3.5" r="3.5" transform="translate(1830 158.078)"/><ellipse class="a" cx="3.5" cy="3" rx="3.5" ry="3" transform="translate(1830 239.078)"/><circle class="a" cx="3" cy="3" r="3" transform="translate(2080 158.078)"/><ellipse class="a" cx="3" cy="2.5" rx="3" ry="2.5" transform="translate(2080 239.078)"/><circle class="a" cx="3.5" cy="3.5" r="3.5" transform="translate(1998 158.078)"/><ellipse class="a" cx="3.5" cy="3" rx="3.5" ry="3" transform="translate(1998 239.078)"/><circle class="a" cx="3.5" cy="3.5" r="3.5" transform="translate(2246 158.078)"/><ellipse class="a" cx="3.5" cy="3" rx="3.5" ry="3" transform="translate(2246 239.078)"/><circle class="a" cx="3.5" cy="3.5" r="3.5" transform="translate(2162 158.078)"/><ellipse class="a" cx="3.5" cy="3" rx="3.5" ry="3" transform="translate(2162 239.078)"/><circle class="a" cx="3.5" cy="3.5" r="3.5" transform="translate(2414 158.078)"/><ellipse class="a" cx="3.5" cy="3" rx="3.5" ry="3" transform="translate(2414 239.078)"/><circle class="a" cx="3.5" cy="3.5" r="3.5" transform="translate(2328 158.078)"/><ellipse class="a" cx="3.5" cy="3" rx="3.5" ry="3" transform="translate(2328 239.078)"/><circle class="a" cx="3.5" cy="3.5" r="3.5" transform="translate(2579 158.078)"/><ellipse class="a" cx="3.5" cy="3" rx="3.5" ry="3" transform="translate(2579 239.078)"/><circle class="a" cx="3.5" cy="3.5" r="3.5" transform="translate(2496 158.078)"/><ellipse class="a" cx="3.5" cy="3" rx="3.5" ry="3" transform="translate(2496 239.078)"/><circle class="a" cx="3" cy="3" r="3" transform="translate(2661 158.078)"/><ellipse class="a" cx="3" cy="2.5" rx="3" ry="2.5" transform="translate(2661 239.078)"/><ellipse class="a" cx="2.5" cy="2" rx="2.5" ry="2" transform="translate(83 315.078)"/><circle class="a" cx="2.5" cy="2.5" r="2.5" transform="translate(83 349.078)"/><ellipse class="a" cx="3.5" cy="3" rx="3.5" ry="3" transform="translate(0 315.078)"/><ellipse class="a" cx="3.5" cy="3" rx="3.5" ry="3" transform="translate(0 349.078)"/><ellipse class="a" cx="3" cy="2.5" rx="3" ry="2.5" transform="translate(250 315.078)"/><ellipse class="a" cx="3" cy="2.5" rx="3" ry="2.5" transform="translate(250 349.078)"/><ellipse class="a" cx="3.5" cy="3" rx="3.5" ry="3" transform="translate(165 315.078)"/><ellipse class="a" cx="3.5" cy="3" rx="3.5" ry="3" transform="translate(165 349.078)"/><ellipse class="a" cx="3.5" cy="3" rx="3.5" ry="3" transform="translate(416 315.078)"/><ellipse class="a" cx="3.5" cy="3" rx="3.5" ry="3" transform="translate(416 349.078)"/><ellipse class="a" cx="3.5" cy="3" rx="3.5" ry="3" transform="translate(332 315.078)"/><ellipse class="a" cx="3.5" cy="3" rx="3.5" ry="3" transform="translate(332 349.078)"/><ellipse class="a" cx="3.5" cy="3" rx="3.5" ry="3" transform="translate(581 315.078)"/><ellipse class="a" cx="3.5" cy="3" rx="3.5" ry="3" transform="translate(581 349.078)"/><ellipse class="a" cx="3.5" cy="3" rx="3.5" ry="3" transform="translate(499 315.078)"/><ellipse class="a" cx="3.5" cy="3" rx="3.5" ry="3" transform="translate(499 349.078)"/><ellipse class="a" cx="3" cy="2.5" rx="3" ry="2.5" transform="translate(750 315.078)"/><ellipse class="a" cx="3" cy="2.5" rx="3" ry="2.5" transform="translate(750 349.078)"/><ellipse class="a" cx="3.5" cy="3" rx="3.5" ry="3" transform="translate(667 315.078)"/><ellipse class="a" cx="3.5" cy="3" rx="3.5" ry="3" transform="translate(667 349.078)"/><ellipse class="a" cx="3.5" cy="3" rx="3.5" ry="3" transform="translate(915 315.078)"/><ellipse class="a" cx="3.5" cy="3" rx="3.5" ry="3" transform="translate(915 349.078)"/><ellipse class="a" cx="3.5" cy="3" rx="3.5" ry="3" transform="translate(831 315.078)"/><ellipse class="a" cx="3.5" cy="3" rx="3.5" ry="3" transform="translate(831 349.078)"/><ellipse class="a" cx="3.5" cy="3" rx="3.5" ry="3" transform="translate(1082 315.078)"/><ellipse class="a" cx="3.5" cy="3" rx="3.5" ry="3" transform="translate(1082 349.078)"/><ellipse class="a" cx="3" cy="2.5" rx="3" ry="2.5" transform="translate(998 315.078)"/><ellipse class="a" cx="3" cy="2.5" rx="3" ry="2.5" transform="translate(998 349.078)"/><ellipse class="a" cx="3.5" cy="3" rx="3.5" ry="3" transform="translate(1248 315.078)"/><ellipse class="a" cx="3.5" cy="3" rx="3.5" ry="3" transform="translate(1248 349.078)"/><ellipse class="a" cx="3" cy="2.5" rx="3" ry="2.5" transform="translate(1166 315.078)"/><ellipse class="a" cx="3" cy="2.5" rx="3" ry="2.5" transform="translate(1166 349.078)"/><ellipse class="a" cx="3.5" cy="3" rx="3.5" ry="3" transform="translate(1414 315.078)"/><ellipse class="a" cx="3.5" cy="3" rx="3.5" ry="3" transform="translate(1414 349.078)"/><ellipse class="a" cx="3.5" cy="3" rx="3.5" ry="3" transform="translate(1331 315.078)"/><ellipse class="a" cx="3.5" cy="3" rx="3.5" ry="3" transform="translate(1331 349.078)"/><ellipse class="a" cx="3.5" cy="3" rx="3.5" ry="3" transform="translate(1581 315.078)"/><ellipse class="a" cx="3.5" cy="3" rx="3.5" ry="3" transform="translate(1581 349.078)"/><ellipse class="a" cx="3.5" cy="3" rx="3.5" ry="3" transform="translate(1498 315.078)"/><ellipse class="a" cx="3.5" cy="3" rx="3.5" ry="3" transform="translate(1498 349.078)"/><ellipse class="a" cx="3.5" cy="3" rx="3.5" ry="3" transform="translate(1747 315.078)"/><ellipse class="a" cx="3.5" cy="3" rx="3.5" ry="3" transform="translate(1747 349.078)"/><ellipse class="a" cx="3" cy="2.5" rx="3" ry="2.5" transform="translate(1665 315.078)"/><ellipse class="a" cx="3" cy="2.5" rx="3" ry="2.5" transform="translate(1665 349.078)"/><ellipse class="a" cx="3.5" cy="3" rx="3.5" ry="3" transform="translate(1915 315.078)"/><ellipse class="a" cx="3.5" cy="3" rx="3.5" ry="3" transform="translate(1915 349.078)"/><ellipse class="a" cx="3.5" cy="3" rx="3.5" ry="3" transform="translate(1830 315.078)"/><ellipse class="a" cx="3.5" cy="3" rx="3.5" ry="3" transform="translate(1830 349.078)"/><ellipse class="a" cx="3" cy="2.5" rx="3" ry="2.5" transform="translate(2080 315.078)"/><ellipse class="a" cx="3" cy="2.5" rx="3" ry="2.5" transform="translate(2080 349.078)"/><ellipse class="a" cx="3.5" cy="3" rx="3.5" ry="3" transform="translate(1998 315.078)"/><ellipse class="a" cx="3.5" cy="3" rx="3.5" ry="3" transform="translate(1998 349.078)"/><ellipse class="a" cx="3.5" cy="3" rx="3.5" ry="3" transform="translate(2246 315.078)"/><ellipse class="a" cx="3.5" cy="3" rx="3.5" ry="3" transform="translate(2246 349.078)"/><ellipse class="a" cx="3.5" cy="3" rx="3.5" ry="3" transform="translate(2162 315.078)"/><ellipse class="a" cx="3.5" cy="3" rx="3.5" ry="3" transform="translate(2162 349.078)"/><ellipse class="a" cx="3.5" cy="3" rx="3.5" ry="3" transform="translate(2414 315.078)"/><ellipse class="a" cx="3.5" cy="3" rx="3.5" ry="3" transform="translate(2414 349.078)"/><ellipse class="a" cx="3.5" cy="3" rx="3.5" ry="3" transform="translate(2328 315.078)"/><ellipse class="a" cx="3.5" cy="3" rx="3.5" ry="3" transform="translate(2328 349.078)"/><ellipse class="a" cx="3.5" cy="3" rx="3.5" ry="3" transform="translate(2579 315.078)"/><ellipse class="a" cx="3.5" cy="3" rx="3.5" ry="3" transform="translate(2579 349.078)"/><ellipse class="a" cx="3.5" cy="3" rx="3.5" ry="3" transform="translate(2496 315.078)"/><ellipse class="a" cx="3.5" cy="3" rx="3.5" ry="3" transform="translate(2496 349.078)"/><ellipse class="a" cx="3" cy="2.5" rx="3" ry="2.5" transform="translate(2661 315.078)"/><circle class="a" cx="2.5" cy="2.5" r="2.5" transform="translate(2661 349.078)"/><circle class="a" cx="2.5" cy="2.5" r="2.5" transform="translate(83 417.078)"/><circle class="a" cx="2.5" cy="2.5" r="2.5" transform="translate(83 487.078)"/><circle class="a" cx="3" cy="3" r="3" transform="translate(0 417.078)"/><circle class="a" cx="3.5" cy="3.5" r="3.5" transform="translate(0 487.078)"/><circle class="a" cx="3" cy="3" r="3" transform="translate(250 417.078)"/><circle class="a" cx="3" cy="3" r="3" transform="translate(250 487.078)"/><circle class="a" cx="3" cy="3" r="3" transform="translate(165 417.078)"/><circle class="a" cx="3.5" cy="3.5" r="3.5" transform="translate(165 487.078)"/><circle class="a" cx="3" cy="3" r="3" transform="translate(416 417.078)"/><circle class="a" cx="3.5" cy="3.5" r="3.5" transform="translate(416 487.078)"/><circle class="a" cx="3" cy="3" r="3" transform="translate(332 417.078)"/><circle class="a" cx="3.5" cy="3.5" r="3.5" transform="translate(332 487.078)"/><circle class="a" cx="3" cy="3" r="3" transform="translate(581 417.078)"/><circle class="a" cx="3.5" cy="3.5" r="3.5" transform="translate(581 487.078)"/><circle class="a" cx="3" cy="3" r="3" transform="translate(499 417.078)"/><circle class="a" cx="3.5" cy="3.5" r="3.5" transform="translate(499 487.078)"/><circle class="a" cx="3" cy="3" r="3" transform="translate(750 417.078)"/><circle class="a" cx="3" cy="3" r="3" transform="translate(750 487.078)"/><circle class="a" cx="3" cy="3" r="3" transform="translate(667 417.078)"/><circle class="a" cx="3.5" cy="3.5" r="3.5" transform="translate(667 487.078)"/><circle class="a" cx="3" cy="3" r="3" transform="translate(915 417.078)"/><circle class="a" cx="3.5" cy="3.5" r="3.5" transform="translate(915 487.078)"/><circle class="a" cx="3" cy="3" r="3" transform="translate(831 417.078)"/><circle class="a" cx="3.5" cy="3.5" r="3.5" transform="translate(831 487.078)"/><circle class="a" cx="3" cy="3" r="3" transform="translate(1082 417.078)"/><circle class="a" cx="3.5" cy="3.5" r="3.5" transform="translate(1082 487.078)"/><circle class="a" cx="3" cy="3" r="3" transform="translate(998 417.078)"/><circle class="a" cx="3" cy="3" r="3" transform="translate(998 487.078)"/><circle class="a" cx="3" cy="3" r="3" transform="translate(1248 417.078)"/><circle class="a" cx="3.5" cy="3.5" r="3.5" transform="translate(1248 487.078)"/><circle class="a" cx="3" cy="3" r="3" transform="translate(1166 417.078)"/><circle class="a" cx="3" cy="3" r="3" transform="translate(1166 487.078)"/><circle class="a" cx="3" cy="3" r="3" transform="translate(1414 417.078)"/><circle class="a" cx="3.5" cy="3.5" r="3.5" transform="translate(1414 487.078)"/><circle class="a" cx="3" cy="3" r="3" transform="translate(1331 417.078)"/><circle class="a" cx="3.5" cy="3.5" r="3.5" transform="translate(1331 487.078)"/><circle class="a" cx="3" cy="3" r="3" transform="translate(1581 417.078)"/><circle class="a" cx="3.5" cy="3.5" r="3.5" transform="translate(1581 487.078)"/><circle class="a" cx="3" cy="3" r="3" transform="translate(1498 417.078)"/><circle class="a" cx="3.5" cy="3.5" r="3.5" transform="translate(1498 487.078)"/><circle class="a" cx="3" cy="3" r="3" transform="translate(1747 417.078)"/><circle class="a" cx="3.5" cy="3.5" r="3.5" transform="translate(1747 487.078)"/><circle class="a" cx="3" cy="3" r="3" transform="translate(1665 417.078)"/><circle class="a" cx="3" cy="3" r="3" transform="translate(1665 487.078)"/><circle class="a" cx="3" cy="3" r="3" transform="translate(1915 417.078)"/><circle class="a" cx="3.5" cy="3.5" r="3.5" transform="translate(1915 487.078)"/><circle class="a" cx="3" cy="3" r="3" transform="translate(1830 417.078)"/><circle class="a" cx="3.5" cy="3.5" r="3.5" transform="translate(1830 487.078)"/><circle class="a" cx="3" cy="3" r="3" transform="translate(2080 417.078)"/><circle class="a" cx="3" cy="3" r="3" transform="translate(2080 487.078)"/><circle class="a" cx="3" cy="3" r="3" transform="translate(1998 417.078)"/><circle class="a" cx="3.5" cy="3.5" r="3.5" transform="translate(1998 487.078)"/><circle class="a" cx="3" cy="3" r="3" transform="translate(2246 417.078)"/><circle class="a" cx="3.5" cy="3.5" r="3.5" transform="translate(2246 487.078)"/><circle class="a" cx="3" cy="3" r="3" transform="translate(2162 417.078)"/><circle class="a" cx="4" cy="4" r="4" transform="translate(2162 487.078)"/><circle class="a" cx="3" cy="3" r="3" transform="translate(2414 417.078)"/><circle class="a" cx="3.5" cy="3.5" r="3.5" transform="translate(2414 487.078)"/><circle class="a" cx="3" cy="3" r="3" transform="translate(2328 417.078)"/><circle class="a" cx="4" cy="4" r="4" transform="translate(2328 487.078)"/><circle class="a" cx="3" cy="3" r="3" transform="translate(2579 417.078)"/><circle class="a" cx="3.5" cy="3.5" r="3.5" transform="translate(2579 487.078)"/><circle class="a" cx="3" cy="3" r="3" transform="translate(2496 417.078)"/><circle class="a" cx="4" cy="4" r="4" transform="translate(2496 487.078)"/><circle class="a" cx="2.5" cy="2.5" r="2.5" transform="translate(2661 417.078)"/><circle class="a" cx="3.5" cy="3.5" r="3.5" transform="translate(2661 487.078)"/><circle class="a" cx="2.5" cy="2.5" r="2.5" transform="translate(83 556.078)"/><ellipse class="a" cx="2.5" cy="2" rx="2.5" ry="2" transform="translate(83 626.078)"/><circle class="a" cx="3.5" cy="3.5" r="3.5" transform="translate(0 556.078)"/><ellipse class="a" cx="3.5" cy="3" rx="3.5" ry="3" transform="translate(0 626.078)"/><circle class="a" cx="3" cy="3" r="3" transform="translate(250 556.078)"/><ellipse class="a" cx="3" cy="2.5" rx="3" ry="2.5" transform="translate(250 626.078)"/><circle class="a" cx="3.5" cy="3.5" r="3.5" transform="translate(165 556.078)"/><ellipse class="a" cx="3.5" cy="3" rx="3.5" ry="3" transform="translate(165 626.078)"/><circle class="a" cx="3.5" cy="3.5" r="3.5" transform="translate(416 556.078)"/><ellipse class="a" cx="3.5" cy="3" rx="3.5" ry="3" transform="translate(416 626.078)"/><circle class="a" cx="3.5" cy="3.5" r="3.5" transform="translate(332 556.078)"/><ellipse class="a" cx="3.5" cy="3" rx="3.5" ry="3" transform="translate(332 626.078)"/><circle class="a" cx="3.5" cy="3.5" r="3.5" transform="translate(581 556.078)"/><ellipse class="a" cx="3.5" cy="3" rx="3.5" ry="3" transform="translate(581 626.078)"/><circle class="a" cx="3.5" cy="3.5" r="3.5" transform="translate(499 556.078)"/><ellipse class="a" cx="3.5" cy="3" rx="3.5" ry="3" transform="translate(499 626.078)"/><circle class="a" cx="3" cy="3" r="3" transform="translate(750 556.078)"/><ellipse class="a" cx="3" cy="2.5" rx="3" ry="2.5" transform="translate(750 626.078)"/><circle class="a" cx="3.5" cy="3.5" r="3.5" transform="translate(667 556.078)"/><ellipse class="a" cx="3.5" cy="3" rx="3.5" ry="3" transform="translate(667 626.078)"/><circle class="a" cx="3.5" cy="3.5" r="3.5" transform="translate(915 556.078)"/><ellipse class="a" cx="3.5" cy="3" rx="3.5" ry="3" transform="translate(915 626.078)"/><circle class="a" cx="3.5" cy="3.5" r="3.5" transform="translate(831 556.078)"/><ellipse class="a" cx="3.5" cy="3" rx="3.5" ry="3" transform="translate(831 626.078)"/><circle class="a" cx="3.5" cy="3.5" r="3.5" transform="translate(1082 556.078)"/><ellipse class="a" cx="3.5" cy="3" rx="3.5" ry="3" transform="translate(1082 626.078)"/><circle class="a" cx="3" cy="3" r="3" transform="translate(998 556.078)"/><ellipse class="a" cx="3" cy="2.5" rx="3" ry="2.5" transform="translate(998 626.078)"/><circle class="a" cx="3.5" cy="3.5" r="3.5" transform="translate(1248 556.078)"/><ellipse class="a" cx="3.5" cy="3" rx="3.5" ry="3" transform="translate(1248 626.078)"/><circle class="a" cx="3" cy="3" r="3" transform="translate(1166 556.078)"/><ellipse class="a" cx="3" cy="2.5" rx="3" ry="2.5" transform="translate(1166 626.078)"/><circle class="a" cx="3.5" cy="3.5" r="3.5" transform="translate(1414 556.078)"/><ellipse class="a" cx="3.5" cy="3" rx="3.5" ry="3" transform="translate(1414 626.078)"/><circle class="a" cx="3.5" cy="3.5" r="3.5" transform="translate(1331 556.078)"/><ellipse class="a" cx="3.5" cy="3" rx="3.5" ry="3" transform="translate(1331 626.078)"/><circle class="a" cx="3.5" cy="3.5" r="3.5" transform="translate(1581 556.078)"/><ellipse class="a" cx="3.5" cy="3" rx="3.5" ry="3" transform="translate(1581 626.078)"/><circle class="a" cx="3.5" cy="3.5" r="3.5" transform="translate(1498 556.078)"/><ellipse class="a" cx="3.5" cy="3" rx="3.5" ry="3" transform="translate(1498 626.078)"/><circle class="a" cx="3.5" cy="3.5" r="3.5" transform="translate(1747 556.078)"/><ellipse class="a" cx="3.5" cy="3" rx="3.5" ry="3" transform="translate(1747 626.078)"/><circle class="a" cx="3" cy="3" r="3" transform="translate(1665 556.078)"/><ellipse class="a" cx="3" cy="2.5" rx="3" ry="2.5" transform="translate(1665 626.078)"/><circle class="a" cx="3.5" cy="3.5" r="3.5" transform="translate(1915 556.078)"/><ellipse class="a" cx="3.5" cy="3" rx="3.5" ry="3" transform="translate(1915 626.078)"/><circle class="a" cx="3.5" cy="3.5" r="3.5" transform="translate(1830 556.078)"/><ellipse class="a" cx="3.5" cy="3" rx="3.5" ry="3" transform="translate(1830 626.078)"/><circle class="a" cx="3" cy="3" r="3" transform="translate(2080 556.078)"/><ellipse class="a" cx="3" cy="2.5" rx="3" ry="2.5" transform="translate(2080 626.078)"/><circle class="a" cx="3.5" cy="3.5" r="3.5" transform="translate(1998 556.078)"/><ellipse class="a" cx="3.5" cy="3" rx="3.5" ry="3" transform="translate(1998 626.078)"/><circle class="a" cx="3.5" cy="3.5" r="3.5" transform="translate(2246 556.078)"/><ellipse class="a" cx="3.5" cy="3" rx="3.5" ry="3" transform="translate(2246 626.078)"/><circle class="a" cx="3.5" cy="3.5" r="3.5" transform="translate(2162 556.078)"/><ellipse class="a" cx="3.5" cy="3" rx="3.5" ry="3" transform="translate(2162 626.078)"/><circle class="a" cx="3.5" cy="3.5" r="3.5" transform="translate(2414 556.078)"/><ellipse class="a" cx="3.5" cy="3" rx="3.5" ry="3" transform="translate(2414 626.078)"/><circle class="a" cx="3.5" cy="3.5" r="3.5" transform="translate(2328 556.078)"/><ellipse class="a" cx="3.5" cy="3" rx="3.5" ry="3" transform="translate(2328 626.078)"/><circle class="a" cx="3.5" cy="3.5" r="3.5" transform="translate(2579 556.078)"/><ellipse class="a" cx="3.5" cy="3" rx="3.5" ry="3" transform="translate(2579 626.078)"/><circle class="a" cx="3.5" cy="3.5" r="3.5" transform="translate(2496 556.078)"/><ellipse class="a" cx="3.5" cy="3" rx="3.5" ry="3" transform="translate(2496 626.078)"/><circle class="a" cx="3" cy="3" r="3" transform="translate(2661 556.078)"/><ellipse class="a" cx="3" cy="2.5" rx="3" ry="2.5" transform="translate(2661 626.078)"/><circle class="a" cx="2.5" cy="2.5" r="2.5" transform="translate(83 694.078)"/><circle class="a" cx="2.5" cy="2.5" r="2.5" transform="translate(83 766.078)"/><ellipse class="a" cx="3.5" cy="3" rx="3.5" ry="3" transform="translate(0 694.078)"/><circle class="a" cx="3.5" cy="3.5" r="3.5" transform="translate(0 766.078)"/><circle class="a" cx="3" cy="3" r="3" transform="translate(250 694.078)"/><circle class="a" cx="3" cy="3" r="3" transform="translate(250 766.078)"/><ellipse class="a" cx="3.5" cy="3" rx="3.5" ry="3" transform="translate(165 694.078)"/><circle class="a" cx="3.5" cy="3.5" r="3.5" transform="translate(165 766.078)"/><ellipse class="a" cx="3.5" cy="3" rx="3.5" ry="3" transform="translate(416 694.078)"/><circle class="a" cx="3.5" cy="3.5" r="3.5" transform="translate(416 766.078)"/><ellipse class="a" cx="3.5" cy="3" rx="3.5" ry="3" transform="translate(332 694.078)"/><circle class="a" cx="3.5" cy="3.5" r="3.5" transform="translate(332 766.078)"/><ellipse class="a" cx="3.5" cy="3" rx="3.5" ry="3" transform="translate(581 694.078)"/><circle class="a" cx="3.5" cy="3.5" r="3.5" transform="translate(581 766.078)"/><ellipse class="a" cx="3.5" cy="3" rx="3.5" ry="3" transform="translate(499 694.078)"/><circle class="a" cx="3.5" cy="3.5" r="3.5" transform="translate(499 766.078)"/><circle class="a" cx="3" cy="3" r="3" transform="translate(750 694.078)"/><circle class="a" cx="3" cy="3" r="3" transform="translate(750 766.078)"/><ellipse class="a" cx="3.5" cy="3" rx="3.5" ry="3" transform="translate(667 694.078)"/><circle class="a" cx="3.5" cy="3.5" r="3.5" transform="translate(667 766.078)"/><ellipse class="a" cx="3.5" cy="3" rx="3.5" ry="3" transform="translate(915 694.078)"/><circle class="a" cx="3.5" cy="3.5" r="3.5" transform="translate(915 766.078)"/><ellipse class="a" cx="3.5" cy="3" rx="3.5" ry="3" transform="translate(831 694.078)"/><circle class="a" cx="3.5" cy="3.5" r="3.5" transform="translate(831 766.078)"/><ellipse class="a" cx="3.5" cy="3" rx="3.5" ry="3" transform="translate(1082 694.078)"/><circle class="a" cx="3.5" cy="3.5" r="3.5" transform="translate(1082 766.078)"/><circle class="a" cx="3" cy="3" r="3" transform="translate(998 694.078)"/><circle class="a" cx="3" cy="3" r="3" transform="translate(998 766.078)"/><ellipse class="a" cx="3.5" cy="3" rx="3.5" ry="3" transform="translate(1248 694.078)"/><circle class="a" cx="3.5" cy="3.5" r="3.5" transform="translate(1248 766.078)"/><circle class="a" cx="3" cy="3" r="3" transform="translate(1166 694.078)"/><circle class="a" cx="3" cy="3" r="3" transform="translate(1166 766.078)"/><ellipse class="a" cx="3.5" cy="3" rx="3.5" ry="3" transform="translate(1414 694.078)"/><circle class="a" cx="3.5" cy="3.5" r="3.5" transform="translate(1414 766.078)"/><ellipse class="a" cx="3.5" cy="3" rx="3.5" ry="3" transform="translate(1331 694.078)"/><circle class="a" cx="3.5" cy="3.5" r="3.5" transform="translate(1331 766.078)"/><ellipse class="a" cx="3.5" cy="3" rx="3.5" ry="3" transform="translate(1581 694.078)"/><circle class="a" cx="3.5" cy="3.5" r="3.5" transform="translate(1581 766.078)"/><ellipse class="a" cx="3.5" cy="3" rx="3.5" ry="3" transform="translate(1498 694.078)"/><circle class="a" cx="3.5" cy="3.5" r="3.5" transform="translate(1498 766.078)"/><ellipse class="a" cx="3.5" cy="3" rx="3.5" ry="3" transform="translate(1747 694.078)"/><circle class="a" cx="3.5" cy="3.5" r="3.5" transform="translate(1747 766.078)"/><circle class="a" cx="3" cy="3" r="3" transform="translate(1665 694.078)"/><circle class="a" cx="3" cy="3" r="3" transform="translate(1665 766.078)"/><ellipse class="a" cx="3.5" cy="3" rx="3.5" ry="3" transform="translate(1915 694.078)"/><circle class="a" cx="3.5" cy="3.5" r="3.5" transform="translate(1915 766.078)"/><ellipse class="a" cx="3.5" cy="3" rx="3.5" ry="3" transform="translate(1830 694.078)"/><circle class="a" cx="3.5" cy="3.5" r="3.5" transform="translate(1830 766.078)"/><circle class="a" cx="3" cy="3" r="3" transform="translate(2080 694.078)"/><circle class="a" cx="3" cy="3" r="3" transform="translate(2080 766.078)"/><ellipse class="a" cx="3.5" cy="3" rx="3.5" ry="3" transform="translate(1998 694.078)"/><circle class="a" cx="3.5" cy="3.5" r="3.5" transform="translate(1998 766.078)"/><ellipse class="a" cx="3.5" cy="3" rx="3.5" ry="3" transform="translate(2246 694.078)"/><circle class="a" cx="3.5" cy="3.5" r="3.5" transform="translate(2246 766.078)"/><ellipse class="a" cx="3.5" cy="3" rx="3.5" ry="3" transform="translate(2162 694.078)"/><circle class="a" cx="3.5" cy="3.5" r="3.5" transform="translate(2162 766.078)"/><ellipse class="a" cx="3.5" cy="3" rx="3.5" ry="3" transform="translate(2414 694.078)"/><circle class="a" cx="3.5" cy="3.5" r="3.5" transform="translate(2414 766.078)"/><ellipse class="a" cx="3.5" cy="3" rx="3.5" ry="3" transform="translate(2328 694.078)"/><circle class="a" cx="3.5" cy="3.5" r="3.5" transform="translate(2328 766.078)"/><ellipse class="a" cx="3.5" cy="3" rx="3.5" ry="3" transform="translate(2579 694.078)"/><circle class="a" cx="3.5" cy="3.5" r="3.5" transform="translate(2579 766.078)"/><ellipse class="a" cx="3.5" cy="3" rx="3.5" ry="3" transform="translate(2496 694.078)"/><circle class="a" cx="3.5" cy="3.5" r="3.5" transform="translate(2496 766.078)"/><circle class="a" cx="3" cy="3" r="3" transform="translate(2661 694.078)"/><circle class="a" cx="3" cy="3" r="3" transform="translate(2661 766.078)"/><circle class="a" cx="2.5" cy="2.5" r="2.5" transform="translate(83 833.078)"/><circle class="a" cx="2.5" cy="2.5" r="2.5" transform="translate(83 903.078)"/><circle class="a" cx="3.5" cy="3.5" r="3.5" transform="translate(0 833.078)"/><circle class="a" cx="3.5" cy="3.5" r="3.5" transform="translate(0 903.078)"/><circle class="a" cx="3" cy="3" r="3" transform="translate(250 833.078)"/><circle class="a" cx="3" cy="3" r="3" transform="translate(250 903.078)"/><circle class="a" cx="3.5" cy="3.5" r="3.5" transform="translate(165 833.078)"/><circle class="a" cx="3.5" cy="3.5" r="3.5" transform="translate(165 903.078)"/><circle class="a" cx="3.5" cy="3.5" r="3.5" transform="translate(416 833.078)"/><circle class="a" cx="3.5" cy="3.5" r="3.5" transform="translate(416 903.078)"/><circle class="a" cx="3.5" cy="3.5" r="3.5" transform="translate(332 833.078)"/><circle class="a" cx="3.5" cy="3.5" r="3.5" transform="translate(332 903.078)"/><circle class="a" cx="3.5" cy="3.5" r="3.5" transform="translate(581 833.078)"/><circle class="a" cx="3.5" cy="3.5" r="3.5" transform="translate(581 903.078)"/><circle class="a" cx="3.5" cy="3.5" r="3.5" transform="translate(499 833.078)"/><circle class="a" cx="3.5" cy="3.5" r="3.5" transform="translate(499 903.078)"/><circle class="a" cx="3" cy="3" r="3" transform="translate(750 833.078)"/><circle class="a" cx="3" cy="3" r="3" transform="translate(750 903.078)"/><circle class="a" cx="3.5" cy="3.5" r="3.5" transform="translate(667 833.078)"/><circle class="a" cx="3.5" cy="3.5" r="3.5" transform="translate(667 903.078)"/><circle class="a" cx="3.5" cy="3.5" r="3.5" transform="translate(915 833.078)"/><circle class="a" cx="3.5" cy="3.5" r="3.5" transform="translate(915 903.078)"/><circle class="a" cx="3.5" cy="3.5" r="3.5" transform="translate(831 833.078)"/><circle class="a" cx="3.5" cy="3.5" r="3.5" transform="translate(831 903.078)"/><circle class="a" cx="3.5" cy="3.5" r="3.5" transform="translate(1082 833.078)"/><circle class="a" cx="3.5" cy="3.5" r="3.5" transform="translate(1082 903.078)"/><circle class="a" cx="3" cy="3" r="3" transform="translate(998 833.078)"/><circle class="a" cx="3" cy="3" r="3" transform="translate(998 903.078)"/><circle class="a" cx="3.5" cy="3.5" r="3.5" transform="translate(1248 833.078)"/><circle class="a" cx="3.5" cy="3.5" r="3.5" transform="translate(1248 903.078)"/><circle class="a" cx="3" cy="3" r="3" transform="translate(1166 833.078)"/><circle class="a" cx="3" cy="3" r="3" transform="translate(1166 903.078)"/><circle class="a" cx="3.5" cy="3.5" r="3.5" transform="translate(1414 833.078)"/><circle class="a" cx="3.5" cy="3.5" r="3.5" transform="translate(1414 903.078)"/><circle class="a" cx="3.5" cy="3.5" r="3.5" transform="translate(1331 833.078)"/><circle class="a" cx="3.5" cy="3.5" r="3.5" transform="translate(1331 903.078)"/><circle class="a" cx="3.5" cy="3.5" r="3.5" transform="translate(1581 833.078)"/><circle class="a" cx="3.5" cy="3.5" r="3.5" transform="translate(1581 903.078)"/><circle class="a" cx="3.5" cy="3.5" r="3.5" transform="translate(1498 833.078)"/><circle class="a" cx="3.5" cy="3.5" r="3.5" transform="translate(1498 903.078)"/><circle class="a" cx="3.5" cy="3.5" r="3.5" transform="translate(1747 833.078)"/><circle class="a" cx="3.5" cy="3.5" r="3.5" transform="translate(1747 903.078)"/><circle class="a" cx="3" cy="3" r="3" transform="translate(1665 833.078)"/><circle class="a" cx="3" cy="3" r="3" transform="translate(1665 903.078)"/><circle class="a" cx="3.5" cy="3.5" r="3.5" transform="translate(1915 833.078)"/><circle class="a" cx="3.5" cy="3.5" r="3.5" transform="translate(1915 903.078)"/><circle class="a" cx="3.5" cy="3.5" r="3.5" transform="translate(1830 833.078)"/><circle class="a" cx="3.5" cy="3.5" r="3.5" transform="translate(1830 903.078)"/><circle class="a" cx="3" cy="3" r="3" transform="translate(2080 833.078)"/><circle class="a" cx="3" cy="3" r="3" transform="translate(2080 903.078)"/><circle class="a" cx="3.5" cy="3.5" r="3.5" transform="translate(1998 833.078)"/><circle class="a" cx="3.5" cy="3.5" r="3.5" transform="translate(1998 903.078)"/><circle class="a" cx="3.5" cy="3.5" r="3.5" transform="translate(2246 833.078)"/><circle class="a" cx="3.5" cy="3.5" r="3.5" transform="translate(2246 903.078)"/><circle class="a" cx="4" cy="4" r="4" transform="translate(2162 833.078)"/><circle class="a" cx="3.5" cy="3.5" r="3.5" transform="translate(2162 903.078)"/><circle class="a" cx="3.5" cy="3.5" r="3.5" transform="translate(2414 833.078)"/><circle class="a" cx="3.5" cy="3.5" r="3.5" transform="translate(2414 903.078)"/><circle class="a" cx="4" cy="4" r="4" transform="translate(2328 833.078)"/><circle class="a" cx="3.5" cy="3.5" r="3.5" transform="translate(2328 903.078)"/><circle class="a" cx="3.5" cy="3.5" r="3.5" transform="translate(2579 833.078)"/><circle class="a" cx="3.5" cy="3.5" r="3.5" transform="translate(2579 903.078)"/><circle class="a" cx="4" cy="4" r="4" transform="translate(2496 833.078)"/><circle class="a" cx="3.5" cy="3.5" r="3.5" transform="translate(2496 903.078)"/><circle class="a" cx="3.5" cy="3.5" r="3.5" transform="translate(2661 833.078)"/><circle class="a" cx="3" cy="3" r="3" transform="translate(2661 903.078)"/><ellipse class="a" cx="2.5" cy="2" rx="2.5" ry="2" transform="translate(83 973.078)"/><ellipse class="a" cx="2.5" cy="2" rx="2.5" ry="2" transform="translate(83 1044.078)"/><ellipse class="a" cx="3.5" cy="3" rx="3.5" ry="3" transform="translate(0 973.078)"/><ellipse class="a" cx="3.5" cy="3" rx="3.5" ry="3" transform="translate(0 1044.078)"/><ellipse class="a" cx="3" cy="2.5" rx="3" ry="2.5" transform="translate(250 973.078)"/><ellipse class="a" cx="3" cy="2.5" rx="3" ry="2.5" transform="translate(250 1044.078)"/><ellipse class="a" cx="3.5" cy="3" rx="3.5" ry="3" transform="translate(165 973.078)"/><ellipse class="a" cx="3.5" cy="3" rx="3.5" ry="3" transform="translate(165 1044.078)"/><ellipse class="a" cx="3.5" cy="3" rx="3.5" ry="3" transform="translate(416 973.078)"/><ellipse class="a" cx="3.5" cy="3" rx="3.5" ry="3" transform="translate(416 1044.078)"/><ellipse class="a" cx="3.5" cy="3" rx="3.5" ry="3" transform="translate(332 973.078)"/><ellipse class="a" cx="3.5" cy="3" rx="3.5" ry="3" transform="translate(332 1044.078)"/><ellipse class="a" cx="3.5" cy="3" rx="3.5" ry="3" transform="translate(581 973.078)"/><ellipse class="a" cx="3.5" cy="3" rx="3.5" ry="3" transform="translate(581 1044.078)"/><ellipse class="a" cx="3.5" cy="3" rx="3.5" ry="3" transform="translate(499 973.078)"/><ellipse class="a" cx="3.5" cy="3" rx="3.5" ry="3" transform="translate(499 1044.078)"/><ellipse class="a" cx="3" cy="2.5" rx="3" ry="2.5" transform="translate(750 973.078)"/><ellipse class="a" cx="3" cy="2.5" rx="3" ry="2.5" transform="translate(750 1044.078)"/><ellipse class="a" cx="3.5" cy="3" rx="3.5" ry="3" transform="translate(667 973.078)"/><ellipse class="a" cx="3.5" cy="3" rx="3.5" ry="3" transform="translate(667 1044.078)"/><ellipse class="a" cx="3.5" cy="3" rx="3.5" ry="3" transform="translate(915 973.078)"/><ellipse class="a" cx="3.5" cy="3" rx="3.5" ry="3" transform="translate(915 1044.078)"/><ellipse class="a" cx="3.5" cy="3" rx="3.5" ry="3" transform="translate(831 973.078)"/><ellipse class="a" cx="3.5" cy="3" rx="3.5" ry="3" transform="translate(831 1044.078)"/><ellipse class="a" cx="3.5" cy="3" rx="3.5" ry="3" transform="translate(1082 973.078)"/><ellipse class="a" cx="3.5" cy="3" rx="3.5" ry="3" transform="translate(1082 1044.078)"/><ellipse class="a" cx="3" cy="2.5" rx="3" ry="2.5" transform="translate(998 973.078)"/><ellipse class="a" cx="3" cy="2.5" rx="3" ry="2.5" transform="translate(998 1044.078)"/><ellipse class="a" cx="3.5" cy="3" rx="3.5" ry="3" transform="translate(1248 973.078)"/><ellipse class="a" cx="3.5" cy="3" rx="3.5" ry="3" transform="translate(1248 1044.078)"/><ellipse class="a" cx="3" cy="2.5" rx="3" ry="2.5" transform="translate(1166 973.078)"/><ellipse class="a" cx="3" cy="2.5" rx="3" ry="2.5" transform="translate(1166 1044.078)"/><ellipse class="a" cx="3.5" cy="3" rx="3.5" ry="3" transform="translate(1414 973.078)"/><ellipse class="a" cx="3.5" cy="3" rx="3.5" ry="3" transform="translate(1414 1044.078)"/><ellipse class="a" cx="3.5" cy="3" rx="3.5" ry="3" transform="translate(1331 973.078)"/><ellipse class="a" cx="3.5" cy="3" rx="3.5" ry="3" transform="translate(1331 1044.078)"/><ellipse class="a" cx="3.5" cy="3" rx="3.5" ry="3" transform="translate(1581 973.078)"/><ellipse class="a" cx="3.5" cy="3" rx="3.5" ry="3" transform="translate(1581 1044.078)"/><ellipse class="a" cx="3.5" cy="3" rx="3.5" ry="3" transform="translate(1498 973.078)"/><ellipse class="a" cx="3.5" cy="3" rx="3.5" ry="3" transform="translate(1498 1044.078)"/><ellipse class="a" cx="3.5" cy="3" rx="3.5" ry="3" transform="translate(1747 973.078)"/><ellipse class="a" cx="3.5" cy="3" rx="3.5" ry="3" transform="translate(1747 1044.078)"/><ellipse class="a" cx="3" cy="2.5" rx="3" ry="2.5" transform="translate(1665 973.078)"/><ellipse class="a" cx="3" cy="2.5" rx="3" ry="2.5" transform="translate(1665 1044.078)"/><ellipse class="a" cx="3.5" cy="3" rx="3.5" ry="3" transform="translate(1915 973.078)"/><ellipse class="a" cx="3.5" cy="3" rx="3.5" ry="3" transform="translate(1915 1044.078)"/><ellipse class="a" cx="3.5" cy="3" rx="3.5" ry="3" transform="translate(1830 973.078)"/><ellipse class="a" cx="3.5" cy="3" rx="3.5" ry="3" transform="translate(1830 1044.078)"/><ellipse class="a" cx="3" cy="2.5" rx="3" ry="2.5" transform="translate(2080 973.078)"/><ellipse class="a" cx="3" cy="2.5" rx="3" ry="2.5" transform="translate(2080 1044.078)"/><ellipse class="a" cx="3.5" cy="3" rx="3.5" ry="3" transform="translate(1998 973.078)"/><ellipse class="a" cx="3.5" cy="3" rx="3.5" ry="3" transform="translate(1998 1044.078)"/><ellipse class="a" cx="3.5" cy="3" rx="3.5" ry="3" transform="translate(2246 973.078)"/><ellipse class="a" cx="3.5" cy="3" rx="3.5" ry="3" transform="translate(2246 1044.078)"/><ellipse class="a" cx="3.5" cy="3" rx="3.5" ry="3" transform="translate(2162 973.078)"/><ellipse class="a" cx="3.5" cy="3" rx="3.5" ry="3" transform="translate(2162 1044.078)"/><ellipse class="a" cx="3.5" cy="3" rx="3.5" ry="3" transform="translate(2414 973.078)"/><ellipse class="a" cx="3.5" cy="3" rx="3.5" ry="3" transform="translate(2414 1044.078)"/><ellipse class="a" cx="3.5" cy="3" rx="3.5" ry="3" transform="translate(2328 973.078)"/><ellipse class="a" cx="3.5" cy="3" rx="3.5" ry="3" transform="translate(2328 1044.078)"/><ellipse class="a" cx="3.5" cy="3" rx="3.5" ry="3" transform="translate(2579 973.078)"/><ellipse class="a" cx="3.5" cy="3" rx="3.5" ry="3" transform="translate(2579 1044.078)"/><ellipse class="a" cx="3.5" cy="3" rx="3.5" ry="3" transform="translate(2496 973.078)"/><ellipse class="a" cx="3.5" cy="3" rx="3.5" ry="3" transform="translate(2496 1044.078)"/><ellipse class="a" cx="3" cy="2.5" rx="3" ry="2.5" transform="translate(2661 973.078)"/><ellipse class="a" cx="2.5" cy="2" rx="2.5" ry="2" transform="translate(2661 1044.078)"/><circle class="a" cx="2.5" cy="2.5" r="2.5" transform="translate(83 1111.078)"/><circle class="a" cx="2.5" cy="2.5" r="2.5" transform="translate(83 1144.078)"/><circle class="a" cx="3.5" cy="3.5" r="3.5" transform="translate(0 1111.078)"/><circle class="a" cx="3.5" cy="3.5" r="3.5" transform="translate(0 1144.078)"/><circle class="a" cx="3" cy="3" r="3" transform="translate(250 1111.078)"/><circle class="a" cx="3" cy="3" r="3" transform="translate(250 1144.078)"/><circle class="a" cx="3.5" cy="3.5" r="3.5" transform="translate(165 1111.078)"/><circle class="a" cx="3.5" cy="3.5" r="3.5" transform="translate(165 1144.078)"/><circle class="a" cx="3.5" cy="3.5" r="3.5" transform="translate(416 1111.078)"/><circle class="a" cx="3.5" cy="3.5" r="3.5" transform="translate(416 1144.078)"/><circle class="a" cx="3.5" cy="3.5" r="3.5" transform="translate(332 1111.078)"/><circle class="a" cx="3.5" cy="3.5" r="3.5" transform="translate(332 1144.078)"/><circle class="a" cx="3.5" cy="3.5" r="3.5" transform="translate(581 1111.078)"/><circle class="a" cx="3.5" cy="3.5" r="3.5" transform="translate(581 1144.078)"/><circle class="a" cx="3.5" cy="3.5" r="3.5" transform="translate(499 1111.078)"/><circle class="a" cx="3.5" cy="3.5" r="3.5" transform="translate(499 1144.078)"/><circle class="a" cx="3" cy="3" r="3" transform="translate(750 1111.078)"/><circle class="a" cx="3" cy="3" r="3" transform="translate(750 1144.078)"/><circle class="a" cx="3.5" cy="3.5" r="3.5" transform="translate(667 1111.078)"/><circle class="a" cx="3.5" cy="3.5" r="3.5" transform="translate(667 1144.078)"/><circle class="a" cx="3.5" cy="3.5" r="3.5" transform="translate(915 1111.078)"/><circle class="a" cx="3.5" cy="3.5" r="3.5" transform="translate(915 1144.078)"/><circle class="a" cx="3.5" cy="3.5" r="3.5" transform="translate(831 1111.078)"/><circle class="a" cx="3.5" cy="3.5" r="3.5" transform="translate(831 1144.078)"/><circle class="a" cx="3.5" cy="3.5" r="3.5" transform="translate(1082 1111.078)"/><circle class="a" cx="3.5" cy="3.5" r="3.5" transform="translate(1082 1144.078)"/><circle class="a" cx="3" cy="3" r="3" transform="translate(998 1111.078)"/><circle class="a" cx="3" cy="3" r="3" transform="translate(998 1144.078)"/><circle class="a" cx="3.5" cy="3.5" r="3.5" transform="translate(1248 1111.078)"/><circle class="a" cx="3.5" cy="3.5" r="3.5" transform="translate(1248 1144.078)"/><circle class="a" cx="3" cy="3" r="3" transform="translate(1166 1111.078)"/><circle class="a" cx="3" cy="3" r="3" transform="translate(1166 1144.078)"/><circle class="a" cx="3.5" cy="3.5" r="3.5" transform="translate(1414 1111.078)"/><circle class="a" cx="3.5" cy="3.5" r="3.5" transform="translate(1414 1144.078)"/><circle class="a" cx="3.5" cy="3.5" r="3.5" transform="translate(1331 1111.078)"/><circle class="a" cx="3.5" cy="3.5" r="3.5" transform="translate(1331 1144.078)"/><circle class="a" cx="3.5" cy="3.5" r="3.5" transform="translate(1581 1111.078)"/><circle class="a" cx="3.5" cy="3.5" r="3.5" transform="translate(1581 1144.078)"/><circle class="a" cx="3.5" cy="3.5" r="3.5" transform="translate(1498 1111.078)"/><circle class="a" cx="3.5" cy="3.5" r="3.5" transform="translate(1498 1144.078)"/><circle class="a" cx="3.5" cy="3.5" r="3.5" transform="translate(1747 1111.078)"/><circle class="a" cx="3.5" cy="3.5" r="3.5" transform="translate(1747 1144.078)"/><circle class="a" cx="3" cy="3" r="3" transform="translate(1665 1111.078)"/><circle class="a" cx="3" cy="3" r="3" transform="translate(1665 1144.078)"/><circle class="a" cx="3.5" cy="3.5" r="3.5" transform="translate(1915 1111.078)"/><circle class="a" cx="3.5" cy="3.5" r="3.5" transform="translate(1915 1144.078)"/><circle class="a" cx="3.5" cy="3.5" r="3.5" transform="translate(1830 1111.078)"/><circle class="a" cx="3.5" cy="3.5" r="3.5" transform="translate(1830 1144.078)"/><circle class="a" cx="3" cy="3" r="3" transform="translate(2080 1111.078)"/><circle class="a" cx="3" cy="3" r="3" transform="translate(2080 1144.078)"/><circle class="a" cx="3.5" cy="3.5" r="3.5" transform="translate(1998 1111.078)"/><circle class="a" cx="3.5" cy="3.5" r="3.5" transform="translate(1998 1144.078)"/><circle class="a" cx="3.5" cy="3.5" r="3.5" transform="translate(2246 1111.078)"/><circle class="a" cx="3.5" cy="3.5" r="3.5" transform="translate(2246 1144.078)"/><circle class="a" cx="3.5" cy="3.5" r="3.5" transform="translate(2162 1111.078)"/><circle class="a" cx="3.5" cy="3.5" r="3.5" transform="translate(2162 1144.078)"/><circle class="a" cx="3.5" cy="3.5" r="3.5" transform="translate(2414 1111.078)"/><circle class="a" cx="3.5" cy="3.5" r="3.5" transform="translate(2414 1144.078)"/><circle class="a" cx="3.5" cy="3.5" r="3.5" transform="translate(2328 1111.078)"/><circle class="a" cx="3.5" cy="3.5" r="3.5" transform="translate(2328 1144.078)"/><circle class="a" cx="3.5" cy="3.5" r="3.5" transform="translate(2579 1111.078)"/><circle class="a" cx="3.5" cy="3.5" r="3.5" transform="translate(2579 1144.078)"/><circle class="a" cx="3.5" cy="3.5" r="3.5" transform="translate(2496 1111.078)"/><circle class="a" cx="3.5" cy="3.5" r="3.5" transform="translate(2496 1144.078)"/><circle class="a" cx="2.5" cy="2.5" r="2.5" transform="translate(2661 1111.078)"/><circle class="a" cx="2.5" cy="2.5" r="2.5" transform="translate(2661 1144.078)"/><ellipse class="a" cx="2.5" cy="2" rx="2.5" ry="2" transform="translate(83 1224.078)"/><circle class="a" cx="2.5" cy="2.5" r="2.5" transform="translate(83 1301.078)"/><ellipse class="a" cx="3" cy="2.5" rx="3" ry="2.5" transform="translate(0 1224.078)"/><circle class="a" cx="3.5" cy="3.5" r="3.5" transform="translate(0 1301.078)"/><ellipse class="a" cx="3" cy="2.5" rx="3" ry="2.5" transform="translate(250 1224.078)"/><circle class="a" cx="3" cy="3" r="3" transform="translate(250 1301.078)"/><ellipse class="a" cx="3" cy="2.5" rx="3" ry="2.5" transform="translate(165 1224.078)"/><circle class="a" cx="3.5" cy="3.5" r="3.5" transform="translate(165 1301.078)"/><ellipse class="a" cx="3" cy="2.5" rx="3" ry="2.5" transform="translate(416 1224.078)"/><circle class="a" cx="3.5" cy="3.5" r="3.5" transform="translate(416 1301.078)"/><ellipse class="a" cx="3" cy="2.5" rx="3" ry="2.5" transform="translate(332 1224.078)"/><circle class="a" cx="3.5" cy="3.5" r="3.5" transform="translate(332 1301.078)"/><ellipse class="a" cx="3" cy="2.5" rx="3" ry="2.5" transform="translate(581 1224.078)"/><circle class="a" cx="3.5" cy="3.5" r="3.5" transform="translate(581 1301.078)"/><ellipse class="a" cx="3" cy="2.5" rx="3" ry="2.5" transform="translate(499 1224.078)"/><circle class="a" cx="3.5" cy="3.5" r="3.5" transform="translate(499 1301.078)"/><ellipse class="a" cx="3" cy="2.5" rx="3" ry="2.5" transform="translate(750 1224.078)"/><circle class="a" cx="3" cy="3" r="3" transform="translate(750 1301.078)"/><ellipse class="a" cx="3" cy="2.5" rx="3" ry="2.5" transform="translate(667 1224.078)"/><circle class="a" cx="3.5" cy="3.5" r="3.5" transform="translate(667 1301.078)"/><ellipse class="a" cx="3" cy="2.5" rx="3" ry="2.5" transform="translate(915 1224.078)"/><circle class="a" cx="3.5" cy="3.5" r="3.5" transform="translate(915 1301.078)"/><ellipse class="a" cx="3" cy="2.5" rx="3" ry="2.5" transform="translate(831 1224.078)"/><circle class="a" cx="3.5" cy="3.5" r="3.5" transform="translate(831 1301.078)"/><ellipse class="a" cx="3" cy="2.5" rx="3" ry="2.5" transform="translate(1082 1224.078)"/><circle class="a" cx="3.5" cy="3.5" r="3.5" transform="translate(1082 1301.078)"/><ellipse class="a" cx="3" cy="2.5" rx="3" ry="2.5" transform="translate(998 1224.078)"/><circle class="a" cx="3" cy="3" r="3" transform="translate(998 1301.078)"/><ellipse class="a" cx="3" cy="2.5" rx="3" ry="2.5" transform="translate(1248 1224.078)"/><circle class="a" cx="3.5" cy="3.5" r="3.5" transform="translate(1248 1301.078)"/><ellipse class="a" cx="3" cy="2.5" rx="3" ry="2.5" transform="translate(1166 1224.078)"/><circle class="a" cx="3" cy="3" r="3" transform="translate(1166 1301.078)"/><ellipse class="a" cx="3" cy="2.5" rx="3" ry="2.5" transform="translate(1414 1224.078)"/><circle class="a" cx="3.5" cy="3.5" r="3.5" transform="translate(1414 1301.078)"/><ellipse class="a" cx="3" cy="2.5" rx="3" ry="2.5" transform="translate(1331 1224.078)"/><circle class="a" cx="3.5" cy="3.5" r="3.5" transform="translate(1331 1301.078)"/><ellipse class="a" cx="3" cy="2.5" rx="3" ry="2.5" transform="translate(1581 1224.078)"/><circle class="a" cx="3.5" cy="3.5" r="3.5" transform="translate(1581 1301.078)"/><ellipse class="a" cx="3" cy="2.5" rx="3" ry="2.5" transform="translate(1498 1224.078)"/><circle class="a" cx="3.5" cy="3.5" r="3.5" transform="translate(1498 1301.078)"/><ellipse class="a" cx="3" cy="2.5" rx="3" ry="2.5" transform="translate(1747 1224.078)"/><circle class="a" cx="3.5" cy="3.5" r="3.5" transform="translate(1747 1301.078)"/><ellipse class="a" cx="3" cy="2.5" rx="3" ry="2.5" transform="translate(1665 1224.078)"/><circle class="a" cx="3" cy="3" r="3" transform="translate(1665 1301.078)"/><ellipse class="a" cx="3" cy="2.5" rx="3" ry="2.5" transform="translate(1915 1224.078)"/><circle class="a" cx="3.5" cy="3.5" r="3.5" transform="translate(1915 1301.078)"/><ellipse class="a" cx="3" cy="2.5" rx="3" ry="2.5" transform="translate(1830 1224.078)"/><circle class="a" cx="3.5" cy="3.5" r="3.5" transform="translate(1830 1301.078)"/><ellipse class="a" cx="3" cy="2.5" rx="3" ry="2.5" transform="translate(2080 1224.078)"/><circle class="a" cx="3" cy="3" r="3" transform="translate(2080 1301.078)"/><ellipse class="a" cx="3" cy="2.5" rx="3" ry="2.5" transform="translate(1998 1224.078)"/><circle class="a" cx="3.5" cy="3.5" r="3.5" transform="translate(1998 1301.078)"/><ellipse class="a" cx="3" cy="2.5" rx="3" ry="2.5" transform="translate(2246 1224.078)"/><circle class="a" cx="3.5" cy="3.5" r="3.5" transform="translate(2246 1301.078)"/><ellipse class="a" cx="3" cy="2.5" rx="3" ry="2.5" transform="translate(2162 1224.078)"/><circle class="a" cx="3.5" cy="3.5" r="3.5" transform="translate(2162 1301.078)"/><ellipse class="a" cx="3" cy="2.5" rx="3" ry="2.5" transform="translate(2414 1224.078)"/><circle class="a" cx="3.5" cy="3.5" r="3.5" transform="translate(2414 1301.078)"/><ellipse class="a" cx="3" cy="2.5" rx="3" ry="2.5" transform="translate(2328 1224.078)"/><circle class="a" cx="3.5" cy="3.5" r="3.5" transform="translate(2328 1301.078)"/><ellipse class="a" cx="3" cy="2.5" rx="3" ry="2.5" transform="translate(2579 1224.078)"/><circle class="a" cx="3.5" cy="3.5" r="3.5" transform="translate(2579 1301.078)"/><ellipse class="a" cx="3" cy="2.5" rx="3" ry="2.5" transform="translate(2496 1224.078)"/><circle class="a" cx="3.5" cy="3.5" r="3.5" transform="translate(2496 1301.078)"/><ellipse class="a" cx="2.5" cy="2" rx="2.5" ry="2" transform="translate(2661 1224.078)"/><circle class="a" cx="3" cy="3" r="3" transform="translate(2661 1301.078)"/><circle class="a" cx="2.5" cy="2.5" r="2.5" transform="translate(83 1380.078)"/><circle class="a" cx="2.5" cy="2.5" r="2.5" transform="translate(83 1459.078)"/><circle class="a" cx="3.5" cy="3.5" r="3.5" transform="translate(0 1380.078)"/><ellipse class="a" cx="3.5" cy="3" rx="3.5" ry="3" transform="translate(0 1459.078)"/><circle class="a" cx="3" cy="3" r="3" transform="translate(250 1380.078)"/><circle class="a" cx="3" cy="3" r="3" transform="translate(250 1459.078)"/><circle class="a" cx="3.5" cy="3.5" r="3.5" transform="translate(165 1380.078)"/><ellipse class="a" cx="3.5" cy="3" rx="3.5" ry="3" transform="translate(165 1459.078)"/><circle class="a" cx="3.5" cy="3.5" r="3.5" transform="translate(416 1380.078)"/><ellipse class="a" cx="3.5" cy="3" rx="3.5" ry="3" transform="translate(416 1459.078)"/><circle class="a" cx="3.5" cy="3.5" r="3.5" transform="translate(332 1380.078)"/><ellipse class="a" cx="3.5" cy="3" rx="3.5" ry="3" transform="translate(332 1459.078)"/><circle class="a" cx="3.5" cy="3.5" r="3.5" transform="translate(581 1380.078)"/><ellipse class="a" cx="3.5" cy="3" rx="3.5" ry="3" transform="translate(581 1459.078)"/><circle class="a" cx="3.5" cy="3.5" r="3.5" transform="translate(499 1380.078)"/><ellipse class="a" cx="3.5" cy="3" rx="3.5" ry="3" transform="translate(499 1459.078)"/><circle class="a" cx="3" cy="3" r="3" transform="translate(750 1380.078)"/><circle class="a" cx="3" cy="3" r="3" transform="translate(750 1459.078)"/><circle class="a" cx="3.5" cy="3.5" r="3.5" transform="translate(667 1380.078)"/><ellipse class="a" cx="3.5" cy="3" rx="3.5" ry="3" transform="translate(667 1459.078)"/><circle class="a" cx="3.5" cy="3.5" r="3.5" transform="translate(915 1380.078)"/><ellipse class="a" cx="3.5" cy="3" rx="3.5" ry="3" transform="translate(915 1459.078)"/><circle class="a" cx="3.5" cy="3.5" r="3.5" transform="translate(831 1380.078)"/><ellipse class="a" cx="3.5" cy="3" rx="3.5" ry="3" transform="translate(831 1459.078)"/><circle class="a" cx="3.5" cy="3.5" r="3.5" transform="translate(1082 1380.078)"/><ellipse class="a" cx="3.5" cy="3" rx="3.5" ry="3" transform="translate(1082 1459.078)"/><circle class="a" cx="3" cy="3" r="3" transform="translate(998 1380.078)"/><circle class="a" cx="3" cy="3" r="3" transform="translate(998 1459.078)"/><circle class="a" cx="3.5" cy="3.5" r="3.5" transform="translate(1248 1380.078)"/><ellipse class="a" cx="3.5" cy="3" rx="3.5" ry="3" transform="translate(1248 1459.078)"/><circle class="a" cx="3" cy="3" r="3" transform="translate(1166 1380.078)"/><circle class="a" cx="3" cy="3" r="3" transform="translate(1166 1459.078)"/><circle class="a" cx="3.5" cy="3.5" r="3.5" transform="translate(1414 1380.078)"/><ellipse class="a" cx="3.5" cy="3" rx="3.5" ry="3" transform="translate(1414 1459.078)"/><circle class="a" cx="3.5" cy="3.5" r="3.5" transform="translate(1331 1380.078)"/><ellipse class="a" cx="3.5" cy="3" rx="3.5" ry="3" transform="translate(1331 1459.078)"/><circle class="a" cx="3.5" cy="3.5" r="3.5" transform="translate(1581 1380.078)"/><ellipse class="a" cx="3.5" cy="3" rx="3.5" ry="3" transform="translate(1581 1459.078)"/><circle class="a" cx="3.5" cy="3.5" r="3.5" transform="translate(1498 1380.078)"/><ellipse class="a" cx="3.5" cy="3" rx="3.5" ry="3" transform="translate(1498 1459.078)"/><circle class="a" cx="3.5" cy="3.5" r="3.5" transform="translate(1747 1380.078)"/><ellipse class="a" cx="3.5" cy="3" rx="3.5" ry="3" transform="translate(1747 1459.078)"/><circle class="a" cx="3" cy="3" r="3" transform="translate(1665 1380.078)"/><circle class="a" cx="3" cy="3" r="3" transform="translate(1665 1459.078)"/><circle class="a" cx="3.5" cy="3.5" r="3.5" transform="translate(1915 1380.078)"/><ellipse class="a" cx="3.5" cy="3" rx="3.5" ry="3" transform="translate(1915 1459.078)"/><circle class="a" cx="3.5" cy="3.5" r="3.5" transform="translate(1830 1380.078)"/><ellipse class="a" cx="3.5" cy="3" rx="3.5" ry="3" transform="translate(1830 1459.078)"/><circle class="a" cx="3" cy="3" r="3" transform="translate(2080 1380.078)"/><circle class="a" cx="3" cy="3" r="3" transform="translate(2080 1459.078)"/><circle class="a" cx="3.5" cy="3.5" r="3.5" transform="translate(1998 1380.078)"/><ellipse class="a" cx="3.5" cy="3" rx="3.5" ry="3" transform="translate(1998 1459.078)"/><circle class="a" cx="3.5" cy="3.5" r="3.5" transform="translate(2246 1380.078)"/><ellipse class="a" cx="3.5" cy="3" rx="3.5" ry="3" transform="translate(2246 1459.078)"/><circle class="a" cx="3.5" cy="3.5" r="3.5" transform="translate(2162 1380.078)"/><ellipse class="a" cx="3.5" cy="3" rx="3.5" ry="3" transform="translate(2162 1459.078)"/><circle class="a" cx="3.5" cy="3.5" r="3.5" transform="translate(2414 1380.078)"/><ellipse class="a" cx="3.5" cy="3" rx="3.5" ry="3" transform="translate(2414 1459.078)"/><circle class="a" cx="3.5" cy="3.5" r="3.5" transform="translate(2328 1380.078)"/><ellipse class="a" cx="3.5" cy="3" rx="3.5" ry="3" transform="translate(2328 1459.078)"/><circle class="a" cx="3.5" cy="3.5" r="3.5" transform="translate(2579 1380.078)"/><ellipse class="a" cx="3.5" cy="3" rx="3.5" ry="3" transform="translate(2579 1459.078)"/><circle class="a" cx="3.5" cy="3.5" r="3.5" transform="translate(2496 1380.078)"/><ellipse class="a" cx="3.5" cy="3" rx="3.5" ry="3" transform="translate(2496 1459.078)"/><circle class="a" cx="3" cy="3" r="3" transform="translate(2661 1380.078)"/><circle class="a" cx="3" cy="3" r="3" transform="translate(2661 1459.078)"/><circle class="a" cx="3.5" cy="3.5" r="3.5" transform="translate(2745 0.078)"/><ellipse class="a" cx="3" cy="2.5" rx="3" ry="2.5" transform="translate(2745 80.078)"/><circle class="a" cx="3.5" cy="3.5" r="3.5" transform="translate(2745 158.078)"/><ellipse class="a" cx="3.5" cy="3" rx="3.5" ry="3" transform="translate(2745 239.078)"/><ellipse class="a" cx="3.5" cy="3" rx="3.5" ry="3" transform="translate(2745 315.078)"/><ellipse class="a" cx="3.5" cy="3" rx="3.5" ry="3" transform="translate(2745 349.078)"/><circle class="a" cx="3" cy="3" r="3" transform="translate(2745 417.078)"/><circle class="a" cx="3.5" cy="3.5" r="3.5" transform="translate(2745 487.078)"/><circle class="a" cx="3.5" cy="3.5" r="3.5" transform="translate(2745 556.078)"/><ellipse class="a" cx="3.5" cy="3" rx="3.5" ry="3" transform="translate(2745 626.078)"/><ellipse class="a" cx="3.5" cy="3" rx="3.5" ry="3" transform="translate(2745 694.078)"/><circle class="a" cx="3.5" cy="3.5" r="3.5" transform="translate(2745 766.078)"/><circle class="a" cx="3.5" cy="3.5" r="3.5" transform="translate(2745 833.078)"/><circle class="a" cx="3.5" cy="3.5" r="3.5" transform="translate(2745 903.078)"/><ellipse class="a" cx="3.5" cy="3" rx="3.5" ry="3" transform="translate(2745 973.078)"/><ellipse class="a" cx="3.5" cy="3" rx="3.5" ry="3" transform="translate(2745 1044.078)"/><circle class="a" cx="3.5" cy="3.5" r="3.5" transform="translate(2745 1111.078)"/><circle class="a" cx="3.5" cy="3.5" r="3.5" transform="translate(2745 1144.078)"/><ellipse class="a" cx="3" cy="2.5" rx="3" ry="2.5" transform="translate(2745 1224.078)"/><circle class="a" cx="3.5" cy="3.5" r="3.5" transform="translate(2745 1301.078)"/><circle class="a" cx="3.5" cy="3.5" r="3.5" transform="translate(2745 1380.078)"/><ellipse class="a" cx="3.5" cy="3" rx="3.5" ry="3" transform="translate(2745 1459.078)"/></g></g></g></svg>