<svg xmlns="http://www.w3.org/2000/svg" width="35.814" height="38.546" viewBox="0 0 35.814 38.546">
  <g id="Artwork_28" data-name="Artwork 28" transform="translate(127.8 128.745)">
    <g id="Group_18906" data-name="Group 18906" transform="translate(-127.8 -128.745)">
      <path id="Path_56548" data-name="Path 56548" d="M12.476,8.8.3,21.905v25.44H36.073V8.8Z" transform="translate(-0.258 -8.8)" fill="#71d154"/>
      <path id="Path_56549" data-name="Path 56549" d="M0,21.955H12.209V8.8Z" transform="translate(0 -8.8)" fill="#47ac28"/>
      <path id="Path_56550" data-name="Path 56550" d="M15.381-104.04a13.561,13.561,0,0,1-4.107-.593,9.054,9.054,0,0,1-3.179-1.7l1.2-3.222a9.669,9.669,0,0,0,6.152,2.111,4.047,4.047,0,0,0,2.251-.518,1.678,1.678,0,0,0,.773-1.481,1.548,1.548,0,0,0-.533-1.259,5.272,5.272,0,0,0-1.908-.815l-2.75-.667A6.589,6.589,0,0,1,9.813-114a4.684,4.684,0,0,1-1.134-3.259,5.079,5.079,0,0,1,.876-2.944A5.727,5.727,0,0,1,12-122.187a8.761,8.761,0,0,1,3.626-.7,10.237,10.237,0,0,1,3.454.593,9.372,9.372,0,0,1,2.939,1.667l-1.2,3.148a8.487,8.487,0,0,0-5.224-2.037,3.778,3.778,0,0,0-2.2.556,1.793,1.793,0,0,0-.791,1.555,1.626,1.626,0,0,0,.5,1.222,3.416,3.416,0,0,0,1.6.741l2.853.7a7.062,7.062,0,0,1,3.678,1.87,4.772,4.772,0,0,1,1.169,3.352,4.815,4.815,0,0,1-1.89,4A8.088,8.088,0,0,1,15.381-104.04Z" transform="translate(3.535 134.578)" fill="#fff"/>
    </g>
  </g>
</svg>
