<svg xmlns="http://www.w3.org/2000/svg" width="392.472" height="177.502" viewBox="0 0 392.472 177.502"><defs><style>.a{fill:none;stroke:#d4e5f9;stroke-linecap:round;stroke-linejoin:round;stroke-width:8px;}.b{fill:#d4e5f9;}</style></defs><g transform="translate(73.841 -856.429)"><path class="a" d="M0,6.889s125.224-25.277,78.387,21-20.7,56.386,12.654,42.584,157.281-108.3,125.822-19.746,71.471,19.151,71.471,19.151" transform="matrix(0.966, -0.259, 0.259, 0.966, -68.254, 936.355)"/><g transform="translate(258.438 861.729)"><path class="b" d="M2.43,36.662,36.76,2.307a1.878,1.878,0,0,1,1.332-.557h0a1.873,1.873,0,0,1,1.329.552L51.588,14.466a1.88,1.88,0,0,1,0,2.661L17.227,51.462Z" transform="translate(3.665 2.56)"/><path class="b" d="M29.372,14.858l1.236-1.236a7.968,7.968,0,0,0,.005-11.306A8.165,8.165,0,0,0,19.292,2.31L18.056,3.546Z" transform="translate(27.229 -0.032)"/><path class="b" d="M5.076,16.678.085,32.6a1.883,1.883,0,0,0,1.8,2.443,1.914,1.914,0,0,0,.564-.085l15.919-4.991Z" transform="translate(0 25.072)"/><path class="b" d="M8.1,19.2a1.866,1.866,0,0,0,1.329-.552L21.575,6.506a3,3,0,0,1,2.368-.84l2.97-2.972a6.784,6.784,0,0,0-8,1.151L6.77,15.989A1.882,1.882,0,0,0,8.1,19.2Z" transform="translate(9.379 2.76)"/></g></g></svg>