<svg xmlns="http://www.w3.org/2000/svg" width="118.105" height="54.122" viewBox="0 0 118.105 54.122">
  <g id="Artwork_41" data-name="Artwork 41" transform="translate(226.219 95.739)">
    <g id="Group_18929" data-name="Group 18929" transform="translate(-226.219 -95.74)">
      <g id="Group_18924" data-name="Group 18924" transform="translate(0.043 8.091)">
        <g id="Group_18923" data-name="Group 18923">
          <path id="Path_56563" data-name="Path 56563" d="M14.472,40.16.163,54.469V73.718H33.721V40.16Z" transform="translate(-0.163 -40.16)" fill="#71d154"/>
        </g>
      </g>
      <path id="Path_56568" data-name="Path 56568" d="M10.91-45.465a13.636,13.636,0,0,1-3.853-.516,8.718,8.718,0,0,1-2.982-1.483l1.128-2.8a9.527,9.527,0,0,0,5.771,1.838,4.032,4.032,0,0,0,2.112-.451,1.434,1.434,0,0,0,.725-1.29,1.305,1.305,0,0,0-.5-1.1,5.144,5.144,0,0,0-1.789-.709l-2.579-.58a6.341,6.341,0,0,1-3.256-1.58,3.9,3.9,0,0,1-1.064-2.837,4.2,4.2,0,0,1,.822-2.563,5.309,5.309,0,0,1,2.289-1.725,8.773,8.773,0,0,1,3.4-.613,10.275,10.275,0,0,1,3.24.516,8.989,8.989,0,0,1,2.756,1.451L16-57.168a8.326,8.326,0,0,0-4.9-1.773,3.757,3.757,0,0,0-2.063.484A1.53,1.53,0,0,0,8.3-57.1a1.366,1.366,0,0,0,.467,1.064,3.315,3.315,0,0,0,1.5.645l2.676.613a6.809,6.809,0,0,1,3.45,1.628,3.977,3.977,0,0,1,1.1,2.918,4.085,4.085,0,0,1-1.773,3.482A8.009,8.009,0,0,1,10.91-45.465Z" transform="translate(6.834 80.143)" fill="#fff"/>
      <g id="Group_18925" data-name="Group 18925" transform="translate(28.421 20.564)">
        <rect id="Rectangle_7191" data-name="Rectangle 7191" width="33.558" height="33.558" transform="translate(0 0)" fill="#47ac28"/>
        <path id="Path_56567" data-name="Path 56567" d="M12.753-45.465a8.674,8.674,0,0,1-4.239-1,6.915,6.915,0,0,1-2.821-2.869,9.1,9.1,0,0,1-1-4.352,9,9,0,0,1,1-4.336,6.939,6.939,0,0,1,2.821-2.853,8.674,8.674,0,0,1,4.239-1,8.674,8.674,0,0,1,4.239,1,6.838,6.838,0,0,1,2.8,2.853,9.123,9.123,0,0,1,.983,4.336,9.219,9.219,0,0,1-.983,4.352,6.815,6.815,0,0,1-2.8,2.869A8.674,8.674,0,0,1,12.753-45.465Zm-.032-3.127a3.613,3.613,0,0,0,3-1.29,5.991,5.991,0,0,0,1.032-3.8,6,6,0,0,0-1.032-3.788,3.557,3.557,0,0,0-2.966-1.306,3.6,3.6,0,0,0-2.982,1.306,5.936,5.936,0,0,0-1.048,3.788,5.991,5.991,0,0,0,1.032,3.8A3.576,3.576,0,0,0,12.721-48.592Z" transform="translate(3.817 71.196)" fill="#fff"/>
      </g>
      <path id="Path_56564" data-name="Path 56564" d="M0,54.512,14.352,40.16V54.512Z" transform="translate(0 -32.069)" fill="#47ac28"/>
      <g id="Group_18927" data-name="Group 18927" transform="translate(56.841 0)">
        <g id="Group_18926" data-name="Group 18926">
          <rect id="Rectangle_7192" data-name="Rectangle 7192" width="33.558" height="33.558" fill="#71d154"/>
        </g>
        <path id="Path_56565" data-name="Path 56565" d="M19.539-47.658v3.03H5.8v-2.8l8.576-9.93H5.966v-3.03h13.25v2.74l-8.64,9.994Z" transform="translate(3.072 69.719)" fill="#fff"/>
      </g>
      <g id="Group_18928" data-name="Group 18928" transform="translate(84.548 16.779)">
        <rect id="Rectangle_7193" data-name="Rectangle 7193" width="33.558" height="33.558" fill="#47ac28"/>
        <path id="Path_56566" data-name="Path 56566" d="M12.753-45.465a8.674,8.674,0,0,1-4.239-1,6.915,6.915,0,0,1-2.821-2.869,9.1,9.1,0,0,1-1-4.352,9,9,0,0,1,1-4.336,6.939,6.939,0,0,1,2.821-2.853,8.674,8.674,0,0,1,4.239-1,8.674,8.674,0,0,1,4.239,1,6.838,6.838,0,0,1,2.8,2.853,9.123,9.123,0,0,1,.983,4.336,9.219,9.219,0,0,1-.983,4.352,6.815,6.815,0,0,1-2.8,2.869A8.674,8.674,0,0,1,12.753-45.465Zm-.032-3.127a3.613,3.613,0,0,0,3-1.29,5.991,5.991,0,0,0,1.032-3.8,6,6,0,0,0-1.032-3.788,3.557,3.557,0,0,0-2.966-1.306,3.6,3.6,0,0,0-2.982,1.306,5.936,5.936,0,0,0-1.048,3.788,5.991,5.991,0,0,0,1.032,3.8A3.576,3.576,0,0,0,12.721-48.592Z" transform="translate(3.817 70.961)" fill="#fff"/>
      </g>
    </g>
  </g>
</svg>
