<svg xmlns="http://www.w3.org/2000/svg" width="39.346" height="39.284" viewBox="0 0 39.346 39.284">
  <g id="Group_18573" data-name="Group 18573" transform="translate(11823.104 4946.523)">
    <path id="Path_56224" data-name="Path 56224" d="M14.953,31,.2,45.753V70.284H39.484V31Z" transform="translate(-11823.242 -4977.523)" fill="#137ef9"/>
    <path id="Path_56225" data-name="Path 56225" d="M45.285,88.612A10.211,10.211,0,0,1,41.8,86.869L43.115,83.6a11.159,11.159,0,0,0,6.756,2.14,4.818,4.818,0,0,0,2.476-.52,1.681,1.681,0,0,0,.856-1.5,1.529,1.529,0,0,0-.581-1.284,5.8,5.8,0,0,0-2.109-.825l-3.027-.673a7.534,7.534,0,0,1-3.791-1.9,4.555,4.555,0,0,1-1.253-3.332,4.922,4.922,0,0,1,.948-3A6.237,6.237,0,0,1,46.08,70.7a10.272,10.272,0,0,1,3.974-.7,12.048,12.048,0,0,1,3.793.612,10.547,10.547,0,0,1,3.239,1.711L55.771,75.5a9.768,9.768,0,0,0-5.747-2.079A4.273,4.273,0,0,0,47.609,74a1.8,1.8,0,0,0-.856,1.59,1.59,1.59,0,0,0,.55,1.253,3.883,3.883,0,0,0,1.743.764l3.149.7a8.111,8.111,0,0,1,4.035,1.9,4.647,4.647,0,0,1,1.284,3.424,4.769,4.769,0,0,1-2.079,4.066,9.442,9.442,0,0,1-5.625,1.5,15.989,15.989,0,0,1-4.525-.611" transform="translate(-11853.059 -5004.594)" fill="#fff"/>
    <path id="Path_56227" data-name="Path 56227" d="M0,45.934,14.665,31V45.934Z" transform="translate(-11823.104 -4977.523)" fill="#3ab7ff"/>
  </g>
</svg>
