<svg xmlns="http://www.w3.org/2000/svg" width="37" height="35" viewBox="0 0 37 35"><defs><style>.a{fill:#fff;}.b,.c{stroke:none;}.c{fill:#202225;}</style></defs><g class="a"><path class="b" d="M 28.55010986328125 33.10227203369141 L 18.98030090332031 27.86190032958984 L 18.5 27.59889984130859 L 18.01969909667969 27.86190032958984 L 8.449889183044434 33.10227203369141 L 10.50189018249512 22.4386100769043 L 10.60638046264648 21.89562034606934 L 10.20205020904541 21.51843070983887 L 2.245341777801514 14.09585380554199 L 13.07406044006348 12.74193000793457 L 13.61944961547852 12.67374038696289 L 13.85420036315918 12.17675971984863 L 18.5 2.341341018676758 L 23.14579963684082 12.17675018310547 L 23.38055038452148 12.67372989654541 L 23.92593002319336 12.74192047119141 L 34.75465774536133 14.09585380554199 L 26.79795074462891 21.51843070983887 L 26.39361953735352 21.89562034606934 L 26.49810981750488 22.4386100769043 L 28.55010986328125 33.10227203369141 Z"/><path class="c" d="M 18.5 4.682689666748047 L 14.75839996337891 12.60386085510254 L 14.28890037536621 13.59782028198242 L 13.19812965393066 13.73419952392578 L 4.490692138671875 14.82290458679199 L 10.88418006896973 20.78720092773438 L 11.69285011291504 21.54158973693848 L 11.48387908935547 22.62757110595703 L 9.833417892456055 31.20455169677734 L 17.53940010070801 26.98480033874512 L 18.5 26.45878028869629 L 19.46059989929199 26.98480033874512 L 27.16658210754395 31.20455169677734 L 25.51612091064453 22.62757110595703 L 25.30714988708496 21.54158973693848 L 26.11581993103027 20.78720092773438 L 32.50930786132813 14.82290458679199 L 23.80187034606934 13.73419952392578 L 22.71109962463379 13.59782028198242 L 22.24160003662109 12.60386085510254 L 18.5 4.682689666748047 M 18.5 0 L 24.04999923706055 11.74964904785156 L 37 13.36881065368652 L 27.4800910949707 22.24964904785156 L 29.93362998962402 35 L 18.5 28.73900985717773 L 7.066370010375977 35 L 9.51991081237793 22.24964904785156 L 0 13.36881065368652 L 12.95000076293945 11.74964904785156 L 18.5 0 Z"/></g></svg>