<svg xmlns="http://www.w3.org/2000/svg" width="18.001" height="24.625" viewBox="0 0 18.001 24.625"><defs><style>.a{fill:#202225;stroke:rgba(0,0,0,0);stroke-miterlimit:10;}</style></defs><path class="a" d="M9868-6086.376v-2h17v2Zm2.825-6a1.025,1.025,0,0,1-.786-.312,1.064,1.064,0,0,1-.263-.814l.385-4.875H9868v-1h2.24L9871-6109a1,1,0,0,1,.322-.737,1.1,1.1,0,0,1,.752-.263h5.824a6.724,6.724,0,0,1,4.213,1.126,3.826,3.826,0,0,1,1.437,3.2,4.346,4.346,0,0,1-.812,2.652,4.87,4.87,0,0,1-2.387,1.649,3.847,3.847,0,0,1,2.188,1.4,3.768,3.768,0,0,1,.359.6h1.95v1h-1.63a5.023,5.023,0,0,1,.082.925,4.606,4.606,0,0,1-1.6,3.738,6.743,6.743,0,0,1-4.45,1.337Zm1.05-1.7h5.3q4.122,0,4.125-3.349a3.8,3.8,0,0,0-.111-.95h-8.979Zm.414-5.3h8.4a3.99,3.99,0,0,0-3.213-1.1h-5.1Zm.211-2.8h4.927a4.714,4.714,0,0,0,3.024-.848,3,3,0,0,0,1.049-2.476q0-2.8-3.772-2.8h-4.751Z" transform="translate(-9867.499 6110.5)"/></svg>