<svg xmlns="http://www.w3.org/2000/svg" width="24.457" height="28.987" viewBox="0 0 24.457 28.987"><defs><style>.a{fill:#b8b8b8;}</style></defs><path class="a" d="M53.333,0H30.405a.765.765,0,0,0-.764.764V28.223a.765.765,0,0,0,.764.764H53.333a.765.765,0,0,0,.764-.764V.764A.765.765,0,0,0,53.333,0Zm-.764,27.459H31.17V7.38h21.4Z" transform="translate(-29.641)"/><path class="a" d="M85.023,135h15.285a.382.382,0,0,0,.382-.382v-2.6a.382.382,0,0,0-.382-.382H85.023a.382.382,0,0,0-.382.382v2.6A.382.382,0,0,0,85.023,135Z" transform="translate(-80.438 -121.58)"/><path class="a" d="M85.023,225.666h6.955a.382.382,0,0,0,.382-.382v-7.261a.382.382,0,0,0-.382-.382H85.023a.382.382,0,0,0-.382.382v7.261A.382.382,0,0,0,85.023,225.666Z" transform="translate(-80.438 -201.007)"/><path class="a" d="M220.373,217.641h-5.35a.382.382,0,0,0-.382.382v2.216a.382.382,0,0,0,.382.382h5.35a.382.382,0,0,0,.382-.382v-2.216A.382.382,0,0,0,220.373,217.641Z" transform="translate(-200.502 -201.007)"/><path class="a" d="M220.373,282.324h-5.35a.382.382,0,0,0-.382.382v2.216a.382.382,0,0,0,.382.382h5.35a.382.382,0,0,0,.382-.382v-2.216A.382.382,0,0,0,220.373,282.324Z" transform="translate(-200.502 -260.747)"/></svg>