<svg xmlns="http://www.w3.org/2000/svg" width="26.236" height="24" viewBox="0 0 26.236 24"><defs><style>.a{fill:#fff;}</style></defs><path class="a" d="M3.969,24a.5.5,0,0,1-.5-.5V21.825a.5.5,0,0,1,.5-.5H22.217a.5.5,0,0,1,.5.5V23.5a.5.5,0,0,1-.5.5Zm-.074-4.5a.765.765,0,0,1-.745-.565L2.516,16.5H6.968a.75.75,0,1,0,0-1.5H2.126L.025,6.937A.718.718,0,0,1,.15,6.306.8.8,0,0,1,.774,6a.766.766,0,0,1,.454.15l5.5,4L12.449.378A.768.768,0,0,1,13.119,0a.76.76,0,0,1,.665.378L19.5,10.145l5.506-4A.761.761,0,0,1,25.46,6a.8.8,0,0,1,.625.306.718.718,0,0,1,.126.632L24.108,15H19.265a.75.75,0,1,0,0,1.5h4.455l-.635,2.436a.763.763,0,0,1-.744.565Z" transform="translate(0)"/></svg>