<svg xmlns="http://www.w3.org/2000/svg" width="35.427" height="20.814" viewBox="0 0 35.427 20.814"><defs><style>.a{fill:#7a8081;}</style></defs><g transform="translate(0 0)"><g transform="translate(0 0)"><path class="a" d="M20.039,96.512H3.876A3.887,3.887,0,0,0,0,100.388V113.45a3.887,3.887,0,0,0,3.876,3.876H20.039a3.887,3.887,0,0,0,3.876-3.876V100.388A3.863,3.863,0,0,0,20.039,96.512Z" transform="translate(0 -96.512)"/></g><g transform="translate(25.853 2.069)"><g transform="translate(0 0)"><path class="a" d="M348.209,123.91a1.974,1.974,0,0,0-.659.271l-6.047,3.488v8.992l6.085,3.488a2.3,2.3,0,0,0,3.178-.853,2.367,2.367,0,0,0,.31-1.163V126.158A2.333,2.333,0,0,0,348.209,123.91Z" transform="translate(-341.504 -123.847)"/></g></g></g></svg>