<svg xmlns="http://www.w3.org/2000/svg" width="42.183" height="31.183" viewBox="0 0 42.183 31.183"><defs><style>.a{fill:#fff;}.b{fill:none;stroke:#fe4f54;stroke-linecap:round;stroke-width:3px;}</style></defs><g transform="translate(-50.407 -16.047)"><g transform="translate(61.001 16.976)"><path class="a" d="M151.617,20a5.183,5.183,0,0,0,3.841-1.631,5.407,5.407,0,0,0,1.6-3.923V5.555a5.406,5.406,0,0,0-1.6-3.923,5.336,5.336,0,0,0-7.682,0,5.406,5.406,0,0,0-1.6,3.923v8.888a5.407,5.407,0,0,0,1.6,3.923A5.183,5.183,0,0,0,151.617,20Z" transform="translate(-141.828)"/><path class="a" d="M92.342,183.047a1.087,1.087,0,0,0-1.852.765v2.175a7.614,7.614,0,0,1-15.228,0v-2.175a1.088,1.088,0,0,0-2.175,0v2.175a9.788,9.788,0,0,0,8.7,9.721v3H78.9v2.2h7.97v-2.2H83.964v-3a9.789,9.789,0,0,0,8.7-9.721v-2.175A1.045,1.045,0,0,0,92.342,183.047Z" transform="translate(-73.087 -171.018)"/></g><line class="b" x2="38" y2="27" transform="translate(52.499 18.139)"/></g></svg>