<svg xmlns="http://www.w3.org/2000/svg" width="64.167" height="63.774" viewBox="0 0 64.167 63.774"><defs><style>.a{fill:#d4e5f9;}</style></defs><g transform="translate(0 -1.568)"><g transform="translate(10.852 60.623)"><rect class="a" width="41.52" height="4.718"/></g><g transform="translate(22.175 22.642)"><path class="a" d="M193.848,169.726H179.3a2.359,2.359,0,1,0,0,4.718h14.548a2.359,2.359,0,1,0,0-4.718Z" transform="translate(-176.941 -169.726)"/></g><g transform="translate(22.175 33.651)"><path class="a" d="M204.857,257.569H179.3a2.359,2.359,0,1,0,0,4.718h25.557a2.359,2.359,0,0,0,0-4.718Z" transform="translate(-176.941 -257.569)"/></g><g transform="translate(0 1.568)"><g transform="translate(0 0)"><path class="a" d="M62.777,1.855a2.361,2.361,0,0,0-2.532.384L53.639,8.083,47.024,2.169a2.358,2.358,0,0,0-3.145,0L37.274,8.076,30.667,2.169a2.357,2.357,0,0,0-3.145,0L20.909,8.083,14.3,2.239A2.359,2.359,0,0,0,10.38,4.006V46H2.359A2.359,2.359,0,0,0,0,48.356V54.1A11.258,11.258,0,0,0,11.245,65.342V60.623A6.534,6.534,0,0,1,4.718,54.1V50.715H41.677V54.1a11.245,11.245,0,1,0,22.49,0V4.005A2.359,2.359,0,0,0,62.777,1.855ZM59.449,54.1a6.527,6.527,0,0,1-13.054,0v-5.74A2.359,2.359,0,0,0,44.036,46H15.1V9.242l4.257,3.766A2.359,2.359,0,0,0,22.49,13L29.1,7.092,35.7,13a2.358,2.358,0,0,0,3.145,0l6.606-5.907L52.058,13a2.36,2.36,0,0,0,3.135.009l4.256-3.765Z" transform="translate(0 -1.568)"/></g></g></g></svg>