<svg xmlns="http://www.w3.org/2000/svg" width="22.502" height="20.93" viewBox="0 0 22.502 20.93"><defs><style>.a{fill:#7f40bd;}</style></defs><path class="a" d="M22.185,20.488H13.338a.317.317,0,0,0-.316.348l.172,1.788a.317.317,0,0,0,.3.286l1.848.1-3.548,4.923L7.924,20.227l2.794-.107a.317.317,0,0,0,.305-.313l.02-1.6a.317.317,0,0,0-.317-.321H.317A.317.317,0,0,0,0,18.2v1.782a.317.317,0,0,0,.313.317l2.941.042,5.593,9.866-.025,6.162-3.889.16a.317.317,0,0,0-.3.311L4.6,38.492a.317.317,0,0,0,.317.323H17.078a.317.317,0,0,0,.317-.334L17.31,36.85a.317.317,0,0,0-.3-.3l-3.346-.175-.487-6,6.006-7.237,2.445-.111a.318.318,0,0,0,.289-.226l.567-1.891a.318.318,0,0,0-.3-.42Z" transform="translate(0 -17.886)"/></svg>